<?xml version="1.0" standalone="no"?>
<!DOCTYPE svg PUBLIC "-//W3C//DTD SVG 20010904//EN"
 "http://www.w3.org/TR/2001/REC-SVG-20010904/DTD/svg10.dtd">
<svg version="1.0" xmlns="http://www.w3.org/2000/svg"
 width="2400.000000pt" height="2400.000000pt" viewBox="0 0 2400.000000 2400.000000"
 preserveAspectRatio="xMidYMid meet">
<metadata>
Created by potrace 1.14, written by Peter Selinger 2001-2017
</metadata>
<g transform="translate(0.000000,2400.000000) scale(0.100000,-0.100000)"
fill="#000000" stroke="none">
<path d="M2971 14918 c-13 -4 -63 -15 -110 -23 -103 -18 -161 -36 -259 -81
-41 -19 -78 -34 -83 -34 -5 0 -9 -4 -9 -10 0 -5 -7 -10 -15 -10 -8 0 -15 -4
-15 -10 0 -5 -6 -10 -14 -10 -8 0 -44 -28 -79 -62 -36 -35 -75 -72 -88 -84
-87 -74 -285 -364 -382 -554 -10 -20 -31 -50 -47 -67 -28 -29 -42 -52 -93
-148 -12 -22 -25 -42 -28 -45 -5 -4 -30 -44 -82 -132 -46 -78 -232 -374 -238
-378 -3 -3 -30 -49 -59 -103 -28 -54 -57 -103 -64 -110 -13 -13 -64 -96 -104
-167 -14 -24 -69 -114 -123 -200 -54 -85 -113 -180 -131 -210 -17 -30 -35 -56
-40 -58 -4 -2 -8 -8 -8 -13 0 -6 -18 -37 -40 -70 -22 -33 -40 -64 -40 -69 0
-5 -3 -10 -7 -12 -5 -1 -17 -19 -27 -38 -11 -19 -40 -66 -64 -105 -25 -38 -43
-70 -41 -70 2 0 -2 -7 -9 -15 -15 -17 -68 -101 -96 -151 -11 -19 -34 -56 -51
-84 -54 -84 -389 -638 -435 -720 -83 -147 -94 -170 -70 -150 13 11 40 38 59
60 73 81 227 233 271 266 25 18 47 37 48 41 2 5 8 8 13 8 6 0 20 9 32 21 50
48 242 165 383 235 84 40 158 74 166 74 7 0 22 6 33 14 11 7 34 16 50 20 17 4
44 14 60 21 88 40 366 123 740 220 170 45 261 70 295 82 8 4 22 7 31 9 9 2 38
13 65 24 27 12 63 23 79 25 37 5 229 59 270 76 17 7 32 13 35 13 6 1 67 24 95
36 140 59 189 82 305 138 74 37 137 69 140 73 3 3 21 14 40 25 45 25 48 27 95
67 22 18 63 46 90 62 68 39 235 209 320 325 38 52 72 97 75 100 3 3 10 12 15
21 6 10 24 37 40 60 17 24 49 80 70 124 22 44 43 82 48 83 4 2 7 7 7 12 0 5 5
21 12 37 6 15 12 30 13 33 1 3 7 19 14 35 16 38 79 228 85 257 3 13 14 56 25
96 10 40 19 75 19 77 2 21 18 114 21 118 4 4 10 90 12 167 3 85 -11 136 -52
198 -16 24 -29 45 -29 48 0 13 -147 197 -203 254 -88 89 -122 119 -193 167
-63 43 -155 97 -164 96 -3 0 -16 4 -30 9 -14 5 -33 11 -43 13 -9 2 -20 6 -25
8 -4 3 -34 8 -67 12 -105 12 -155 23 -170 35 -13 11 -213 10 -244 -2z"/>
<path d="M12007 14064 c-1 -1 -53 -5 -115 -8 -410 -24 -752 -154 -977 -373
-52 -50 -150 -157 -173 -188 -42 -57 -88 -125 -108 -159 -37 -62 -105 -208
-106 -226 0 -3 -7 -21 -15 -40 -8 -19 -16 -42 -18 -50 -2 -8 -8 -35 -14 -60
-5 -25 -13 -58 -16 -75 -10 -47 -13 -405 -3 -411 4 -3 6 -9 3 -14 -17 -28 80
-336 136 -431 16 -28 29 -52 29 -54 0 -5 62 -98 70 -105 3 -3 21 -26 40 -52
18 -27 37 -48 42 -48 4 0 8 -4 8 -9 0 -11 146 -159 180 -183 14 -10 44 -31 67
-47 47 -34 208 -113 256 -126 4 -2 8 -3 10 -5 2 -2 2 -2 127 -35 52 -14 113
-28 135 -30 22 -3 51 -7 64 -10 172 -33 642 -34 816 -1 11 2 45 7 75 12 30 4
57 8 60 9 3 0 28 4 55 9 73 11 125 28 126 40 3 39 10 95 26 191 3 22 7 47 8
55 1 8 5 34 9 58 3 23 8 61 12 85 7 56 24 167 30 194 4 22 4 22 -43 7 -27 -9
-57 -20 -68 -24 -43 -19 -298 -76 -390 -87 -76 -10 -345 -10 -406 -1 -26 4
-67 12 -90 18 -24 7 -51 14 -60 15 -38 7 -175 77 -233 119 -52 37 -129 112
-154 152 -26 39 -33 52 -44 74 -6 14 -12 27 -13 30 -5 14 -18 47 -25 65 -12
26 -27 87 -37 150 -9 57 -9 337 0 375 4 14 12 48 18 75 49 208 197 348 460
434 64 21 83 26 144 36 17 3 37 8 45 10 45 13 313 27 332 18 4 -2 51 -6 105
-9 143 -6 257 -20 278 -32 6 -4 17 -7 25 -9 8 -1 43 -7 77 -14 62 -11 80 -10
76 3 -2 4 -6 31 -9 60 -7 58 -8 65 -17 123 -4 22 -9 60 -12 85 -3 25 -8 52
-10 60 -2 8 -6 38 -10 65 -3 28 -8 61 -10 75 -3 14 -7 41 -9 61 -5 56 -16 79
-37 80 -10 1 -22 2 -26 3 -60 15 -82 19 -103 21 -14 1 -34 5 -45 8 -11 3 -40
9 -65 12 -24 4 -47 8 -50 10 -15 9 -424 27 -433 19z"/>
<path d="M18806 13843 c1 -120 2 -220 3 -223 0 -3 170 -5 376 -5 l375 0 0 40
c1 71 1 369 1 388 -1 16 -26 17 -379 17 l-377 0 1 -217z"/>
<path d="M8311 14015 c-4 -5 -15 -26 -23 -45 -9 -19 -32 -69 -51 -110 -19 -41
-45 -97 -57 -125 -13 -27 -36 -79 -53 -115 -16 -36 -54 -119 -84 -185 -30 -66
-63 -138 -73 -160 -72 -154 -112 -240 -131 -287 -13 -29 -25 -55 -28 -58 -4
-3 -7 -9 -8 -15 -1 -5 -22 -53 -46 -105 -25 -52 -55 -117 -67 -145 -12 -27
-42 -92 -66 -143 -24 -51 -44 -95 -44 -97 0 -2 -20 -46 -43 -97 -24 -51 -56
-120 -71 -153 -15 -33 -39 -85 -53 -115 -14 -30 -35 -77 -48 -105 -13 -27 -39
-85 -59 -127 -20 -42 -36 -78 -36 -81 0 -2 -25 -58 -55 -123 -96 -204 -125
-269 -125 -276 0 -1 197 -3 437 -2 l437 1 35 89 c19 49 38 91 41 94 3 3 7 14
8 25 2 11 7 25 12 30 4 6 11 21 15 35 4 14 16 45 27 70 27 64 32 76 68 165 17
44 38 96 47 115 8 19 27 64 42 100 l27 65 483 0 c420 0 485 -2 492 -15 4 -8
26 -67 49 -130 23 -63 50 -139 61 -167 10 -29 28 -78 39 -108 11 -30 29 -79
39 -107 11 -29 36 -99 57 -155 25 -70 42 -103 53 -104 64 -4 824 -3 839 1 18
5 11 26 -77 240 -53 129 -99 240 -102 245 -9 15 -33 89 -30 94 2 2 -1 7 -6 10
-5 3 -26 49 -47 101 -21 52 -43 109 -51 125 -7 17 -27 66 -45 110 -18 44 -38
94 -45 110 -7 17 -48 116 -90 220 -42 105 -83 204 -90 220 -36 83 -79 190 -77
193 2 1 -4 15 -11 30 -21 39 -27 55 -117 277 -45 110 -87 214 -95 230 -7 17
-43 104 -80 195 -36 91 -72 179 -79 195 -8 17 -17 40 -21 53 -4 13 -15 22 -28
23 -141 7 -990 2 -996 -6z m538 -668 c13 -39 32 -90 42 -111 11 -22 19 -45 19
-50 0 -6 16 -52 35 -101 20 -50 35 -90 35 -90 -2 0 11 -37 20 -60 4 -11 19
-51 33 -90 14 -38 33 -89 41 -113 9 -23 16 -46 16 -51 0 -4 -139 -8 -310 -8
-170 0 -310 2 -310 4 0 2 13 32 29 66 16 34 30 67 31 72 1 6 11 22 21 37 10
14 19 31 19 38 0 7 7 24 15 38 27 50 125 265 131 289 4 13 9 23 13 23 5 0 29
46 35 70 6 20 51 110 55 110 3 0 17 -33 30 -73z"/>
<path d="M14050 12685 l0 -1340 398 2 c218 0 408 1 422 2 l25 1 -1 1333 c-1
732 -2 1334 -3 1337 0 3 -190 5 -421 5 l-420 0 0 -1340z"/>
<path d="M15771 14013 c-6 -7 -11 -14 -11 -17 0 -3 -66 -106 -147 -228 -406
-618 -531 -808 -591 -903 -25 -38 -48 -72 -51 -75 -3 -3 -13 -18 -23 -35 -16
-28 -15 -31 5 -60 12 -16 25 -31 29 -33 4 -2 8 -8 8 -13 0 -5 63 -104 140
-219 77 -115 140 -214 140 -219 0 -5 4 -11 8 -13 11 -4 192 -276 192 -288 0
-5 3 -10 8 -12 7 -3 164 -234 171 -253 2 -5 7 -12 10 -15 4 -3 22 -30 41 -60
19 -30 40 -61 48 -68 7 -8 20 -28 29 -45 16 -32 62 -98 74 -107 10 -7 983 -5
989 2 4 4 -435 597 -558 753 -4 6 -18 26 -32 45 -13 19 -27 37 -30 40 -3 3
-29 37 -57 75 -29 39 -56 75 -61 80 -4 6 -50 66 -102 135 -52 69 -97 127 -102
128 -4 2 -8 10 -8 17 0 7 -3 15 -8 17 -4 2 -22 23 -39 47 -21 28 -29 47 -23
55 28 34 59 76 85 116 17 25 32 47 36 50 3 3 30 41 60 85 30 44 58 85 62 90 4
6 37 51 72 100 35 50 69 95 75 102 5 7 10 15 10 18 0 5 19 32 63 90 13 18 100
142 182 259 44 64 83 116 88 116 4 0 7 4 7 10 0 12 74 119 131 188 5 6 6 12 2
12 -4 0 -3 4 4 8 6 4 13 14 15 21 3 12 -67 15 -463 15 -352 1 -469 -2 -478
-11z"/>
<path d="M20065 14020 c-2 -3 -3 -606 -3 -1340 l0 -1335 277 2 c152 1 322 2
377 2 l102 1 0 1338 0 1337 -375 0 c-206 0 -376 -2 -378 -5z"/>
<path d="M18175 13380 c-38 -9 -83 -23 -100 -29 -38 -16 -149 -83 -153 -93 -2
-4 -8 -8 -13 -8 -5 0 -37 -29 -71 -65 -34 -35 -64 -63 -67 -61 -3 2 -5 50 -5
105 1 56 -1 102 -5 102 -28 6 -708 4 -716 -2 -7 -5 -10 -342 -9 -981 1 -535 2
-980 3 -988 1 -13 50 -15 376 -15 243 0 375 4 376 10 0 6 2 235 3 510 1 275 6
516 10 535 4 19 9 44 11 55 2 11 4 20 5 20 1 0 3 8 5 19 6 34 47 120 71 153
38 51 102 89 179 109 83 20 156 23 360 12 49 -3 50 -3 48 27 -5 87 -15 196
-28 326 -6 53 -8 75 -19 203 -3 32 -8 61 -11 64 -13 13 -185 8 -250 -8z"/>
<path d="M22298 13374 c-2 -1 -39 -4 -83 -8 -44 -3 -102 -8 -130 -11 -27 -3
-61 -7 -75 -9 -14 -1 -32 -6 -39 -10 -7 -4 -15 -6 -17 -3 -3 3 -31 -1 -62 -8
-31 -7 -73 -16 -93 -19 -20 -3 -42 -8 -50 -10 -8 -3 -25 -7 -39 -10 -14 -2
-59 -12 -100 -21 -41 -10 -87 -20 -102 -22 -16 -3 -28 -8 -29 -12 0 -3 -2 -15
-4 -26 -3 -20 -12 -90 -19 -150 -8 -68 -18 -144 -26 -205 -6 -36 -10 -79 -10
-97 l0 -32 63 28 c58 27 88 39 112 47 6 2 60 21 120 42 166 58 320 85 475 85
102 0 155 -10 212 -39 72 -37 88 -56 88 -109 0 -61 -33 -93 -150 -143 -31 -13
-176 -59 -210 -66 -94 -20 -316 -81 -416 -115 -245 -82 -333 -130 -411 -225
-7 -8 -13 -18 -13 -21 0 -3 -11 -23 -25 -43 -31 -47 -65 -141 -73 -202 -25
-190 25 -337 158 -471 103 -103 198 -142 430 -178 65 -10 490 -9 506 1 11 7
40 124 33 131 -2 2 2 11 10 20 7 10 11 17 8 17 -3 0 3 32 13 70 10 39 16 70
14 70 -3 0 0 8 5 18 6 11 13 40 16 65 l7 47 -28 -10 c-58 -22 -203 -31 -264
-16 -107 26 -155 121 -112 219 27 61 81 98 189 132 49 15 97 31 108 36 11 4
56 20 99 35 44 15 99 37 123 51 l43 24 1 -53 c0 -29 0 -225 0 -435 l0 -383
107 -1 c179 0 626 -1 639 0 10 1 12 163 10 784 -2 660 -5 787 -17 817 -8 19
-19 38 -23 41 -5 3 -9 10 -8 15 0 5 -10 25 -22 44 -12 19 -23 39 -26 44 -6 14
-94 100 -131 128 -80 60 -227 116 -350 132 -25 3 -58 9 -75 12 -29 5 -352 13
-357 8z"/>
<path d="M18809 13325 c-1 -5 -2 -452 -3 -992 l-1 -983 65 -1 c223 -2 683 1
687 5 3 2 5 449 5 993 l0 988 -376 0 c-247 0 -376 -3 -377 -10z"/>
<path d="M5348 12223 c-10 -2 -18 -11 -18 -19 0 -25 -78 -182 -125 -253 -61
-91 -178 -212 -260 -268 -46 -31 -161 -90 -203 -104 -20 -6 -41 -15 -47 -19
-9 -7 -179 -52 -245 -65 -125 -25 -322 -44 -525 -50 -522 -18 -696 -26 -800
-40 -140 -19 -167 -23 -270 -46 -110 -25 -106 -24 -130 -34 -11 -4 -56 -21
-99 -38 -166 -63 -356 -182 -521 -327 -62 -54 -307 -303 -335 -340 -14 -19
-30 -38 -36 -44 -42 -43 -264 -358 -264 -375 0 -5 -4 -11 -8 -13 -8 -3 -153
-244 -212 -353 -18 -33 -69 -132 -112 -220 -44 -88 -83 -167 -88 -176 -5 -9
-26 -58 -48 -110 -38 -90 -46 -114 -77 -220 l-13 -47 67 -1 c37 0 92 6 123 14
31 8 67 16 80 19 48 9 170 60 195 81 6 6 34 24 62 40 28 17 51 33 51 38 0 4 4
7 10 7 9 0 31 16 64 45 6 6 40 33 76 60 36 28 70 55 77 60 7 6 18 15 25 20 7
6 40 31 73 55 33 24 65 48 70 52 27 23 225 157 225 152 0 -3 10 4 22 16 12 11
28 20 35 20 7 0 13 3 13 8 0 4 9 12 19 17 11 6 75 42 143 82 68 39 155 86 193
105 39 18 72 36 73 41 2 4 8 7 13 7 5 0 55 20 112 44 56 24 136 53 177 65 41
12 100 32 130 44 38 15 79 22 135 23 44 0 85 3 90 5 16 5 143 -11 212 -27 125
-29 359 -123 407 -163 10 -9 21 -15 25 -14 8 3 155 -89 159 -99 2 -4 8 -8 13
-8 5 0 37 -21 71 -46 35 -25 72 -52 83 -60 186 -136 425 -296 510 -341 84 -46
391 -194 444 -215 132 -52 378 -66 510 -28 17 5 31 6 31 3 0 -3 6 -1 13 4 6 6
26 14 42 18 17 5 32 9 35 10 28 7 110 49 110 56 0 5 7 9 14 9 32 0 175 121
261 221 67 77 160 235 170 289 2 11 6 24 9 28 2 4 7 32 11 62 3 30 10 73 15
95 19 84 24 144 24 260 -1 137 -5 163 -44 300 -11 39 -117 265 -129 275 -11 9
-71 111 -71 121 0 5 -4 9 -10 9 -5 0 -10 4 -10 9 0 5 -27 49 -60 99 -33 49
-60 94 -60 100 0 6 -4 12 -9 14 -9 3 -65 94 -186 298 -37 63 -78 124 -89 135
-12 11 -48 67 -79 125 -93 171 -256 443 -269 448 -4 2 -8 8 -8 13 0 11 -32 49
-40 48 -3 -1 -13 -3 -22 -6z"/>
<path d="M17390 10996 c-1 -76 -1 -1084 0 -1108 0 -14 9 -18 40 -18 l40 0 0
168 1 167 34 38 c20 20 39 37 44 37 5 0 24 -19 43 -42 36 -47 34 -45 79 -103
66 -85 75 -97 90 -116 10 -11 39 -49 65 -84 48 -64 50 -65 98 -65 37 0 46 3
39 13 -5 6 -25 32 -44 57 -19 24 -38 50 -44 56 -5 6 -21 26 -35 44 -14 18 -30
38 -35 44 -6 6 -35 44 -65 84 -30 39 -58 72 -62 72 -5 0 -8 5 -8 12 0 7 -14
26 -31 44 -22 23 -29 36 -23 47 5 9 76 85 159 169 l150 153 -47 3 c-44 3 -48
1 -99 -54 -30 -31 -92 -95 -137 -143 -46 -47 -102 -108 -125 -134 l-42 -48 -5
383 -5 383 -37 1 -38 1 0 -61z"/>
<path d="M19319 11050 c-1 -3 -2 -270 -3 -593 l-1 -588 40 3 40 3 0 575 c1
316 -1 582 -3 591 -3 12 -14 16 -38 16 -19 -1 -35 -4 -35 -7z"/>
<path d="M18856 10954 c-9 -8 -17 -18 -17 -22 -8 -45 -5 -62 12 -81 22 -24 37
-26 73 -10 27 13 37 37 30 76 -9 48 -66 70 -98 37z"/>
<path d="M15807 10683 c-3 -2 -13 -6 -24 -8 -10 -2 -19 -4 -20 -5 -2 -2 -7 -3
-11 -4 -4 0 -27 -10 -50 -20 -35 -16 -41 -23 -36 -40 11 -36 21 -39 66 -18 86
42 185 45 257 10 37 -18 51 -34 72 -76 28 -59 39 -152 17 -153 -168 -8 -252
-25 -334 -67 -223 -114 -167 -443 76 -445 103 -1 167 22 231 83 23 22 44 39
45 37 2 -2 5 -23 8 -48 2 -24 5 -47 5 -51 1 -5 17 -8 36 -8 l35 0 -4 52 c-3
29 -6 161 -7 293 -2 259 -9 305 -60 379 -24 35 -86 78 -124 85 -33 6 -173 10
-178 4z m280 -490 c-3 -87 -8 -116 -25 -150 -41 -79 -125 -123 -226 -119 -104
5 -153 59 -150 167 3 131 110 199 329 207 l75 2 -3 -107z"/>
<path d="M16769 10675 c-112 -29 -204 -106 -253 -210 -32 -66 -37 -91 -41
-191 -8 -184 80 -332 235 -395 71 -28 207 -31 295 -5 80 24 86 29 72 67 -8 21
-16 27 -27 23 -68 -30 -104 -37 -175 -37 -44 1 -87 3 -95 5 -85 24 -158 89
-197 174 -23 51 -26 72 -26 154 1 117 2 123 38 195 72 141 234 199 406 145 35
-10 64 -18 65 -17 1 1 7 13 14 26 11 22 10 27 -10 40 -12 8 -28 16 -34 18 -6
1 -22 5 -36 9 -44 12 -184 11 -231 -1z"/>
<path d="M18472 10677 c-46 -14 -118 -80 -138 -127 -10 -22 -20 -37 -22 -35
-3 3 -5 39 -4 80 l1 75 -37 0 -37 0 1 -262 c1 -145 3 -267 4 -273 1 -5 1 -13
0 -17 -5 -19 -3 -115 3 -124 3 -6 2 -15 -2 -22 -8 -13 -5 -77 4 -92 3 -6 23
-10 43 -10 37 0 37 0 36 40 -1 22 -4 43 -6 46 -3 3 -2 21 2 40 5 19 4 37 -1
40 -5 3 -7 9 -4 13 4 8 9 128 5 146 -1 6 -2 14 -1 19 1 5 4 53 5 105 3 76 8
107 28 151 42 92 105 140 186 140 38 0 38 0 37 38 -1 35 -2 37 -35 38 -19 1
-50 -3 -68 -9z"/>
<path d="M19900 10679 c-19 -5 -57 -19 -83 -31 -43 -20 -48 -25 -42 -47 9 -36
12 -37 48 -19 49 25 96 37 160 41 124 7 207 -72 210 -199 l2 -57 -75 -3 c-71
-3 -86 -5 -153 -19 -112 -23 -208 -93 -241 -177 -17 -45 -15 -152 4 -188 45
-86 110 -123 216 -123 86 0 168 33 222 89 19 19 36 34 37 32 2 -2 6 -25 8 -53
3 -27 6 -51 6 -52 1 -2 17 -3 36 -3 l35 0 -6 68 c-3 37 -7 73 -9 80 -3 6 -1
12 4 12 4 0 5 21 1 47 -4 26 -4 59 0 74 5 15 6 29 4 32 -3 2 -6 67 -9 143 -4
152 -5 162 -30 220 -20 49 -59 90 -110 117 -45 23 -174 32 -235 16z m295 -487
c-1 -117 -11 -147 -65 -202 -68 -69 -201 -89 -273 -40 -42 29 -56 56 -64 122
-10 80 39 155 123 189 45 19 143 35 214 37 l66 1 -1 -107z"/>
<path d="M21284 10677 c-28 -7 -58 -17 -65 -23 -8 -6 -28 -16 -46 -23 -38 -15
-115 -97 -142 -149 -57 -112 -65 -284 -20 -395 25 -60 95 -156 116 -157 6 0
13 -3 15 -7 5 -14 91 -52 135 -62 57 -12 158 -6 235 14 76 19 82 24 73 63 l-6
30 -57 -21 c-82 -29 -209 -29 -277 2 -48 21 -145 111 -145 135 0 6 -7 25 -16
41 -24 43 -28 198 -8 266 38 126 134 212 249 224 57 6 70 7 75 5 3 -1 23 -3
45 -4 22 -2 58 -11 79 -20 37 -15 40 -15 55 2 9 10 17 23 19 30 2 12 -47 38
-92 49 -47 11 -175 11 -222 0z"/>
<path d="M22093 10670 c-131 -46 -218 -152 -248 -299 -12 -62 -13 -160 -2
-206 3 -11 8 -33 12 -50 18 -72 116 -205 151 -205 8 0 14 -4 14 -9 0 -16 115
-45 180 -46 77 0 137 17 205 60 45 28 137 125 119 125 -4 0 0 8 9 18 9 10 18
27 20 38 1 10 5 24 9 29 18 31 27 181 13 246 -28 138 -118 255 -225 294 -76
27 -190 29 -257 5z m198 -61 c139 -35 238 -235 204 -412 -8 -39 -35 -117 -45
-131 -73 -94 -136 -135 -220 -142 -28 -2 -54 -5 -58 -6 -10 -2 -39 9 -89 34
-127 62 -195 239 -159 418 17 85 75 172 143 217 55 36 135 44 224 22z"/>
<path d="M23150 10682 c-61 -17 -99 -45 -156 -117 l-24 -30 -1 40 c-1 22 0 52
1 66 1 20 -4 27 -22 31 -57 10 -54 32 -53 -400 l2 -397 39 -3 40 -3 0 257 c-1
282 5 330 51 392 37 49 50 59 102 84 52 24 104 25 156 4 46 -19 71 -47 98
-106 20 -42 21 -64 22 -335 l1 -290 41 -3 40 -3 0 269 c1 276 4 318 31 362 69
111 183 151 285 100 91 -46 115 -124 113 -373 0 -97 3 -177 7 -177 5 0 6 -4 3
-9 -3 -5 -6 -35 -7 -67 -2 -103 -4 -100 42 -102 l40 -3 -4 288 c-2 158 -7 304
-12 323 -27 127 -134 214 -259 209 -66 -3 -126 -17 -126 -31 0 -4 -6 -8 -12
-8 -13 0 -88 -64 -88 -75 0 -3 -7 -17 -16 -31 l-17 -25 -24 43 c-27 47 -40 61
-92 97 -26 19 -49 25 -105 27 -39 2 -82 0 -96 -4z"/>
<path d="M12627 10672 c-25 -2 -37 -8 -34 -15 2 -7 12 -39 22 -72 10 -33 21
-69 25 -80 4 -11 13 -40 20 -65 7 -25 16 -54 20 -65 5 -11 20 -58 34 -105 13
-47 38 -130 56 -185 37 -118 34 -107 50 -167 12 -46 14 -48 49 -48 l36 0 55
153 c30 83 55 154 56 157 0 3 5 16 11 30 6 14 34 97 63 185 29 88 55 167 58
175 3 9 8 2 15 -20 20 -72 108 -336 117 -352 6 -10 10 -26 10 -36 0 -10 3 -22
8 -26 4 -4 8 -12 8 -17 1 -5 2 -10 4 -11 1 -2 3 -10 5 -18 2 -8 19 -60 38
-115 34 -100 34 -100 69 -103 l35 -3 117 353 c65 194 120 360 123 368 4 8 7
18 7 22 1 3 4 10 9 14 4 4 7 16 7 26 0 14 -8 18 -40 18 -22 0 -40 -2 -40 -4 0
-2 -16 -55 -36 -118 -20 -62 -49 -158 -65 -213 -16 -55 -34 -109 -38 -120 -13
-29 -64 -197 -66 -217 -3 -31 -14 -31 -21 -2 -9 44 -85 288 -92 299 -4 6 -7
12 -7 15 -4 19 -30 97 -36 105 -4 6 -10 22 -12 35 -3 14 -14 50 -25 80 -12 30
-26 74 -32 98 -11 43 -11 43 -53 40 -40 -3 -42 -5 -60 -53 -10 -27 -20 -57
-22 -65 -2 -8 -27 -80 -55 -160 -29 -80 -73 -208 -98 -284 -48 -148 -50 -149
-68 -56 -2 14 -9 36 -14 50 -7 21 -23 74 -36 125 -1 6 -17 57 -34 114 -17 57
-33 111 -35 120 -2 9 -19 61 -37 116 l-33 100 -38 -3z"/>
<path d="M14438 10651 c-17 -45 -90 -256 -92 -266 -1 -5 -4 -14 -7 -20 -6 -9
-29 -74 -36 -100 -1 -5 -25 -75 -52 -154 l-49 -145 -12 45 c-6 24 -18 67 -26
94 -8 28 -17 59 -19 70 -2 11 -4 20 -5 20 -1 0 -4 9 -6 20 -6 24 -9 36 -17 55
-6 14 -48 156 -67 225 -5 17 -18 61 -29 100 -12 38 -21 71 -21 72 0 2 -18 3
-40 3 -22 0 -40 -2 -40 -5 0 -3 27 -94 61 -203 33 -108 62 -204 64 -212 2 -8
29 -95 59 -194 31 -98 56 -180 56 -182 0 -9 69 -3 75 6 9 14 110 302 172 490
80 240 72 227 93 150 9 -36 52 -166 94 -290 43 -124 79 -229 80 -235 2 -5 5
-17 8 -25 3 -8 12 -33 20 -55 12 -35 18 -40 48 -43 l35 -3 59 178 c33 98 61
183 62 188 2 6 34 104 73 220 39 115 71 211 71 212 0 2 -18 3 -39 3 l-39 0
-30 -92 c-17 -51 -51 -160 -77 -243 -25 -82 -48 -156 -50 -163 -3 -7 -5 -14
-5 -17 0 -3 -6 -21 -14 -40 -8 -19 -13 -35 -10 -35 3 0 0 -8 -5 -19 -6 -10
-13 -33 -16 -52 -3 -18 -7 -35 -9 -37 -2 -1 -13 30 -26 70 -12 40 -64 197
-115 348 l-92 275 -37 6 c-34 5 -39 3 -48 -20z"/>
<path d="M11277 10623 c8 -27 30 -97 48 -158 19 -60 45 -146 59 -190 14 -44
25 -80 25 -80 -1 0 13 -45 30 -100 17 -55 31 -102 32 -105 0 -3 8 -30 18 -60
17 -52 20 -55 53 -58 34 -3 37 -1 51 40 8 24 32 88 52 143 20 55 37 105 38
110 2 6 5 15 8 20 4 6 19 48 34 95 15 47 32 91 38 98 5 6 7 12 3 12 -3 0 3 24
14 53 10 28 24 74 31 101 l12 49 15 -49 c15 -50 126 -387 190 -572 l35 -103
35 3 35 3 132 398 133 397 -42 0 -42 0 -28 -97 c-16 -54 -32 -102 -35 -108 -3
-5 -6 -14 -6 -20 -1 -5 -4 -17 -7 -25 -23 -54 -131 -415 -131 -437 0 -20 -17
-15 -17 4 0 18 -6 38 -44 148 -13 39 -24 72 -24 75 0 3 -3 12 -6 20 -3 8 -26
76 -52 150 -25 74 -49 146 -51 160 -3 14 -9 30 -13 35 -3 6 -13 29 -20 53 -13
42 -14 43 -53 40 l-39 -3 -29 -85 c-16 -47 -32 -92 -36 -100 -8 -19 -8 -19
-18 -55 -4 -16 -10 -34 -14 -40 -3 -5 -6 -14 -8 -20 -4 -21 -133 -388 -137
-392 -2 -2 -8 15 -12 39 -10 55 -7 44 -28 113 -10 33 -19 65 -21 70 -1 6 -4
17 -7 25 -15 39 -48 157 -48 168 0 7 -4 20 -9 30 -10 18 -38 112 -45 149 -3
12 -9 31 -15 42 -6 11 -11 29 -11 40 0 18 -6 21 -44 21 l-44 0 15 -47z"/>
<path d="M18857 10663 c-2 -5 -3 -183 -3 -398 l1 -390 40 -3 40 -3 0 401 0
400 -37 0 c-20 0 -39 -3 -41 -7z"/>
<path d="M15273 9998 c-53 -14 -65 -91 -21 -130 38 -33 98 -6 104 47 6 59 -31
97 -83 83z"/>
<path d="M20637 9993 c-17 -9 -28 -25 -33 -47 -8 -46 1 -71 32 -84 36 -17 48
-15 71 11 59 63 3 159 -70 120z"/>
</g>
</svg>
