<?xml version="1.0" encoding="UTF-8"?>
<!DOCTYPE svg PUBLIC "-//W3C//DTD SVG 1.1//EN" "http://www.w3.org/Graphics/SVG/1.1/DTD/svg11.dtd">
<!-- Creator: CorelDRAW 2020 (64-Bit) -->
<svg xmlns="http://www.w3.org/2000/svg" xml:space="preserve" width="38.7283mm" height="22.071mm" version="1.1" style="shape-rendering:geometricPrecision; text-rendering:geometricPrecision; image-rendering:optimizeQuality; fill-rule:evenodd; clip-rule:evenodd"
viewBox="0 0 625.6 356.53"
 xmlns:xlink="http://www.w3.org/1999/xlink"
 xmlns:xodm="http://www.corel.com/coreldraw/odm/2003">
 <defs>
  <style type="text/css">
   <![CDATA[
    .fil0 {fill:#040707}
    .fil1 {fill:white}
   ]]>
  </style>
 </defs>
 <g id="Layer_x0020_1">
  <metadata id="CorelCorpID_0Corel-Layer"/>
  <g id="_1899585611344">
   <path class="fil0" d="M440.54 213.28c7.52,-4.57 15.67,-8.22 22.64,-14.84 2.99,-2.85 5.89,-6.88 8.42,-11.42 2.1,-3.78 5.12,-13.35 6.27,-13.69l142.42 0.12 0 41.08 -181.43 0 1.68 -1.25zm-412.45 -26.78c35.2,-45.4 69.87,-92.45 105.1,-138.02 12.86,-16.63 29.37,-43.69 53.01,-44.13 7.55,-0.14 14.2,2.56 19.08,5.73 3.52,2.28 9.71,8.21 12.55,11.71 1.04,1.29 1.89,1.93 2.99,3.17l5.74 6.62c3.48,3.7 10.12,12.41 13.29,16.71l41.89 55.19c14.21,18.55 27.9,36.7 42.07,55.44 3.49,4.62 39.88,51.64 41.51,55.54l-358.31 0 21.07 -27.95zm283.87 -51.03c30.3,0 61.3,-0.28 90.91,0.42 17.08,0.41 16.79,21.51 10.92,27.73 -3.94,4.18 -10.35,4.5 -18.44,4.5 -4.26,0 -7.24,0.47 -11.02,0.45 -7.18,-0.04 -40.38,0.25 -45.36,-0.54 -2.6,-0.41 -4.16,-2.16 -5.64,-4.06 -1.6,-2.05 -2.83,-3.7 -4.46,-5.69l-16.9 -22.81zm-63.54 -83.84c40.45,0 80.89,0.01 121.34,0 5.31,-0 9.11,0.44 14.56,0.44 5,0 10,0 15,0 6.17,-0 8.46,0.07 12.45,2.55 7.19,4.45 9.56,25.38 -5.37,29.25 -4.02,1.04 -9.78,-0.1 -14.46,0.54 -6.24,0.85 -76.65,0.32 -91.46,0.32 -4.6,0 -7.62,-0.46 -11.91,-0.44 -3.83,0.01 -8.15,0.18 -11.93,0.01 -4.93,-0.21 -7.19,-4.15 -10.07,-8.02 -3.3,-4.42 -16.09,-20.71 -18.16,-24.65zm228.99 -3.89c-1.69,-10.07 -10.13,-21.63 -15.26,-26.28 -12.66,-11.51 -21.54,-12.73 -25.82,-15.72 7.47,-0.49 16.27,-0.09 23.89,-0.09l153.11 -0c4.23,-0.02 7.06,-0.26 7.06,4.5l0 53.12 -46.77 0c-6.58,0 -4.21,-6.08 -5.44,-15.53l-90.77 -0zm-477.41 171.56l607.59 0.44c1.86,0 2.45,-0.32 3.57,-0.35 2.62,-0.08 10.73,2.43 13.65,-4.93 1.47,-3.69 0.43,-8.11 0.43,-12.81l0 -14.12c0,-9.22 3.08,-17.16 -8.68,-19.11 -2.44,-0.41 -11.01,-0.58 -14.07,-0.11 -5.05,0.76 -111.27,0.26 -124.18,0.26 0,-15.22 2.25,-25.14 -3.14,-41.42 -2.6,-7.85 -5.45,-11.41 -10.53,-17.26 2.91,-4.35 9.67,-7.68 12.54,-23.2 1.46,-7.91 1.15,-17.15 1.14,-25.78 -0.01,-3.63 0.44,-5.55 0.44,-8.82l84.72 0c0,9.2 0.88,16.17 10.13,16.34 4.48,0.08 7.98,0.59 12.83,0.44l24.51 -0.27c6.05,0.92 14.31,0.17 14.31,-7.69l0 -52.07c0,-2 -0.42,-4.06 -1.25,-5.37 -2.59,-4.1 -10.98,-3.01 -16.84,-3.01l-386.53 0c-4.93,0 -8.83,-0.47 -13.23,-0.44 -21.54,0.11 -31.02,-0.66 -44.49,8.47 -7.26,4.92 -12.24,11.95 -16.74,16.35l-9.19 11.11c-3.91,5.22 -7.5,9.84 -11.41,15.06l-11.62 15.29c-5.6,6.77 -16.88,22.24 -22.98,30.41l-74.57 98.84c-1.01,1.34 -1.8,2.39 -2.84,3.78 -1.06,1.43 -1.93,2.32 -2.88,3.73 -1.96,2.89 -10.16,14.08 -10.67,16.25z"/>
   <path class="fil1" d="M183.47 62.58c1.04,-1.35 1.51,-2.29 2.73,-3.48l43.52 56.66c1.45,1.9 41.75,54.47 42.91,56.77l-172.96 -0 83.79 -109.95zm-176.45 151.87l358.31 0c-1.62,-3.9 -38.01,-50.92 -41.51,-55.54 -14.17,-18.74 -27.86,-36.89 -42.07,-55.44l-41.89 -55.19c-3.17,-4.3 -9.81,-13.01 -13.29,-16.71l-5.74 -6.62c-1.1,-1.24 -1.95,-1.88 -2.99,-3.17 -2.84,-3.5 -9.03,-9.43 -12.55,-11.71 -4.88,-3.16 -11.53,-5.87 -19.08,-5.73 -23.64,0.44 -40.15,27.5 -53.01,44.13 -35.23,45.57 -69.9,92.62 -105.1,138.02l-21.07 27.95z"/>
   <path class="fil0" d="M131.93 333.14l-99.28 0 0 -22.5 98.4 0c5.71,0 11.03,4.68 11.03,10.15 0,3.8 0.19,5.92 -3.4,9.4 -1.46,1.42 -4.07,2.96 -6.75,2.96zm-125.75 -90.9l0 21.18c0,1.7 1.41,1.37 3.05,1.36l123.99 0c4.07,0.47 8.87,5.05 8.87,9.67l0 2.65c0,5.65 -5.67,10.15 -11.47,10.15l-124.43 0 0 69.27 133.7 0c5.37,0 11.8,-2.79 15.83,-5.79l2.84 -2.46c11.35,-10.38 12.31,-26.11 6.99,-39.48 -1.38,-3.48 -5.26,-8.79 -8.9,-9.64l0 -0.88c7.95,-1.85 11.91,-15.43 11.91,-23.83 0,-19.88 -13.44,-33.53 -33.09,-33.53l-127.96 0c-1.02,0 -1.32,0.31 -1.32,1.32z"/>
   <path class="fil0" d="M454.92 274.02l0 79.87 26.47 0c2.16,0 1.32,-4.51 1.32,-8.82l0 -71.48c1.64,0.44 3.05,1.75 4.35,2.71l29.25 21.49c5.55,4.16 10.8,8.1 16.39,12.29 5.67,4.25 11.07,8.19 16.7,12.42l24.84 18.41c8.19,6.19 30.38,21.36 39.1,9.03 1.79,-2.54 3.51,-6.68 3.51,-11.05l0 -98.4 -27.36 0c-2.14,0 -1.32,4.16 -1.32,8.38l0 69.72 -84.65 -62.72c-14.9,-11.18 -18.98,-16.26 -37.13,-16.26 -1.93,0 -4.76,1.06 -6.26,2.12l-1.21 1c-6.54,6.19 -4,21.3 -4,31.3z"/>
   <path class="fil0" d="M311.96 331.38c-11.51,0 -30.98,-1.83 -41.18,-6.91 -19,-9.45 -18.69,-38.54 -5.71,-51.01 10.38,-9.97 38.29,-12.5 53.05,-11.33 8.36,0.66 20.54,3.23 27.2,5.89 8.01,3.2 12.9,8.81 15.58,17.08 2.57,7.94 2.39,19.7 -1.86,27.61 -7.1,13.21 -18.25,15.07 -31.93,17.05 -4.27,0.62 -10.31,1.63 -15.14,1.63zm-84.28 -36.18c0,12.47 0.82,21.27 6.02,31.48 3.75,7.36 9.15,12.44 15.95,16.7 10.2,6.4 36.96,11.38 53.92,11.38 16.49,0 24.21,0.06 40.85,-3.27 17.76,-3.55 32.68,-8.72 40.93,-25.26 4.15,-8.33 5.58,-18.64 5.58,-27.95 0,-9.37 -1.55,-21.33 -5.17,-29.69 -8.36,-19.36 -25.17,-22.31 -45.21,-24.5 -27.07,-2.96 -36.91,-3.14 -63.87,-0.04 -9.28,1.07 -18.73,1.99 -26.77,6.77 -8.87,5.27 -15.38,12.98 -18.67,22.81 -2.25,6.72 -3.58,13.91 -3.58,21.57z"/>
   <path class="fil1" d="M477.41 47.74l90.77 0c1.23,9.45 -1.14,15.53 5.44,15.53l46.77 0 0 -53.12c0,-4.76 -2.83,-4.52 -7.06,-4.5l-153.11 0c-7.62,0 -16.41,-0.4 -23.89,0.09 4.28,2.99 13.16,4.2 25.82,15.72 5.12,4.66 13.56,16.22 15.26,26.28z"/>
   <path class="fil1" d="M438.85 214.53l181.43 -0 0 -41.08 -142.42 -0.12c-1.15,0.33 -4.16,9.91 -6.27,13.69 -2.53,4.54 -5.43,8.57 -8.42,11.42 -6.97,6.62 -15.11,10.28 -22.64,14.84l-1.68 1.25z"/>
   <path class="fil0" d="M186.2 66.63c1.28,0.86 3.83,4.52 4.98,6.05 15.76,20.99 32.49,42.18 48.1,63.1l19.23 25.34c1.77,2.21 3.35,4.22 4.92,6.56l-154.44 0c4.5,-6.72 18.32,-23.98 24.02,-31.58 14.18,-18.92 29.3,-37.93 43.37,-56.79l9.83 -12.67zm-86.52 105.89l172.96 0c-1.16,-2.3 -41.46,-54.86 -42.91,-56.77l-43.52 -56.66c-1.23,1.19 -1.69,2.12 -2.73,3.48l-83.79 109.95z"/>
  </g>
 </g>
</svg>
