<?xml version="1.0" encoding="UTF-8"?>
<!DOCTYPE svg PUBLIC "-//W3C//DTD SVG 1.1//EN" "http://www.w3.org/Graphics/SVG/1.1/DTD/svg11.dtd">
<!-- Creator: CorelDRAW 2020 (64-Bit) -->
<svg xmlns="http://www.w3.org/2000/svg" xml:space="preserve" width="57.5318mm" height="14.8743mm" version="1.1" style="shape-rendering:geometricPrecision; text-rendering:geometricPrecision; image-rendering:optimizeQuality; fill-rule:evenodd; clip-rule:evenodd"
viewBox="0 0 3960.7 1024"
 xmlns:xlink="http://www.w3.org/1999/xlink"
 xmlns:xodm="http://www.corel.com/coreldraw/odm/2003">
 <defs>
  <style type="text/css">
   <![CDATA[
    .fil1 {fill:navy}
    .fil0 {fill:#FECC00}
   ]]>
  </style>
 </defs>
 <g id="Layer_x0020_1">
  <metadata id="CorelCorpID_0Corel-Layer"/>
  <g id="_1934874939168">
   <path class="fil0" d="M68.38 886l2517.66 0c7.29,-1.62 23.49,-40.97 26.64,-47.33 7.37,-14.92 19.65,-36.3 24.52,-50.68l-2516.81 -0.43c-6.76,0 -8.59,9.67 -14.61,21.69 -8.76,17.51 -33.49,64.36 -37.4,76.75z"/>
   <path class="fil0" d="M136.68 748.7l2521.27 0.43 48.04 -98.07 -2518.16 -0.25c-6.18,1.48 -22.75,39.81 -26.52,47.35 -7.35,14.71 -19.87,36.44 -24.63,50.54z"/>
   <path class="fil0" d="M-0 1022.12l2521.33 0.63 48.09 -97.99 -2518.45 -0.33c-9.36,5.21 -20.87,36.61 -26.39,47.64 -7.99,15.98 -18.33,34.48 -24.57,50.05z"/>
   <path class="fil1" d="M497.42 299.46c0.95,-5.92 81.58,-168.62 89.12,-179.88l4.44 5.51c1.04,1.71 1.63,3.17 2.67,5.26 14.97,30.04 83.05,162.64 84.13,169.11l-180.37 0zm-257.59 241.61l134.73 0.68 66.72 -134.07 291.5 0.16 67.23 133.96 133.61 -0.12c-2.28,-10.78 -26.12,-54.63 -32.82,-67.78l-202.61 -404.29c-9.27,-18.55 -28.47,-51.72 -33.95,-69.24l-155 -0.04 -269.41 540.75z"/>
   <path class="fil1" d="M1508.67 475.65l121.15 -0.14 0.01 -288.4 162.71 288.18c7.17,-5.76 79.38,-138.38 82.52,-144.17 26.39,-48.6 53.64,-96.22 81.13,-143.05l0.19 288.2 120.81 -0.05 0.32 -409.43c-53.73,-0.94 -124.08,-2.26 -175.69,-0.67 -7.28,16.58 -17.96,32.82 -26.35,49.18 -4.33,8.44 -77.08,143.19 -83.11,149.39l-107.46 -198.23c-22.66,-2.01 -141.23,-0.76 -176.23,-0.42l0 409.61z"/>
   <path class="fil1" d="M1068.56 152.69l134.89 0c74.46,0 121.21,43.47 121.36,117.76 0.11,58.04 -28.11,98.39 -75.03,111.87 -35.88,10.31 -138.31,5.4 -182.33,5.4l1.1 -235.03zm-122.25 323.26c24.54,2.44 231.03,0.71 273.01,0.7 127.82,0 221.12,-78.65 221.06,-206.19 -0.06,-108 -57.77,-180.05 -151.1,-199.09 -47.21,-9.62 -192.81,-5.6 -256.42,-5.6 -21.29,0 -68.29,-2.49 -86.55,0.87l0 409.31z"/>
   <path class="fil1" d="M2555.61 153.42l147.47 0c16.52,0 33.62,1.27 46.12,9.4 22.13,14.42 35.9,77.86 -47.11,77.86l-146.53 0 0.05 -87.27zm130.95 176.45l75.67 146.61 122.62 0.1 -80.21 -161.96c29.51,-16.15 37.73,-17.26 55.63,-41.67 46.24,-63.08 33.78,-165.58 -46.92,-194.1 -51.15,-18.08 -124.41,-13.09 -181.69,-13.09 -33.18,0 -177.07,-1.73 -196.95,0.69l-0.05 409.74 120.88 0 0.32 -146.64c11.43,-2.12 124.7,-2.08 130.69,0.32z"/>
   <path class="fil1" d="M3126.53 297.69c10.86,-19.92 20.35,-41.6 30.98,-62.85 6.71,-13.42 23.81,-51.8 32.42,-61.43l62.29 125.31 -125.69 -1.03zm-212.55 178.42l122.31 0.29 31 -61.96c3.44,-6.88 5.72,-16.19 12.67,-19.26l222.4 0 39.63 81.25 122.25 -0.08c-2.93,-10.53 -42.6,-86.72 -50.78,-103.07l-103.4 -205.99c-5.89,-11.79 -47.69,-100.26 -53.57,-102.03l-134.89 0c-8.16,5.87 -45.9,87.09 -53.45,102.19 -13.2,26.39 -150.03,295.53 -154.2,308.66z"/>
   <path class="fil1" d="M3507.56 534.27l0.54 7.47 452.61 -0.01 -0.28 -106.28 -319.59 0 -0.11 -434.33c-17.45,-1.98 -108.61,-0.72 -133.16,-0.7l-0.01 533.85z"/>
   <path class="fil1" d="M3017.09 1021.88l352.69 0.63 52.71 -101.32 -236.52 -0.28 16.89 -33.35 138.95 -0.08c8.58,-4.97 22.76,-38.89 28.36,-49.15 7.32,-13.42 22.73,-39.65 27.01,-52.29l-139.87 -0.28 16.6 -33.27 234.65 -0.14c7.69,-3.21 11.52,-16.1 14.75,-22.73 11.72,-24.01 31.15,-54.05 40.84,-78.76l-349.29 -0.06c-7.29,4.06 -20.82,34.83 -25.86,44.06l-73.83 140.45c-24.69,45.19 -77.54,143.27 -98.07,186.57z"/>
   <path class="fil1" d="M3528.17 752.34l126.51 0.08 -141.56 269.83 124.85 0.26c10.2,-26.82 101.7,-190.39 124.01,-236.65 3.96,-8.2 12.44,-29.16 20.18,-33.49l125.5 0 52.62 -100.76 -376.49 -0.81c-8.19,4.1 -10.97,15.88 -14.86,23.41 -11.77,22.72 -31.98,56.44 -40.77,78.14z"/>
   <path class="fil1" d="M2841.82 877.41l53.66 -0.08c69.17,0 36.16,39.78 18.2,52.03 -23.57,16.09 -72.75,11.55 -104.66,11.34l32.8 -63.29zm-200.72 145.22c78.08,0 244.75,8.14 308.91,-15.27 51.59,-18.83 113.12,-76.91 114.05,-127.97 0.5,-27.42 -16.14,-37.2 -35.9,-45.24 9.6,-7.99 24.07,-9.06 53.25,-30.63 23.34,-17.26 52.03,-54.94 48.18,-95.11 -21.49,4.92 -52.39,18.4 -72.62,27.01l-52.14 23.33c-8.66,4.01 -10.35,3.83 -14.31,11.39 -14.59,27.86 -25.67,32.43 -65.37,34.04 -12.47,0.51 -23.75,9.08 -34.02,15.3 -43.72,26.51 -211.47,129.42 -232.46,168.25 -5.38,9.95 -13.81,24.56 -17.56,34.89z"/>
   <polygon class="fil1" points="2193.28,468.82 2193.65,476.27 2313.79,476.27 2314.39,468.83 2314.3,66.01 2193.28,66.01 "/>
   <path class="fil0" d="M2678.75 937.46c19.15,-12.11 63.87,-52 99.38,-76.2 34.24,-23.32 70.08,-49.2 107.45,-69.55l-7.06 -2.64c-0.39,-0.19 -1.06,-0.61 -1.38,-0.77 -0.32,-0.17 -0.96,-0.47 -1.36,-0.81l33.53 -61.15c16.84,-0.34 50.94,-1.62 66.37,1.37 21.14,4.09 3.63,11.76 49.18,-10.56l94.85 -42.03c-15.38,-19.85 -42.18,-24.3 -75.45,-24.3l-218.01 0.69 -147.49 285.96z"/>
   <path class="fil1" d="M2434.72 66.45c-0.3,489.03 -0.06,493.14 0,0z"/>
  </g>
 </g>
</svg>
