<?xml version="1.0" encoding="UTF-8"?>
<!DOCTYPE svg PUBLIC "-//W3C//DTD SVG 1.1//EN" "http://www.w3.org/Graphics/SVG/1.1/DTD/svg11.dtd">
<!-- Creator: CorelDRAW 2020 (64-Bit) -->
<svg xmlns="http://www.w3.org/2000/svg" xml:space="preserve" width="30.3957mm" height="8.792mm" version="1.1" style="shape-rendering:geometricPrecision; text-rendering:geometricPrecision; image-rendering:optimizeQuality; fill-rule:evenodd; clip-rule:evenodd"
viewBox="0 0 19293.71 5580.73"
 xmlns:xlink="http://www.w3.org/1999/xlink"
 xmlns:xodm="http://www.corel.com/coreldraw/odm/2003">
 <defs>
  <style type="text/css">
   <![CDATA[
    .fil0 {fill:black}
    .fil1 {fill:#F08121}
   ]]>
  </style>
 </defs>
 <g id="Layer_x0020_1">
  <metadata id="CorelCorpID_0Corel-Layer"/>
  <g id="_1935411961728">
   <path class="fil0" d="M1763.02 3573.59c439.12,0 932.07,-138.82 793.06,433.6 -108.42,446.36 -462.29,341.5 -922.67,339.4l129.62 -773zm326.52 -1816.4c184.97,0 519.48,-57.13 614.88,81.31 96.29,100.16 56.43,336.04 -7.43,460.58 -110.32,214.86 -411.26,168.27 -729.52,163.26l122.06 -705.15zm7670.52 488.89c-152.15,127.27 -230.67,358.06 -386.69,424.46 43.86,-130.63 87.34,-150.44 158.56,-259.99 200.26,-307.92 -122.51,-51.29 548.87,-814.13l464.45 -412.97c208.07,-136.09 378.25,-231.49 531.99,-382.25 -1.46,-138.95 26.28,-41.51 -51.29,-83.15l-6463.35 0.13c-77.63,175.19 -220.83,1192.06 -268.88,1457.77 -44.81,247.81 -86.96,494.41 -131.46,746.78l-111.53 632.09c-50.97,151.96 68.17,-149.55 -22.47,54.33l-29.77 54.14c-116.79,-659.19 -463.24,-586.19 -660.2,-732.69 68.49,-64.43 159.45,-77.12 249.14,-130.5 638.12,-379.84 863.2,-1571.71 330.83,-1920.88 -329.56,-216.13 -1028.93,-161.16 -1466.85,-161.16 -529.13,0 -1096.53,-19.55 -1620.9,3.87l-830.51 4743.24c775.98,0.63 1548.79,-0.25 2321.48,0.63 389.42,0.44 662.49,4.57 968.63,-169.42 221.46,-125.81 421.35,-336.48 545.76,-600.6l-117.94 768.37 3209.3 1.21 208.64 -1215.42 -1753.18 -0.83 83.22 -575.66 1443.3 -0.25 197.09 -1101.23 -1436.63 -0.83 101.94 -635.77 2593.53 -3.3 -598.82 3533.22 1440.76 0.51 553 -3219.71z"/>
   <path class="fil1" d="M14078.72 4160.16c-174.05,117.49 -53.89,146.63 -209.4,166.94 -1.65,0.25 -9.08,-0.89 -10.73,-0.32l-238.1 166.75 246.22 -313.5c32.18,-37.26 51.35,-39.93 89.56,-73 109.43,-94.64 175.06,-327.21 285.13,-396.08 21.01,29.07 26.15,-16.88 31.17,65.76 6.54,106.19 -158.81,207.94 -193.85,383.45zm-873.04 -2849.14c-71.28,-59.54 -204.14,-47.48 -2.09,-194.17 248.38,-180.27 161.61,-221.21 436.96,-180.21 649.79,96.74 513.7,217.02 477.4,506.4 -61.7,491.42 -553.63,1606.24 -801.75,1829.16 -57.38,51.54 -135.39,119.46 -177.41,179.38 -77.44,110.51 -57.57,114.89 -166.3,224.13 -76.68,77 -120.03,106.26 -139.52,217.28 -130.19,-25.64 75.92,-45.38 -59.03,-32.69 -65.95,6.22 -140.91,105.62 -158.62,155.07 -13.52,37.83 31.86,39.42 -74.39,70.01 -324.87,93.56 -49.83,94.01 -262.66,225.27 -202.23,124.67 -574.89,122 -751.16,3.24 20.38,-86.33 -80.74,89.31 17.77,-26.02 47.29,-55.41 27.61,22.85 50.27,-43.35 -87.15,-95.97 -98.39,-317.25 -70.27,-451.12l105.37 -486.28c139.45,-559.47 560.29,-1057.81 939.18,-1463.29 131.77,-140.98 405.35,-460.26 636.27,-532.81zm-2128.45 -509.83c-153.74,150.75 -323.91,246.16 -531.99,382.25l-464.45 412.97c-671.38,762.84 -348.61,506.21 -548.87,814.13 -71.22,109.56 -114.7,129.36 -158.56,259.99 156.02,-66.39 234.54,-297.19 386.69,-424.46 129.62,-135.77 214.36,-236.57 364.79,-312.11 91.85,-126 243.62,-232.95 392.72,-323.98l431.5 -230.1c-31.86,94.26 -317.06,304.81 -379.52,348.73 155.2,78.71 126.06,65 294.65,-56.49 43.86,25.39 34.09,-40.75 36.31,48.11 102.45,-202.17 -28.37,-17.96 388.59,-280.75 101.31,-63.86 380.6,-131.39 506.21,-156.97 -89.37,74.01 -128.66,263.8 -318.01,342.07 24.44,-75.47 60.05,-81.25 101.75,-161.48 -210.42,111.46 -160.08,176.78 -330.64,358.19 -233.72,248.57 -210.36,212.01 -234.29,392.72 -21.77,164.84 -100.04,151.45 -121.17,334.96 -156.59,-26.34 -100.67,-121.94 -184.14,91.02l-289.26 823.34c-70.33,251.49 21.96,268.06 -106.96,571.78 -129.11,304.11 -60.56,352.92 -28.25,672.2l111.02 -134.25c37.77,174.87 65,239.56 121.05,392.28 92.86,253.08 11.17,160.97 225.34,295.6 144.28,90.77 753.26,355.33 947.11,315.79 722.28,-147.45 46.21,128.54 968.44,-273.7 160.59,-70.01 284.75,-2.79 72.43,145.42 87.6,-5.52 198.99,-110.7 282.78,-174.37 263.87,-200.64 170.81,-209.47 322.83,-392.15l330.26 -319.47c38.47,-23.55 51.92,-27.99 99.72,-44.75 -5.2,6.92 -14.54,7.49 -17.14,19.42l-47.73 60.75c-41.83,64.05 -11.81,-8.76 -48.81,93.63 113.81,-65 400.91,-354.13 427.06,-531.35 151.77,-99.91 415.83,-478.16 518.91,-679.44l365.49 -838.13c52.75,-258.72 558.14,-1134.3 102.39,-1932.56 -36.12,-63.22 -195.06,-275.29 -254.22,-329.56 -92.99,-85.31 -239.05,-176.91 -390.88,-229.53 -291.03,-100.86 -682.55,-185.79 -1051.02,-136.54 -1034.64,138.25 -1111.64,316.61 -1630.87,481.14 -179.76,56.94 -126,-30.79 -219.75,33.2 -228.32,137.93 144.28,-2.54 -162.56,163.51 -95.66,51.8 -174.49,93.82 -278.97,108.92z"/>
   <path class="fil1" d="M17433 3536.9c237.08,-283.23 627.71,-655.83 1016.24,-716.19 -61.44,166.3 -300.43,339.02 -466.29,440.39 -502.28,307.09 -200.33,83.98 -417.22,199.31 -37.13,19.74 -75.34,49.45 -132.73,76.49zm-17.71 1543.59c-62.59,21.01 -60.62,-12.89 -168.65,70.33 597.94,-27.61 216.83,-33.9 563.85,-173.16 236,-94.77 259.93,-152.47 424.9,-173.6 125.81,-16.12 62.97,3.87 195.76,-33.77l-123.59 -37.39c103.21,-55.86 367.27,-130.5 531.41,-296.68 53.64,-54.27 7.55,-26.53 55.86,-57.7l232.32 -99.08c-81.63,-80.17 114.95,-50.4 -131.08,-63.22 135.58,-75.47 86.71,-88.29 52.24,-100.16 125.3,-53.76 146.69,-34.02 215.75,-159.2 -410.81,103.27 -515.86,327.85 -757,259.99 -126.19,-35.55 -138.19,-7.3 -272.88,43.1 -199.5,74.58 -951.68,213.15 -1217.26,84.87 9.58,-200.07 107.65,-382.56 212.58,-515.23 822.07,-65.32 783.98,5.01 1441.58,-464.76 160.08,-114.38 179.25,-229.08 234.92,-234.86 1.97,-0.19 10.22,1.78 12.19,1.9 2.41,0.13 12.06,3.11 14.41,3.43 83.22,12 151.71,-152.28 159.58,-191.31 56.62,70.46 42.27,33.9 27.29,137.99 -6.35,44.05 -14.98,9.71 -5.97,44.24 0.19,0.06 36.24,60.43 74.14,-98.7 50.91,-213.78 150.5,-486.16 83.79,-675.5 -92.36,-262.15 -348.67,-468.19 -709.59,-478.09 -1117.35,-30.66 -2265.11,1283.4 -2386.92,2232.61 -27.17,211.56 -27.1,304.11 47.67,476.63 76.04,175.32 329.56,541.06 644.4,519.23 206.04,-14.28 335.47,-24.44 548.3,-21.9z"/>
   <path class="fil1" d="M15030.4 4359.41c38.21,29.01 61.32,-5.9 76.87,0 -30.72,197.79 -57.76,247.24 -50.78,486.98 5.71,196.52 1.78,360.22 -3.11,555.6 87.21,-182.81 32.88,-130.38 36.18,-316.68 118.32,38.15 23.17,85.56 109.18,88.42 0.51,0 4.89,-3.43 7.3,-2.41l-21.58 258.15c10.66,-4.7 28.94,-48.37 33.9,-59.6l18.73 -40.81c2.6,-6.47 6.86,-14.85 9.33,-21.71l106.77 -534.84 67.28 180.97c44.94,-228 137.36,-542.65 244.57,-697.21 130.76,-188.46 194.36,-445.91 308.24,-633.86 98.51,-162.56 202.55,-419.32 304.87,-603.71 340.1,-612.6 333.05,-589.75 714.41,-1136.14l782.08 -1103.26c101.12,-160.08 403.83,-397.99 116.73,-588.99 -176.71,-117.49 -288.18,-163.89 -499.55,-121.36 -214.04,43.04 -122.51,99.91 -263.55,196.77 -62.84,43.1 -65.13,24.31 -137.99,86.58 -78.39,67.03 -159.32,161.29 -234.22,253.46 -243.24,299.16 -819.65,1085.55 -948.7,1389.98l-293.26 615.2c-101.88,208.13 -159.51,481.4 -227.05,711.11 -47.99,163.13 -98.64,122.19 -162.24,423.44 -46.78,221.66 40.88,-148.34 -11.74,54.78 -69.19,266.98 -39.55,2.67 10.6,271.04 31.99,171.07 -61.32,211.5 -93.24,288.11z"/>
   <path class="fil0" d="M10124.85 1933.96l747.17 -1.4 28.5 -212.32c-2.22,-88.87 7.55,-22.72 -36.31,-48.11 -168.59,121.49 -139.45,135.2 -294.65,56.49 62.46,-43.92 347.65,-254.47 379.52,-348.73l-431.5 230.1c-149.1,91.02 -300.87,197.98 -392.72,323.98z"/>
  </g>
 </g>
</svg>
