<?xml version="1.0" encoding="UTF-8"?>
<!DOCTYPE svg PUBLIC "-//W3C//DTD SVG 1.1//EN" "http://www.w3.org/Graphics/SVG/1.1/DTD/svg11.dtd">
<!-- Creator: CorelDRAW 2020 (64-Bit) -->
<svg xmlns="http://www.w3.org/2000/svg" xml:space="preserve" width="61.4784mm" height="30.5527mm" version="1.1" style="shape-rendering:geometricPrecision; text-rendering:geometricPrecision; image-rendering:optimizeQuality; fill-rule:evenodd; clip-rule:evenodd"
viewBox="0 0 202.15 100.46"
 xmlns:xlink="http://www.w3.org/1999/xlink"
 xmlns:xodm="http://www.corel.com/coreldraw/odm/2003">
 <defs>
  <style type="text/css">
   <![CDATA[
    .fil1 {fill:#F7FBFA}
    .fil0 {fill:#EB7E37}
   ]]>
  </style>
 </defs>
 <g id="Layer_x0020_1">
  <metadata id="CorelCorpID_0Corel-Layer"/>
  <g id="_2634692403792">
   <path class="fil0" d="M136.39 53c13.42,-3.49 12.96,16.75 -1.73,20.31 -14.04,3.41 -14.31,-16.14 1.73,-20.31zm34.1 -26.06c6.36,-2.01 11.82,2.61 9.63,9.95 -1.27,4.25 -6.46,9.3 -10.84,10.29 -13.58,3.08 -15.39,-14.99 1.21,-20.24zm-25.16 -0.14c14.87,-3.04 10.5,18.38 -2.82,20.48 -14.6,2.29 -12.02,-17.45 2.82,-20.48zm-26.3 -0.01c6.4,-1.53 11.42,3.56 8.99,10.53 -1.33,3.8 -6.19,8.81 -11.22,9.84 -14.31,2.95 -13.49,-16.6 2.23,-20.37zm-81.89 14.67c5.68,-1.76 12.21,-4.16 17.8,0.79 4.64,4.11 2.73,12.25 -0.06,17.25 -9.91,17.8 -39.74,21.53 -32.21,-2.8 1.53,-4.95 4.35,-10.62 6.33,-16.04 1.65,-4.51 4.25,-13.25 8.76,-13.65 7.09,-0.63 -0.26,10.56 -0.62,14.46zm46.03 31.5c-1.49,-1.67 -1.33,-1.36 -0.49,-4.1l4.41 -11.11c2.6,-6.73 0.83,-12.02 -7.66,-10.24 -10.88,2.28 -11.96,19.7 -16.13,24.23 -1.08,1.17 -5.65,3.57 -6.77,0.34 -0.65,-1.88 6.87,-19.39 7.79,-21.7 2.04,-5.12 3.79,-9.57 5.79,-14.7 1.92,-4.91 3.46,-10.58 9.65,-8.64 1.44,4.52 -2.7,9.26 -3.64,14.1 4.88,-0.62 9.6,-3.5 15.65,-0.47 9.75,4.9 2.68,18.46 0.11,25.1 -1.29,3.32 -3.8,10.4 -8.72,7.19zm-80.72 -56.92l0 67.81c0,7.49 -1.13,13.47 7.69,13.47l180.47 0c9.67,0 8.59,-4.73 8.59,-13.47l0 -67.81c0,-8.55 1.02,-13.18 -8.59,-13.18l-180.47 0c-8.47,0 -7.69,5.39 -7.69,13.18z"/>
   <path class="fil1" d="M2.46 16.05c0,-7.79 -0.78,-13.18 7.69,-13.18l180.47 0c9.61,0 8.59,4.63 8.59,13.18l0 67.81c0,8.74 1.08,13.47 -8.59,13.47l-180.47 0c-8.82,0 -7.69,-5.98 -7.69,-13.47l0 -67.81zm4.79 -15.4c-5.84,1.3 -7.3,4.84 -7.25,11.55l0.01 74.88c-0.12,17.86 10.56,12.7 44.06,12.7 8.8,0 146.12,0.75 150.83,-0.19 9.84,-1.96 6.79,-20.45 6.79,-30.43l0.04 -56.3c0.1,-6.88 -1.44,-11.14 -7.02,-12.28 -4.73,-0.97 -131.06,-0.21 -150.65,-0.21 -7.66,0 -31.17,-0.96 -36.82,0.29z"/>
   <path class="fil1" d="M31.88 65.15c-1.35,-2.37 -2.61,-3.24 -1.63,-7.22 1.57,-6.42 9.74,-13.25 16.43,-9.92 5.54,2.76 2.11,19.44 -14.8,17.14zm5.26 -23.68c0.36,-3.9 7.71,-15.1 0.62,-14.46 -4.51,0.4 -7.11,9.15 -8.76,13.65 -1.98,5.42 -4.8,11.09 -6.33,16.04 -7.53,24.33 22.3,20.6 32.21,2.8 2.78,-5 4.7,-13.13 0.06,-17.25 -5.59,-4.95 -12.12,-2.55 -17.8,-0.79z"/>
   <path class="fil1" d="M83.18 72.97c4.92,3.21 7.44,-3.87 8.72,-7.19 2.57,-6.64 9.64,-20.21 -0.11,-25.1 -6.05,-3.04 -10.77,-0.16 -15.65,0.47 0.94,-4.84 5.08,-9.58 3.64,-14.1 -6.19,-1.95 -7.73,3.73 -9.65,8.64 -2,5.13 -3.75,9.59 -5.79,14.7 -0.92,2.3 -8.44,19.82 -7.79,21.7 1.12,3.24 5.69,0.83 6.77,-0.34 4.18,-4.53 5.26,-21.94 16.13,-24.23 8.49,-1.78 10.26,3.5 7.66,10.24l-4.41 11.11c-0.84,2.74 -1.01,2.44 0.49,4.1z"/>
   <path class="fil1" d="M136.39 53c-16.04,4.17 -15.77,23.72 -1.73,20.31 14.69,-3.57 15.14,-23.8 1.73,-20.31z"/>
   <path class="fil1" d="M145.33 26.8c-14.84,3.03 -17.42,22.77 -2.82,20.48 13.32,-2.09 17.7,-23.51 2.82,-20.48z"/>
   <path class="fil1" d="M170.49 26.95c-16.6,5.24 -14.79,23.32 -1.21,20.24 4.38,-0.99 9.57,-6.04 10.84,-10.29 2.19,-7.33 -3.27,-11.96 -9.63,-9.95z"/>
   <path class="fil1" d="M119.04 26.79c-15.72,3.76 -16.54,23.32 -2.23,20.37 5.02,-1.03 9.89,-6.04 11.22,-9.84 2.43,-6.96 -2.58,-12.06 -8.99,-10.53z"/>
   <path class="fil0" d="M31.88 65.15c16.9,2.3 20.34,-14.37 14.8,-17.14 -6.69,-3.33 -14.86,3.5 -16.43,9.92 -0.98,3.98 0.28,4.85 1.63,7.22z"/>
  </g>
 </g>
</svg>
