<?xml version="1.0" encoding="UTF-8"?>
<!DOCTYPE svg PUBLIC "-//W3C//DTD SVG 1.1//EN" "http://www.w3.org/Graphics/SVG/1.1/DTD/svg11.dtd">
<!-- Creator: CorelDRAW 2020 (64-Bit) -->
<svg xmlns="http://www.w3.org/2000/svg" xml:space="preserve" width="38.4109mm" height="38.4109mm" version="1.1" style="shape-rendering:geometricPrecision; text-rendering:geometricPrecision; image-rendering:optimizeQuality; fill-rule:evenodd; clip-rule:evenodd"
viewBox="0 0 175.75 175.75"
 xmlns:xlink="http://www.w3.org/1999/xlink"
 xmlns:xodm="http://www.corel.com/coreldraw/odm/2003">
 <defs>
  <style type="text/css">
   <![CDATA[
    .fil0 {fill:#3DBBC7}
    .fil1 {fill:#F9FEFD}
   ]]>
  </style>
 </defs>
 <g id="Layer_x0020_1">
  <metadata id="CorelCorpID_0Corel-Layer"/>
  <g id="_1899318357792">
   <polygon class="fil0" points="-0,175.75 175.75,175.75 175.75,0 -0,0 "/>
   <g>
    <path class="fil1" d="M40.84 53.41l-0.2 -15.36 -8.23 -0.06c-0.81,3.92 -0.77,27.38 -0.24,31.82 2.67,22.41 37.84,14.68 30.57,-7.04 -3.16,-9.44 -10.54,-11.49 -21.9,-9.36z"/>
    <path class="fil1" d="M85.59 83.04l8.41 0.12c0.78,-8.02 -2.65,-21.59 6.45,-22.18 10.18,-0.66 6.78,14.41 7.31,21.98l8.25 0.27c1.22,-14.57 1.03,-30.78 -14.79,-31.02 -16.22,-0.24 -17.1,16.21 -15.63,30.83z"/>
    <path class="fil1" d="M69.08 83.15l9.15 -0.05c0.35,-5.53 -0.05,-11.72 -0.14,-17.19 -0.08,-5.02 1.19,-12.51 -4.35,-12.65 -5.88,-0.15 -4.49,7.29 -4.63,12.65 -0.14,5.31 -0.5,12.07 -0.04,17.24z"/>
    <path class="fil0" d="M43.96 61.98c-7.69,5.04 -0.25,16.74 7.77,11.75 7.33,-4.56 0.53,-17.2 -7.77,-11.75z"/>
    <path class="fil1" d="M75.94 49.17c1.63,-0.66 4.32,-3.32 3.05,-7.25 -0.78,-2.4 -3.35,-4.7 -7.07,-3.69 -5.73,1.55 -6.76,13.27 4.01,10.94z"/>
   </g>
   <g>
    <path class="fil1" d="M68.25 108.23l-0.2 -15.36 -8.23 -0.06c-0.81,3.92 -0.77,27.38 -0.24,31.82 2.67,22.41 37.84,14.68 30.57,-7.04 -3.16,-9.44 -10.54,-11.49 -21.9,-9.36z"/>
    <path class="fil1" d="M113 137.86l8.41 0.12c0.78,-8.02 -2.65,-21.59 6.45,-22.18 10.18,-0.66 6.78,14.41 7.31,21.98l8.25 0.27c1.22,-14.57 1.03,-30.78 -14.79,-31.02 -16.22,-0.24 -17.1,16.21 -15.63,30.83z"/>
    <path class="fil1" d="M96.49 137.97l9.15 -0.05c0.35,-5.53 -0.05,-11.72 -0.14,-17.19 -0.08,-5.02 1.19,-12.51 -4.35,-12.65 -5.88,-0.15 -4.49,7.29 -4.63,12.65 -0.14,5.31 -0.5,12.07 -0.04,17.24z"/>
    <path class="fil0" d="M71.37 116.8c-7.69,5.04 -0.25,16.74 7.77,11.75 7.33,-4.56 0.53,-17.2 -7.77,-11.75z"/>
    <path class="fil1" d="M103.35 103.99c1.63,-0.66 4.32,-3.32 3.05,-7.25 -0.78,-2.4 -3.35,-4.7 -7.07,-3.69 -5.73,1.55 -6.76,13.27 4.01,10.94z"/>
   </g>
  </g>
 </g>
</svg>
