<?xml version="1.0" encoding="UTF-8"?>
<!DOCTYPE svg PUBLIC "-//W3C//DTD SVG 1.1//EN" "http://www.w3.org/Graphics/SVG/1.1/DTD/svg11.dtd">
<!-- Creator: CorelDRAW 2020 (64-Bit) -->
<svg xmlns="http://www.w3.org/2000/svg" xml:space="preserve" width="69.0368mm" height="39.7274mm" version="1.1" style="shape-rendering:geometricPrecision; text-rendering:geometricPrecision; image-rendering:optimizeQuality; fill-rule:evenodd; clip-rule:evenodd"
viewBox="0 0 233.15 134.17"
 xmlns:xlink="http://www.w3.org/1999/xlink"
 xmlns:xodm="http://www.corel.com/coreldraw/odm/2003">
 <defs>
  <style type="text/css">
   <![CDATA[
    .str0 {stroke:#373435;stroke-width:0.68;stroke-miterlimit:2.61313}
    .fil0 {fill:#373435}
    .fil4 {fill:#FFF212}
    .fil2 {fill:#73B12C}
    .fil1 {fill:#EAE505}
    .fil3 {fill:#00A859;fill-rule:nonzero}
   ]]>
  </style>
 </defs>
 <g id="Layer_x0020_1">
  <metadata id="CorelCorpID_0Corel-Layer"/>
  <g id="_2634684321392">
   <path class="fil0 str0" d="M27.66 0.34l191.99 0c7.24,0 13.17,5.93 13.17,13.17l0 107.16c0,7.24 -5.93,13.17 -13.17,13.17l-206.14 0c-7.24,0 -13.17,-5.93 -13.17,-13.17l0 -93 27.33 -27.33z"/>
   <g>
    <path class="fil1" d="M21.47 39.39c2.32,-4.11 1.5,-9.51 5.59,-13.66 4.21,-4.28 9.5,-3.24 13.7,-5.63l0.23 -5.09c-17.9,-7.8 -35.81,28.21 -19.52,24.38z"/>
    <path class="fil2" d="M26.16 39.55c8.68,0.74 3.52,-0.51 7.58,-5.82 4.7,-6.14 5.49,1.83 8,-7.42 -0.02,-0.02 -2.62,-6.32 -11.06,0.32 -4.89,3.85 -5.61,7.16 -4.51,12.91z"/>
    <path class="fil3" d="M41.59 108.76l1.63 0 0 12.6 -1.63 0 0 -12.6zm3.72 9.09c-0.52,0 -0.97,-0.13 -1.35,-0.4 -0.39,-0.27 -0.67,-0.65 -0.85,-1.14l0.11 -1.87c0,0.39 0.07,0.71 0.19,0.98 0.13,0.27 0.31,0.48 0.55,0.62 0.24,0.14 0.54,0.22 0.89,0.22 0.54,0 0.96,-0.18 1.25,-0.53 0.3,-0.35 0.44,-0.85 0.44,-1.5l0 -1.94c0,-0.65 -0.15,-1.16 -0.44,-1.53 -0.3,-0.36 -0.72,-0.55 -1.25,-0.55 -0.35,0 -0.64,0.07 -0.89,0.21 -0.24,0.14 -0.43,0.34 -0.55,0.61 -0.13,0.27 -0.19,0.59 -0.19,0.96l-0.17 -1.73c0.25,-0.52 0.58,-0.93 0.98,-1.21 0.41,-0.29 0.86,-0.43 1.35,-0.43 0.59,0 1.09,0.14 1.51,0.43 0.42,0.29 0.74,0.7 0.96,1.25 0.22,0.55 0.33,1.21 0.33,1.98l0 1.95c0,0.76 -0.11,1.41 -0.34,1.95 -0.22,0.54 -0.55,0.95 -0.99,1.24 -0.43,0.29 -0.95,0.43 -1.55,0.43zm7.49 -2.44c0,0.22 0.05,0.39 0.13,0.5 0.09,0.12 0.21,0.18 0.37,0.18l0.77 0 0 1.68 -0.96 0c-0.62,0 -1.1,-0.21 -1.44,-0.62 -0.34,-0.42 -0.51,-1 -0.51,-1.75l0 -10.22 1.63 0 0 10.23zm8.39 -3.37c0,-0.59 -0.15,-1.04 -0.44,-1.37 -0.29,-0.32 -0.7,-0.49 -1.24,-0.49 -0.33,0 -0.66,0.06 -0.97,0.16 -0.32,0.11 -0.6,0.26 -0.84,0.46l-1.19 -0.88c0.31,-0.41 0.73,-0.72 1.24,-0.95 0.52,-0.23 1.09,-0.34 1.72,-0.34 0.69,0 1.28,0.13 1.77,0.39 0.49,0.26 0.87,0.64 1.12,1.14 0.26,0.5 0.39,1.1 0.39,1.8l0 5.75 -1.55 0 0 -5.68zm-2.04 5.81c-1.02,0 -1.79,-0.23 -2.3,-0.69 -0.51,-0.46 -0.76,-1.15 -0.76,-2.08 0,-0.89 0.23,-1.55 0.7,-1.99 0.46,-0.44 1.17,-0.67 2.11,-0.67l2.36 0 0.11 1.42 -2.47 0c-0.43,0 -0.75,0.1 -0.96,0.31 -0.21,0.2 -0.31,0.52 -0.31,0.94 0,0.45 0.14,0.79 0.42,1.01 0.28,0.22 0.71,0.33 1.28,0.33 0.62,0 1.09,-0.07 1.4,-0.22 0.31,-0.14 0.46,-0.37 0.46,-0.67l0.17 1.26c-0.14,0.24 -0.32,0.44 -0.53,0.6 -0.21,0.15 -0.45,0.27 -0.73,0.35 -0.28,0.08 -0.59,0.12 -0.94,0.12zm8.89 -0.09c-0.67,0 -1.17,-0.2 -1.48,-0.6 -0.31,-0.4 -0.47,-0.99 -0.47,-1.77l0 -9.23 1.63 0 0 9.25c0,0.22 0.04,0.39 0.12,0.5 0.08,0.12 0.2,0.18 0.35,0.18l0.78 0 0 1.68 -0.94 0zm-2.8 -9l3.75 0 0 1.59 -3.75 0 0 -1.59zm6.65 -3.59l1.63 0 0 1.76 -1.63 0 0 -1.76zm0 3.59l1.63 0 0 8.96 -1.63 0 0 -8.96zm18.45 3.53c0,-0.63 -0.15,-1.12 -0.46,-1.47 -0.31,-0.34 -0.73,-0.52 -1.28,-0.52 -0.51,0 -0.9,0.17 -1.18,0.5 -0.28,0.34 -0.42,0.81 -0.42,1.42l-0.33 -1.73c0.26,-0.59 0.61,-1.05 1.04,-1.38 0.43,-0.33 0.9,-0.49 1.42,-0.49 0.6,0 1.11,0.14 1.53,0.43 0.42,0.29 0.75,0.7 0.97,1.25 0.22,0.55 0.33,1.21 0.33,1.98l0 5.44 -1.63 0 0 -5.43zm-9.93 -3.53l1.63 0 0 8.96 -1.63 0 0 -8.96zm4.96 3.53c0,-0.63 -0.14,-1.12 -0.43,-1.47 -0.29,-0.34 -0.7,-0.52 -1.22,-0.52 -0.54,0 -0.95,0.15 -1.24,0.46 -0.29,0.3 -0.44,0.73 -0.44,1.28l-0.17 -1.73c0.26,-0.54 0.59,-0.96 1.01,-1.25 0.41,-0.29 0.87,-0.44 1.37,-0.44 0.58,0 1.08,0.14 1.49,0.43 0.41,0.29 0.72,0.7 0.94,1.25 0.22,0.55 0.33,1.21 0.33,1.98l0 5.44 -1.63 0 0 -5.43zm14.44 -0.25c0,-0.59 -0.15,-1.04 -0.44,-1.37 -0.29,-0.32 -0.7,-0.49 -1.24,-0.49 -0.33,0 -0.66,0.06 -0.97,0.16 -0.32,0.11 -0.6,0.26 -0.84,0.46l-1.19 -0.88c0.31,-0.41 0.73,-0.72 1.24,-0.95 0.52,-0.23 1.09,-0.34 1.72,-0.34 0.69,0 1.28,0.13 1.77,0.39 0.49,0.26 0.87,0.64 1.12,1.14 0.26,0.5 0.39,1.1 0.39,1.8l0 5.75 -1.55 0 0 -5.68zm-2.04 5.81c-1.02,0 -1.79,-0.23 -2.3,-0.69 -0.51,-0.46 -0.76,-1.15 -0.76,-2.08 0,-0.89 0.23,-1.55 0.7,-1.99 0.46,-0.44 1.17,-0.67 2.11,-0.67l2.36 0 0.11 1.42 -2.47 0c-0.43,0 -0.75,0.1 -0.96,0.31 -0.21,0.2 -0.31,0.52 -0.31,0.94 0,0.45 0.14,0.79 0.42,1.01 0.28,0.22 0.71,0.33 1.28,0.33 0.62,0 1.09,-0.07 1.4,-0.22 0.31,-0.14 0.46,-0.37 0.46,-0.67l0.17 1.26c-0.14,0.24 -0.32,0.44 -0.53,0.6 -0.21,0.15 -0.45,0.27 -0.73,0.35 -0.28,0.08 -0.59,0.12 -0.94,0.12zm6.73 -9.09l1.63 0 0 8.96 -1.63 0 0 -8.96zm5.04 3.53c0,-0.63 -0.15,-1.12 -0.46,-1.47 -0.3,-0.34 -0.73,-0.52 -1.28,-0.52 -0.54,0 -0.95,0.15 -1.24,0.46 -0.29,0.3 -0.44,0.73 -0.44,1.28l-0.17 -1.73c0.26,-0.54 0.59,-0.96 1.01,-1.25 0.41,-0.29 0.87,-0.44 1.37,-0.44 0.9,0 1.6,0.32 2.09,0.95 0.49,0.64 0.74,1.53 0.74,2.69l0 5.44 -1.63 0 0 -5.43zm3.66 7.4l0.91 0c0.15,0 0.27,-0.06 0.35,-0.18 0.08,-0.12 0.12,-0.29 0.12,-0.5l0 -10.24 1.63 0 0 10.23c0,0.75 -0.17,1.34 -0.51,1.75 -0.34,0.42 -0.82,0.62 -1.44,0.62l-1.07 0 0 -1.67zm1.37 -14.51l1.66 0 0 1.76 -1.66 0 0 -1.76zm8.21 12.68c-0.77,0 -1.43,-0.16 -1.97,-0.47 -0.54,-0.31 -0.96,-0.77 -1.24,-1.37 -0.29,-0.6 -0.43,-1.33 -0.43,-2.18l0 -1.01c0,-0.89 0.14,-1.64 0.41,-2.27 0.27,-0.63 0.67,-1.1 1.2,-1.43 0.52,-0.33 1.15,-0.49 1.89,-0.49 0.69,0 1.29,0.19 1.78,0.56 0.49,0.37 0.86,0.92 1.12,1.62 0.26,0.71 0.39,1.56 0.39,2.55l0 0.59 -5.61 0 0 -1.42 4.05 0 0 0c-0.05,-0.73 -0.22,-1.3 -0.52,-1.7 -0.3,-0.41 -0.71,-0.61 -1.21,-0.61 -0.62,0 -1.1,0.22 -1.44,0.66 -0.34,0.44 -0.51,1.05 -0.51,1.86l0 1.14c0,0.74 0.18,1.31 0.54,1.71 0.36,0.4 0.88,0.6 1.55,0.6 0.33,0 0.66,-0.07 0.98,-0.22 0.33,-0.14 0.62,-0.34 0.87,-0.6l0 0 1.07 1.16 0 0c-0.41,0.42 -0.87,0.75 -1.39,0.99 -0.51,0.23 -1.03,0.35 -1.54,0.35z"/>
    <g>
     <path class="fil4" d="M41.19 44.76l0.01 47.05c-0.01,5.08 0.16,5.65 5.21,5.65 6.62,0 5.47,-1.19 5.48,-11.41 0,-5.26 -0.39,-12.23 0.09,-17.28 2.41,-2.48 3.42,-4.07 12.57,-3.69 1.29,2.31 0.87,6.02 0.87,9.45l0 17.6c0,5.17 0.8,5.33 5.32,5.32 4.53,-0 5.4,-0.33 5.4,-5l-0 -17.28c-0,-9.94 0.96,-19.27 -13.41,-19.27 -1.88,-0 -4.33,0.37 -5.94,0.9 -1.45,0.48 -3.72,1.56 -4.89,1.68 -0.07,-3.92 -0.03,-7.87 -0.03,-11.8 0,-6.52 0.54,-7.11 -6.43,-7.11 -4.06,0 -4.25,1.28 -4.25,5.19z"/>
     <path class="fil4" d="M97.29 79.52l5.06 0.13 0.07 6.81c-1.43,1.19 -11.35,7.2 -13.59,2.59 -0.93,-1.92 -1.15,-5.9 0.28,-7.64 1.53,-1.87 5.87,-1.87 8.17,-1.89zm4.26 -13.49c0.4,0.38 0.45,0.09 0.64,1.18l0.07 4.94 -8.49 0.42c-5,0.48 -9.81,1.6 -12.65,4.36 -4.74,4.61 -5.5,20.86 7.19,21.54 7.25,0.39 9.02,-1.65 13.78,-3.76 1.73,2.3 0.12,2.76 4.47,2.74 7.82,-0.04 6.34,0.29 6.35,-15.87 0,-18.21 1.5,-26.84 -19.47,-25.49 -2.24,0.14 -4.31,0.38 -6.49,0.78 -2.21,0.4 -4.4,0.53 -5.06,2.54 -0.58,1.77 -0.53,5.39 0.66,6.18 2.79,1.85 17.54,-4.92 19.01,0.46z"/>
     <path class="fil4" d="M178.98 77.41c-0.01,-3.01 0.11,-6.22 1.03,-8.84 1.01,-2.86 2.4,-3.6 5.94,-3.7 3.49,-0.1 6.02,-0.2 7.52,2.45 2.07,3.64 1.95,14.98 0.49,18.73 -1.17,3.03 -2.73,3.51 -6.41,3.54 -7.51,0.06 -8.55,-2.71 -8.58,-12.19zm4.39 -21.25c-12.39,1.99 -15.27,11.21 -14.53,24.78 0.67,12.43 8.32,18.74 21.89,17.38 11.64,-1.17 15.57,-12.13 14.42,-24.68 -0.6,-6.61 -2.25,-10.93 -5.89,-14.02 -3.74,-3.17 -10.02,-4.41 -15.88,-3.46z"/>
     <path class="fil4" d="M140.68 80.93c-0.63,-5.05 -0.23,-14.65 4.15,-15.77 2.53,-0.65 7.39,-0.6 9.11,0.73 3.47,2.67 4.78,21.92 -1.7,23.46 -2.46,0.59 -7.26,0.55 -9.02,-0.9 -1.96,-1.6 -2.21,-4.83 -2.55,-7.52zm3.49 -24.63c-12.62,2.39 -14.97,14.14 -13.65,25.38 1.44,12.33 8.8,18.64 22.41,16.51 11.72,-1.84 15.07,-12.54 13.72,-25.42 -0.66,-6.35 -2.4,-10.5 -6.35,-13.57 -3.95,-3.07 -10.57,-3.95 -16.14,-2.9z"/>
     <path class="fil4" d="M120.98 97.45c5.41,-0.01 6.32,-0.01 6.31,-5.32l0 -41.93c0.01,-10.74 0.78,-10.61 -6.63,-10.62 -3.3,-0 -4.14,1.01 -4.17,4.2l0.01 41.62c0,8.48 -1.29,12.05 4.48,12.04z"/>
     <path class="fil4" d="M93.77 72.57l8.49 -0.42 -0.07 -4.94c-0.19,-1.09 -0.24,-0.8 -0.64,-1.18 0.14,1.63 0.83,3.92 0.34,5.7l-8.13 0.84z"/>
    </g>
   </g>
  </g>
 </g>
</svg>
