<?xml version="1.0" encoding="UTF-8"?>
<!DOCTYPE svg PUBLIC "-//W3C//DTD SVG 1.1//EN" "http://www.w3.org/Graphics/SVG/1.1/DTD/svg11.dtd">
<!-- Creator: CorelDRAW 2020 (64-Bit) -->
<svg xmlns="http://www.w3.org/2000/svg" xml:space="preserve" width="49.9831mm" height="49.9831mm" version="1.1" style="shape-rendering:geometricPrecision; text-rendering:geometricPrecision; image-rendering:optimizeQuality; fill-rule:evenodd; clip-rule:evenodd"
viewBox="0 0 112.44 112.44"
 xmlns:xlink="http://www.w3.org/1999/xlink"
 xmlns:xodm="http://www.corel.com/coreldraw/odm/2003">
 <defs>
  <style type="text/css">
   <![CDATA[
    .fil0 {fill:#E30615}
    .fil2 {fill:#FEDD00}
    .fil1 {fill:#FEFDFD}
   ]]>
  </style>
 </defs>
 <g id="Layer_x0020_1">
  <metadata id="CorelCorpID_0Corel-Layer"/>
  <g id="_2634684020176">
   <rect class="fil0" width="112.44" height="112.44"/>
   <g>
    <path class="fil1" d="M40.95 26.99l-3.64 0.93 0.98 21.71c0.08,3.98 1.04,21.56 0.59,24.61 -0.53,3.56 -3.59,2.19 -3.06,5.08l10.47 -3.54c0.38,-3.36 -0.86,-19.7 -0.92,-26.07 -0.04,-3.8 -0.13,-3.76 3.24,-5.75 3.69,-2.17 3.97,0.04 4.26,3.12 0.92,9.68 0.25,17.09 0.76,26.14 1.75,-0.32 5.08,-1.64 6.94,-2.27 0.48,-0.16 3.3,-1.06 3.51,-1.21 1.6,-1.14 -0.55,-1.81 -1.27,-2.38 -5.56,-4.41 0.6,-27.26 -5.73,-31.08 -3.99,-2.42 -9.66,2.97 -11.9,5.76l-0.63 -15.81 -3.59 0.77z"/>
    <polygon class="fil2" points="38.29,49.63 37.31,27.91 40.95,26.99 42.3,12.17 28.8,12.96 26.86,74.02 35.48,72.43 "/>
    <path class="fil1" d="M68.51 49.82c-1.47,-7.06 6.43,-8.86 5.54,-1.6l-5.54 1.6zm5.91 5.66c-0.4,1.59 0.09,4.23 -2.08,5.28 -2.36,1.15 -3.59,-0.9 -3.75,-2.97 -0.33,-4.07 -0.45,-3.51 2.86,-4.51 9.7,-2.93 8.07,-1.77 7.83,-6.55 -0.1,-2.02 -0.34,-3.94 -1.43,-5.69 -2.06,-3.33 -7.69,-2.11 -10.34,-0.14 -5.34,3.97 -5.65,18.3 -2.57,22.82 4.19,6.15 15.73,-1.75 14.45,-9.83l-4.97 1.6z"/>
    <path class="fil1" d="M88.26 32.52c-1.41,0.07 -4.64,1.12 -6.18,1.54 -1.8,0.48 -5.6,0.83 -2.21,2.89 2.89,1.76 2.68,9.57 2.86,12.72 0.29,5.05 0.35,10.18 0.41,15.24 0.03,2.23 0.58,4.8 -1.83,5.93 -1.7,0.8 -1.53,0.41 -1.43,2.51 0.05,0.98 -0.04,2.66 0.29,3.49 2.03,0.28 6.97,-3.29 8.06,-5.46 1.5,-2.99 1,-9.1 0.89,-12.51 -0.27,-8.78 -0.63,-17.57 -0.88,-26.35z"/>
    <path class="fil2" d="M23.14 100.27c1.34,-0.06 11.95,-2.53 12.29,-3.02 0.25,-0.35 1.23,-13.04 0.98,-13.94l-12.39 2.68 -0.89 14.28z"/>
    <polygon class="fil2" points="81.8,30.63 87.97,29.01 87.82,23.61 81.55,25.16 "/>
   </g>
  </g>
 </g>
</svg>
