<?xml version="1.0" encoding="UTF-8"?>
<!DOCTYPE svg PUBLIC "-//W3C//DTD SVG 1.1//EN" "http://www.w3.org/Graphics/SVG/1.1/DTD/svg11.dtd">
<!-- Creator: CorelDRAW 2020 (64-Bit) -->
<svg xmlns="http://www.w3.org/2000/svg" xml:space="preserve" width="59.3977mm" height="13.0938mm" version="1.1" style="shape-rendering:geometricPrecision; text-rendering:geometricPrecision; image-rendering:optimizeQuality; fill-rule:evenodd; clip-rule:evenodd"
viewBox="0 0 466.19 102.77"
 xmlns:xlink="http://www.w3.org/1999/xlink"
 xmlns:xodm="http://www.corel.com/coreldraw/odm/2003">
 <defs>
  <style type="text/css">
   <![CDATA[
    .fil0 {fill:black}
   ]]>
  </style>
 </defs>
 <g id="Layer_x0020_1">
  <metadata id="CorelCorpID_0Corel-Layer"/>
  <g id="_1935784904368">
   <path class="fil0" d="M26.78 40.75l0 -35.72c0,-0.76 0.08,-2.08 -0.1,-2.66 -0.11,-0.35 -0.25,-0.66 -0.47,-0.91 -0.66,-0.74 -1.71,-1.37 -2.76,-1.37l-20.34 0c-0.81,0 -1.48,0.16 -2.04,0.65 -0.08,0.07 -0.14,0.09 -0.2,0.18 -0.53,0.67 -0.86,1.29 -0.86,2.25l0 96.62c0,1.94 1.13,2.98 3.01,2.98l20.5 0c0.51,0 1.01,-0.07 1.41,-0.19 0.39,-0.12 0.79,-0.33 1.05,-0.58 0.6,-0.6 0.81,-1.28 0.81,-2.46l0 -26.04c0,-0.37 -0.09,-0.59 0.13,-0.87l0.67 -0.77c0.12,-0.15 0.28,-0.29 0.39,-0.44l3.59 -4.13c0.58,-0.65 1.12,-1.33 1.71,-1.97 0.08,-0.08 0.09,-0.12 0.18,-0.21 0.29,-0.29 1,-1.15 1.35,-1.54l0.37 -0.43c0.13,-0.13 0.25,-0.34 0.39,-0.44 0.03,0.11 2.46,3.73 2.56,3.88 0.14,0.21 0.28,0.43 0.42,0.64l1.28 1.96c0.87,1.3 1.66,2.64 2.51,3.96 0.84,1.31 1.62,2.66 2.48,3.96 0.57,0.87 1.09,1.77 1.65,2.64l0.83 1.32c0.13,0.21 0.27,0.43 0.41,0.65l4.19 6.57c0.43,0.73 1.2,1.84 1.7,2.59 0.15,0.23 0.28,0.43 0.43,0.66l2.19 3.2c0.88,1.27 1.74,2.54 2.67,3.77l1.57 2.17c0.28,0.35 0.48,0.54 0.8,0.84 0.63,0.59 1.84,1.27 3.05,1.27l26.24 0c1.04,0 1.65,-0.37 1.45,-1.42 -0.17,-0.89 -1.65,-2.92 -2.21,-3.75 -7.16,-10.74 -14.26,-21.51 -21.42,-32.24l-3.57 -5.37c-1.6,-2.39 -3.17,-4.77 -4.76,-7.16 -0.4,-0.6 -0.78,-1.19 -1.19,-1.79 -0.4,-0.6 -0.79,-1.18 -1.19,-1.79l-2.39 -3.6c0.16,-0.11 1.94,-2.53 2.1,-2.74l3.15 -4.15c0.35,-0.47 0.69,-0.91 1.05,-1.39 2.08,-2.78 4.21,-5.53 6.3,-8.31l9.45 -12.46c0.09,-0.13 0.17,-0.22 0.26,-0.35 0.1,-0.13 0.17,-0.22 0.27,-0.34l9.45 -12.46c0.47,-0.63 1.29,-1.49 1.29,-2.36 0,-0.83 -0.79,-1.06 -1.63,-1.06l-26.36 0c-1.67,0 -3.19,1.11 -4.08,2.29 -0.09,0.12 -0.15,0.22 -0.24,0.34 -0.09,0.12 -0.16,0.2 -0.25,0.32l-1.77 2.3c-0.08,0.11 -0.17,0.21 -0.25,0.32l-1.78 2.32c-0.17,0.23 -0.33,0.42 -0.5,0.65 -0.18,0.24 -0.34,0.43 -0.52,0.67 -0.34,0.45 -0.67,0.86 -1,1.3 -1.16,1.56 -2.4,3.05 -3.56,4.61l-2.54 3.29c-1.04,1.3 -2.01,2.65 -3.04,3.94 -0.17,0.22 -0.32,0.44 -0.5,0.65 -0.6,0.72 -1.44,1.85 -2.03,2.62 -1.01,1.32 -2.01,2.64 -3.05,3.94l-2.54 3.29c-0.92,1.22 -1.88,2.4 -2.8,3.61l-2.03 2.61c-0.19,0.24 -1.16,1.55 -1.3,1.65z"/>
   <path class="fil0" d="M232.13 40.72l0 -35.75c0,-1.89 0.25,-3.1 -1.35,-4.16 -0.52,-0.35 -1.19,-0.7 -2.05,-0.7l-20.34 0c-0.95,0 -1.66,0.29 -2.14,0.78 -0.53,0.53 -0.9,1.25 -0.9,2.04l0 97.07c0,0.88 0.36,1.67 0.82,2.09 0.5,0.45 1.28,0.7 2.22,0.7l20.5 0c1.37,0 2.59,-0.46 3.05,-1.82 0.13,-0.38 0.19,-1.01 0.19,-1.45 -0.03,-6.5 0,-13.01 0,-19.51 0,-2.17 0,-4.34 0,-6.5 0,-0.87 -0.12,-0.57 0.41,-1.2l1.13 -1.31c0.12,-0.15 0.28,-0.29 0.39,-0.44 0.12,-0.15 0.24,-0.28 0.37,-0.43l0.75 -0.88c0.12,-0.14 0.27,-0.28 0.38,-0.42l3.41 -3.93c0.42,-0.54 1.11,-1.22 1.52,-1.75 0.08,-0.11 0.3,-0.38 0.42,-0.42 0.04,0.14 1.95,2.94 2.13,3.22l4.64 7.22c0.13,0.22 0.27,0.44 0.41,0.65 0.72,1.08 1.38,2.21 2.08,3.31l2.48 3.96c0.49,0.78 0.99,1.53 1.46,2.32l1.46 2.29c0.08,0.12 0.13,0.21 0.21,0.33l0.42 0.64c0.08,0.12 0.13,0.21 0.21,0.33l3.62 5.51c0.08,0.12 0.14,0.19 0.22,0.32l0.88 1.29c0.86,1.3 2.18,3.14 3.1,4.39 0.16,0.21 0.3,0.42 0.46,0.63 0.08,0.1 0.14,0.19 0.22,0.3 0.08,0.11 0.15,0.2 0.23,0.31 0.08,0.11 0.14,0.2 0.23,0.32l0.44 0.61c0.58,0.72 1.26,1.28 2.1,1.68 0.46,0.22 1.11,0.4 1.77,0.4l26.24 0c0.88,0 1.44,-0.29 1.44,-1.12 0,-0.91 -1.45,-2.86 -2.03,-3.74 -0.48,-0.73 -1.9,-2.79 -2.32,-3.48 -0.35,-0.59 -0.77,-1.16 -1.15,-1.73l-10.42 -15.68c-3.87,-5.8 -7.7,-11.62 -11.58,-17.41l-6.94 -10.46c-0.1,-0.14 -2.26,-3.31 -2.31,-3.49 0.08,-0.11 0.17,-0.21 0.25,-0.32 0.09,-0.12 0.17,-0.23 0.26,-0.35l5.51 -7.27c0.09,-0.12 0.17,-0.22 0.26,-0.35l2.61 -3.44c0.18,-0.23 0.34,-0.47 0.52,-0.69l1.05 -1.38c0.35,-0.47 0.69,-0.91 1.05,-1.39 0.09,-0.12 0.18,-0.22 0.27,-0.34 2.16,-2.89 4.38,-5.75 6.55,-8.64 0.1,-0.13 0.17,-0.22 0.26,-0.35l4.99 -6.58c2.43,-3.24 4.92,-6.43 7.34,-9.67l1.58 -2.07c1.01,-1.3 1.32,-2.77 -0.79,-2.77l-26.43 0c-1.43,0 -2.75,0.86 -3.55,1.67 -0.36,0.37 -1.13,1.46 -1.52,1.94 -0.09,0.12 -0.16,0.23 -0.26,0.35 -0.18,0.22 -0.33,0.43 -0.5,0.65 -0.17,0.22 -0.34,0.42 -0.5,0.65 -0.17,0.23 -0.33,0.42 -0.5,0.65l-8.1 10.51c-1.03,1.31 -2.06,2.62 -3.06,3.96l-0.76 0.97c-0.09,0.12 -0.16,0.21 -0.25,0.33l-2.02 2.62c-0.18,0.24 -0.34,0.43 -0.52,0.67l-3.05 3.94c-0.7,0.85 -1.36,1.74 -2.03,2.62 -0.34,0.44 -0.68,0.87 -1.02,1.32l-1.51 1.94c-0.09,0.11 -0.17,0.22 -0.25,0.32l-3.57 4.6c-0.16,0.2 -0.62,0.86 -0.79,0.97z"/>
   <path class="fil0" d="M379.42 102.77c1.02,0 1.7,-0.2 2.14,-1.13 0.25,-0.53 1,-4.3 1.13,-4.95l1.61 -7.58c0.19,-0.84 0.34,-1.67 0.54,-2.51 0.05,-0.2 0.08,-0.42 0.13,-0.63l0.94 -4.41c0.18,-0.86 0.35,-1.68 0.54,-2.54 0.09,-0.42 0.18,-0.84 0.26,-1.24 0.25,-1.27 0.56,-2.53 0.81,-3.8 0.17,-0.83 0.36,-1.69 0.53,-2.51l0.4 -1.9c0.29,-1.27 0.52,-2.51 0.8,-3.78 0.05,-0.22 0.08,-0.41 0.13,-0.63 0.09,-0.38 0.24,-0.9 0.27,-1.27l36.78 0c0.49,0 1.01,0.02 1.51,0 0.16,-0 0.18,-0.03 0.35,-0.03 1.84,-0.02 4.75,-0.49 6.4,-0.9 0.53,-0.13 1.87,-0.46 2.38,-0.7 0.2,0.84 0.34,1.73 0.51,2.59 0.17,0.87 0.35,1.73 0.52,2.62l6.5 32.64c0.22,1.09 0.21,2.08 1.36,2.54 0.81,0.32 1.83,0.02 2.24,-0.71 0.55,-0.96 0.33,-1.64 0.13,-2.66 -0.08,-0.4 -0.17,-0.83 -0.25,-1.23 -0.17,-0.83 -0.33,-1.62 -0.5,-2.45 -2.13,-10.67 -4.33,-21.37 -6.47,-32.04 -0.05,-0.24 -0.43,-2.3 -0.51,-2.47l1.96 -0.89c0.68,-0.28 1.53,-0.78 2.2,-1.14 1.4,-0.75 3.09,-1.84 4.38,-2.8 0.1,-0.08 0.19,-0.13 0.28,-0.2l0.82 -0.62c0.18,-0.15 0.34,-0.27 0.52,-0.41 0.19,-0.15 0.35,-0.28 0.54,-0.43l1.04 -0.88c0.17,-0.14 0.34,-0.32 0.51,-0.45 0.46,-0.35 2.38,-2.29 2.65,-2.6 0.08,-0.09 0.16,-0.16 0.24,-0.24 0.1,-0.1 0.13,-0.16 0.22,-0.26l0.68 -0.76c0.08,-0.11 0.14,-0.14 0.22,-0.26 0.07,-0.09 0.15,-0.18 0.22,-0.26 0.83,-0.93 1.55,-1.97 2.28,-2.97l0.95 -1.42c1.05,-1.56 1.91,-3.25 2.71,-4.95 0.21,-0.45 0.39,-0.88 0.57,-1.35 0.8,-2 1.32,-3.77 1.8,-5.86 0.78,-3.42 0.92,-6.56 0.62,-10.08 -0.22,-2.59 -1.04,-5.71 -2.2,-8.12l-0.53 -1.07c-0.8,-1.42 -1.08,-1.99 -2.14,-3.41 -0.33,-0.45 -0.87,-1.14 -1.26,-1.53 -0.09,-0.09 -0.12,-0.11 -0.2,-0.22 -0.29,-0.38 -1.21,-1.21 -1.6,-1.58 -0.08,-0.08 -0.12,-0.09 -0.21,-0.18 -0.41,-0.41 -1.07,-0.91 -1.55,-1.24 -0.94,-0.66 -1.89,-1.33 -2.93,-1.85 -0.37,-0.18 -0.67,-0.37 -1.07,-0.54l-0.55 -0.25c-1.69,-0.79 -3.57,-1.35 -5.42,-1.72 -1.74,-0.35 -3.72,-0.57 -5.8,-0.57l-39.37 0c-0.57,0 -1.2,0.21 -1.5,0.49 -0.39,0.37 -0.58,0.64 -0.76,1.23 -0.08,0.26 -0.12,0.56 -0.18,0.82 -0.06,0.28 -0.12,0.53 -0.18,0.82l-1.05 4.94c-0.11,0.54 -0.24,1.09 -0.35,1.64 -0.49,2.46 -1.09,4.93 -1.58,7.39l-1.59 7.45c-0.35,1.64 -0.67,3.28 -1.05,4.91 -0.38,1.65 -0.66,3.29 -1.05,4.94l-0.35 1.64c-0.44,2.19 -0.97,4.39 -1.4,6.58 -0.06,0.29 -0.11,0.54 -0.17,0.82l-0.35 1.66c-0.33,1.67 -0.72,3.28 -1.05,4.94l-1.22 5.76c-0.11,0.54 -0.23,1.1 -0.36,1.66l-1.75 8.22c-0.06,0.28 -0.12,0.53 -0.18,0.82 -0.27,1.39 -0.61,2.75 -0.88,4.12l-0.35 1.64c-0.32,1.38 -0.55,2.75 -0.88,4.12l-0.88 4.12c-0.27,1.38 -0.6,2.73 -0.88,4.12 -0.33,1.65 -0.73,3.28 -1.05,4.94l-0.88 4.12c-0.39,1.92 -0.85,3.84 -1.23,5.76 -0.11,0.57 -0.29,1.11 -0.31,1.71 -0.01,0.24 0.09,0.64 0.19,0.79 0.3,0.47 0.82,0.61 1.4,0.61zm45.77 -42.66l-34.77 -0.17 12.06 -56.3c11.77,-0.01 23.55,-0.02 35.32,-0.02 16.91,-0.55 26.94,12.74 23.74,27.06 -4.15,18.59 -19.69,29.08 -36.36,29.42z"/>
   <path class="fil0" d="M93.03 2.98l0 96.87c0,1.88 1.08,2.91 2.95,2.91l61.76 0c0.44,0 0.94,-0.11 1.26,-0.25 1.01,-0.43 1.85,-1.62 1.85,-2.73l0 -18.64c0,-1.69 -1.4,-2.88 -3.11,-2.88l-37.93 0 0 -75.06c0,-1.8 -1.47,-3.17 -3.17,-3.17l-20.53 0c-0.82,0 -1.63,0.27 -2.19,0.82 -0.22,0.22 -0.47,0.61 -0.61,0.9 -0.15,0.3 -0.28,0.79 -0.28,1.23z"/>
   <path class="fil0" d="M166.84 3.08l0 96.75c0,0.97 0.29,1.71 0.78,2.2 0.48,0.49 1.27,0.74 2.24,0.74l20.44 0c2.09,0 3.33,-0.95 3.33,-3.04l0 -96.62c0,-0.52 -0.15,-0.92 -0.33,-1.27 -0.49,-0.92 -2,-1.74 -3.13,-1.74l-20.21 0c-1.02,0 -1.79,0.23 -2.41,0.99 -0.06,0.07 -0.11,0.14 -0.17,0.22 -0.33,0.49 -0.53,1.13 -0.53,1.78z"/>
   <path class="fil0" d="M301.16 101.36c0,0.97 0.62,1.41 1.6,1.41l68.39 0c0.78,0 1.46,-0.25 1.85,-0.65 0.9,-0.91 1.34,-2.61 -0.24,-3.01 -0.61,-0.15 -1.4,-0.12 -2.06,-0.12l-65.19 0 2.22 -10.4c0.1,-0.52 0.22,-0.99 0.32,-1.51 0.39,-2 0.86,-3.95 1.27,-5.94 0.21,-1 0.44,-2 0.63,-2.99 0.39,-1.98 0.87,-3.96 1.27,-5.94 0.19,-0.98 0.44,-1.99 0.64,-2.98 0.39,-1.99 0.88,-3.99 1.27,-5.97l0.94 -4.44c0.1,-0.49 0.21,-0.99 0.32,-1.51l1.27 -5.97 51.06 0c1.75,0 4.21,0.41 4.87,-1.51 0.25,-0.74 0.18,-1.52 -0.52,-1.91 -0.39,-0.21 -0.9,-0.27 -1.49,-0.27l-53.11 0c0.03,-0.33 0.88,-4.15 1,-4.73 0.1,-0.52 0.23,-1.07 0.34,-1.59 0.37,-1.88 0.81,-3.67 1.18,-5.55 0.05,-0.27 0.11,-0.55 0.17,-0.79l1.52 -7.13c0.37,-1.85 0.81,-3.7 1.18,-5.55 0.21,-1.06 0.45,-2.11 0.67,-3.17l0.68 -3.17c0.06,-0.25 0.11,-0.53 0.17,-0.79 0.37,-1.87 0.81,-3.67 1.18,-5.55l1.18 -5.55c0.1,-0.48 0.01,-0.39 0.57,-0.39l61.51 0c1.12,0 2.79,0.08 3.77,-0.08 0.57,-0.09 0.99,-0.27 1.3,-0.62 0.37,-0.42 0.5,-1.07 0.5,-1.71 0,-0.9 -1.11,-1.31 -2.05,-1.31l-66.73 0c-1.27,0 -1.94,0.65 -2.26,1.61 -0.08,0.25 -0.12,0.51 -0.18,0.78l-0.34 1.61c-0.06,0.28 -0.11,0.53 -0.17,0.82 -0.24,1.08 -0.47,2.15 -0.69,3.22 -0.5,2.4 -1.05,4.8 -1.53,7.21l-2.23 10.46c-0.34,1.6 -0.71,3.23 -1.03,4.83 -0.22,1.09 -0.47,2.16 -0.68,3.23 -0.22,1.08 -0.47,2.14 -0.69,3.22 -0.21,1.06 -0.46,2.12 -0.68,3.2l-1.71 8.06c-0.05,0.27 -0.12,0.52 -0.17,0.79l-0.85 4.01c-0.22,1.08 -0.45,2.14 -0.68,3.23 -0.46,2.13 -0.93,4.29 -1.37,6.44 -0.11,0.52 -0.21,1.05 -0.34,1.58l-0.69 3.22c-0.3,1.49 -0.68,3.37 -1.03,4.83l-0.69 3.22c-0.64,3.23 -1.41,6.41 -2.05,9.64l-2.74 12.86c-0.12,0.61 -0.64,2.71 -0.64,3.27z"/>
  </g>
 </g>
</svg>
