<?xml version="1.0" encoding="UTF-8"?>
<!DOCTYPE svg PUBLIC "-//W3C//DTD SVG 1.1//EN" "http://www.w3.org/Graphics/SVG/1.1/DTD/svg11.dtd">
<!-- Creator: CorelDRAW 2020 (64-Bit) -->
<svg xmlns="http://www.w3.org/2000/svg" xml:space="preserve" width="50.4988mm" height="37.0442mm" version="1.1" style="shape-rendering:geometricPrecision; text-rendering:geometricPrecision; image-rendering:optimizeQuality; fill-rule:evenodd; clip-rule:evenodd"
viewBox="0 0 106.25 77.94"
 xmlns:xlink="http://www.w3.org/1999/xlink"
 xmlns:xodm="http://www.corel.com/coreldraw/odm/2003">
 <defs>
  <style type="text/css">
   <![CDATA[
    .fil2 {fill:#FEFEFE}
    .fil0 {fill:#EE4037}
    .fil1 {fill:#FEFEFE;fill-rule:nonzero}
   ]]>
  </style>
 </defs>
 <g id="Layer_x0020_1">
  <metadata id="CorelCorpID_0Corel-Layer"/>
  <g id="mtel_x0020_logo.cdr">
   <path class="fil0" d="M20.9 0.69l64.44 0c11.11,0 20.21,8.62 20.21,19.17l0 38.2c0,10.55 -9.1,19.18 -20.21,19.18l-19.85 0 -44.6 0 -20.21 0 0 -19.18 0 -33.25 0 -4.95c0,-10.55 9.09,-19.17 20.21,-19.17z"/>
   <path class="fil1" d="M65.5 77.94l-44.6 0 -20.9 0 0 -19.88 0 -33.25 0 -4.95c0.01,-10.96 9.43,-19.85 20.9,-19.87l0 0.69 0 0.69c-10.76,0 -19.5,8.35 -19.51,18.48l0 4.95 0 33.25 0 18.49 19.51 0 44.6 0 19.85 0c10.75,0 19.5,-8.36 19.52,-18.49l0 -38.2c-0.02,-10.13 -8.77,-18.48 -19.52,-18.48l-64.44 0 0 -0.69 0 -0.69 64.44 0c11.47,0.02 20.9,8.9 20.91,19.87l0 38.2c-0.01,10.96 -9.44,19.86 -20.91,19.88l-19.85 0z"/>
   <g>
    <path class="fil2" d="M45.83 39.74c1.34,0 2.43,-1.09 2.43,-2.44 0,-1.34 -1.09,-2.43 -2.43,-2.43 -1.34,0 -2.43,1.1 -2.43,2.43 0,1.35 1.1,2.44 2.43,2.44z"/>
    <path class="fil2" d="M45.83 47.61c1.34,0 2.43,-1.09 2.43,-2.43 0,-1.34 -1.09,-2.44 -2.43,-2.44 -1.34,0 -2.43,1.1 -2.43,2.44 0,1.34 1.1,2.43 2.43,2.43z"/>
    <g>
     <path class="fil1" d="M16.65 31.95c0.1,0.38 0.17,0.85 0.21,1.42 0.34,-0.19 0.73,-0.38 1.16,-0.59 0.43,-0.2 0.89,-0.39 1.39,-0.56 0.49,-0.16 1.01,-0.29 1.55,-0.4 0.55,-0.11 1.09,-0.17 1.64,-0.17 0.94,0 1.77,0.16 2.5,0.45 0.72,0.3 1.34,0.81 1.86,1.5 2.3,-1.3 4.49,-1.95 6.56,-1.95 0.87,0 1.64,0.16 2.29,0.44 0.65,0.3 1.18,0.7 1.6,1.21 0.42,0.52 0.73,1.13 0.94,1.81 0.2,0.69 0.31,1.44 0.31,2.23l0 13.23 -2.72 0 0 -12.97c0,-0.63 -0.08,-1.18 -0.24,-1.65 -0.18,-0.46 -0.41,-0.85 -0.71,-1.17 -0.3,-0.3 -0.65,-0.54 -1.05,-0.69 -0.4,-0.15 -0.83,-0.22 -1.29,-0.22 -1.67,0 -3.3,0.41 -4.89,1.27 0.15,0.69 0.23,1.43 0.23,2.24l0 13.18 -2.72 0 0 -12.94c0,-1.29 -0.29,-2.23 -0.86,-2.85 -0.57,-0.61 -1.39,-0.91 -2.47,-0.91 -0.87,0 -1.74,0.13 -2.6,0.41 -0.84,0.26 -1.64,0.59 -2.37,0.97l0 15.32 -2.73 0 0 -16.45c-0.01,-0.79 -0.06,-1.52 -0.14,-2.17l2.55 0z"/>
    </g>
    <g>
     <path class="fil1" d="M52.56 31.95l2.69 0 0 -4.71 2.72 0 0 4.71 4.54 0 -0.3 2.37 -4.25 0 0 10.76c0,1.07 0.18,1.93 0.53,2.57 0.35,0.64 0.89,0.96 1.65,0.96 0.4,0 0.91,-0.06 1.51,-0.17 0.61,-0.13 1.02,-0.21 1.21,-0.27l0.21 2.36c-0.23,0.04 -0.71,0.12 -1.46,0.22 -0.74,0.1 -1.32,0.14 -1.75,0.14 -1.46,0 -2.59,-0.37 -3.4,-1.09 -0.82,-0.72 -1.22,-2.06 -1.22,-4.02l0 -11.46 -2.69 0 0 -2.37z"/>
     <path class="fil1" d="M81.71 47.24c-0.82,1.08 -1.81,1.96 -2.97,2.63 -1.17,0.67 -2.69,1 -4.57,1 -2.44,0 -4.4,-0.87 -5.89,-2.59 -1.49,-1.73 -2.23,-4.18 -2.23,-7.32 0,-2.75 0.68,-4.99 2.02,-6.71 1.34,-1.73 3.31,-2.6 5.91,-2.6 2.2,0 3.93,0.6 5.21,1.81 1.27,1.21 1.99,2.9 2.15,5.05 0.07,0.82 0.09,1.67 0.05,2.57l-12.49 0c0,2.06 0.47,3.83 1.42,5.3 0.94,1.48 2.22,2.21 3.86,2.21 1.18,0 2.22,-0.24 3.11,-0.73 0.88,-0.5 1.7,-1.24 2.45,-2.21l1.97 1.58zm-7.76 -13.45l0 0c-1.63,0 -2.85,0.55 -3.68,1.67 -0.83,1.11 -1.27,2.36 -1.32,3.77l9.67 0c-0.04,-1.49 -0.42,-2.76 -1.1,-3.83 -0.69,-1.06 -1.88,-1.6 -3.57,-1.6z"/>
     <path class="fil1" d="M86.23 23.55l2.73 0 0 23.21c0,0.7 0.14,1.18 0.42,1.43 0.27,0.24 0.76,0.38 1.44,0.38 0.1,0 0.23,-0 0.42,-0.01 0.17,-0.01 0.35,-0.03 0.53,-0.05l0.4 1.59c-0.21,0.09 -0.43,0.18 -0.69,0.27 -0.25,0.09 -0.52,0.18 -0.79,0.25 -0.28,0.07 -0.55,0.14 -0.83,0.18 -0.28,0.04 -0.53,0.06 -0.78,0.06 -0.9,0 -1.6,-0.29 -2.09,-0.87 -0.51,-0.57 -0.75,-1.43 -0.75,-2.57l0 -23.86z"/>
    </g>
   </g>
  </g>
 </g>
</svg>
