<?xml version="1.0" encoding="UTF-8"?>
<!DOCTYPE svg PUBLIC "-//W3C//DTD SVG 1.1//EN" "http://www.w3.org/Graphics/SVG/1.1/DTD/svg11.dtd">
<!-- Creator: CorelDRAW 2020 (64-Bit) -->
<svg xmlns="http://www.w3.org/2000/svg" xml:space="preserve" width="44.5472mm" height="34.4433mm" version="1.1" style="shape-rendering:geometricPrecision; text-rendering:geometricPrecision; image-rendering:optimizeQuality; fill-rule:evenodd; clip-rule:evenodd"
viewBox="0 0 790.14 610.93"
 xmlns:xlink="http://www.w3.org/1999/xlink"
 xmlns:xodm="http://www.corel.com/coreldraw/odm/2003">
 <defs>
  <style type="text/css">
   <![CDATA[
    .fil1 {fill:#EC1C24}
    .fil2 {fill:#C7BD8A}
    .fil3 {fill:#272424;fill-rule:nonzero}
    .fil0 {fill:#C7BD8A;fill-rule:nonzero}
   ]]>
  </style>
 </defs>
 <g id="Layer_x0020_1">
  <metadata id="CorelCorpID_0Corel-Layer"/>
  <g id="_1935776498256">
   <path class="fil0" d="M415.59 342.67l9.47 0 0.02 62.88 -0.16 -0.22 -3.17 -4.32 -17.22 -23.25 -4.62 -6.34 -3.04 -4.24 -1.44 -2.03 20.12 -34.41 -2.14 9.16 -0.65 2.76 2.84 0zm-142.38 -25.47l37.34 49.83 -17.4 29.17 -19.94 -79zm495.2 22.17l-23.37 0 0 96.5 -60.91 0 0 -97.08 -39.92 0 -2.77 10.59 8.53 0 -4.68 15.79 -0.6 1.89 -0.62 1.85 -0.66 1.8 -0.71 1.79 -0.77 1.74 -0.85 1.74 -0.94 1.69 -1.18 1.87 -1.12 1.56 -1.43 1.74 -1.28 1.33 1.31 0.05 1.77 0.13 1.76 0.18 1.75 0.24 1.75 0.3 1.73 0.35 1.75 0.43 1.71 0.5 1.72 0.58 1.68 0.65 1.69 0.75 1.64 0.83 1.63 0.93 1.58 1.03 1.53 1.13 1.56 1.28 1.54 1.45 1.34 1.43 1.26 1.53 1.18 1.61 1.08 1.7 0.99 1.77 0.8 1.65 0.79 1.87 0.7 1.98 0.6 2.01 0.51 2.09 0.4 2.1 0.32 2.18 0.22 2.2 0.13 2.28 0.26 14.48 -128.18 0 0 -21.74 -0.11 0.17 -0.8 1.15 -0.83 1.11 -0.89 1.11 -0.9 1.06 -0.95 1.05 -0.96 1.01 -1.01 1 -1.05 0.98 -1.09 0.96 -1.11 0.93 -1.14 0.9 -1.17 0.88 -1.21 0.86 -1.49 1 -1.12 0.69 -1.5 0.87 -1.52 0.79 -1.54 0.74 -1.23 0.54 -1.58 0.62 -1.23 0.44 -1.62 0.51 -1.69 0.46 -1.33 0.31 -1.29 0.26 -1.73 0.29 -1.36 0.18 -1.82 0.18 -1.81 0.12 -1.86 0.06 -0.93 0.01 -65.85 0 8.16 11.91 -27.47 -0.15 -4.34 -0.08 -4.1 -0.14 -3.87 -0.21 -3.65 -0.27 -3.49 -0.36 -3.3 -0.45 -3.16 -0.54 -3.03 -0.66 -2.92 -0.78 -2.91 -0.95 -2.74 -1.07 -2.62 -1.23 -2.68 -1.47 -2.33 -1.51 -2.15 -1.59 -2.06 -1.73 -2 -1.88 -1.9 -1.98 -1.81 -2.06 -1.74 -2.13 -1.69 -2.2 -1.66 -2.27 -1.66 -2.35 -1.69 -2.44 -3.74 -5.5 -12.98 21.11 -103.47 0 -2.53 -15.32 -20.13 0 -0.37 0.63 -1.11 1.67 -1.24 1.64 -1.17 1.36 -1.34 1.38 -1.59 1.41 -1.55 1.18 -1.46 0.95 -1.66 0.93 -1.69 0.81 -1.83 0.73 -1.54 0.52 -1.7 0.48 -1.75 0.4 -1.74 0.32 -1.73 0.26 -1.72 0.2 -1.76 0.15 -1.75 0.11 -1.78 0.08 -1.79 0.05 -1.85 0.04 -1.88 0.02 -3.89 0.01 -11.53 -0.02 -0.44 0 -54.04 0 0 -59.78 -14.17 17.65 -16.37 -17.96 0 60.08 -60.07 0 0 -95.74 -11.53 0 13.33 -60.36 53.78 0 19.51 23.47 0.62 -0.79 1.36 -1.66 1.39 -1.64 1.43 -1.6 1.5 -1.57 1.56 -1.53 1.66 -1.5 1.74 -1.44 1.85 -1.38 1.94 -1.3 2.06 -1.23 2.14 -1.13 2.27 -1.04 2.33 -0.93 2.44 -0.83 2.52 -0.75 2.62 -0.65 2.72 -0.56 2.84 -0.48 2.94 -0.4 3.07 -0.33 3.21 -0.26 3.38 -0.2 3.52 -0.14 3.71 -0.08 15.98 -0.12 0 113.35 12.52 -37.74 -9.43 0 20.83 -47.95 75.13 0 26.58 105.29 25.28 -42.39 -64.99 -86.74 28.88 0.18 4.52 0.1 4.27 0.16 4.06 0.24 3.84 0.32 3.65 0.41 3.48 0.5 3.33 0.6 3.2 0.73 3.08 0.85 2.96 0.99 2.96 1.18 2.77 1.32 2.63 1.47 2.51 1.62 2.46 1.83 2.08 1.75 2.12 2 2.01 2.1 1.92 2.19 1.84 2.27 1.78 2.36 1.74 2.42 1.72 2.52 1.74 2.62 1.77 2.7 2.51 3.9 1.03 -1.31 1.38 -1.64 1.4 -1.54 1.5 -1.5 1.66 -1.48 1.72 -1.35 1.96 -1.33 1.92 -1.1 2 -0.96 1.87 -0.73 2.17 -0.7 1.89 -0.49 2.1 -0.43 2.14 -0.32 2.14 -0.24 2.18 -0.17 2.23 -0.12 2.32 -0.07 2.39 -0.04 2.5 -0.02 11.41 0.04 24.21 0.03 -36 61.57 3.31 4.67 3.06 4.27 4.64 6.37 17.23 23.25 3.16 4.3 3.16 4.35 3.16 4.4 2.86 4.04 -0.02 -83.38 -11.01 0 13.72 -58.73 74.21 0 1.41 0.02 0.76 0.02 1.56 0.11 1.52 0.15 1.5 0.21 0.82 0.14 1.43 0.27 1.5 0.35 1.46 0.4 1.47 0.46 0.78 0.27 0.73 0.26 1.34 0.54 1.4 0.61 0.76 0.36 1.31 0.67 0.75 0.4 1.27 0.74 1.32 0.82 1.19 0.81 1.11 0.8 1.06 0.81 1.05 0.85 1 0.85 0.98 0.89 1.23 1.2 0.9 0.92 0.89 0.97 0.85 1 0.81 1 0.79 1.05 0.74 1.05 0.71 1.09 0.67 1.12 0.63 1.12 0.59 1.14 0.56 1.17 0.52 1.19 0.48 1.21 0.45 1.23 0.24 0.75 0.16 -0.62 52.08 0 1.55 -4.43 46.52 0 0.42 -0.77 1.21 -2.01 1.29 -1.94 1.38 -1.85 1.44 -1.75 1.55 -1.68 1.62 -1.57 1.87 -1.6 1.64 -1.25 1.9 -1.28 1.86 -1.1 1.94 -1.01 2 -0.91 2.04 -0.8 2.07 -0.69 2.09 -0.59 2.1 -0.49 2.13 -0.42 2.14 -0.33 2.16 -0.26 2.17 -0.2 2.2 -0.14 2.22 -0.09 2.24 -0.04 33.36 0 1.17 -5.92 57.82 0 -15.42 65.15zm18.88 -70.14l-63.5 0 -1.84 0 -0.37 1.8 -0.8 4.12 -29.37 0 -2.31 0.04 -2.33 0.09 -2.33 0.15 -2.31 0.21 -2.32 0.28 -2.32 0.36 -2.32 0.45 -2.3 0.54 -2.31 0.66 -2.3 0.76 -0.05 0.02 -0.05 0.02 -2.18 0.85 -0.06 0.02 -0.06 0.02 -2.13 0.97 -0.05 0.02 -0.06 0.03 -2.07 1.08 -0.05 0.03 -0.05 0.03 -2 1.18 -0.06 0.04 -0.05 0.04 -2.02 1.37 -0.05 0.04 -0.05 0.04 -1.76 1.35 -0.06 0.04 -0.05 0.04 -1.99 1.72 -0.05 0.04 -0.05 0.04 -1.73 1.67 -0.04 0.05 -0.04 0.04 -1.65 1.8 -0.04 0.04 -0.04 0.05 -1.53 1.86 -0.04 0.04 -0.03 0.04 -1.46 1.96 -1.43 2.15 -0.27 0.45 -45.6 0 -1.6 0 -0.53 1.51 -1.02 2.92 -45.48 0 -0.37 -0.85 -0.63 -1.32 -0.67 -1.29 -0.71 -1.26 -0.77 -1.26 -0.8 -1.23 -0.84 -1.19 -0.88 -1.17 -0.92 -1.14 -0.95 -1.11 -0.99 -1.09 -1 -1.03 -1.35 -1.3 -1.09 -1 -1.11 -0.95 -1.15 -0.93 -1.18 -0.9 -1.22 -0.88 -1.34 -0.9 -1.47 -0.91 -1.39 -0.81 -0.88 -0.47 -1.42 -0.72 -0.89 -0.42 -1.54 -0.67 -1.48 -0.59 -0.85 -0.31 -0.89 -0.31 -1.62 -0.51 -1.64 -0.45 -1.68 -0.39 -1.6 -0.31 -0.95 -0.16 -1.65 -0.23 -1.69 -0.18 -1.73 -0.12 -0.88 -0.03 -1.5 -0.03 -76.42 0 -1.79 0 -0.41 1.74 -5.4 23.15 -21.7 -0.03 -11.44 -0.04 -2.55 0.02 -2.45 0.04 -2.41 0.07 -2.36 0.13 -2.32 0.18 -2.32 0.26 -2.36 0.36 -2.35 0.48 -0.06 0.01 -0.06 0.02 -2.04 0.53 -0.07 0.02 -0.06 0.02 -2.33 0.76 -0.07 0.02 -0.06 0.02 -1.97 0.77 -0.08 0.03 -0.08 0.04 -2.17 1.04 -0.07 0.04 -0.07 0.04 -2.1 1.21 -0.08 0.04 -0.07 0.05 -2.19 1.5 -0.06 0.04 -0.06 0.05 -1.86 1.46 -0.06 0.04 -0.05 0.05 -1.78 1.59 -0.04 0.04 -0.05 0.04 -1.21 1.21 -0.68 -1.05 -1.78 -2.67 -1.78 -2.59 -1.8 -2.51 -1.88 -2.48 -1.95 -2.41 -2.06 -2.35 -2.19 -2.28 -0.04 -0.04 -0.04 -0.04 -2.24 -2.1 -0.05 -0.04 -0.05 -0.04 -2.21 -1.85 -0.05 -0.04 -0.06 -0.04 -2.61 -1.94 -0.06 -0.04 -0.06 -0.04 -2.66 -1.72 -0.06 -0.04 -0.06 -0.04 -2.79 -1.55 -0.06 -0.04 -0.06 -0.03 -2.93 -1.39 -0.06 -0.03 -0.07 -0.03 -3.11 -1.24 -0.06 -0.03 -0.06 -0.02 -3.09 -1.03 -0.06 -0.02 -0.05 -0.02 -3.21 -0.89 -3.42 -0.78 -3.53 -0.64 -3.65 -0.53 -3.8 -0.43 -3.96 -0.32 -4.16 -0.24 -4.36 -0.16 -4.6 -0.1 -34.43 -0.22 -4.54 -0.03 2.72 3.64 15.19 20.27 -71.68 0 -1.48 0 -0.59 1.36 -15.07 34.68 0 -61.46 0 -2.27 -2.27 0.02 -18.78 0.13 -3.8 0.08 -3.61 0.15 -3.49 0.2 -3.33 0.27 -3.21 0.35 -3.09 0.42 -3.01 0.51 -2.91 0.6 -2.82 0.7 -2.74 0.8 -2.66 0.92 -2.56 1.02 -0.06 0.02 -0.05 0.02 -2.4 1.11 -0.05 0.03 -0.05 0.03 -2.27 1.2 -0.05 0.03 -0.06 0.03 -2.18 1.31 -0.05 0.03 -0.05 0.03 -2.05 1.38 -2.04 1.53 -0.04 0.04 -0.04 0.04 -1.83 1.51 -1.82 1.64 -1.69 1.65 -1.6 1.69 -1.14 1.27 -16.49 -19.84 -0.67 -0.81 -1.06 0 -57.27 0 -1.81 0 -0.39 1.77 -14.54 65.83 -0.6 2.74 2.81 0 9.94 0 0 93.49 0 2.25 2.26 0 65.54 0 2.25 0 0 -2.25 0 -49.94 9.84 10.8 1.78 1.95 1.65 -2.06 7.28 -9.08 0 48.33 0 2.25 2.26 0 57.21 -0.01 11.54 0.02 3.92 -0.01 1.93 -0.02 1.89 -0.04 1.86 -0.06 1.87 -0.08 1.86 -0.12 1.89 -0.17 1.86 -0.22 1.91 -0.28 1.94 -0.36 1.98 -0.46 1.93 -0.55 1.78 -0.6 0.06 -0.02 0.06 -0.02 1.99 -0.81 0.07 -0.03 0.07 -0.03 1.85 -0.89 0.07 -0.03 0.06 -0.04 1.81 -1.03 0.05 -0.03 0.06 -0.03 1.54 -1 0.07 -0.05 0.07 -0.05 1.71 -1.3 0.07 -0.05 0.07 -0.06 1.81 -1.62 0.06 -0.05 0.05 -0.05 1.47 -1.51 0.05 -0.05 0.05 -0.05 1.27 -1.49 0.04 -0.05 0.04 -0.06 1.35 -1.78 0.04 -0.06 0.04 -0.06 0.04 -0.06 13.18 0 2.22 13.43 0.31 1.89 1.91 0 107.32 0 1.26 0 0.66 -1.07 9.74 -15.85 1.13 1.63 1.7 2.4 1.72 2.36 1.77 2.3 1.85 2.27 1.95 2.21 2.06 2.15 0.04 0.04 0.04 0.04 2.12 1.98 0.04 0.04 0.04 0.04 2.19 1.83 0.06 0.05 0.06 0.04 2.28 1.68 0.05 0.04 0.05 0.04 2.41 1.58 0.07 0.04 0.08 0.04 2.92 1.6 0.06 0.04 0.06 0.03 2.78 1.3 0.07 0.03 0.07 0.03 2.89 1.13 0.06 0.02 0.06 0.02 3.05 0.99 0.06 0.02 0.05 0.02 3.05 0.81 3.24 0.71 3.36 0.58 3.47 0.46 3.63 0.38 3.77 0.29 3.97 0.21 4.18 0.14 4.42 0.09 32.73 0.18 4.31 0.02 -2.44 -3.56 -5.76 -8.4 56.41 0 1 -0.01 2.02 -0.06 1.97 -0.13 1.99 -0.2 1.51 -0.21 1.89 -0.31 1.44 -0.29 1.49 -0.34 1.89 -0.51 1.79 -0.56 1.4 -0.49 1.73 -0.68 1.4 -0.61 1.71 -0.82 1.68 -0.89 1.67 -0.96 1.24 -0.78 1.63 -1.07 1.33 -0.95 1.27 -0.95 1.25 -0.98 1.21 -1.01 0.34 -0.31 0 11.42 0 2.25 2.26 0 133.69 0 2.3 0 -0.04 -2.29 -0.31 -17.37 -0.15 -2.49 -0.24 -2.42 -0.35 -2.41 -0.45 -2.33 -0.57 -2.34 -0.02 -0.06 -0.01 -0.05 -0.64 -2.14 -0.02 -0.06 -0.02 -0.05 -0.76 -2.14 -0.02 -0.06 -0.02 -0.07 -0.85 -2 -0.02 -0.06 -0.02 -0.05 -0.87 -1.8 -0.03 -0.06 -0.03 -0.06 -1.07 -1.91 -0.03 -0.05 -0.04 -0.06 -1.17 -1.84 -0.04 -0.06 -0.04 -0.06 -1.28 -1.74 -0.04 -0.05 -0.04 -0.05 -1.37 -1.65 -0.05 -0.06 -0.05 -0.05 -1.46 -1.55 -0.05 -0.05 -0.05 -0.04 -1.68 -1.58 -0.05 -0.05 -0.06 -0.04 -1.68 -1.38 -0.05 -0.04 -0.06 -0.04 -1.67 -1.21 -0.05 -0.04 -0.05 -0.04 -1.71 -1.1 -0.06 -0.04 -0.05 -0.03 -1.76 -1 -0.05 -0.03 -0.05 -0.03 -1.77 -0.89 -1.91 -0.85 -1.9 -0.73 -1.93 -0.65 -1.91 -0.56 -1.93 -0.48 -1.85 -0.38 0.02 -0.02 0.03 -0.06 1 -1.82 0.95 -1.94 0.85 -1.91 0.78 -1.94 0.7 -1.92 0.66 -1.95 0.62 -1.98 6.17 -20.79 0.61 -2.06 22.11 0 0.19 94.83 0 2.25 2.25 0 66.39 0 2.25 0 0 -2.25 0 -94.25 20.54 0 1.78 0 0.41 -1.74 16.71 -70.62 0.66 -2.77 -2.85 0z"/>
   <path class="fil1" d="M217.54 376.56l10.69 -30.23 8.18 30.23 -18.87 0zm39.9 -63.45l-61.78 0 -12.76 29.34 8.14 0 -26.73 80.57 5.94 0.01 2.09 0.01 2.01 0.01 1.94 -0.01 1.86 -0 1.8 -0.02 1.73 -0.03 1.66 -0.06 1.61 -0.07 1.55 -0.1 1.5 -0.12 1.45 -0.17 1.4 -0.2 1.35 -0.24 1.31 -0.29 1.26 -0.35 1.23 -0.4 1.19 -0.47 1.15 -0.54 1.11 -0.61 1.06 -0.69 1.01 -0.77 0.97 -0.84 0.92 -0.92 0.87 -1 0.82 -1.07 0.78 -1.15 0.73 -1.23 0.7 -1.3 0.66 -1.4 0.54 -1.27 33.78 0 2.53 15.32 40.37 0 -20.5 -81.23 -7.24 -28.7z"/>
   <path class="fil1" d="M491.63 343.12l-12.49 0 0 -1.53 0 -16.27 7.53 0 4.96 0c1.55,0 2.99,0.43 4.26,1.13l0.19 0.1 0.24 0.13 0.06 0.04c2.49,1.58 4.16,4.34 4.16,7.51 0,4.92 -3.99,8.9 -8.91,8.9zm0 45.49l-12.49 0 0 -0.78 0 -18.86 0 -0.99 12.49 0c4.92,0 8.91,4.61 8.91,10.31 0,5.69 -3.99,10.31 -8.91,10.31zm51.89 -0.38l-0.02 -0.7 -0.02 -0.68 -0.03 -0.68 -0.04 -0.67 -0.04 -0.66 -0.05 -0.65 -0.05 -0.65 -0.07 -0.63 -0.07 -0.63 -0.08 -0.62 -0.08 -0.61 -0.09 -0.6 -0.09 -0.6 -0.11 -0.59 -0.11 -0.58 -0.12 -0.57 -0.13 -0.57 -0.13 -0.56 -0.14 -0.54 -0.14 -0.54 -0.16 -0.53 -0.15 -0.53 -0.16 -0.52 -0.17 -0.51 -0.18 -0.5 -0.18 -0.49 -0.19 -0.48 -0.2 -0.48 -0.2 -0.47 -0.21 -0.46 -0.23 -0.46 -0.23 -0.46 -0.24 -0.45 -0.26 -0.46 -0.27 -0.46 -0.28 -0.46 -0.29 -0.46 -0.31 -0.46 -0.32 -0.46 -0.32 -0.47 -0.34 -0.46 -0.35 -0.46 -0.36 -0.46 -0.37 -0.47 -0.38 -0.47 -0.4 -0.47 -0.41 -0.46 -0.42 -0.47 -0.43 -0.48 -0.44 -0.46 -0.46 -0.47 -0.47 -0.47 -0.48 -0.47 -0.49 -0.47 -0.5 -0.48 -0.51 -0.47 -0.53 -0.48 -0.54 -0.47 -0.54 -0.48 -0.57 -0.48 -0.57 -0.48 -0.59 -0.48 -3.55 -2.69 1.12 -0.73 0.82 -0.58 0.8 -0.59 0.78 -0.61 0.75 -0.62 0.73 -0.63 0.71 -0.65 0.69 -0.67 0.66 -0.68 0.65 -0.7 0.62 -0.71 0.6 -0.73 0.57 -0.74 0.55 -0.76 0.53 -0.78 0.51 -0.79 0.49 -0.8 0.47 -0.82 0.44 -0.84 0.42 -0.85 0.4 -0.87 0.38 -0.88 0.36 -0.9 0.33 -0.91 0.32 -0.93 0.29 -0.95 0.26 -0.96 0.25 -0.98 0.22 -0.99 0.2 -1.01 0.18 -1.03 0.16 -1.03 0.04 -0.32 0.04 -0.32 0.04 -0.31 0.04 -0.29 0.03 -0.29 0.03 -0.26 0.03 -0.26 0.02 -0.24 0.02 -0.23 0.02 -0.22 0.01 -0.2 0.02 -0.19 0.01 -0.18 0 -0.17 0.01 -0.16 0 -0.14 0 -2.1 -0.01 -1.11 -0.05 -1.09 -0.07 -1.08 -0.1 -1.06 -0.13 -1.04 -0.16 -1.03 -0.19 -1.01 -0.22 -1 -0.24 -0.98 -0.27 -0.97 -0.31 -0.95 -0.33 -0.93 -0.36 -0.92 -0.39 -0.91 -0.42 -0.89 -0.45 -0.87 -0.48 -0.86 -0.51 -0.84 -0.54 -0.83 -0.56 -0.81 -0.6 -0.8 -0.62 -0.79 -0.66 -0.76 -0.68 -0.75 -0.71 -0.74 -0.15 -0.14 -0.12 -0.12 -0.74 -0.72 -0.78 -0.71 -0.8 -0.69 -0.83 -0.68 -0.87 -0.67 -0.89 -0.65 -0.92 -0.63 -0.52 -0.33 -0.52 -0.32 -0.52 -0.3 -0.53 -0.31 -0.53 -0.29 -0.53 -0.28 -0.53 -0.27 -0.54 -0.26 -0.54 -0.24 -0.55 -0.24 -0.55 -0.23 -0.55 -0.22 -0.55 -0.2 -0.55 -0.2 -0.56 -0.18 -0.57 -0.17 -0.57 -0.16 -0.57 -0.15 -0.57 -0.14 -0.58 -0.13 -0.58 -0.12 -0.58 -0.11 -0.59 -0.1 -0.6 -0.09 -0.59 -0.08 -0.6 -0.07 -0.6 -0.06 -0.6 -0.05 -0.61 -0.04 -0.61 -0.02 -0.61 -0.01 -0.61 -0.01 -66.83 0 -9.37 40.13 8.59 0 0.02 97.66 0.46 0 65.49 0 0.32 0 0.07 0 0.15 0 0.18 0 0.39 -0 0.4 -0.01 0.39 -0.01 0.38 -0.01 0.39 -0.02 0.38 -0.02 0.38 -0.02 0.38 -0.03 0.37 -0.03 0.38 -0.03 0.37 -0.04 0.37 -0.04 0.37 -0.04 0.36 -0.04 0.36 -0.04 0.36 -0.05 0.34 -0.06 0.36 -0.05 0.35 -0.06 0.35 -0.06 0.35 -0.06 0.34 -0.07 0.34 -0.07 0.34 -0.08 0.33 -0.07 0.33 -0.08 0.33 -0.08 0.33 -0.09 0.32 -0.09 0.32 -0.09 0.32 -0.1 0.32 -0.1 0.31 -0.1 0.32 -0.1 0.32 -0.11 0.32 -0.11 0.32 -0.11 0.31 -0.12 0.31 -0.12 0.31 -0.12 0.31 -0.13 0.31 -0.13 0.31 -0.13 0.32 -0.14 0.3 -0.14 0.31 -0.14 0.31 -0.15 0.31 -0.15 0.3 -0.16 0.31 -0.16 0.31 -0.16 0.3 -0.16 0.3 -0.17 0.31 -0.17 0.3 -0.18 0.31 -0.18 0.3 -0.18 0.3 -0.18 0.3 -0.19 0.3 -0.19 0.3 -0.2 0.3 -0.2 0.3 -0.2 1.03 -0.72 0.99 -0.75 0.95 -0.75 0.93 -0.77 0.89 -0.78 0.85 -0.79 0.82 -0.81 0.79 -0.83 0.76 -0.83 0.73 -0.85 0.7 -0.86 0.66 -0.88 0.63 -0.9 0.6 -0.9 0.56 -0.92 0.53 -0.93 0.5 -0.95 0.46 -0.96 0.43 -0.97 0.4 -0.99 0.37 -1 0.34 -1.02 0.3 -1.03 0.27 -1.04 0.24 -1.05 0.21 -1.07 0.17 -1.08 0.15 -1.1 0.11 -1.11 0.08 -1.13 0.04 -1.14 0.02 -1.16 -0 -0.71 -0.01 -0.7z"/>
   <polygon class="fil1" points="425.88,431.31 430.35,437.84 420.66,437.79 416.43,437.71 412.48,437.57 408.79,437.38 405.34,437.11 402.12,436.77 399.11,436.36 396.29,435.87 393.64,435.29 391.15,434.61 388.82,433.84 386.62,432.97 384.54,431.98 382.57,430.89 380.71,429.68 378.95,428.36 377.26,426.93 375.64,425.39 374.07,423.75 372.53,421.99 371.01,420.12 369.5,418.14 367.96,416.04 366.39,413.81 364.76,411.45 363.07,408.96 361.29,406.34 359.41,403.56 357.4,400.64 355.27,397.56 352.98,394.33 352.89,394.22 352.64,394.62 352.05,395.59 350.26,398.49 349.67,399.47 347.88,402.37 347.29,403.34 345.51,406.24 344.91,407.21 344.32,408.18 343.72,409.15 343.12,410.12 342.53,411.09 340.75,413.99 340.15,414.96 338.37,417.87 337.77,418.84 335.19,423.04 293.78,423.04 327.72,366.12 270.23,289.39 280.37,289.46 284.75,289.55 288.87,289.71 292.73,289.93 296.34,290.23 299.73,290.61 302.91,291.07 305.89,291.62 308.7,292.27 311.35,293.01 313.83,293.86 316.19,294.82 318.41,295.89 320.51,297.07 322.5,298.37 324.4,299.79 326.21,301.33 327.94,302.97 329.62,304.74 331.25,306.62 332.86,308.62 334.45,310.74 336.05,312.98 337.68,315.35 339.34,317.85 341.06,320.49 342.85,323.27 344.72,326.19 346.71,329.27 348.8,332.5 351.03,335.89 351.12,336.02 351.99,334.69 353.42,332.52 354.77,330.5 356.06,328.62 357.31,326.88 358.51,325.26 359.69,323.76 360.87,322.38 362.03,321.11 363.22,319.95 364.43,318.88 365.67,317.92 366.96,317.06 368.28,316.3 369.67,315.64 371.11,315.07 372.6,314.59 374.16,314.2 375.78,313.88 377.48,313.64 379.27,313.44 381.15,313.3 383.15,313.19 385.27,313.13 387.53,313.08 389.92,313.07 392.49,313.07 395.22,313.08 398.13,313.1 401.24,313.11 409.28,313.12 378.46,365.84 379.03,366.66 380.56,368.88 382.1,371.09 383.64,373.28 385.2,375.46 386.75,377.62 388.3,379.79 389.86,381.93 391.42,384.07 392.98,386.2 394.55,388.32 396.11,390.45 397.68,392.56 399.25,394.68 400.82,396.8 402.39,398.9 405.53,403.13 407.1,405.25 408.68,407.37 410.25,409.5 411.82,411.64 413.39,413.77 414.95,415.92 416.52,418.09 418.09,420.25 419.65,422.44 421.21,424.63 422.77,426.84 424.32,429.06 "/>
   <polygon class="fil1" points="664.26,421.9 664.34,426.57 554.93,426.57 554.93,349.66 546.33,349.66 554.87,316.65 606.36,316.65 607.9,312.21 641.38,312.21 631.93,349.39 592.54,349.39 592.54,357.24 637.94,357.24 636.37,362.54 635.82,364.28 635.25,365.94 634.68,367.53 634.07,369.03 633.43,370.47 632.74,371.85 632.01,373.15 631.22,374.39 630.37,375.56 629.45,376.66 628.46,377.69 627.4,378.64 626.26,379.52 625.04,380.32 623.75,381.05 622.39,381.71 620.93,382.28 619.41,382.81 617.8,383.26 616.1,383.66 614.3,384.01 612.41,384.3 610.41,384.56 608.29,384.77 606.06,384.95 603.71,385.09 601.21,385.2 598.58,385.27 595.82,385.27 592.9,385.27 592.54,385.27 592.54,393.45 634.5,393.45 636.02,393.52 637.53,393.63 639,393.79 640.46,393.99 641.9,394.24 643.3,394.53 644.7,394.88 646.05,395.28 647.38,395.74 648.68,396.25 649.94,396.81 651.17,397.45 652.35,398.14 653.5,398.9 654.6,399.72 655.66,400.61 656.66,401.57 657.62,402.59 658.51,403.68 659.35,404.84 660.13,406.06 660.84,407.35 661.49,408.71 662.08,410.13 662.6,411.61 663.05,413.16 663.43,414.78 663.74,416.46 663.98,418.21 664.16,420.02 "/>
   <polygon class="fil1" points="772.07,283.52 761.06,330.07 735.75,330.07 735.75,426.57 693.41,426.57 693.4,420.83 693.39,417.79 693.38,414.76 693.38,411.72 693.38,408.69 693.35,399.59 693.35,396.56 693.34,393.52 693.33,390.49 693.33,387.46 693.33,384.42 693.31,378.35 693.31,375.32 693.31,372.29 693.3,369.25 693.29,366.22 693.29,363.19 693.28,360.16 693.26,351.05 693.25,348.02 693.24,338.92 693.23,335.88 693.22,329.81 693.22,329.49 648.3,329.49 649.82,323.52 650.51,321.02 651.24,318.64 652,316.37 652.8,314.21 653.64,312.16 654.52,310.2 655.44,308.35 656.4,306.6 657.4,304.94 658.46,303.37 659.56,301.9 660.72,300.53 661.92,299.24 663.17,298.04 664.48,296.94 665.83,295.91 667.24,294.98 668.69,294.13 670.18,293.37 671.73,292.68 673.32,292.07 674.94,291.54 676.63,291.08 678.34,290.68 680.11,290.34 681.92,290.06 683.77,289.84 685.67,289.67 687.62,289.55 689.62,289.47 691.66,289.43 732.43,289.09 733.59,283.52 "/>
   <polygon class="fil1" points="149.86,285.56 156.33,285.52 156.33,423.04 117.65,423.04 117.65,346.1 93.73,375.91 68.52,348.23 68.52,423.04 27.05,423.04 27.05,327.3 17.8,327.3 27.02,285.54 68.97,285.54 70.59,287.48 75.51,293.41 76.98,295.18 81.91,301.11 83.38,302.87 88.16,308.64 88.96,309.6 89.76,310.56 93.17,314.66 94.13,313.4 95.53,311.52 96.89,309.71 98.21,307.96 99.5,306.29 100.77,304.68 102.03,303.13 103.29,301.65 104.57,300.22 105.87,298.86 107.19,297.56 108.57,296.33 110,295.16 111.49,294.06 113.05,293.02 114.69,292.06 116.4,291.17 118.21,290.35 120.11,289.6 122.12,288.92 124.23,288.31 126.48,287.76 128.84,287.28 131.35,286.86 134.01,286.5 136.82,286.2 139.8,285.96 142.97,285.78 146.31,285.64 "/>
   <path class="fil2" d="M460.51 44.16c-3.3,4.83 -6.92,11.34 -10.17,18.33 -4.69,10.08 -7.17,19.09 -7.9,23.79 -0.15,0.99 -0.57,1.92 -1.22,2.69 -1.05,1.24 -2.58,1.95 -4.21,1.95 -1.13,0 -2.2,-0.34 -3.12,-0.98 -12.93,-9.04 -24.89,-10.99 -38.85,-11.13l-1.12 -0.01c-14.6,0 -25.2,3.16 -37.8,11.26 -0.88,0.57 -1.9,0.87 -2.96,0.87 -1.46,0 -2.83,-0.57 -3.87,-1.6 -0.83,-0.83 -1.38,-1.91 -1.55,-3.05 -0.72,-4.69 -3.21,-13.69 -7.84,-23.65l-0.12 -0.27c-3.21,-6.89 -6.82,-13.38 -10.12,-18.2 -1.37,-2 -1.25,-4.7 0.3,-6.56 1.03,-1.27 2.57,-1.99 4.22,-1.99 0.75,0 1.48,0.15 2.17,0.44 3.68,1.59 7.94,3.36 12.3,4.79 0.75,-1.48 1.9,-2.77 3.33,-3.68 0.41,-0.27 0.86,-0.51 1.31,-0.71 0.1,-2.67 0.93,-5.21 2.43,-7.45 1.02,-1.52 2.72,-2.42 4.54,-2.42 0.7,0 1.39,0.13 2.04,0.39 2.48,1 4.66,2.63 6.3,4.69 0.23,-0.04 0.45,-0.08 0.67,-0.11 1.16,-5.92 5.2,-9.17 9.34,-10.43 0.03,-0.14 0.08,-0.27 0.12,-0.4 1.18,-3.44 4.07,-5.95 7.63,-6.8 0.65,-2.87 2.37,-5.54 5.14,-7.92 0.99,-0.86 2.26,-1.33 3.57,-1.33 1.31,0 2.58,0.47 3.57,1.32 2.78,2.39 4.5,5.06 5.15,7.93 3.56,0.85 6.45,3.37 7.63,6.8 0.04,0.13 0.09,0.26 0.12,0.4 4.15,1.26 8.19,4.5 9.34,10.43 0.22,0.03 0.45,0.07 0.67,0.11 1.64,-2.07 3.83,-3.7 6.3,-4.7 0.66,-0.26 1.34,-0.39 2.04,-0.39 1.83,0 3.53,0.9 4.54,2.42 1.51,2.24 2.33,4.79 2.43,7.45 0.46,0.21 0.9,0.45 1.32,0.72 1.43,0.92 2.57,2.2 3.33,3.68 4.37,-1.43 8.62,-3.19 12.31,-4.79 0.68,-0.29 1.42,-0.44 2.16,-0.44 1.64,0 3.18,0.72 4.23,1.99 1.54,1.86 1.66,4.56 0.29,6.56zm3.37 -9.58c-2.84,-3.44 -7.85,-4.65 -11.92,-2.88 -2.72,1.17 -5.64,2.39 -8.69,3.52 -0.59,-0.62 -1.25,-1.18 -1.95,-1.68 -0.47,-2.55 -1.47,-5.02 -2.93,-7.19 -2.61,-3.9 -7.78,-5.58 -12.29,-3.79 -1.08,0.44 -2.12,0.97 -3.11,1.58 -1.87,-2.94 -4.56,-5.26 -7.81,-6.71 -1.57,-3.2 -4.28,-5.76 -7.6,-7.22 -1.16,-2.85 -3.12,-5.46 -5.84,-7.81 -3.7,-3.19 -9.63,-3.19 -13.32,0.01 -2.71,2.34 -4.67,4.96 -5.83,7.8 -3.33,1.46 -6.03,4.02 -7.6,7.22 -3.25,1.45 -5.94,3.77 -7.81,6.71 -0.99,-0.61 -2.02,-1.14 -3.11,-1.57 -4.44,-1.78 -9.65,-0.14 -12.29,3.79 -1.45,2.17 -2.45,4.63 -2.93,7.19 -0.7,0.5 -1.36,1.06 -1.95,1.68 -3.15,-1.16 -6.13,-2.41 -8.68,-3.51 -4.11,-1.78 -9.11,-0.56 -11.92,2.87 -2.87,3.49 -3.1,8.53 -0.55,12.25 3.15,4.61 6.6,10.81 9.68,17.43l0.16 0.37c4.42,9.51 6.78,17.99 7.45,22.36 0.32,2.12 1.35,4.15 2.89,5.69 1.93,1.93 4.49,2.99 7.22,2.99 1.96,0 3.87,-0.56 5.52,-1.62 11.76,-7.56 21.63,-10.51 35.21,-10.51l1.1 0.01c13.09,0.14 24.25,1.94 36.19,10.28 1.71,1.2 3.73,1.84 5.83,1.84 3.03,0 5.88,-1.33 7.84,-3.65 1.21,-1.45 2,-3.19 2.27,-5.01 0.68,-4.39 3.06,-12.93 7.52,-22.52 3.14,-6.75 6.62,-13.02 9.79,-17.66 2.55,-3.72 2.32,-8.76 -0.55,-12.25z"/>
   <path class="fil2" d="M337.8 187.47l33.13 0c-1.24,-2.53 -2.14,-5.42 -2.67,-8.68 -0.56,-3.28 -0.83,-7.78 -0.83,-13.47l0 -24.79c1.48,-1.37 2.97,-2.41 4.44,-3.09 1.51,-0.68 2.94,-1.05 4.3,-1.05 2.24,0 3.9,0.85 5.13,2.43 1.21,1.55 1.85,3.72 1.85,6.61l0 27.09c0,5.23 -0.29,9.56 -0.85,13.01 -0.56,3.43 -1.49,6.48 -2.75,9.14l33.06 0c-1.29,-2.7 -2.22,-5.81 -2.77,-9.29 -0.56,-3.5 -0.85,-7.78 -0.85,-12.86l0 -31.99c1.43,-1.42 2.79,-2.43 4.1,-3.07 1.29,-0.6 2.65,-0.92 4.01,-0.92 2.82,0 4.79,0.73 5.94,2.14 1.24,1.39 1.84,3.65 1.84,6.76l0 19.89c0,5.42 -0.29,9.82 -0.87,13.25 -0.56,3.4 -1.46,6.37 -2.65,8.9l33.13 0c-1.34,-2.65 -2.28,-5.74 -2.84,-9.27 -0.56,-3.5 -0.85,-7.8 -0.85,-12.88l0 -30.63c0,-6.47 -1.97,-11.28 -5.91,-14.42 -3.94,-3.16 -9.86,-4.74 -17.82,-4.74 -4.69,0 -8.87,0.54 -12.57,1.63 -3.67,1.09 -6.91,2.7 -9.65,4.79 -2.45,-2.09 -5.26,-3.69 -8.32,-4.79 -3.08,-1.09 -6.39,-1.63 -9.9,-1.63 -2.19,0 -4.18,0.17 -5.98,0.49 -1.82,0.34 -3.64,0.82 -5.49,1.51 -3.6,1.39 -6.88,3.4 -9.82,6.06l-1.16 -9.86 -27.01 5.28c1.19,2.26 2.68,6.63 3.25,9.47 0.57,2.82 0.85,5.81 0.85,8.99l0 27.86c0,5.4 -0.29,9.82 -0.85,13.25 -0.59,3.4 -1.46,6.37 -2.64,8.9z"/>
   <path class="fil1" d="M392.24 19.88c-3.9,-1.97 -7.42,-0.04 -8.33,2.62 5.07,1.24 7.91,2.74 8.33,7.83l-0.14 0.1c-2.27,-3.49 -5.59,-4.53 -9.34,-4.47 -4.09,0.07 -8.01,2.61 -8.33,8.34 -0.24,4.33 2.57,8.25 7.33,8.1 6,-0.19 8.3,-6.81 5.09,-9.08 -2.61,-1.84 -4.62,0.58 -4.54,2.02 -0.93,0.65 -1.62,-0.26 -1.65,-1.39 -0.04,-1.86 2.39,-2.74 3.63,-2.73 1.84,0.01 4.28,1.07 5.69,2.97 -0.01,0.13 -0.01,0.26 -0.01,0.38 0,1.66 0.79,3.13 2.01,4.06 -0.96,2.63 -2.04,5.38 -3.18,7.75 -6.92,0.4 -13.17,1.45 -18.8,2.91 -0.95,-2.63 -0.6,-4.47 0.29,-5.67 1.21,-1.64 3.41,-2.09 4.71,-1.71 -0.46,-3.5 -2.39,-5.05 -4.59,-4.96 -1.41,0.06 -2.92,0.79 -4.23,2.12 -0.55,-2.6 -2.35,-5.56 -5.94,-7.01 -2.14,3.19 -1.7,6.58 -0.66,9.02 -1.83,-0.33 -3.49,-0.06 -4.67,0.7 -1.85,1.19 -2.54,3.57 -0.92,6.7 0.86,-1.04 2.92,-1.95 4.85,-1.3 1.41,0.48 2.75,1.79 3.48,4.49 -4.92,1.77 -9.26,3.84 -13.07,6 -0.97,-4.31 0.83,-7.66 3.18,-10.01 -6.06,-1.5 -12.22,-3.94 -18.28,-6.55 3.75,5.48 7.51,12.41 10.69,19.25l-0 0c4.82,10.37 7.48,19.89 8.29,25.12l0.02 0.02c14.17,-9.11 26.09,-12.28 41.93,-12.12 15.83,0.16 28.42,2.67 41.93,12.12l0.02 -0.02c0.81,-5.23 3.46,-14.75 8.29,-25.12l-0.01 -0c3.18,-6.83 6.94,-13.77 10.69,-19.25 -6.06,2.61 -12.22,5.06 -18.29,6.55 2.35,2.35 4.16,5.69 3.18,10.01 -3.8,-2.15 -8.15,-4.23 -13.07,-6 0.73,-2.7 2.07,-4.01 3.49,-4.49 1.92,-0.65 3.99,0.26 4.84,1.3 1.63,-3.12 0.93,-5.51 -0.91,-6.7 -1.19,-0.76 -2.85,-1.03 -4.68,-0.7 1.04,-2.44 1.48,-5.83 -0.66,-9.02 -3.6,1.44 -5.4,4.41 -5.94,7.01 -1.31,-1.33 -2.83,-2.06 -4.23,-2.12 -2.19,-0.09 -4.13,1.47 -4.59,4.96 1.3,-0.37 3.51,0.08 4.71,1.71 0.89,1.2 1.23,3.04 0.29,5.67 -5.63,-1.46 -11.88,-2.51 -18.8,-2.91 -1.15,-2.36 -2.24,-5.11 -3.2,-7.72 1.23,-0.93 2.05,-2.41 2.05,-4.08 0,-0.13 -0.01,-0.26 -0.02,-0.38 1.42,-1.9 3.86,-2.96 5.7,-2.97 1.23,-0.01 3.66,0.87 3.62,2.73 -0.02,1.13 -0.72,2.04 -1.64,1.39 0.08,-1.44 -1.95,-3.86 -4.55,-2.02 -3.21,2.27 -0.91,8.89 5.1,9.08 4.74,0.15 7.55,-3.77 7.33,-8.1 -0.31,-5.73 -4.25,-8.27 -8.33,-8.34 -3.69,-0.06 -7.1,1.09 -9.38,4.44 -0.08,-0.06 -0.16,-0.11 -0.23,-0.16 0.51,-4.91 3.48,-6.52 8.47,-7.74 -0.91,-2.65 -4.43,-4.58 -8.33,-2.62 1.65,-4.29 0.21,-7.12 -2.84,-9.75 -3.05,2.63 -4.49,5.46 -2.84,9.75zm0.73 40.92l-7.85 -2.12 7.85 -2.11 2.12 -7.85 2.11 7.85 7.84 2.11 -7.84 2.12 -2.11 7.84 -2.12 -7.84zm31.8 -7.92l-0.68 8.1 6.66 4.65 -8.1 -0.68 -4.65 6.66 0.69 -8.1 -6.66 -4.66 8.1 0.68 4.66 -6.66zm-58.68 8.1l-0.69 -8.1 4.66 6.66 8.1 -0.69 -6.66 4.66 0.68 8.1 -4.65 -6.66 -8.1 0.68 6.66 -4.65z"/>
   <path class="fil0" d="M303.48 133.51c0.25,0.2 0.57,0.28 0.87,0.22 0.1,0.1 0.23,0.18 0.37,0.23 0.13,0.05 0.27,0.08 0.41,0.08 0.33,0 0.66,-0.15 0.88,-0.42 1.36,-1.69 2.88,-2.11 4.65,-2.59 1.48,-0.4 3.14,-0.86 4.77,-2.09 3.42,-2.5 3.54,-6.49 3.37,-10.37 -0.02,-0.46 -0.32,-0.86 -0.75,-1.01 -0.43,-0.16 -0.91,-0.04 -1.22,0.31 -1.38,1.53 -2.81,2.07 -4.46,2.7 -1.22,0.46 -2.61,0.99 -4.07,1.98l-0.02 0.01c-0.52,0.37 -0.98,0.78 -1.37,1.22 0.4,-1.38 0.7,-2.87 0.68,-4.6 -0.12,-5.14 -3.1,-7.71 -6.41,-10.1 -0.37,-0.27 -0.87,-0.29 -1.26,-0.04 -0.38,0.24 -0.59,0.69 -0.51,1.15 0.48,2.8 -0,4.94 -0.56,7.43 -0.37,1.64 -0.75,3.34 -0.9,5.38 -0.37,5.15 2.45,8.1 5.55,10.52z"/>
   <path class="fil0" d="M288.44 143.36c-0.17,2.05 -0.34,4.17 -0.16,6.54l0 0.01c0.48,5.75 4.48,7.82 8.73,9.2 0.25,0.09 0.52,0.07 0.76,-0.02 0.08,0.04 0.16,0.06 0.24,0.08 0.07,0.01 0.14,0.02 0.14,0.02 0.49,0 0.87,-0.23 1.07,-0.6 1.32,-2.54 3.06,-3.64 5.08,-4.91 1.69,-1.06 3.42,-2.15 5.02,-4.15 3.27,-4.01 2.66,-8.41 1.67,-12.93 -0.1,-0.46 -0.47,-0.81 -0.94,-0.88 -0.47,-0.06 -0.93,0.16 -1.15,0.58 -1.34,2.47 -2.94,3.72 -4.79,5.15 -1.33,1.04 -2.71,2.11 -4.13,3.74 -0.01,0 -0.02,0.01 -0.02,0.02 -0.51,0.61 -0.94,1.23 -1.31,1.87 0.22,-1.72 0.3,-3.51 -0.04,-5.43 -1.01,-5.82 -5.13,-7.4 -9.44,-8.23 -0.4,-0.07 -0.81,0.07 -1.07,0.37 -0.27,0.31 -0.35,0.73 -0.21,1.11 0.99,2.81 0.77,5.43 0.53,8.46z"/>
   <path class="fil0" d="M290.3 180.56c1.95,2.75 4.74,3.59 7.73,3.59 2.01,0 4.13,-0.38 6.14,-0.81 0.34,-0.07 0.63,-0.3 0.78,-0.6 0.09,0 0.18,-0.01 0.28,-0.04 0.45,-0.12 0.79,-0.51 0.84,-0.97 0.28,-2.68 1.51,-4.44 2.95,-6.47 1.24,-1.75 2.52,-3.56 3.24,-6.1 1.45,-5.1 -0.94,-8.59 -3.74,-12.02 -0.29,-0.36 -0.77,-0.5 -1.2,-0.36 -0.44,0.13 -0.75,0.52 -0.79,0.98 -0.26,2.93 -1.34,4.9 -2.58,7.18 -0.83,1.52 -1.69,3.1 -2.4,5.1l0 0c-0.5,1.44 -0.71,2.79 -0.68,4.05 -0.61,-2.29 -1.29,-4.62 -3.02,-6.7 -1.53,-1.82 -3.48,-2.74 -5.78,-2.74 -2.73,0 -5.66,1.26 -8.41,2.61 -0.37,0.18 -0.61,0.55 -0.63,0.96 -0.02,0.41 0.19,0.8 0.54,1.01 2.23,1.35 3.06,3.48 4.04,5.96 0.66,1.68 1.41,3.59 2.69,5.38z"/>
   <path class="fil0" d="M314.8 204.31c0.26,-0.13 0.45,-0.34 0.55,-0.6 0.15,0.11 0.31,0.22 0.46,0.33 0.38,0.27 0.88,0.27 1.27,0.02 0.39,-0.25 0.58,-0.72 0.49,-1.17 -0.58,-2.79 0.24,-4.99 1.18,-7.54 0.82,-2.23 1.67,-4.53 1.63,-7.42 -0.1,-5.87 -4.08,-8.64 -8.15,-10.97 -0.38,-0.22 -0.87,-0.2 -1.22,0.06 -0.36,0.27 -0.53,0.71 -0.44,1.15 0.65,3.08 0.08,5.48 -0.59,8.26 -0.44,1.85 -0.9,3.77 -1.04,6.06l0 0c-0.23,3.81 1.27,6.53 3.42,8.7 -1.62,-1.05 -2.69,-2.57 -3.88,-4.26 -1.48,-2.1 -3.01,-4.28 -5.82,-5.74 -1.19,-0.55 -2.44,-0.83 -3.71,-0.83 -4.34,0 -8.6,3.3 -12.27,6.39 -0.35,0.29 -0.49,0.77 -0.35,1.2 0.14,0.44 0.53,0.74 0.99,0.78 3.19,0.26 4.8,1.81 6.83,3.76 1.27,1.22 2.71,2.61 4.66,3.71 1.67,1.03 3.44,1.44 5.24,1.44 3.61,0 7.35,-1.65 10.75,-3.34z"/>
   <path class="fil0" d="M477.77 120.55c-1.65,-0.63 -3.08,-1.17 -4.45,-2.7 -0.31,-0.34 -0.79,-0.46 -1.22,-0.31 -0.43,0.16 -0.73,0.56 -0.75,1.01 -0.18,4.04 -0.05,7.87 3.35,10.36 1.64,1.25 3.31,1.71 4.78,2.11 1.77,0.48 3.29,0.9 4.65,2.59 0.22,0.27 0.54,0.42 0.88,0.42 0.14,0 0.27,-0.02 0.4,-0.08 0.14,-0.05 0.27,-0.13 0.37,-0.23 0.3,0.06 0.62,-0.03 0.88,-0.22 3.1,-2.42 5.91,-5.37 5.55,-10.52 -0.15,-2.04 -0.53,-3.74 -0.9,-5.38 -0.56,-2.49 -1.05,-4.64 -0.57,-7.44 0.08,-0.45 -0.12,-0.9 -0.51,-1.15 -0.39,-0.24 -0.89,-0.23 -1.26,0.04 -3.32,2.39 -6.3,4.96 -6.42,10.1l0 0.01c-0.03,1.73 0.27,3.21 0.68,4.6 -0.4,-0.45 -0.87,-0.87 -1.4,-1.23 -1.46,-0.99 -2.85,-1.51 -4.07,-1.98z"/>
   <path class="fil0" d="M472.17 110.7c2.28,1.53 4.26,2.86 5.34,6.06 0.16,0.46 0.59,0.77 1.07,0.77l0.02 0c0.49,-0.01 0.92,-0.33 1.06,-0.79 1.71,-5.55 2.83,-11.36 -0.45,-16.26 -1.39,-2.05 -2.91,-3.43 -4.26,-4.64 -1.87,-1.68 -3.5,-3.14 -4.41,-6.09 -0.14,-0.45 -0.54,-0.76 -1.01,-0.79 -0.47,-0.03 -0.91,0.24 -1.1,0.67 -2.65,5.99 -4.59,11.33 -1.62,16.05 1.51,2.45 3.47,3.76 5.36,5.04z"/>
   <path class="fil0" d="M311.54 117.52l0.01 0c0.48,0 0.92,-0.31 1.07,-0.77 1.07,-3.2 3.06,-4.52 5.35,-6.06 1.9,-1.27 3.86,-2.59 5.36,-5.03 2.97,-4.71 1.03,-10.06 -1.62,-16.05 -0.19,-0.43 -0.59,-0.7 -1.1,-0.67 -0.47,0.02 -0.87,0.34 -1.01,0.79 -0.92,2.95 -2.54,4.41 -4.42,6.1 -1.34,1.21 -2.87,2.58 -4.26,4.64l-0.01 0c-3.28,4.9 -2.16,10.71 -0.45,16.25 0.15,0.46 0.57,0.79 1.06,0.79z"/>
   <path class="fil0" d="M491.48 147.08c-0.37,-0.65 -0.81,-1.28 -1.33,-1.9 -1.43,-1.62 -2.8,-2.7 -4.14,-3.74 -1.85,-1.44 -3.45,-2.69 -4.79,-5.15 -0.23,-0.42 -0.69,-0.65 -1.15,-0.58 -0.46,0.07 -0.84,0.42 -0.94,0.88 -0.97,4.52 -1.58,8.91 1.68,12.92 1.59,2 3.33,3.1 5.02,4.16 2.01,1.27 3.75,2.36 5.08,4.91 0.2,0.38 0.59,0.61 1,0.61 0.07,0 0.14,-0.01 0.21,-0.02 0.08,-0.02 0.17,-0.04 0.25,-0.08 0.23,0.1 0.5,0.11 0.76,0.02 4.25,-1.38 8.25,-3.45 8.73,-9.21 0.18,-2.37 0.01,-4.49 -0.16,-6.53 -0.25,-3.04 -0.46,-5.67 0.53,-8.48 0.13,-0.38 0.05,-0.8 -0.21,-1.11 -0.27,-0.31 -0.67,-0.44 -1.07,-0.37 -4.3,0.83 -8.42,2.4 -9.43,8.22 -0.34,1.93 -0.26,3.72 -0.04,5.45z"/>
   <path class="fil0" d="M450.92 229.65c-4.08,0 -7.15,1.49 -10.13,2.92 -2.42,1.17 -4.73,2.28 -7.45,2.48 4.01,-1.07 7.64,-2.99 9.72,-7.21 1.15,-2.26 1.75,-4.31 2.34,-6.3 0.89,-3.03 1.67,-5.64 4.18,-8.3 0.31,-0.33 0.4,-0.82 0.21,-1.24 -0.18,-0.42 -0.59,-0.62 -1.06,-0.66 -5.56,0.14 -11.25,0.76 -14.68,6.44l-0.01 0.01c-1.66,2.84 -2.06,5.54 -2.45,8.14 -0.45,2.97 -0.82,5.52 -2.97,8.06 -0.31,0.36 -0.35,0.87 -0.12,1.28 0.2,0.35 0.57,0.56 0.96,0.57 -0.07,0.33 0.02,0.69 0.24,0.96 3.94,4.65 8.66,9.53 15.26,9.53 0.48,0 0.96,-0.03 1.46,-0.08 2.83,-0.17 5.17,-0.78 7.43,-1.36 3.7,-0.96 6.9,-1.78 11.31,-0.37 0.44,0.15 0.91,0.01 1.21,-0.35 0.29,-0.36 0.34,-0.85 0.12,-1.26 -3.54,-6.5 -7.64,-12.88 -15.57,-13.26z"/>
   <path class="fil0" d="M474.9 213.35l-0.01 0c-0.69,0 -1.39,0.06 -2.08,0.18 0,0 -0.04,0.01 -0.07,0.02 -3.67,0.84 -6.11,2.84 -8.45,4.77 -1.85,1.52 -3.62,2.98 -5.94,3.75 3.46,-1.89 6.33,-4.54 7.23,-9.04 0.5,-2.52 0.52,-4.71 0.54,-6.83 0.02,-3.18 0.05,-5.92 1.7,-9.09 0.2,-0.4 0.16,-0.87 -0.13,-1.23 -0.27,-0.34 -0.74,-0.49 -1.17,-0.38 -5.3,1.43 -10.62,3.36 -12.39,9.71l0 0.01c-0.85,3.15 -0.54,5.86 -0.23,8.49 0.35,3.02 0.65,5.63 -0.81,8.57 -0.2,0.42 -0.14,0.92 0.18,1.27 0.32,0.34 0.82,0.45 1.25,0.28 0.02,-0.01 0.05,-0.02 0.07,-0.02 0.02,0.32 0.18,0.62 0.44,0.82 4.06,3.05 8.71,6.16 13.82,6.16 1.26,0 2.55,-0.19 3.86,-0.61 2.57,-0.69 4.55,-1.7 6.46,-2.68 3.07,-1.56 5.72,-2.91 9.97,-2.33 0.47,0.05 0.92,-0.17 1.14,-0.58 0.22,-0.41 0.17,-0.92 -0.14,-1.27 -4.36,-5.03 -9.12,-9.94 -15.27,-9.94z"/>
   <path class="fil0" d="M491.18 190.37c-1.27,0 -2.53,0.28 -3.72,0.83 -0.01,0.01 -0.03,0.01 -0.04,0.02 -2.77,1.43 -4.3,3.61 -5.77,5.72 -1.19,1.69 -2.26,3.21 -3.87,4.26 2.15,-2.18 3.64,-4.89 3.43,-8.71 -0.14,-2.29 -0.6,-4.21 -1.04,-6.06 -0.66,-2.78 -1.24,-5.17 -0.59,-8.26 0.09,-0.43 -0.08,-0.88 -0.44,-1.14 -0.35,-0.26 -0.84,-0.29 -1.22,-0.06 -4.07,2.33 -8.05,5.1 -8.15,10.97l0 0.01c-0.04,2.88 0.81,5.19 1.63,7.41 0.94,2.55 1.76,4.75 1.18,7.54 -0.09,0.45 0.1,0.91 0.49,1.17 0.38,0.25 0.89,0.25 1.27,-0.02 0.16,-0.11 0.31,-0.22 0.46,-0.33 0.1,0.26 0.29,0.47 0.54,0.6 3.41,1.69 7.16,3.34 10.76,3.34 1.79,0 3.54,-0.41 5.2,-1.42 1.98,-1.12 3.42,-2.51 4.69,-3.73 2.03,-1.96 3.63,-3.5 6.83,-3.76 0.46,-0.04 0.85,-0.34 0.98,-0.78 0.14,-0.44 0,-0.91 -0.34,-1.21 -3.66,-3.09 -7.93,-6.39 -12.27,-6.39z"/>
   <path class="fil0" d="M506.49 167.24c-2.76,-1.36 -5.68,-2.61 -8.42,-2.61 -2.31,0 -4.25,0.92 -5.78,2.74l0 0c-1.74,2.08 -2.42,4.42 -3.02,6.71 0.03,-1.27 -0.17,-2.62 -0.68,-4.06 -0.71,-2 -1.57,-3.58 -2.4,-5.11 -1.25,-2.28 -2.33,-4.25 -2.59,-7.18 -0.04,-0.46 -0.35,-0.84 -0.79,-0.98 -0.44,-0.14 -0.92,0.01 -1.21,0.37 -2.79,3.42 -5.18,6.91 -3.73,12.02l0 0c0.73,2.54 2,4.35 3.24,6.1 1.43,2.03 2.68,3.79 2.95,6.47 0.05,0.47 0.39,0.86 0.85,0.97 0.1,0.02 0.17,0 0.28,0.04 0.15,0.31 0.43,0.53 0.77,0.6 2.01,0.43 4.12,0.81 6.14,0.81 2.99,0 5.78,-0.84 7.72,-3.58 1.28,-1.8 2.04,-3.7 2.7,-5.38 0.97,-2.48 1.82,-4.61 4.04,-5.96 0.36,-0.21 0.56,-0.6 0.54,-1.01 -0.02,-0.41 -0.26,-0.78 -0.62,-0.96z"/>
   <path class="fil0" d="M381.39 235.22c-0.96,-2.46 -1.95,-5 -4.25,-7.5 -2.67,-2.81 -5.84,-4.12 -9.96,-4.12 -2.03,0 -4.13,0.32 -5.74,0.61 -0.45,0.08 -0.81,0.43 -0.91,0.87 -0.1,0.45 0.09,0.91 0.47,1.17 3.13,2.12 4.5,4.55 6.08,7.36 1,1.77 2.02,3.59 3.57,5.5 1.47,1.85 3.19,3.06 5.02,3.85 -0.25,-0.06 -0.5,-0.13 -0.75,-0.19l-0.48 -0.12c-2.27,-0.58 -4.63,-1.18 -7.25,-1.18 -1.13,0 -2.21,0.11 -3.31,0.34l-0.05 0.01c-7.52,1.94 -10.01,8.63 -12.08,15.9 -0.13,0.44 0.03,0.92 0.39,1.2 0.2,0.16 0.44,0.24 0.69,0.24 0.2,0 0.39,-0.05 0.57,-0.15 2.98,-1.73 5.53,-2.02 8.46,-1.98 0.82,0.02 1.65,0.07 2.49,0.12 2.2,0.13 4.47,0.27 7.09,-0.07 6.55,-0.65 10.52,-5.36 14.48,-12.24 0.13,-0.23 0.18,-0.49 0.14,-0.73 0.13,-0.12 0.24,-0.28 0.3,-0.46 0.16,-0.45 0.01,-0.96 -0.37,-1.26 -2.6,-2.04 -3.53,-4.41 -4.6,-7.16z"/>
   <path class="fil0" d="M360.44 236.8c0.23,-0.27 0.31,-0.62 0.24,-0.95 0.39,-0 0.76,-0.22 0.97,-0.57 0.23,-0.41 0.18,-0.93 -0.12,-1.29 -2.15,-2.53 -2.53,-5.09 -2.97,-8.06 -0.38,-2.6 -0.79,-5.29 -2.46,-8.14 -3.43,-5.68 -9.13,-6.3 -14.69,-6.44 -0.49,-0.05 -0.87,0.25 -1.06,0.67 -0.18,0.42 -0.1,0.9 0.21,1.24 2.52,2.66 3.29,5.28 4.18,8.31 0.59,1.98 1.19,4.03 2.33,6.28 2.02,4.1 5.34,6.05 9.71,7.21 -2.72,-0.2 -5.03,-1.31 -7.44,-2.48 -2.97,-1.44 -6.05,-2.92 -10.19,-2.92 -7.87,0.38 -11.97,6.76 -15.51,13.26 -0.22,0.4 -0.17,0.9 0.12,1.26 0.3,0.35 0.78,0.5 1.21,0.35 4.41,-1.41 7.61,-0.59 11.31,0.37 2.27,0.58 4.6,1.18 7.38,1.35 0.51,0.06 1,0.08 1.48,0.08 6.64,0 11.36,-4.87 15.28,-9.52z"/>
   <path class="fil0" d="M335.53 223.79c0.02,0.01 0.05,0.02 0.07,0.03 0.44,0.17 0.93,0.07 1.25,-0.28 0.32,-0.34 0.39,-0.85 0.18,-1.26 -1.45,-2.95 -1.15,-5.56 -0.81,-8.57 0.31,-2.63 0.62,-5.34 -0.23,-8.49 -1.77,-6.36 -7.09,-8.29 -12.4,-9.72 -0.42,-0.11 -0.89,0.04 -1.17,0.38 -0.28,0.35 -0.33,0.83 -0.12,1.23 1.65,3.17 1.68,5.92 1.71,9.1 0.02,2.12 0.04,4.31 0.55,6.82 0.89,4.5 3.76,7.16 7.22,9.04 -2.31,-0.76 -4.09,-2.22 -5.94,-3.74 -2.35,-1.93 -4.77,-3.93 -8.51,-4.78 -0.7,-0.12 -1.4,-0.18 -2.08,-0.18l-0 0c-6.16,0 -10.92,4.91 -15.26,9.94 -0.31,0.35 -0.36,0.86 -0.14,1.28 0.22,0.41 0.69,0.63 1.15,0.58 4.24,-0.58 6.89,0.77 9.96,2.33 1.92,0.98 3.89,1.99 6.4,2.66 1.33,0.43 2.64,0.62 3.9,0.62 5.13,0 9.76,-3.1 13.82,-6.15 0.27,-0.2 0.43,-0.49 0.45,-0.82z"/>
   <path class="fil0" d="M426.24 241.81c-1.09,-0.23 -2.18,-0.35 -3.31,-0.35 -2.62,0 -4.96,0.6 -7.24,1.18l-0.49 0.12c-0.25,0.07 -0.5,0.13 -0.74,0.19 1.83,-0.79 3.54,-1.99 5,-3.83 1.56,-1.92 2.59,-3.75 3.58,-5.52 1.59,-2.81 2.95,-5.23 6.08,-7.35 0.38,-0.26 0.56,-0.72 0.47,-1.17 -0.1,-0.45 -0.45,-0.79 -0.91,-0.87 -1.61,-0.28 -3.71,-0.61 -5.74,-0.61 -4.12,0 -7.29,1.31 -9.96,4.12l-0.01 0.02c-2.28,2.48 -3.27,5.03 -4.24,7.48 -1.07,2.75 -2,5.13 -4.6,7.16 -0.38,0.29 -0.53,0.79 -0.37,1.25 0.06,0.18 0.17,0.34 0.3,0.46 -0.04,0.25 0,0.51 0.14,0.73 3.95,6.88 7.92,11.59 14.44,12.24 2.66,0.34 4.93,0.21 7.12,0.08 0.84,-0.05 1.67,-0.1 2.49,-0.12 2.91,-0.06 5.48,0.25 8.46,1.98 0.18,0.1 0.37,0.15 0.57,0.15 0.24,0 0.49,-0.08 0.69,-0.24 0.36,-0.28 0.51,-0.76 0.38,-1.2 -2.08,-7.28 -4.57,-13.96 -12.13,-15.91z"/>
   <path class="fil3" d="M221.62 525.23c-0.29,-3.4 -3.06,-5.84 -6.78,-5.53 -4.78,0.41 -9.08,5.15 -8.67,10.14 0.3,3.5 2.96,5.85 6.67,5.54 4.88,-0.41 9.19,-5.16 8.77,-10.15zm-25.21 -38c4.34,-3.04 7.68,-5.7 9.21,-7.52 1.89,-1 11.39,-4.61 13.86,-4.48 1.86,0.46 -10.75,8.11 -24.6,16.06l-0.46 -0.24 -0.77 0.35c-6.44,-6.24 -11.85,-12.37 -9.31,-13.21 2.83,-0.57 9.25,1.69 10.23,2.45 -0.32,1.72 0.43,4.03 1.85,6.58zm-49.28 122.2c0.01,-0.15 0.03,-0.32 0.04,-0.48 3.54,-0.98 7.93,-2.13 13.11,-3.03 17.19,-2.99 40.77,-3.37 49.52,1.72 2.17,-0.49 11.1,-5.99 11.92,-9.76 0.18,-5.9 -40.96,0.31 -60.74,3.76 -1.08,0.19 -11.53,0.73 -11.83,1.42 -2.2,5.09 39.18,-87.45 68.38,-108.54 0.78,-0.57 0.67,-1.34 0.69,-1.88 0.03,-1.07 -0.59,-1.56 -1.33,-1.49 -2.76,0.23 -7.9,2.05 -15.12,2.66 -12.64,1.07 -29.94,-1.22 -36.33,-7.31 -1.59,0.24 -8.19,4.75 -8.83,8.44 -0.18,5.9 30.06,4.31 44.61,3.09 3.82,-0.32 5.32,-0.77 7.23,-0.93 1.17,-0.1 1.81,1.21 1.46,0.84 -5.48,-5.69 -63.62,86.28 -69.39,106.01 -0.74,1.45 -1.34,2.7 -1.78,3.72 -1.12,0.43 -0.82,1.42 -0.84,1.94 0,0.09 0.01,0.19 0.01,0.27 -0.03,0.12 -0.06,0.25 -0.07,0.34l0.16 -0.01c0.24,0.62 0.94,0.82 1.74,0.69 1.29,-0.23 2.98,-0.68 5.02,-1.26l2.38 -0.2zm505.19 -153.01c-0.11,-1.27 -4.21,-1.68 -6.33,-1.5 -1.27,0.1 -1.76,0.68 -2.39,2.12 0,0 -30.22,64.05 -32.66,70.56 -0.09,0.22 -0.18,0.44 -0.16,0.66 0.05,0.64 0.71,0.79 1.56,0.72 0.95,-0.08 1.99,-0.49 2.18,-0.82 3.15,-5.72 23.95,-44.48 37.64,-71.19 0.09,-0.22 0.18,-0.34 0.17,-0.55zm-37.27 83.25c-0.29,-3.4 -3.05,-5.84 -6.77,-5.52 -4.78,0.4 -9.09,5.15 -8.66,10.14 0.29,3.52 2.95,5.86 6.67,5.55 4.88,-0.41 9.19,-5.18 8.77,-10.17zm-17.62 -35.21c-0.1,-1.17 -1.12,-1.93 -4.42,-1.66 -22.77,1.92 -43.46,24.99 -49.31,40.04 -5.91,7.79 -10.08,11.83 -12.56,12.03 -1.48,0.13 -2.45,-1.18 -2.69,-3.96 -0.56,-6.59 10.03,-23.1 20.41,-34.45 0.18,-0.34 0.27,-0.67 0.24,-0.88 -0.08,-1.06 -1.91,-1.12 -1.91,-1.12 0,0 -5.45,1.42 -12.67,2.03 -3.08,0.26 -5.55,0.15 -7.52,-0.33 2.46,-5.13 3.91,-9.42 3.7,-11.97 -0.15,-1.8 -1.09,-2.79 -3.11,-2.63 -6.26,0.53 -11.53,5.36 -11.11,10.35 0.23,2.76 2.18,5.59 6.54,7.79 -3,6.24 -7.2,13.55 -11.8,19.92l-1.72 2.39c-0.48,0.68 -0.65,1.13 -0.62,1.45 0.06,0.74 1.14,0.87 1.14,0.87 5.34,-7.72 10.81,-16.31 14.79,-23.81 2.99,1.25 7.03,2.29 12.21,2.82 -6.37,6.95 -18.99,23.42 -18.32,31.4 0.25,2.97 2.44,4.82 7.54,4.39 4.04,-0.34 9.68,-4.02 16.06,-11.63 -0.24,1.26 -0.32,2.41 -0.23,3.43 0.28,3.31 2.26,5.17 6.29,4.83 8.39,-0.7 20.29,-14.34 22.72,-17.23 0.39,-0.46 0.59,-0.58 0.81,-0.6 0.32,-0.02 0.55,0.17 0.57,0.49 -1.7,3.89 -2.25,7.57 -2.01,10.33 0.36,4.27 2.57,6.43 5.97,6.14 5.42,-0.46 13.75,-6.93 22.84,-20.87 0.18,-0.34 0.17,-0.55 0.15,-0.76 -0.07,-0.74 -0.94,-0.99 -0.94,-0.99 -8.4,11.94 -14.09,18.1 -17.17,18.36 -1.49,0.12 -2.45,-1.18 -2.69,-3.96 -0.81,-9.66 8.83,-22.13 13.86,-28.44 1.93,-2.51 3.88,-4.71 4.55,-5.73 0.09,-0.22 0.19,-0.34 0.17,-0.55 -0.07,-0.85 -1.9,-1.02 -3.82,-0.86 -0.95,0.08 -1.8,0.26 -2.42,0.42 -2.53,0.43 -9.98,11 -13.26,15.23 -4.45,5.51 -15.22,18.61 -23.72,19.33 -1.17,0.09 -1.76,-0.6 -1.86,-1.77 -0.63,-7.44 18.2,-36.61 36.68,-38.17 4.99,-0.42 5.2,3.31 5.41,3.29 0.53,-0.04 3.39,-2.96 3.22,-4.98zm-70.42 2.62c0.16,1.81 -0.66,4.87 -2.17,8.53 -3.21,-1.33 -4.67,-3.46 -4.85,-5.48 -0.21,-2.55 1.52,-4.83 4.07,-5.05 1.49,-0.13 2.79,0.09 2.95,2zm-10.67 5.5c-0.13,-1.59 -1.52,-2.87 -5.24,-2.55 -25.7,2.17 -49.73,32.02 -52.39,46.7 -2.85,3.07 -5.05,4.68 -6.59,4.81 -1.49,0.12 -2.45,-1.19 -2.69,-3.97 -0.71,-8.38 13.07,-28.91 19.06,-37.86 0.08,-0.23 0.18,-0.34 0.17,-0.55 -0.08,-0.85 -1.27,-1.07 -3.18,-0.91 -2.97,0.25 -3.4,0.28 -5.74,2.94 -6.13,7.26 -20.34,30.27 -19.57,39.42 0.34,4.04 2.66,6.09 6.05,5.8 3.19,-0.27 7.46,-2.56 12.25,-7.1 0,0.24 0.01,0.48 0.03,0.72 0.27,3.18 2.14,4.95 6.07,4.62 8.39,-0.7 20.46,-13.61 22.89,-16.49 0.39,-0.46 0.6,-0.59 0.81,-0.6 0.32,-0.03 0.55,0.17 0.58,0.48 0.2,1.06 -21.44,34.98 -36.25,37.08 -1.48,0.23 -2.09,0.5 -2.07,0.82 0.04,0.53 2.34,1.09 4.67,0.89 26.46,-2.23 48.6,-50.53 54.83,-60.36 0.09,-0.22 0.18,-0.34 0.16,-0.54 -0.07,-0.85 -1.9,-1.02 -3.81,-0.86 -1.28,0.11 -3.69,0.63 -4.57,1.67 -1.25,1.6 -3.73,5.24 -5.37,7.3 -4.46,5.51 -17.77,20.22 -26.26,20.93 -1.06,0.09 -1.65,-0.5 -1.74,-1.56 -0.62,-7.44 19.76,-38.46 38.45,-40.03 4.99,-0.43 5.14,5.13 5.35,5.11 1.59,-0.14 4.3,-3.46 4.1,-5.91zm-35.66 -11.97c-0.29,-3.39 -3.06,-5.84 -6.77,-5.53 -4.78,0.41 -9.08,5.16 -8.67,10.15 0.3,3.5 2.96,5.85 6.67,5.54 4.89,-0.41 9.19,-5.16 8.77,-10.15zm-96.03 58.05c-1.49,8.02 2.48,12.2 11.72,11.42 7.33,-0.61 17.73,-7.71 25.89,-17.95 2.11,-2.64 3.22,-6.67 -0.3,-2.64 -5.51,6.3 -12.6,11.6 -19.04,12.61 -9.87,1.56 -13.84,-11.91 -0.67,-23.17 1.55,2.69 4.12,4.26 7.62,3.96 7.76,-0.65 21.59,-13.76 19.95,-17.18 -3.46,-7.23 -39.76,3.82 -45.17,32.94zm40.34 -29.48c-0.22,1.36 -9.95,9.72 -13.24,10 -2.76,0.23 -4.58,-0.8 -5.75,-2.63 3.64,-4.23 19.93,-13.1 18.99,-7.36zm-18.77 -22.3c-0.28,-3.4 -3.06,-5.84 -6.77,-5.52 -4.78,0.4 -9.09,5.15 -8.67,10.14 0.3,3.5 2.96,5.85 6.67,5.54 4.89,-0.41 9.19,-5.16 8.77,-10.15zm-11.5 19.58c-0.07,-0.85 -2.77,-1.15 -4.68,-1 -1.28,0.1 -3.9,0.65 -4.56,1.67 -22.25,42.1 -35.3,66.2 -50.88,67.94 -1.48,0.12 -2.1,0.5 -2.07,0.81 0.04,0.53 2.34,1.09 4.67,0.89 23.79,-2 40.34,-39.35 57.35,-69.77 0.09,-0.21 0.18,-0.33 0.17,-0.54zm-21.73 -18.38c-0.23,-2.78 -32.65,14.53 -35.46,14.97 10.58,-12.77 18.28,-24.21 17.87,-29.1 -0.15,-1.8 -1.4,-2.67 -3.95,-2.45 -4.67,0.4 -19.17,16.27 -32.28,34.48 -5.6,0.8 -11.01,1.36 -16.11,1.79 -0.84,0.07 -1.22,0.74 -1.16,1.49 0.21,2.55 3.41,2.39 5,2.25 3.18,-0.37 6.35,-0.86 9.3,-1.32 -7.19,10.45 -13.63,21.27 -17.34,30.21 -0.13,-0.04 -0.21,-0.07 -0.21,-0.07 -4.11,5.91 -8.61,9.49 -12.01,9.78 -1.48,0.12 -2.7,-0.3 -3.64,-1.29 8.91,-9.74 14.99,-21.37 14.51,-27.11 -0.2,-2.34 -1.48,-3.61 -4.13,-3.39 -11.26,0.95 -19.02,15.5 -18.19,25.39 0.23,2.65 0.94,4.84 2.14,6.34 -3.82,4.17 -8.05,7.31 -11.98,7.64 -3.93,0.33 -5.79,-1.44 -6.04,-4.41 -0.89,-10.62 18.29,-36.83 32.73,-38.05 4.99,-0.42 6.09,2.48 6.31,2.46 0.53,-0.04 2.79,-2.37 2.65,-4.07 -0.1,-1.17 -1.24,-2.04 -4.75,-1.74 -19.34,1.63 -35.63,18.37 -42.74,32.54 -0.23,-0.17 -0.46,-0.23 -0.46,-0.23 -4.29,6.24 -8.45,8.84 -11.85,9.13 -2.23,0.18 -3.62,-1.09 -4.44,-3.26 9.92,-11.74 18.63,-26.38 18.08,-32.86 -0.19,-2.23 -1.46,-3.4 -4.12,-3.18 -10.83,0.91 -21.06,23.05 -20.01,35.49 0.1,1.17 0.18,2.12 0.47,3.06 -3.31,3.81 -6.3,6.41 -8,6.55 -2.02,0.17 -2.97,-1.03 -3.15,-3.05 -0.64,-7.54 9.38,-27 15.63,-36.62 0,0 0.29,-0.45 0.27,-0.56 -0.08,-0.95 -1.9,-1.01 -3.6,-0.87 -2.44,0.21 -3.18,0.27 -4.63,2.21 -4.71,6.28 -18.4,31.61 -17.52,42.12 0.26,3.1 1.79,4.79 4.98,4.52 4.56,-0.38 10.89,-5.3 17.18,-11.84 1.24,2.03 3.36,3.03 6.44,2.77 3.89,-0.33 8.49,-3.13 12.45,-8.1 -1.2,3.38 -1.74,6.45 -1.53,8.9 0.32,3.84 2.56,6.22 7.01,5.84 8.07,-0.68 16.2,-5.75 23.03,-12.33 1.46,0.84 3.19,1.12 5.11,0.96 3.93,-0.33 8.37,-2.78 12.05,-7.3 -1.05,3.39 -1.55,6.37 -1.35,8.75 0.36,4.27 2.91,6.62 8.54,6.14 5.42,-0.45 13.75,-6.93 22.84,-20.87 0.18,-0.34 0.17,-0.55 0.15,-0.76 -0.06,-0.74 -0.94,-0.99 -0.94,-0.99 -8.41,11.94 -14.09,18.1 -17.17,18.36 -2.34,0.19 -3.52,-1.2 -3.73,-3.66 -0.37,-4.36 2.27,-12.38 6.53,-21.52 7.39,-7.47 15.15,-15.72 21.96,-23.67 3.89,-0.59 40.27,-7.45 39.25,-19.46zm-22.12 -9.47c0.22,2.55 -6.8,13.2 -16.18,25.01 -2.85,0.45 -5.58,1.01 -8.33,1.34 9.15,-14.46 18.95,-26.41 23.94,-26.83 0.42,-0.04 0.55,0.17 0.57,0.48zm-19.88 29.38c-5.34,6.44 -11.21,12.92 -16.85,18.32 2.83,-5.69 6.09,-11.53 9.57,-17.17 2.53,-0.43 4.97,-0.74 7.28,-1.15zm-39.94 15.88c0.32,3.82 -3.91,13.27 -9.65,21.24 -0.16,-0.63 -0.21,-1.27 -0.28,-2.01 -0.69,-8.18 3.72,-20.63 8.29,-21.02 1.06,-0.09 1.55,0.62 1.65,1.78zm-39.63 -5.21c0.36,4.24 -7.6,17.64 -15.29,27.92 -0.75,-10.2 5.72,-28.5 13.8,-29.18 0.96,-0.08 1.42,0.31 1.5,1.27zm-41.81 5.12c-0.07,-0.85 -1.27,-1.07 -3.18,-0.91 -2.97,0.25 -3.4,0.29 -5.74,2.95 -6.13,7.25 -20.34,30.27 -19.57,39.42 0.34,4.04 2.66,6.08 6.05,5.8 5.63,-0.47 14.58,-7.22 23.86,-21.49 0.19,-0.34 0.17,-0.55 0.15,-0.76 -0.06,-0.74 -0.94,-0.99 -0.94,-0.99 -8.4,11.94 -14.09,18.11 -17.17,18.36 -1.49,0.12 -2.45,-1.19 -2.69,-3.96 -0.71,-8.39 13.07,-28.91 19.06,-37.86 0.09,-0.22 0.18,-0.34 0.17,-0.55z"/>
  </g>
 </g>
</svg>
