<?xml version="1.0" encoding="UTF-8"?>
<!DOCTYPE svg PUBLIC "-//W3C//DTD SVG 1.1//EN" "http://www.w3.org/Graphics/SVG/1.1/DTD/svg11.dtd">
<!-- Creator: CorelDRAW 2020 (64-Bit) -->
<svg xmlns="http://www.w3.org/2000/svg" xml:space="preserve" width="40.8763mm" height="13.555mm" version="1.1" style="shape-rendering:geometricPrecision; text-rendering:geometricPrecision; image-rendering:optimizeQuality; fill-rule:evenodd; clip-rule:evenodd"
viewBox="0 0 382.49 126.84"
 xmlns:xlink="http://www.w3.org/1999/xlink"
 xmlns:xodm="http://www.corel.com/coreldraw/odm/2003">
 <defs>
  <style type="text/css">
   <![CDATA[
    .fil1 {fill:black}
    .fil0 {fill:red}
   ]]>
  </style>
 </defs>
 <g id="Layer_x0020_1">
  <metadata id="CorelCorpID_0Corel-Layer"/>
  <g id="_1935784859440">
   <path class="fil0" d="M18.13 58.28l16.7 0c0.39,0 0.27,-1.48 0.29,-1.8 0.03,-0.35 0.07,-0.56 0.07,-1.02l0.73 -12.29c-0,-1.39 0.3,-3.95 0.29,-5.14 -0,-0.47 0.06,-0.62 0.07,-1.01l0.58 -10.27c-0,-0.45 0.06,-0.68 0.07,-1.01 0.01,0.01 0.02,0.02 0.02,0.05 0,0.03 0.02,0.04 0.02,0.05 0.33,0.88 4.58,17.83 4.73,18.41 0.77,3.09 1.61,6.21 2.37,9.27 0.45,1.8 0.57,2.9 1.73,4.05 0.31,0.31 0.39,0.4 0.78,0.66 3,1.99 7.23,0.98 8.78,-2.2 0.36,-0.73 0.46,-1.33 0.68,-2.21 0.99,-3.93 1.82,-7.8 2.81,-11.73 1.27,-5.05 2.38,-10.19 3.64,-15.23 0.09,-0.35 0.12,-0.89 0.32,-1.2l0.36 6.14c-0,0.46 0.05,0.65 0.07,1.01 0.02,0.39 -0.02,0.66 0.04,1.04 0.08,0.55 0.09,1.49 0.1,2.07 0,0.42 0.08,0.54 0.08,1.01l0.65 11.28c-0.01,0.56 0.06,1.56 0.12,2.05 0.13,0.95 0.2,5.24 0.34,6.17 0.04,0.26 -0.11,1.84 0.33,1.84l16.7 0c0.4,0 0.1,-1 0.07,-1.88 -0.01,-0.3 -0.05,-0.73 -0.08,-1.07 -0.26,-2.47 -0.3,-4.88 -0.62,-7.33l-0.44 -5.34c-0.19,-1.77 -0.24,-3.49 -0.43,-5.28 -0.19,-1.76 -0.25,-3.5 -0.43,-5.28l-0.16 -2.16c-0.09,-1.76 -0.3,-3.54 -0.44,-5.35 -0.21,-2.77 -0.5,-5.64 -0.71,-8.4 -0.06,-0.73 -0.13,-1.38 -0.15,-2.09 -0.1,-4.12 -1.42,-8.78 -4.99,-11.14 -0.98,-0.64 -1.94,-1.09 -3.08,-1.47 -3.98,-1.33 -8.97,-0.44 -12.22,2.01 -0.27,0.21 -0.45,0.39 -0.7,0.6 -1.29,1.09 -2.17,2.51 -2.65,4.15 -0.21,0.73 -0.34,1.44 -0.56,2.19 -0.42,1.43 -0.73,2.88 -1.11,4.31 -0.38,1.43 -0.75,2.83 -1.11,4.31 -0.36,1.46 -0.76,2.89 -1.11,4.31l-0.84 3.21c-0.09,0.34 -0.23,0.8 -0.26,1.11 -0.15,-0.24 -3.68,-14.93 -4.16,-17.09 -0.71,-3.14 -1.79,-5.68 -4.36,-7.58 -0.81,-0.6 -1.66,-1.06 -2.64,-1.41 -3.95,-1.4 -8.16,-0.94 -11.71,1.18 -2.3,1.37 -4.32,3.86 -4.84,6.58 -0.06,0.31 -0.09,0.62 -0.15,1.01l-0.42 5.37c-0.11,1.41 -0.34,2.89 -0.36,4.27l-0.67 8.51c-0.24,1.8 -0.23,3.57 -0.42,5.36l-0.7 8.48c-0.19,1.79 -0.19,3.57 -0.42,5.36 -0.2,1.5 -0.16,2.81 -0.32,4.31 -0.15,1.4 -0.31,2.9 -0.35,4.28 -0.02,0.78 -0.34,1.95 0.07,1.95z"/>
   <path class="fil0" d="M283.01 31.24c0,-1.84 0.21,-3.43 0.83,-4.89 1.49,-3.54 5.36,-6.39 9.37,-6.39 2.07,0 3.58,0.05 5.45,0.99 3.58,1.8 5.76,4.96 5.76,9.57 0,1.93 -0.12,3.47 -0.84,5.09 -0.3,0.67 -0.52,1.08 -0.89,1.64 -0.4,0.6 -0.66,0.92 -1.18,1.43 -4.6,4.6 -13.11,3.71 -16.64,-1.4 -0.39,-0.56 -0.66,-1 -0.96,-1.64 -0.52,-1.12 -0.89,-2.78 -0.89,-4.39zm-18.44 -1.52c0,3.22 0.52,6.74 1.51,9.7 0.33,0.98 0.63,1.84 1.02,2.74 1.72,3.92 3.89,7.01 6.92,9.93 0.2,0.19 0.31,0.23 0.51,0.43l2.05 1.71c0.19,0.15 0.35,0.24 0.55,0.39 0.66,0.49 2.6,1.71 3.49,2.15 6.32,3.13 13.06,4.36 20.05,2.62 2.07,-0.52 3.33,-1 5.22,-1.87 2.06,-0.95 4.78,-2.63 6.39,-4.16 0.57,-0.54 1.34,-1.13 1.82,-1.73 0.21,-0.26 1.13,-1.18 1.64,-1.83l1.11 -1.49c0.13,-0.2 0.25,-0.33 0.39,-0.55 0.13,-0.2 0.21,-0.35 0.33,-0.54 1.25,-1.87 2.41,-4.44 3.12,-6.57 0.3,-0.9 0.54,-1.79 0.77,-2.77 1.81,-7.7 0.4,-17.44 -3.8,-24.15 -1.75,-2.81 -4.29,-5.36 -7.04,-7.2 -3.2,-2.14 -7.83,-3.84 -11.78,-4.27 -2.1,-0.23 -2.13,-0.23 -4.19,-0.29 -0.37,-0.01 -0.45,-0.07 -0.86,-0.08 -1.77,-0.01 -4.69,0.28 -6.46,0.64 -2.1,0.42 -3.75,0.95 -5.49,1.67 -1.07,0.44 -2.5,1.16 -3.51,1.77l-4.6 3.43c-1.3,1.21 -1.2,1.22 -2.21,2.28 -1.65,1.73 -3.18,4.36 -4.24,6.46l-1.03 2.51c-0.88,2.57 -1.39,4.59 -1.61,7.35l-0.08 1.73z"/>
   <path class="fil0" d="M214.02 2.1l0 55.97c0,0.17 0.05,0.22 0.22,0.22l17.35 0c0.17,0 0.22,-0.05 0.22,-0.22l0 -21.91 8.1 0 0 21.91c0,0.17 0.05,0.22 0.22,0.22l17.57 0 0 -56.4 -17.57 0c-0.17,0 -0.22,0.05 -0.22,0.22l0 19.38 -8.1 0 0 -19.38c0,-0.17 -0.05,-0.22 -0.22,-0.22l-17.35 0c-0.17,0 -0.22,0.05 -0.22,0.22z"/>
   <path class="fil0" d="M89.36 2.1l0 55.97c0,0.17 0.05,0.22 0.22,0.22l17.36 0c0.17,0 0.22,-0.05 0.22,-0.22l0 -39.63c1.94,0 3.64,0.27 5.15,0.92 4.61,1.99 6.13,5.75 6.13,11.3 0,4.15 -1.53,7.97 -4.71,9.89 -1.24,0.75 -2.35,1.17 -4.11,1.17l0 16.34c0,0.43 0.73,0.14 1.37,0.14 0.61,0 1.01,-0.03 1.59,-0.08 0.96,-0.07 2.1,-0.25 2.98,-0.42 0.93,-0.18 1.85,-0.39 2.68,-0.65 1.02,-0.31 2.77,-0.92 3.68,-1.38 0.18,-0.09 0.32,-0.17 0.54,-0.26l2.73 -1.54c0.7,-0.47 1.32,-0.9 1.98,-1.42 0.66,-0.52 1.59,-1.44 1.8,-1.6 0.35,-0.27 1.61,-1.7 1.97,-2.15 2.66,-3.29 4.22,-6.68 5.23,-10.82 1.46,-5.98 0.61,-13.92 -1.51,-19.17 -1.14,-2.82 -2.92,-6.12 -5.09,-8.36l-1.3 -1.38c-0.19,-0.19 -0.29,-0.22 -0.47,-0.4l-1.48 -1.26c-1.16,-0.86 -3.17,-2.23 -4.47,-2.76 -0.44,-0.18 -0.79,-0.37 -1.25,-0.56 -3.56,-1.49 -7.25,-2.13 -12.26,-2.13l-18.73 0c-0.17,0 -0.22,0.05 -0.22,0.22z"/>
   <path class="fil0" d="M329.72 19.38l0 38.69c0,0.17 0.05,0.22 0.22,0.22l16.7 0c0.35,0 0.22,-0.68 0.22,-1.37l0 -24.88c0,-3.25 -0.29,-10.58 0.5,-12.74 0.46,-1.28 1.55,-1.99 2.91,-2.08 1.48,-0.1 2.71,-0.09 3.81,1.03 1.8,1.83 1.53,7.07 -4.76,7.07l0 15.84 1.88 0.07c6.32,0 11.75,-1.87 15.89,-6.53 2.23,-2.51 3.57,-6.1 4.13,-9.39 0.21,-1.24 0.46,-3.46 0.31,-4.77 -0.04,-0.39 0.02,-0.83 -0.01,-1.21 -0.03,-0.31 -0.08,-0.9 -0.12,-1.18 -0.55,-4.21 -1.47,-6.83 -3.98,-10.2 -0.6,-0.8 -1.14,-1.36 -1.85,-2.06 -0.66,-0.66 -1.32,-1.21 -2.07,-1.76l-1.53 -1.01c-3.11,-1.86 -7.5,-3.1 -11.14,-3.1l-1.66 0c-2.82,0 -6.01,0.87 -7.88,1.81 -0.55,0.28 -1.03,0.51 -1.56,0.83 -2.32,1.4 -4.15,2.97 -5.76,5.16 -0.18,0.25 -0.32,0.47 -0.51,0.72 -0.65,0.87 -1.69,2.81 -2.12,3.89 -0.44,1.12 -0.6,1.49 -0.96,2.73 -0.35,1.2 -0.68,2.74 -0.68,4.24z"/>
   <path class="fil0" d="M189.29 39.05l0 0.29c0,1.51 -2.9,2.39 -4.56,2.39l-13.09 0 0 16.34c0,0.17 0.05,0.22 0.22,0.22l16.7 0c3.54,0 6.56,-0.46 9.25,-1.31 1.05,-0.33 2.77,-0.96 3.74,-1.54 0.3,-0.18 0.54,-0.31 0.82,-0.48 0.26,-0.16 0.51,-0.34 0.78,-0.52 2.66,-1.77 4.75,-4.48 5.56,-7.68 0.75,-2.99 0.43,-6.64 -0.41,-9.29 -0.41,-1.29 -1.06,-2.47 -1.76,-3.52 -0.81,-1.22 -1.68,-2.22 -2.63,-3.3 -0.11,-0.12 -0.2,-0.21 -0.32,-0.33l-1.34 -1.27c-1.09,-1.11 -3.96,-3.28 -5.11,-4.15 -0.54,-0.4 -1.01,-0.74 -1.54,-1.14 -0.52,-0.39 -0.96,-0.74 -1.5,-1.11 -1.23,-0.84 -4.17,-2.88 -3.02,-4.38 0.71,-0.93 2.56,-1.14 4.21,-1.14l11.86 0 0 -15.04c0,-0.17 -0.05,-0.22 -0.22,-0.22l-15.69 0c-3.25,0 -5.29,0.24 -8.35,0.91 -4.32,0.95 -9.18,3.66 -10.63,8.03 -0.67,2.02 -0.44,2.17 -0.68,3.95 -0.09,0.65 0.2,3.39 0.37,4.29 0.25,1.24 0.66,2.49 1.15,3.48 1.5,2.99 1.66,2.82 3.27,4.9 0.55,0.71 1.87,2 2.58,2.63l2.2 1.92c1.41,1.14 4.38,3.44 5.97,4.52 0.69,0.47 2.15,1.5 2.15,2.55z"/>
   <path class="fil1" d="M308.82 107.17l0 1.01c0,3.77 2.15,6.34 4.71,8.38l1.23 0.94c0.44,0.32 0.85,0.63 1.3,0.94 0.84,0.57 3,2.08 3.76,2.75 1.37,1.2 2.73,2.43 3.88,3.86 0.16,0.2 0.32,0.38 0.49,0.59 0.18,0.22 0.29,0.39 0.47,0.61 0.21,0.25 0.26,0.52 0.56,0.6 0.12,-0.45 2.99,-3.6 3.49,-4.11l2.94 -2.63c1.62,-1.3 3.34,-2.39 5.06,-3.76 3.04,-2.42 4.71,-4.84 4.71,-8.96 0,-3.58 -1.15,-7.53 -3.79,-9.44 -2.94,-2.12 -6.37,-0.95 -8.4,1.66 -1.53,1.96 -1.81,3.02 -2.67,5.28l-1.05 2.85c-0.12,0.31 -0.26,0.66 -0.35,1.02 -0.19,-0.22 -0.27,-0.56 -0.4,-0.9 -1.02,-2.67 -1.98,-6.01 -3.68,-8.18 -2.22,-2.84 -5.31,-4.12 -8.5,-1.84 -0.43,0.31 -0.77,0.73 -1.1,1.07 -1.61,1.65 -2.66,5.38 -2.66,8.26z"/>
   <path class="fil1" d="M161.23 71.44c0.01,0.29 0.39,1.4 0.5,1.74 0.16,0.51 1.57,4.99 1.6,5.34l-4.34 0c0.28,-1.19 1.53,-5.02 2.01,-6.66 0.07,-0.23 0.06,-0.3 0.23,-0.42zm-32.61 14.9l6.36 0 0 -4.85c0,-0.25 3.13,-3.39 3.25,-3.47 0.09,0.37 1.74,3.48 2.07,4.15l2.12 4.17 14.17 0 0.48 -1.62c0.12,-0.42 0.45,-1.32 0.46,-1.71l7.16 0 1.01 3.33 6.65 0c-0.17,-0.36 -0.33,-0.85 -0.48,-1.26l-1.44 -3.84c-0.66,-1.72 -1.3,-3.38 -1.92,-5.09l-3.82 -10.2 -6.94 0c-0.16,0.67 -4.13,10.98 -4.71,12.57 -0.3,0.84 -0.62,1.67 -0.94,2.53 -0.16,0.44 -1.84,4.73 -1.87,5.07l-0.15 0c-0.07,-0.29 -1.68,-2.84 -1.87,-3.12l-2.36 -3.86c-0.17,-0.28 -0.32,-0.51 -0.47,-0.76 -0.36,-0.59 -2.82,-4.5 -2.82,-4.7 0,-0.21 1.75,-1.82 2.26,-2.44l1.88 -1.88c0.2,-0.2 0.25,-0.31 0.43,-0.51 0.55,-0.59 1.4,-1.33 1.88,-1.88l0.92 -1.03 -8.46 0 -6.51 7.59 0 -7.59 -6.36 0 0 20.39z"/>
   <path class="fil1" d="M59.42 107.38c0,0.52 -0.82,-0.16 -1.48,-0.55 -1.65,-0.98 -3.94,-1.78 -5.72,-0.72 -3.19,1.9 -3.9,6.49 -2.77,9.87 0.79,2.36 2.82,5.22 5.63,5.22 1.61,0 2.9,-0.37 4.12,-1.23 0.92,-0.65 1.81,-1.55 2.43,-2.49 0.56,-0.84 0.94,-1.92 1.4,-1.92 0.4,0 0.29,0.75 0.29,1.23 0,1.75 -0.39,4.1 -0.84,5.45 -1.21,3.64 -2.55,2.68 -2.78,3.51 0.28,0.42 1.21,0.61 1.82,0.71 0.34,0.06 0.77,0.11 1.09,0.14 0.5,0.06 3.06,0.06 3.64,-0.03 0.27,-0.04 3.08,-0.09 1.59,-1.07 -2.2,-1.47 -3.37,-5.48 -3.43,-8 -0.02,-0.67 -0.23,-0.96 0.14,-1.52 0.8,0.07 0.8,1.34 1.86,2.55 0.17,0.19 0.26,0.33 0.43,0.51 0.63,0.66 1.18,1.17 1.94,1.67 0.39,0.26 0.7,0.46 1.14,0.67 5.44,2.7 9.23,-2.73 9.23,-7.57 0,-2.03 -0.21,-3.7 -1.11,-5.18 -0.7,-1.15 -1.89,-2.12 -3.67,-2.12 -1.44,0 -2.88,0.42 -3.81,1.32 -0.19,0.18 -0.29,0.21 -0.47,0.4 -0.23,0.23 -0.17,0.3 -0.56,0.31 -0.11,-0.49 0.25,-0.7 0.67,-1.42 1.14,-1.92 1.71,-3.2 1.71,-5.66 0,-5.51 -8.76,-5.78 -12.17,-4.07 -1.9,0.95 -3.14,2.58 -3.01,4.72 0.03,0.54 0.01,0.72 0.09,1.21 0.07,0.37 0.15,0.74 0.28,1.09 0.23,0.62 0.54,1.17 0.95,1.65 0.5,0.59 1.35,1.13 1.35,1.32z"/>
   <path class="fil1" d="M136.07 112.73c0,3.27 0.74,5.06 2.38,7.1 0.35,0.44 1.22,1.1 1.68,1.36 3.61,2.09 7.81,0.6 10.04,-2.69 0.14,-0.21 0.44,-0.74 0.59,-0.85 0,2.13 -0.75,7.01 -3.11,7.74 -0.2,0.06 -0.43,0.11 -0.43,0.36 0,1.18 8.46,1.16 8.46,0.36 0,-0.48 -0.4,-0.44 -1.14,-1.11 -0.15,-0.13 -0.22,-0.27 -0.36,-0.43 -0.89,-0.99 -1.61,-2.79 -1.94,-4.13 -0.18,-0.72 -0.39,-1.81 -0.39,-2.65 0.05,0.06 0.07,0.08 0.13,0.16l0.45 0.64c0.1,0.13 0.2,0.28 0.31,0.41 1.54,1.8 3.63,3.06 6.13,3.06 2.48,0 4.45,-1.29 5.56,-2.68 1.97,-2.48 2.79,-6.79 1.26,-9.78 -1.88,-3.68 -6.45,-5.13 -9.74,-7.91 -0.19,-0.16 -0.37,-0.32 -0.56,-0.46l-2.01 -1.9c-0.61,-0.66 -1.85,-2.15 -2.04,-2.95 -0.18,0.13 -0.46,0.8 -0.74,1.22 -0.54,0.82 -0.92,1.12 -1.29,1.6l-2.59 2.4c-2.16,1.61 -2.79,1.79 -4.8,3.09 -1.16,0.75 -1.82,1.13 -2.86,2.06 -1.75,1.56 -2.98,3.44 -2.98,5.98z"/>
   <path class="fil1" d="M224.73 111.51c0,1.07 0.77,1.56 1.27,2.2l3.98 4.7c0.67,0.86 1.78,2.04 2.42,2.86l3.99 4.69c0.71,0.88 1.57,0.95 2.2,0.12l1.59 -1.88c0.27,-0.35 0.53,-0.6 0.8,-0.94l1.2 -1.41c0.16,-0.2 0.24,-0.28 0.4,-0.47l6.4 -7.55c0.14,-0.16 0.25,-0.3 0.39,-0.47 1.05,-1.25 1.51,-2 0.08,-3.5 -0.75,-0.79 -2.68,-3.2 -3.58,-4.23l-7.2 -8.5c-0.75,-0.9 -1.47,-0.91 -2.24,-0.04 -1.07,1.22 -3.08,3.76 -3.98,4.7l-1.19 1.41c-0.89,0.93 -2.9,3.45 -3.98,4.7l-1.99 2.35c-0.28,0.31 -0.56,0.69 -0.56,1.25z"/>
   <path class="fil1" d="M304.49 66.17l0 20.17 6 0 0 -11.06c0.06,0.07 0.06,0.07 0.13,0.16 0.06,0.08 0.06,0.09 0.12,0.17l7.13 10.44c0.1,0.14 0.15,0.3 0.35,0.3l5.86 0 0 -20.39 -6 0 0 11.14c-0.19,-0.14 -1.22,-1.72 -1.43,-2.04l-1.42 -2.05c-0.34,-0.5 -0.6,-0.95 -0.96,-1.42 -0.34,-0.46 -0.6,-0.9 -0.93,-1.38 -0.34,-0.49 -0.65,-0.93 -0.97,-1.42l-1.4 -2.07c-0.17,-0.23 -0.4,-0.48 -0.48,-0.75l-5.43 -0c-0.31,-0 -0.57,-0.07 -0.57,0.22z"/>
   <path class="fil1" d="M74.89 74.19l-2.6 0 0 -4.05c1.23,0 3.87,-0.16 4.8,0.34 1.21,0.65 1.13,2.73 -0.12,3.33 -0.33,0.16 -1.58,0.38 -2.07,0.38zm-8.97 12.15l6.36 0 0 -8.24c2.67,0 2.58,1.16 4.02,3.57l2.49 4.67 7.23 0 -2.6 -4.99c-0.21,-0.41 -0.4,-0.86 -0.65,-1.23 -0.43,-0.65 -1.17,-1.62 -1.76,-2.07 -0.31,-0.24 -0.93,-0.51 -1.35,-0.61l0 -0.14c1.71,-0.14 3.56,-1.67 4.29,-3.38 0.65,-1.52 0.5,-3.64 -0.21,-5.04 -1.34,-2.63 -4.15,-2.94 -7.26,-2.94l-10.56 0 0 20.39z"/>
   <path class="fil1" d="M183.65 86.34l6.36 0 0 -4.85c0,-0.13 0.62,-0.8 0.74,-0.92 0.27,-0.29 0.54,-0.54 0.83,-0.83 0.5,-0.5 1.25,-1.43 1.68,-1.72l3.67 7.25c0.16,0.26 0.45,0.77 0.52,1.07l7.81 0c-0.06,-0.27 -0.29,-0.55 -0.44,-0.79 -1.7,-2.86 -3.59,-5.78 -5.31,-8.65 -0.12,-0.2 -1.94,-3.07 -1.92,-3.21 0.02,-0.18 3.27,-3.45 3.67,-3.85l3.71 -3.89 -8.46 0c-0.06,0.23 -0.59,0.74 -0.77,0.96 -0.27,0.32 -0.51,0.64 -0.8,0.94l-4.93 5.69 0 -7.59 -6.36 0 0 20.39z"/>
   <path class="fil1" d="M255.31 81.71l-0.87 0 0 -11.06c2.76,0 5.46,-0.22 5.92,3.55 0.07,0.6 0.17,1.91 0.1,2.39 -0.13,0.9 0.21,3.65 -1.73,4.64 -0.39,0.2 -0.54,0.24 -0.99,0.32 -0.73,0.13 -1.62,0.16 -2.44,0.16zm-7.23 4.63l10.05 0c1.14,0 3.04,-0.46 3.84,-0.78 0.61,-0.25 0.95,-0.5 1.47,-0.85 0.69,-0.47 1.25,-1.13 1.74,-1.81 2.01,-2.78 2.14,-7.97 1.06,-11.18 -0.38,-1.13 -0.97,-2.37 -1.73,-3.12 -0.93,-0.93 -1.52,-1.49 -2.85,-2 -1.14,-0.44 -2.62,-0.66 -4.18,-0.66l-9.4 0 0 20.39z"/>
   <path class="fil1" d="M52.4 81.93c-1.59,0 -2.61,-0.25 -3.56,-1.43 -1.03,-1.28 -1,-3.29 -1,-5 0,-6.52 6.87,-6.19 8.05,-2.34 0.58,1.89 0.5,5.64 -0.55,7.25 -0.51,0.79 -1.66,1.53 -2.95,1.53zm-10.92 -6.58c0,2.25 -0.02,3.54 0.83,5.68 0.93,2.35 2.77,4.03 5.05,4.93 2.79,1.09 7.48,1.05 10.2,-0.32 2.22,-1.11 3.68,-2.85 4.47,-5.22 0.65,-1.95 0.74,-4.53 0.41,-6.87 -0.15,-1.03 -0.53,-2.1 -0.93,-2.9 -0.57,-1.15 -1.59,-2.41 -2.65,-3.14 -3.13,-2.16 -7.76,-2.37 -11.03,-1.28 -1.15,0.38 -2.2,0.95 -3.08,1.69 -0.19,0.16 -0.33,0.33 -0.51,0.5l-0.91 1.05c-0.5,0.66 -1.02,1.69 -1.28,2.55 -0.28,0.93 -0.58,2.13 -0.58,3.33z"/>
   <path class="fil1" d="M291.11 81.93l-0.72 0c-1.34,0 -2.52,-0.83 -3.03,-1.67 -1.18,-1.92 -1.21,-6.3 0.05,-8.18 1.44,-2.16 4.94,-2.23 6.57,-0.1 1.32,1.74 1.22,6.33 0.2,8.17 -0.58,1.05 -1.77,1.78 -3.06,1.78zm-10.99 -5.93c0,3.15 0.89,6.48 3.34,8.45 2.5,2.02 4.72,2.25 8.09,2.25 2.29,0 4.93,-0.81 6.53,-2.3 0.26,-0.24 0.44,-0.33 0.68,-0.62 0.83,-1 1.42,-1.8 1.87,-3.19 0.9,-2.72 0.95,-6.5 -0.1,-9.18 -0.77,-1.97 -1.88,-3.18 -3.54,-4.28 -0.98,-0.64 -2.67,-1.19 -3.86,-1.35 -3.25,-0.44 -6.81,-0.17 -9.45,1.91 -0.16,0.12 -0.19,0.18 -0.35,0.3 -2.24,1.75 -3.22,5.11 -3.22,7.99z"/>
   <path class="fil0" d="M103.6 103.84c-0.39,-0.1 -0.49,-0.84 -1.16,-1.01 0.07,-0.27 1.11,-1.38 1.3,-1.52 0.66,-0.5 1.07,-0.58 1.88,-1.01 0,0.67 -0.08,0.55 -0.45,0.92 -0.6,0.59 -1.5,1.74 -1.57,2.62zm6.22 -5.71c-0.6,0 -1,-0.28 -1.6,-0.36 -0.44,-0.06 -0.35,-0.1 -0.67,-0.27 -1.15,-0.64 -2.19,0.09 -3.14,0.79 -0.32,0.24 -0.57,0.46 -0.83,0.76l-0.71 0.89c-0.76,1.06 -0.76,0.94 -1.38,1.73 -0.54,0.67 -0.65,0.57 -1.66,0.72 -0.32,0.05 -0.42,0.03 -0.57,0.23 0.07,0.28 0.1,0.28 0.43,0.29 -0.11,0.41 -1.53,1.29 -0.65,3.11 0.32,0.65 1.12,1.37 1.95,1.37 0.87,0 1.66,-0.12 2.24,-0.94l0.36 -0.58c0.02,1.08 0.56,0.59 -0.22,2.53 -0.33,0.82 -0.63,1.45 -0.8,2.46 -0.09,0.57 -0.28,1.05 -0.29,1.3 -0.02,0.67 0.24,0.76 -0.07,1.44 -1.13,2.48 -0.58,2.75 -0.58,3.33 0,0.09 -0.39,0.67 -0.48,0.9 -0.24,0.61 -0.62,1.58 -0.12,2.09 0.53,0.55 1.14,0.65 1.76,0.2 0.58,-0.43 0.72,-0.66 0.92,-0.82 0.25,-0.2 0.11,-0.06 0.4,-0.18 0.51,-0.21 1.18,-1.49 1.39,-2.01 0.13,-0.31 0.22,-0.52 0.34,-0.82 0.1,-0.24 0.21,-0.58 0.5,-0.66 0.06,0.24 0.57,0.78 0.94,0.87 -0.01,0.45 -0.21,0.71 -0.22,1.16 -0.84,0.2 -1.58,0.82 -2.11,1.36 -1.03,1.04 -1.99,2.13 -3.22,2.93 -0.7,0.45 -0.75,-0.1 -1.73,0.87 -1.65,1.64 0.49,2.18 1.09,2.78 0.26,0.26 0.23,0.4 0.43,0.66 0.44,0.54 0.86,0.36 1.7,0.47 0.6,0.08 1.32,-0.01 1.32,-0.75 0,-0.49 -0.46,-0.67 -0.82,-0.84 -0.65,-0.32 -0.5,-0.23 -0.8,-0.87 -0.28,-0.6 -0.35,-0.51 0.04,-1.1 0.68,-1.05 4.07,-2.36 5.14,-3.17 0.17,-0.13 0.28,-0.2 0.45,-0.34 1.76,-1.38 1.35,-0.68 2.45,-3.41 0.73,-1.81 0.82,-2.91 1.19,-3.8 0.33,-0.79 0.62,-1.57 0.08,-2.38 0.09,-0.33 0.21,-0.27 0.22,-0.79 0.01,-0.76 -0.07,-1.99 0.58,-2.46 0.12,1.45 1.35,2 0.07,2.68 0,0.15 0.01,0.2 -0.02,0.35 -0.07,0.36 -0.11,-0.03 -0.03,0.49 0.06,0.42 -0.02,-0.06 -0.02,0.32 0,0.33 0,-0.05 0.07,0.22 0.1,0.38 -0.06,0.31 0.16,0.56 0.39,0.45 1.29,0.61 1.66,-0.26 0.5,-1.15 0.18,-1.24 0.24,-1.85 0.14,-1.41 0.38,-1.58 0.15,-3.13 -0.13,-0.92 0.28,-0.19 0.31,-1.83 0.01,-0.44 0.52,-0.89 -0,-2.52 -0.16,-0.52 -0.68,-1.58 -1.02,-1.95 -0.23,-0.25 -0.5,-0.57 -0.85,-0.67 0,-0.92 0.07,-1.58 -0.3,-2.16 -0.54,-0.84 -2.23,-1.19 -3.07,-0.2 -0.3,0.36 -0.49,0.77 -0.61,1.27z"/>
   <path class="fil1" d="M107.65 71.59c0,0.79 0.21,1.54 0.43,2.1 0.45,1.11 1.48,2.05 2.49,2.64 3.51,2.08 8.72,1.61 8.72,4.22 0,2.5 -4.73,3.07 -5.95,0.17 -0.31,-0.74 -0.21,-0.87 -0.34,-1.32 -0.1,-0.36 -0.18,-0.2 -0.51,-0.16l-5.56 0.31c0,1.5 0.72,3.24 1.53,4.33 0.9,1.21 2.08,1.98 3.58,2.35 3.57,0.89 9.39,0.82 11.76,-2.12 1.57,-1.96 2.18,-4.35 1.21,-6.73 -2.04,-5.01 -11.42,-4.02 -11.42,-6.23 0,-1.56 1.31,-1.66 2.46,-1.66 1.62,0 2.62,1.11 2.75,2.6l5.28 -0.29c0.37,-0.01 0.36,-0.07 0.72,-0.07 -0.02,-0.86 -0.49,-2.2 -0.82,-2.8 -1.29,-2.39 -3.45,-2.89 -5.87,-3.24 -1.35,-0.19 -3.74,-0.06 -5.06,0.21 -2.91,0.58 -5.38,2.65 -5.38,5.68z"/>
   <path class="fil1" d="M0.77 71.23c0,1.91 0.26,2.81 1.61,4.18 0.73,0.74 2.07,1.42 3.19,1.8 1.8,0.61 4.59,1.1 5.76,1.76 1.24,0.71 1.4,2.18 0.2,3.16 -0.96,0.79 -4.18,1.03 -5.16,-1.53 -0.14,-0.36 -0.32,-0.97 -0.32,-1.42 -0.34,0 -0.3,0.05 -0.58,0.07 -0.72,0.06 -2.45,0.06 -3.28,0.19 -1.87,0.28 -2.3,-0.26 -2.17,0.55 0.76,4.74 3.71,6.71 8.71,6.71 2.81,0 5.22,-0.14 7.25,-1.79 3.64,-2.96 3.8,-8.88 -1.91,-10.93 -1.6,-0.58 -2.33,-0.76 -3.98,-1.15 -1.15,-0.27 -3.46,-0.51 -3.46,-1.82 0,-0.9 0.89,-1.52 1.81,-1.52 0.67,0 1.22,-0.05 1.86,0.24 0.69,0.31 0.97,0.69 1.28,1.33 0.18,0.37 0.19,0.74 0.34,1.04 0.56,0 0.86,-0.06 1.45,-0.07 0.37,-0 0.4,-0.06 0.72,-0.07l3.04 -0.14c0.36,-0.01 0.36,-0.07 0.72,-0.07 0,-0.83 -0.46,-2.21 -0.77,-2.77 -1.3,-2.32 -3.33,-2.91 -5.79,-3.25 -0.45,-0.06 -2.01,-0.16 -2.51,-0.08 -0.5,0.07 -1.14,0.02 -2.5,0.25 -1.83,0.3 -3.52,1.21 -4.56,2.68 -0.41,0.58 -0.94,1.7 -0.94,2.68z"/>
   <path class="fil0" d="M196.52 100.88c0,0.19 0.33,0.5 0.43,0.65 -0.12,0.22 -0.23,0.38 -0.36,0.58 -3.18,0 -2.95,0.81 -5.06,2.03 -0.46,0.27 -0.74,0.28 -1.31,0.28 -0.58,0 -1.49,-0.25 -2.03,-0.36 -0.37,-0.07 -0.63,-0.08 -0.94,-0.22 -0.34,-0.15 -0.44,-0.29 -0.77,-0.46 -1.48,-0.74 -0.62,-0.99 -1.73,-1.88 -0.24,-0.19 -0.32,-0.52 -0.39,-0.84 -0.35,0.03 -0.3,0.11 -0.43,0.36 -0.08,-0.05 -0.21,-0.17 -0.32,-0.18 -0.56,-0.06 0.05,0.55 -0.28,0.95 -0.18,0.21 -0.42,0.33 -0.39,0.65 0.06,0.64 0.73,0.87 0.99,1.26 -0.32,0.03 -0.37,0.08 -0.51,0.29 0.14,0.15 0.07,0.14 0.36,0.15 0.04,0.48 0.33,0.31 0.78,0.38 0.16,0.03 0.27,0.09 0.46,0.12 0.16,0.02 0.4,0.01 0.57,0.01 0.27,0.51 1.76,2.06 2.53,2.24 -0.13,0.19 -0.33,0.37 -0.5,0.59 -0.55,0.7 -1.02,1.65 -1.29,1.96 -0.98,1.11 -2.11,0.67 -4.84,3.83 -0.25,0.29 -0.23,0.53 -0.84,1.33 -0.85,1.13 -1.15,1.45 -0.49,2.7 0.14,0.26 0.16,0.19 0.22,0.51 0.19,1.14 1.49,3.58 2.17,4.7 0.39,0.65 0.73,1.27 1.09,1.95 -0.32,0.09 -0.99,0.65 -1.06,0.96 -0.1,0.45 0.04,0.43 -0.52,0.49 -0.37,0.04 -0.55,0.05 -0.58,0.43 0.69,0.33 2.5,0.07 3.25,0.07 0.49,-0 2.1,0.35 2.1,-0.43 0,-0.37 -0.28,-1.15 -0.49,-1.46 -0.54,-0.77 0.07,1.22 -1.52,-3.03 -0.74,-1.98 -0.27,-1.88 -1.58,-4.06 -0.13,-0.21 -0.25,-0.32 -0.31,-0.55 0.25,-0.06 1.02,-0.43 1.16,-0.43 0.84,0 0.85,1.31 2.86,-0.03 0.41,-0.27 0.76,-0.61 1.19,-0.84 0.21,0.15 0.07,0.08 0.21,0.22 0.26,0.25 0.5,0.42 0.87,0.5 0.01,0.67 0.26,1.85 0.64,2.33 0.31,0.39 0.79,0.69 1.22,0.96 0.32,0.2 0.31,0.09 0.24,0.41 1.25,0.29 2.38,1.52 3.43,2.21 0.57,0.38 1.17,0.69 1.57,1.25 0.79,1.09 0.42,0.79 0.45,1.38 0.01,0.29 0.19,0.33 0.19,0.52 0,0.36 -0.07,0.32 -0.07,0.65 0.29,0 0.29,0.02 0.51,0.07 -0.18,0.77 -0,0.72 0.72,0.72 1.09,0 1.35,-0.09 1.48,-1.05 0.25,-1.85 0.89,-2.48 -0.37,-3.02 -1.12,-0.48 -0.76,-0.02 -1.63,-0.83 -0.52,-0.49 -0.75,-0.67 -1.18,-1.28 -0.65,-0.91 -1.16,-2.2 -2.21,-2.71 -0.45,-0.21 -0.78,-0.23 -1.44,-0.23 -0.34,-1.47 0.29,-2.17 0.29,-2.17 0,-0.41 -0.29,-0.41 -0.29,-1.88 0.64,-0.05 0.38,-0.78 0.74,-1.14 0.69,-0.71 0.56,-0.64 0.56,-1.53 0,-0.2 0.25,-0.75 0.35,-0.88 0.53,-0.73 0.76,0.42 1.5,-0.81 1.05,-1.73 2.29,-1.04 3.31,-3.05 0.4,-0.79 0.63,-1.55 0.63,-2.48 0,-0.36 -0.12,-0.38 -0.14,-0.72l0.5 0.16c0.18,-0.76 0.23,0 0.15,-0.95 0.19,-0.1 0.31,-0.19 0.51,-0.29 0,-0.81 0.2,-0.81 0.7,-1.32 0.65,-0.65 1.53,-1.23 0.47,-1.88 -0.32,-0.19 -0.18,-0.13 -0.3,-0.57 -0.04,-0.14 -0.05,-0.17 -0.11,-0.33 -0.24,-0.72 -0.61,-1.05 -1.37,-1.3 -1.33,-0.44 -1.36,-0.22 -2.25,0.38 -0.2,0.13 -0.09,0.06 -0.22,0.22 -0.3,0.36 -0.49,0.75 -0.52,1.23 -0.03,0.44 -0.37,0.17 -0.37,0.81 0,0.44 -0.24,0.08 -0.23,0.96 0,0.54 -0.15,0.47 -0.15,0.79z"/>
   <path class="fil1" d="M234.85 71.44c0.24,0.35 1.98,6.54 2.24,7.09l-4.41 0c0.12,-0.24 0.19,-0.62 0.28,-0.88 0.1,-0.3 0.17,-0.57 0.27,-0.89l1.62 -5.32zm-10.99 14.9l6.44 0 0.9 -3c0.06,-0.2 0.02,-0.32 0.26,-0.32l6.8 0c0.29,0 0.45,1.03 0.64,1.6 0.18,0.52 0.39,1.19 0.51,1.73l6.65 0 -7.45 -19.81c-0.09,-0.22 -0.11,-0.58 -0.36,-0.58l-6.58 0c-0.26,0 -0.41,0.64 -0.6,1.14l-4.33 11.51c-0.23,0.65 -2.86,7.46 -2.88,7.75z"/>
   <path class="fil1" d="M369.93 71.44c0.24,0.18 0.16,0.31 0.33,0.82l1.36 4.42c0.1,0.34 0.18,0.54 0.28,0.88 0.07,0.27 0.25,0.65 0.27,0.96l-4.34 0 1.32 -4.4c0.07,-0.26 0.18,-0.62 0.26,-0.89 0.1,-0.31 0.17,-0.54 0.27,-0.88 0.09,-0.31 0.21,-0.57 0.24,-0.91zm-10.99 14.9l6.51 0 0.71 -2.47c0.09,-0.28 0.2,-0.54 0.23,-0.86l7.16 0 1.01 3.33 6.65 0c-0.37,-0.71 -6.27,-16.65 -7.19,-19.06 -0.17,-0.43 -0.37,-0.89 -0.48,-1.33l-6.94 0c-0.12,0.54 -5.94,15.84 -6.69,17.82 -0.17,0.45 -0.32,0.83 -0.47,1.26 -0.14,0.39 -0.32,0.94 -0.5,1.31z"/>
   <path class="fil1" d="M338.11 76.07c0,1.56 0.23,3.03 0.7,4.44 0.79,2.4 2.58,4.38 4.87,5.4 2.4,1.06 6.52,1.06 9.05,0.23 0.58,-0.19 1.42,-0.61 1.91,-0.98 0.19,-0.14 0.4,-0.3 0.56,-0.46 1.03,-0.99 1.9,-2.11 2.36,-3.5 0.13,-0.4 0.43,-1.14 0.44,-1.58 -0.58,-0.05 -5.02,-1.58 -5.57,-1.59 -0.09,1.03 -0.94,3 -2.22,3.57 -1.54,0.68 -3.93,0.4 -4.85,-1.13 -0.94,-1.56 -0.82,-3.36 -0.82,-5.26 0,-1.11 0.34,-2.36 0.78,-3.05 1.59,-2.52 5.09,-2.12 6.3,-0.26 0.21,0.32 0.49,0.95 0.59,1.36l4.85 -1.08c0.26,-0.05 0.47,-0.13 0.72,-0.15 -0.02,-0.72 -1.04,-2.52 -1.47,-3.09 -0.19,-0.25 -0.32,-0.37 -0.5,-0.59 -2.97,-3.69 -11.1,-3.48 -14.43,-0.5l-0.87 0.87c-1.74,1.95 -2.4,4.76 -2.4,7.36z"/>
   <path class="fil1" d="M29.84 74.63l-1.81 0 0 -4.48c1.91,0 4.77,-0.33 4.77,2.31 0,0.73 -0.42,1.38 -0.87,1.66 -0.53,0.33 -1.24,0.51 -2.1,0.51zm-8.24 -8.46l0 20.17 6.44 0 0 -7.52c2.36,0 4.49,0.18 6.73,-0.43 2.17,-0.6 3.54,-2.19 4.05,-4.34 0.33,-1.39 0.22,-3.06 -0.23,-4.41 -0.87,-2.61 -3.47,-3.7 -6.43,-3.7l-10.34 0c-0.17,0 -0.22,0.05 -0.22,0.22z"/>
   <path class="fil0" d="M378.97 104.85c-0.17,0.26 -0.84,0.56 -1.53,1.51 -0.18,0.24 -0.25,0.43 -0.49,0.59 0,-0.38 0.11,-1 0.14,-1.38 0.04,-0.47 0,-1.1 0,-1.59 0.49,0.33 0.72,0.84 1.88,0.87zm0 0l0.14 -0.08 -0.14 0.08zm-6.22 -0.94c0.74,0.85 0.96,1.73 1.39,2.44 0.25,0.41 0.45,0.84 0.73,1.22 0.31,0.43 0.75,0.85 0.78,1.18 -0.59,0.14 -0.69,0.26 -1.16,0.51l-1.36 -3.05 -0.38 -2.3zm0 0l0 0zm0.72 -2.75l0 0zm-0.43 -0.8l0 0zm0.15 -0.29l0 0zm0.29 1.08c0.37,0.09 0.28,0.2 0.65,0.29 -0.09,-0.12 -0.41,-0.37 -0.56,-0.52 -0.19,-0.2 -0.38,-0.34 -0.52,-0.56 0.28,0.07 0.5,0.36 0.72,0.51 -0.1,-0.38 -0.39,-0.51 -0.58,-0.8 0.27,0.07 0.38,0.23 0.58,0.36 -0.09,-0.35 -0.72,-0.92 -1.01,-1.08 -0.35,-0.2 -1.11,-0.4 -1.58,-0.52 -2.52,-0.64 -2.18,-2.47 -3.85,-2.51 -0.32,-0.01 -1.91,0.24 -2.1,1.01l-0.07 0.87c-0.01,0.46 -0.02,0.65 0.09,1.01 0.09,0.33 -0.01,0.51 -0.01,0.95 0.27,0.03 0.1,-0.12 0.35,0.38 0.11,0.22 0.39,0.81 0.57,0.88 0.24,0.1 0.49,0.01 0.68,-0.03 -0.79,1.49 -3.42,1.15 0.02,5.33l1.01 1.16c0.12,0.22 -0.12,1.62 -0.2,1.92 -0.28,0.99 -3.01,4.48 -3.57,5.32 -0.3,0.45 -0.52,0.87 -0.82,1.35 -0.31,0.51 -0.63,0.81 -1.01,1.23 -0.66,0.74 -1.15,1.85 -1.62,2.79 -0.65,1.3 -0.85,1.73 -1.62,2.87 -0.27,-0.07 -0.09,-0.07 -0.36,-0.15 -0.11,0.22 -0.2,0.47 -0.35,0.66l-0.5 0.58c-0.33,0.38 -0.72,0.67 -1.05,1.05 -0.95,1.06 0.66,1.71 1.95,0.65 1.05,-0.86 0.93,-0.34 1.41,-0.69 0.33,-0.24 0.32,-1.28 0.35,-1.75 0.03,-0.62 0.23,-0.78 0.72,-1.38l1.51 -1.67c1.7,-1.5 1.14,-1.91 2.39,-2.89 1.04,-0.81 0.31,-0.22 1.08,-1.09 0.17,-0.2 0.34,-0.29 0.56,-0.46l1.72 -1.46c0.15,-0.16 0.96,-0.99 1.05,-1.04 0.11,-0.06 1.8,-0.13 2.04,-0.13 0,0.97 -0.09,2.49 0.01,3.39 0.14,1.25 -0.18,1.51 1.07,2.4 1.5,1.06 3,1.54 4.14,2.73 1.04,1.08 0.64,1.1 0.79,1.59 0.07,0.21 0.17,0.4 0.2,0.68 0.1,0.88 -0.19,0.87 -0.26,1.47 -0.08,0.65 0.54,0.58 1.01,0.43 1.1,-0.33 1.29,-0.99 1.35,-2.05 0.02,-0.43 0.41,-0.85 -0.09,-1.36 -0.29,-0.3 -0.63,-0.54 -0.85,-0.88l-0.3 0.08c-0.49,-0.14 -1.96,-2.69 -2.65,-3.35 -0.97,-0.94 -1.89,-0.34 -1.91,-1.42 -0.02,-1.11 0.24,-1.82 0.5,-2.84 0.15,-0.59 0.52,-2.16 0.43,-2.79 -0.03,-0.22 -0.12,-0.78 -0.13,-1.03 0.61,0 0.93,0.16 1.25,-0.19 0.25,-0.28 0.26,-0.49 0.49,-0.74 0.11,-0.12 0.1,-0.05 0.21,-0.22 -0.05,-0.22 -0.11,-0.28 -0.22,-0.43 0.39,-0.09 0.49,-0.31 0.7,-0.82 0.15,-0.35 0.43,-0.86 -0.05,-0.99 0.13,-0.56 1.26,-1.63 1.71,-1.97 0.76,-0.57 1.54,-0.87 2.21,-1.55 0.73,-0.74 1.12,-1.1 1.3,-2.39 0.52,-3.73 -5.85,-4.6 -5.87,1 -0,0.64 0.13,1.15 0.15,1.73 0.02,0.59 0.02,1.3 0,1.88 -0.01,0.24 -0.05,0.59 -0.09,0.85 -0.06,0.37 -0.13,0.36 -0.49,0.45 -0.31,-0.47 -0.48,-0.51 -0.73,-1.22 -0.48,-1.34 -0.18,-1.29 -1.28,-2.77 -0.17,-0.22 -0.75,-1 -0.81,-1.22 0.41,0.19 1.23,0.15 1.68,0.02l0.2 -0.09c-0.64,0 -1.55,-0.09 -1.74,-0.8z"/>
   <path class="fil0" d="M16.47 100.15c-1.49,-0.35 -1.57,0.69 -2.36,1.32 -0.35,0.27 -1.01,0.54 -1.25,0.99 -0.14,0.26 -0.11,0.69 -0.22,0.86 -0.14,0.21 -0.67,0.21 -1.35,0.89l-2.38 2.53c-0.34,0.41 -0.07,0.31 -0.62,0.54 -0.53,0.21 -0.45,0.37 -0.53,0.56 -0.24,0.56 -0.29,0.26 -0.28,0.79 0,0.17 0.04,0.03 -0.01,0.22 -0.05,0.19 -0.05,0.13 -0.1,0.19 0.16,0.22 -0.05,0.12 0.29,0.14 -0.09,0.18 -0.14,0.31 -0.15,0.58 0.36,-0.01 0.35,-0.07 0.51,-0.29 0.1,-0.14 0.22,-0.33 0.36,-0.44 -0.07,0.31 -0.16,0.4 0.22,0.51 0.18,-0.13 0.24,-0.44 0.45,-0.7 0.25,-0.3 0.36,-0.27 0.5,-0.73 0.25,-0.82 0.47,-0.89 1.11,-1.35 0.72,-0.52 1.45,-0.99 2.07,-1.61 0.22,-0.22 0.39,-0.43 0.63,-0.6 0.23,0.05 0.42,0.22 0.58,0.22 0.49,0 0.59,-0.59 1.01,-0.87 0,0.81 -0.68,1.44 -0.87,2.17 -0.18,0.67 0.37,1.8 0.51,2.39 -0.21,0.1 -0.55,0.04 -0.77,0.67 -0.17,0.48 -0.01,0.97 -0.14,1.38 -0.11,0.32 -0.4,0.63 -0.58,0.94 -0.41,0.71 -1,2.63 -1.03,3.45 -0.02,0.43 -0.14,0.91 -0.21,1.31 -0.2,1.22 -0.54,3.36 1.51,2.45 0.59,-0.26 0.36,-0.34 0.72,-0.44 -0.15,0.62 -1.05,1.38 -1.5,1.83 -0.57,0.56 -0.87,1.34 -1.32,2.01 -1.78,-0.94 -3.76,0.18 -3.76,2.24 0,2.63 3.79,3.28 4.75,0.91 0.47,-1.18 0.06,-1.29 0.2,-1.67l1.25 -1.29c0.48,-0.48 1.61,-1.75 1.88,-2.32 0.14,-0.31 0.06,-0.31 0.27,-0.6l1.12 -1.41c0.2,-0.17 0.27,-0.2 0.46,-0.4 0.28,-0.29 0.64,-0.57 0.85,-0.89 0.19,0.14 0.19,0.36 0.51,0.36 0.35,0 0.96,-0.5 0.72,-1.52 0.32,-0.15 0.42,-0.16 0.72,-0.36 -0.43,-0.63 -0.2,-0.11 0.03,-1.41 0.07,-0.41 0.04,-0.9 0.04,-1.34 0.71,-0.17 0.58,-0.69 0.58,-1.52 0.43,-0.29 1.15,-0.36 1.54,-1.07 0.32,-0.58 -0.02,-0.11 0.41,-0.31 0.03,-0.36 0.18,-0.97 0.13,-1.35 -0.05,-0.38 -0.13,-0.93 -0.13,-1.39 0,-0.74 -0.01,-2.38 -0.17,-2.94 -0.51,-1.74 -1.17,-1.8 -1.66,-2.17 -0.13,-0.1 -0.08,-0.04 -0.15,-0.21 -0.06,-0.15 -0.05,-0.2 -0.11,-0.32 -0.18,-0.32 -0.74,-0.34 -1.09,-0.5l0 -0.43c0.29,-0.02 1.14,-0.06 1.3,-0.22 0.09,-0.09 0.07,-0.03 0.12,-0.24 0.04,-0.17 0,-0.22 0.07,-0.37 0.1,-0.23 0.21,-0.13 0.4,-0.4 -0.06,-0.22 -0.69,-1.28 -1.17,-1.43 -0.67,-0.21 -0.39,-0.05 -0.78,-0.52 -0.5,-0.6 -1.23,-0.43 -2.31,-0.43 -0.35,0 0.15,-0.01 -0.44,0.22 -0.42,0.16 -1.09,0.54 -0.98,1.12l0.11 0.61c0.08,0.66 0.5,0.23 0.5,1.67z"/>
   <path class="fil0" d="M278.96 100.22c-0.34,0.64 -0.18,0.54 -0.31,0.99 -0.16,0.55 -0.41,0.24 -0.41,1.25 0,0.92 0.31,0.87 -0.94,0.87 -1.01,0 -2.03,-0.24 -2.88,-0.45 -1.28,-0.31 -0.61,-0.34 -1.63,-0.9 -0.22,-0.12 -0.35,-0.22 -0.41,-0.46l-0.22 0 0 0.22c-0.48,-0.04 -0.09,-0.15 -1.23,-0.15 -1.09,0 -2.13,1.29 -2,2.36 0.31,2.5 3.53,2.88 4.36,0.65 0.08,-0.2 0.13,-0.82 0.65,-0.6 1.61,0.64 3.27,1.43 5.09,1.43 0.06,0.24 0.29,0.53 0.42,0.74 0.16,0.24 0.31,0.49 0.45,0.71 0.3,0.49 0.6,0.93 0.87,1.44l-0.68 0.84c-0.38,0.49 -0.5,0.34 -1.08,1.23 -0.13,0.2 -0.17,0.31 -0.29,0.51 -0.21,0.33 -0.45,0.59 -0.68,0.91 -0.4,0.59 -0.9,1.24 -1.18,1.93 -0.12,0.29 -0.86,2.01 -0.86,2.25 0,0.25 0.04,0.16 0.04,0.3 0.01,0.24 -0.04,0.05 -0.04,0.35 0,0.74 0.74,1.21 1.45,0.87 0,0.37 -0.07,0.33 -0.07,0.65 0,0.31 0.07,0.34 0.07,0.72 0,1.09 -0.18,2.13 -0.22,2.97 -0.03,0.66 0.1,0.81 -0.5,1.46 -0.26,0.28 -0.18,0 -0.6,0.7 -0.76,1.24 -1.87,1.3 -1.87,2.04 0,0.99 2.58,0.46 3.02,0.35 1.23,-0.3 1.56,-0.41 1.42,-1.32 -0.05,-0.31 0.01,-0.7 -0.06,-0.95 -0.12,-0.44 -0.36,-0.24 -0.1,-1.46 0.21,-1 0.78,-1.52 1.06,-2.77 0.17,-0.77 -0.07,-1.73 0.22,-1.73 0.37,0 0.94,0.43 1.16,0.43 0.15,0 0.25,-0.2 0.67,-0.56l1.23 -1.22c0.22,-0.25 0.45,-0.41 0.63,-0.67 0.18,0.12 0.64,0.68 1.3,0.36 0,0.4 0.06,0.48 0.07,0.8 0.46,-0.04 0.34,-0.37 0.51,-1.08l0.14 0c0.03,0.3 0.07,0.16 0.07,0.43 0,0.52 -0.28,0.61 -0.29,1.16 0.56,-0.05 0.59,-0.31 0.85,-0.67 0.68,-0.95 -0.12,-1.24 0.86,-3.7 0.16,-0.41 0.31,-0.64 0.49,-1.03 0.18,-0.37 0.19,-0.81 0.19,-1.33 -0.02,-1.55 0.29,-2.09 0.29,-3.04 0,-0.89 -0.76,-0.95 -1.28,-2.33 -0.33,-0.85 -0.44,-2.05 -0.83,-2.79l-0.84 -0.97c-0.21,-0.18 -0.31,-0.18 -0.55,-0.32 -0.35,-0.19 -0.24,-0.28 -0.47,-0.47 -0.14,-0.12 -0.36,-0.19 -0.55,-0.32 -0.21,-0.14 -0.32,-0.26 -0.52,-0.41 -0.25,-0.19 -0.99,-0.61 -1.25,-0.63 0.18,-0.27 0.14,-0.07 0.25,-0.47 0.21,-0.74 -0.04,-0.35 -0.04,-1.19 0,-0.27 0.03,-0.51 -0.04,-0.76 -0.18,-0.68 -1.04,-1.18 -1.85,-0.99 -1.11,0.25 -1.14,1.04 -1.34,1.63 -0.39,1.11 -0.2,0.84 0.03,1.66 0.11,0.41 0.04,0.26 0.24,0.56z"/>
   <path class="fil1" d="M85.96 66.17l0 4.7c0,0.17 0.05,0.22 0.22,0.22l6.22 0 0 15.26 6.36 0 0 -15.26 6.22 0c0.17,0 0.22,-0.05 0.22,-0.22l0 -4.92 -19.02 0c-0.17,0 -0.22,0.05 -0.22,0.22z"/>
   <path class="fil1" d="M207.23 86.34l16.13 0 0 -5.06 -9.76 0 0 -15.11c0,-0.17 -0.05,-0.22 -0.22,-0.22l-6.15 0 0 20.39z"/>
   <path class="fil1" d="M328.28 66.17l0 20.17 6.44 0 0 -20.17c0,-0.17 -0.05,-0.22 -0.22,-0.22l-6 0c-0.17,0 -0.22,0.05 -0.22,0.22z"/>
   <polygon class="fil1" points="270.35,86.34 276.72,86.34 276.72,65.95 270.35,65.95 "/>
   <path class="fil0" d="M355.68 115.19c0,1.22 1.88,1.29 1.88,-0.07 0,-0.23 -0.14,-0.47 -0.27,-0.6 -0.47,-0.51 -1.61,-0.32 -1.61,0.67z"/>
   <polygon class="fil0" points="373.83,100.51 373.83,100.59 373.92,100.53 "/>
   <polygon class="fil0" points="373.76,100.88 373.76,100.95 373.84,100.89 "/>
   <polygon class="fil0" points="373.83,100.51 373.76,100.44 "/>
  </g>
 </g>
</svg>
