<?xml version="1.0" encoding="UTF-8"?>
<!DOCTYPE svg PUBLIC "-//W3C//DTD SVG 1.1//EN" "http://www.w3.org/Graphics/SVG/1.1/DTD/svg11.dtd">
<!-- Creator: CorelDRAW 2020 (64-Bit) -->
<svg xmlns="http://www.w3.org/2000/svg" xml:space="preserve" width="49.9144mm" height="10.1909mm" version="1.1" style="shape-rendering:geometricPrecision; text-rendering:geometricPrecision; image-rendering:optimizeQuality; fill-rule:evenodd; clip-rule:evenodd"
viewBox="0 0 417.23 85.18"
 xmlns:xlink="http://www.w3.org/1999/xlink"
 xmlns:xodm="http://www.corel.com/coreldraw/odm/2003">
 <defs>
  <style type="text/css">
   <![CDATA[
    .fil1 {fill:#E20000}
    .fil0 {fill:#E20000;fill-rule:nonzero}
   ]]>
  </style>
 </defs>
 <g id="Layer_x0020_1">
  <metadata id="CorelCorpID_0Corel-Layer"/>
  <g id="_1899313579024">
   <polygon class="fil0" points="273.95,83.85 290.78,83.85 301.94,24.99 285.11,24.99 "/>
   <path class="fil1" d="M243.82 70.78c-6.57,2.44 -10.64,-2.89 -11.07,-8.53 -0.85,-10.98 5.89,-23.69 15.97,-24.5 4.71,-0.38 6.63,0.41 8.75,1.61 -2.4,11.53 -5.16,28.27 -13.65,31.42zm21.45 -70.78l-5.03 26.71c-17.14,-6.71 -33.05,4.54 -39.65,15.76 -6.13,10.4 -8.61,29.17 0.55,38.11 2.49,2.43 5.94,4.24 10.16,4.54 9.12,0.65 15.37,-4.15 19.55,-8.98l-1.46 7.71 16.83 0 15.88 -83.85 -16.83 0z"/>
   <polygon class="fil1" points="188.09,83.85 204.92,83.85 216.04,24.99 199.21,24.99 "/>
   <path class="fil1" d="M218.94 5.26c-1.14,-2.3 -4.57,-4.42 -8.35,-4.18 -1.87,0.13 -3.71,0.56 -5.08,1.45 -6.62,4.31 -5.16,16.22 3.81,16.52 7.25,0.24 13.08,-6.76 9.62,-13.79z"/>
   <path class="fil1" d="M296.45 1.09c4.04,-0.27 7.31,2.07 8.35,4.18 3.58,7.26 -2.94,14.01 -9.62,13.79 -5.57,-0.18 -10.63,-5.7 -7.08,-12.89 1.16,-2.33 3.61,-4.76 8.35,-5.08z"/>
   <path class="fil1" d="M91.29 38.48c-0.54,-7.84 -5,-13.24 -12.7,-13.79 -10.81,-0.78 -16.53,5.37 -21.23,10.53 -1.49,-7.34 -7.08,-11.16 -15.61,-10.53 -6.56,0.48 -11.4,3.68 -15.1,7.34l1.37 -7.04 -16.83 0 -11.18 58.86 16.83 0 6.09 -32.14c1.33,-6.01 3.57,-8.45 6.12,-10.69 1.1,-0.96 3.31,-2.35 5.08,-2.54 4.84,-0.53 6.46,2.63 6.51,6.69 0.01,0.62 -0.17,1.44 -0.2,2.05l-6.94 36.63 16.83 0 6.23 -32.9c0.9,-4.21 3.35,-7.58 6.24,-10.11 0.7,-0.61 1.99,-1.44 2.9,-1.82 6.22,-2.54 9.4,2.47 8.37,8.19l-6.93 36.59 0.38 0c-0,0.02 -0.01,0.03 -0.01,0.05l16.52 0c1.38,-6.88 2.77,-14.4 4.17,-22.14 1.4,-7.67 3.62,-15.41 3.09,-23.23z"/>
   <path class="fil1" d="M125.96 37.2c3.44,-0.11 7.6,1.55 6.71,6.17 -1.16,6.06 -12.53,5.32 -19.78,5.81 0.99,-5.58 6.32,-11.78 13.07,-11.98zm48.05 -3.82l1.55 -8.39 -16.83 0 -5.47 29.06 -0.34 1.79c6.55,-3.43 8.63,-7.04 12.39,-10.18 -12.84,24.32 -32.61,27.7 -42.63,26.97 -6.21,-0.45 -11.2,-4.35 -11.43,-11.1 17.42,0.16 35.96,-1.72 37.39,-17.06 1.16,-12.4 -7.31,-18.91 -17.61,-19.6 -14.55,-0.98 -23.61,5.89 -29.4,14.34 -5.06,7.38 -8.83,19.61 -5.44,30.67 3.05,9.98 11.6,15.18 23.41,15.24 11.97,0.07 21.24,-3.46 29.4,-8.89 0.02,-0.02 0.04,-0.03 0.07,-0.04l-1.45 7.66 16.83 0 4.42 -23.32c0.27,-0.91 0.53,-1.83 0.79,-2.77 2.66,-9.62 7.98,-16.62 20.07,-15.88 1.22,-5.44 2.13,-10.88 3.27,-16.7 -9.71,-0.68 -15.06,3.09 -18.99,8.2z"/>
   <path class="fil1" d="M331.64 68.96c-2.3,1.94 -7.33,3.66 -10.35,0.91 -1.94,-1.78 -2.51,-4.8 -2.54,-7.8 -0.07,-7.82 3.7,-15.63 8.53,-19.97 3.4,-3.05 8.28,-5.35 14.88,-3.99 -1.97,10.52 -3.49,24.92 -10.53,30.85zm6.71 -44.1c-11.59,0.8 -20.6,5.38 -26.86,12.16 -5.91,6.4 -10.56,16.09 -10.53,27.95 0.04,10.98 5.86,19.42 15.97,20.15 8.77,0.63 14.06,-3.43 18.24,-8.53l-1.37 7.26 16.83 0 10.77 -56.27c-6.9,-1.78 -14.14,-3.33 -23.05,-2.72z"/>
   <path class="fil1" d="M417.17 39.2c-0.51,-8.21 -4.94,-13.74 -12.89,-14.34 -9.65,-0.73 -15.22,3.34 -19.72,7.82l1.37 -7.69 -16.83 0 -11.06 58.86 16.83 0 6.23 -32.91c0.78,-4.56 4.46,-10.59 10.65,-12.1 7.86,-1.92 8.1,5.28 7.23,11.5l-6.35 33.51 16.83 0 6.07 -30.48c1.05,-4.68 1.92,-9.4 1.63,-14.16z"/>
  </g>
 </g>
</svg>
