<?xml version="1.0" encoding="UTF-8"?>
<!DOCTYPE svg PUBLIC "-//W3C//DTD SVG 1.1//EN" "http://www.w3.org/Graphics/SVG/1.1/DTD/svg11.dtd">
<!-- Creator: CorelDRAW 2020 (64-Bit) -->
<svg xmlns="http://www.w3.org/2000/svg" xml:space="preserve" width="69.8842mm" height="17.4717mm" version="1.1" style="shape-rendering:geometricPrecision; text-rendering:geometricPrecision; image-rendering:optimizeQuality; fill-rule:evenodd; clip-rule:evenodd"
viewBox="0 0 505.01 126.26"
 xmlns:xlink="http://www.w3.org/1999/xlink"
 xmlns:xodm="http://www.corel.com/coreldraw/odm/2003">
 <defs>
  <style type="text/css">
   <![CDATA[
    .fil0 {fill:#3D3882}
    .fil1 {fill:#FFCE42;fill-rule:nonzero}
   ]]>
  </style>
 </defs>
 <g id="Layer_x0020_1">
  <metadata id="CorelCorpID_0Corel-Layer"/>
  <g id="_1899313585984">
   <rect class="fil0" x="-0" width="505.01" height="126.26"/>
   <g>
    <path class="fil1" d="M116.16 45.83c-0.68,1.72 -7.39,18.58 -7.39,18.58 0,0 -6.71,-16.86 -7.39,-18.58 -0.92,-2.29 -3.17,-3.91 -5.79,-3.91 -3.08,0 -5.62,2.22 -6.15,5.14 -0.35,2.65 -4.74,34.2 -4.73,35.45 0,2.88 2.33,5.21 5.21,5.21 2.57,0 4.77,-1.97 5.12,-4.31 0.36,-2.34 2.59,-19.43 2.59,-19.43 0,0 5.32,13.58 6.23,15.91 0.06,0.16 0.11,0.29 0.11,0.29 0.69,1.76 2.64,3.17 4.8,3.17 2.16,0 4.11,-1.41 4.79,-3.17 0.42,-1.06 6.35,-16.21 6.35,-16.21 0,0 2.23,17.08 2.59,19.43 0.35,2.34 2.56,4.31 5.13,4.31 2.87,0 5.21,-2.33 5.21,-5.21 0,-1.24 -4.37,-32.8 -4.73,-35.45 -0.52,-2.92 -3.08,-5.14 -6.15,-5.14 -2.62,0 -4.87,1.62 -5.8,3.91z"/>
    <path class="fil1" d="M113.57 80.19l0.13 -0.33c-0.07,0.17 -0.13,0.33 -0.13,0.33z"/>
    <path class="fil1" d="M108.77 112.61c25.96,0 47.01,-21.04 47.01,-47.01 0,-4.61 -0.68,-9.06 -1.92,-13.27 -0.6,-2.22 -2.62,-3.85 -5.02,-3.85 -2.87,0 -5.21,2.33 -5.21,5.21 0,0.59 0.1,1.16 0.28,1.69 0.94,3.25 1.46,6.67 1.46,10.22 0,20.21 -16.39,36.6 -36.6,36.6 -20.21,0 -36.6,-16.39 -36.6,-36.6 0,-20.21 16.39,-36.6 36.6,-36.6 3.57,0 7,0.52 10.26,1.47l0 -0.01c0.46,0.14 0.95,0.21 1.46,0.21 2.88,0 5.21,-2.33 5.21,-5.21 0,-2.54 -1.82,-4.65 -4.23,-5.11 -4.04,-1.14 -8.31,-1.76 -12.71,-1.76 -25.96,0 -47.01,21.05 -47.01,47.01 0,25.96 21.04,47.01 47.01,47.01z"/>
    <path class="fil1" d="M135.91 29.41c0.46,0.46 0.47,1.21 0,1.67l-4.69 4.69c-2.04,2.04 -2.03,5.33 0,7.37 2.03,2.03 5.33,2.03 7.36,0l4.69 -4.69c0.46,-0.46 1.21,-0.46 1.67,0l4.69 4.69c2.03,2.03 5.34,2.03 7.37,0 2.04,-2.03 2.04,-5.33 0,-7.37l-4.69 -4.69c-0.46,-0.46 -0.46,-1.21 0,-1.67l4.69 -4.69c2.03,-2.03 2.03,-5.34 -0.01,-7.37 -2.03,-2.03 -5.33,-2.04 -7.36,-0l-4.69 4.69c-0.46,0.46 -1.21,0.46 -1.67,0l-4.69 -4.69c-2.03,-2.04 -5.34,-2.03 -7.37,0 -2.03,2.04 -2.04,5.33 0,7.37l4.69 4.69z"/>
   </g>
   <path class="fil1" d="M202.08 67.74l1.26 -5.22 4.56 -11.36c0.55,-1.54 1.7,-2.75 4.78,-2.75l2.31 0c3.07,0 4.56,1.43 4.83,3.57l4.23 31.18c0.05,0.22 0.05,0.66 0.05,0.88 0,2.42 -1.81,3.62 -4.17,3.62l-2.03 0c-3.07,0 -4.17,-1.81 -4.34,-3.4l-2.41 -18.61 -0.82 5.6 -3.57 9.06c-0.72,1.76 -1.7,2.47 -3.9,2.47l-1.54 0c-2.25,0 -3.24,-0.71 -3.9,-2.47l-3.62 -9.06 -0.82 -5.6c-0.66,4.89 -1.7,13.67 -2.36,18.61 -0.22,1.59 -1.32,3.4 -4.34,3.4l-2.09 0c-2.36,0 -4.12,-1.2 -4.12,-3.62 0,-0.22 0,-0.66 0.05,-0.88l4.17 -31.18c0.28,-2.14 1.81,-3.57 4.83,-3.57l2.36 0c3.02,0 4.17,1.2 4.78,2.75l4.5 11.36 1.32 5.22z"/>
   <path class="fil1" d="M238.7 68.02c0,7.14 3.73,11.97 9.5,11.97 5.77,0 9.45,-4.83 9.45,-11.97 0,-7.08 -3.68,-11.91 -9.45,-11.91 -5.76,0 -9.5,4.83 -9.5,11.91zm29.7 0c0,10.76 -6.64,20.42 -20.21,20.42 -13.56,0 -20.25,-9.66 -20.25,-20.42 0,-10.87 6.7,-20.37 20.25,-20.37 13.56,0 20.21,9.5 20.21,20.37z"/>
   <path class="fil1" d="M272.07 52.1c0,-2.2 1.21,-3.68 4.23,-3.68l20.25 0c1.59,0 3.13,0.16 4.23,2.3l0.27 0.55c0.44,0.82 0.5,1.48 0.5,1.81 0,0.6 -0.22,1.43 -0.93,2.42l-16.52 23.71 13.28 0c3.02,0 4.23,1.43 4.23,3.57l0 1.21c0,2.2 -1.21,3.68 -4.23,3.68l-22.45 0c-1.26,0 -2.52,-0.11 -3.68,-1.81l-0.55 -0.82c-0.6,-0.88 -0.66,-1.65 -0.66,-1.92 0,-0.66 0.22,-1.48 0.88,-2.41l16.58 -23.83 -11.2 0c-3.02,0 -4.23,-1.43 -4.23,-3.57l0 -1.21z"/>
   <path class="fil1" d="M306.38 52.1c0,-2.2 1.21,-3.68 4.23,-3.68l20.25 0c1.59,0 3.13,0.16 4.23,2.3l0.27 0.55c0.44,0.82 0.5,1.48 0.5,1.81 0,0.6 -0.22,1.43 -0.93,2.42l-16.52 23.71 13.28 0c3.02,0 4.23,1.43 4.23,3.57l0 1.21c0,2.2 -1.2,3.68 -4.23,3.68l-22.45 0c-1.27,0 -2.53,-0.11 -3.68,-1.81l-0.55 -0.82c-0.6,-0.88 -0.66,-1.65 -0.66,-1.92 0,-0.66 0.22,-1.48 0.88,-2.41l16.58 -23.83 -11.2 0c-3.02,0 -4.23,-1.43 -4.23,-3.57l0 -1.21z"/>
   <path class="fil1" d="M353.97 72.08l5.98 0 -1.97 -5.43 -0.99 -4.61 -0.99 4.61 -2.03 5.43zm-2.75 -20.97c0.71,-1.81 2.25,-2.69 4.45,-2.69l2.63 0c2.2,0 3.73,0.88 4.45,2.69l12.24 31.62c0.22,0.49 0.33,1.21 0.33,1.64 0,2.25 -1.59,3.3 -4.01,3.3l-2.14 0c-2.69,0 -3.62,-1.15 -4.23,-2.69l-1.87 -4.78 -12.24 0 -1.82 4.78c-0.6,1.54 -1.53,2.69 -4.22,2.69l-2.14 0c-2.42,0 -4.01,-1.04 -4.01,-3.3 0,-0.43 0.11,-1.15 0.33,-1.64l12.24 -31.62z"/>
   <path class="fil1" d="M389.38 56.87l0 9.55 3.62 0c0.88,0 4.94,-0.17 4.94,-5.11 0,-2.85 -2.25,-4.45 -6.37,-4.45l-2.2 0zm-4.34 30.8l-1.92 0c-2.85,0 -4.23,-1.54 -4.23,-3.73l0 -31.4c0,-2.36 1.7,-4.12 4.67,-4.12l8.23 0c10.98,0 16.85,4.12 16.85,12.95 0,5.22 -2.91,9.17 -7.19,11.31 0.71,0.66 1.26,1.32 1.7,1.92l4.78 7.3c0.55,0.82 0.88,1.65 0.88,2.52 0,2.09 -1.7,3.24 -4.12,3.24l-2.03 0c-2.2,0 -3.63,-0.99 -4.28,-2.03l-5.77 -9c-0.6,-0.99 -1.2,-1.59 -1.81,-2.09l-1.43 0 0 9.39c0,2.19 -1.43,3.73 -4.34,3.73z"/>
   <path class="fil1" d="M409.91 51.99c0,-2.14 1.21,-3.57 4.23,-3.57l24.59 0c3.02,0 4.23,1.43 4.23,3.57l0 1.21c0,2.19 -1.21,3.68 -4.23,3.68l-7.08 0 0 27.07c0,2.19 -1.32,3.73 -4.23,3.73l-1.97 0c-2.86,0 -4.23,-1.54 -4.23,-3.73l0 -27.07 -7.08 0c-3.02,0 -4.23,-1.48 -4.23,-3.68l0 -1.21z"/>
  </g>
 </g>
</svg>
