<?xml version="1.0" encoding="UTF-8"?>
<!DOCTYPE svg PUBLIC "-//W3C//DTD SVG 1.1//EN" "http://www.w3.org/Graphics/SVG/1.1/DTD/svg11.dtd">
<!-- Creator: CorelDRAW 2020 (64-Bit) -->
<svg xmlns="http://www.w3.org/2000/svg" xml:space="preserve" width="45.0562mm" height="10.8927mm" version="1.1" style="shape-rendering:geometricPrecision; text-rendering:geometricPrecision; image-rendering:optimizeQuality; fill-rule:evenodd; clip-rule:evenodd"
viewBox="0 0 1612.97 389.95"
 xmlns:xlink="http://www.w3.org/1999/xlink"
 xmlns:xodm="http://www.corel.com/coreldraw/odm/2003">
 <defs>
  <style type="text/css">
   <![CDATA[
    .fil0 {fill:#D40229}
   ]]>
  </style>
 </defs>
 <g id="Layer_x0020_1">
  <metadata id="CorelCorpID_0Corel-Layer"/>
  <path class="fil0" d="M195.28 46.72c120.35,2.84 184.19,127.78 127.16,224.97l-7.25 8.89 -24.07 -23.87c5.14,-23.03 34.32,-57.32 1.18,-118.21 -16.1,-29.59 -49.72,-54.2 -97.04,-55.82 0.03,68.14 -4.4,36.45 29.36,53.88 10.22,5.28 16.27,9.2 23.34,18.86 14.45,19.75 13.83,40.08 8.58,65.51 -10.99,-7.72 -75.8,-74.71 -90.9,-89.83l-67.05 -66.98c-4.3,-4.31 -6.88,-6.83 -11.14,-11.18 -1.78,-1.8 -3.19,-3.55 -4.84,-5.03 -5.43,-4.85 -2.14,-2.48 -8.17,-5.21 -27.6,16.59 -52.29,57.6 -63.57,88.77 -41.37,114.29 38.38,255.56 184.39,258.48l0 -46.7c-128.5,-3.3 -187.08,-141.6 -120.62,-234.57l26.19 25.52c-20.98,38.99 -26.33,75.9 -2.03,118.29 13.91,24.27 52.7,59.55 96.48,53.83l-0.2 -45.28c-52.62,-7.6 -71.3,-37.57 -61.07,-91.79 17.94,9.24 159.98,163.14 181.8,178.48 30.4,-25.32 49.02,-47.52 63.6,-88.53 41.2,-115.86 -37.41,-256.08 -184.15,-259.21l0.01 46.72zm1219.34 125.7c5.22,-35.46 56.5,-34.93 60.4,-0l-60.4 0zm102.6 49.98l-38.6 -10.28c-15.34,32.51 -60.63,24.54 -64.98,-9.55 20.75,0.01 91.41,2.55 106.37,-1.47 3.96,-48.82 -16.28,-82.76 -58.44,-90.01 -48.48,-8.33 -82.45,20.65 -91.51,59.03 -26.72,113.19 134.62,132.67 147.16,52.27zm-412.4 -67.81c48.55,-14.47 60.04,60.22 21.2,72.26 -47.88,14.84 -63.77,-59.56 -21.2,-72.26zm-10.08 -42.33c-101.66,24.3 -68.44,184.19 41.62,156.94 38.59,-9.56 68.87,-49.79 57.25,-98.86 -9.28,-39.18 -48.33,-70.15 -98.87,-58.07zm-361.13 41.54c50.29,-11.7 57.16,63.68 18.01,73.57 -49.04,12.4 -60.06,-63.79 -18.01,-73.57zm-11.27 -41.61c-39.97,9.44 -70.1,46.94 -59.24,97.26 8.53,39.54 47.41,72.53 98.93,60.1 100.04,-24.13 70.34,-183.35 -39.69,-157.36zm-193.7 17.5c-18.33,-15.89 8.81,-15.48 -45.72,-15.48l0 153.03 46.79 -0.02c-0.05,-23.24 0.02,-46.5 -0.02,-69.76 -0.04,-23.06 -0.2,-43.34 23.82,-44.6 25.4,-1.34 26.42,20.41 26.38,42.12 -0.05,24.09 0.03,48.17 -0.02,72.26l46.81 -0.01c-0.3,-65.25 16.27,-150.42 -48.36,-156.62 -25.99,-2.49 -35.79,6.69 -49.7,19.08zm382.21 137.54c47.63,0 42.12,4.13 49.25,-15.57 10.09,-27.9 49.44,-124.19 51.13,-137.2l-47.18 -0.28 -32.68 92.38 -36.35 -92.22 -49.65 -0.08c3.57,15.7 42.38,105.99 54.08,134.3 8.61,20.83 4.03,14.92 11.41,18.66zm309.1 -152.81l-1.03 40.36 27.19 0.45c-0,67.29 -11.43,127.86 74.62,111.41l0.87 -39.26c-36.36,3.26 -29.18,-2.86 -29.32,-72.21l29.78 -0.26 -0.13 -40.32 -29.65 -0.25 -0.21 -44.36 -40.27 -0.45c-6.32,27.75 7.26,43 -31.85,44.9zm346.82 152l46.21 0.82 -0.04 -222.72 -45.59 -0.06 -0.57 221.96zm-826.82 94.68c-32.87,4.3 -17.45,-38.22 3.95,-17.21 1.27,11.12 0.39,10.15 -3.95,17.21zm8.03 -23.73c-4.46,-7.49 -10.44,-9.14 -24.19,-8.12 -14.27,13.92 -16.75,22.84 -2.53,39.31 2.75,1.5 8.67,-1.63 20.31,2.9 2.15,0.84 1.2,1.11 6.08,2.32l12.39 -47.32c-0.19,-11.79 0.82,-2.86 -3.05,-7.25 -6.86,3.02 -1.64,-4.3 -5.89,6.43 -0.9,2.26 -2.05,8.23 -3.1,11.73zm-122.93 0.49c14.18,-6.07 21.23,17.3 9.35,22.86 -17.44,8.18 -22.69,-17.15 -9.35,-22.86zm-20.42 26.38c8.33,1.02 6.4,-2.81 11.82,0.98 11.97,8.38 23.14,7.8 29.58,-3.32 11.68,-20.17 -2.6,-35.59 -23.66,-30.64 5.79,-32.26 5.18,-13.31 0.59,-20.23 -6.59,2.36 -0.77,-3.11 -4.99,2.95 -1.43,2.05 -2.02,5.36 -2.55,7.5l-10.8 42.75zm326.13 -6.82c-12.09,7.7 -26.12,7.31 -22.22,-10.49 2.79,-12.71 25.22,-16.81 22.22,10.49zm-37.27 22.51l10.9 -16.58c9.48,5.77 7.98,8.57 24.13,7.26 13.75,-5.79 20.79,-38.83 -5.4,-40.3 -19.73,-1.11 -1.38,-0.15 -17.97,-4.24 -2,9.85 -14.26,47.84 -11.66,53.85zm-385.42 -21.74c-15.13,6.31 -10.91,-4.2 -21.6,-7.83 -2.79,4.57 -5.21,-6.19 -2.08,7.56 2.24,9.83 19.22,14.27 26.65,10.16 23.46,-25.2 -15.22,-26.86 -10.19,-41.86 0.33,-0.4 3.06,-7.99 12.54,0.53 8.19,7.37 -6.47,6.18 10.49,6.59 0.73,-21.81 -25.33,-23.92 -32.06,-11.3 -4.16,7.8 -0.16,14.91 4.58,19.34 10.15,9.48 12.75,2.15 11.67,16.82zm167.44 2.38c-6.47,-8.23 -5.79,-12.54 -0.42,-21.34 22.17,-4.73 23.4,8.52 15.11,22.54l-14.69 -1.2zm-0.15 -29.74c-28.3,12.08 -8.31,49.83 17.03,37.9 21.61,-10.17 9.32,-49.15 -17.03,-37.9zm-88.63 9.45c5.65,21.21 -9.62,29.19 -19.8,17.28 -8.23,-9.63 0.44,-23.97 19.8,-17.28zm-17.78 -9.26c-28.13,13.3 -7.62,48.63 16.91,38 22.93,-9.94 9.06,-50.28 -16.91,-38zm503.26 31.17c-9.39,0.95 -8.25,-2.89 -8.3,-2.92 -2.67,-9.31 9.71,-9.51 16.31,-2.97 -3.37,5 0.63,5.02 -8,5.89zm-11.31 -26.83c9.8,7.82 19.17,-4.9 22.39,9.75 -15.85,3.18 -32.5,-6.66 -28.14,18.71 7.34,4.85 9.42,7.53 20.5,3.55 3.89,7.08 -0.75,3.91 8.87,5.91 2.16,-7.94 9.52,-27.42 5.97,-35.29 -4.31,-9.54 -24.68,-12.51 -29.59,-2.63zm-212.14 3.96c7.69,12.94 2.03,28.99 -13.97,21.52 -8.05,-3.76 -12.4,-27.38 13.97,-21.52zm12.14 1.36c-22.02,-22.94 -47.19,-6.45 -39.85,15.98 6.61,20.23 44.62,22.1 39.85,-15.98zm-91.51 24.66c12.74,-1.73 2.36,-2.77 14.19,-26.75l13.15 -0.04c3.88,12.92 -1.06,17.49 -2.07,23.52 -2.94,17.61 -1.25,5.09 1.65,10.21 10.34,0.72 13.38,-29.97 8.68,-36.55 -4.78,-4.89 -3.54,-4.95 -12.92,-5.23 -3.98,-0.11 -1.66,1 -6.57,-0.35 -2.4,-0.66 -2.37,-1.95 -9.33,-3.62 -2.43,9.89 -11.86,30.54 -6.79,38.8zm268.13 3.37c-2.84,-16.07 -5.46,2.48 -19.92,-12.41l0.76 -16.16c16.91,-4.22 15.99,0.49 20.69,1.91l2.52 0.25c0.19,0.02 0.82,-0.18 1.23,-0.29 1.98,-3.76 5.19,5.04 1.47,-4.97 -3.53,-9.5 -28.07,-11.02 -34.69,3.75 -8.3,18.52 8.96,36.58 27.93,27.92zm51.85 12.41c6.97,3.71 4.29,2.42 13.35,2.14 6.69,-7.96 19.08,-42.91 14.14,-51.23 -8.03,1.34 -3.56,-7.74 -11.87,24.67 -6.43,25.08 -6.4,15.44 -10.68,18.42 -4.83,3.35 -2.38,-0.86 -4.94,5.99zm-562.08 -13.53c11.31,2.53 6.41,7.47 14.67,-22.87 2.22,-8.17 8.92,-22.42 4.06,-29.37 -6.87,1 -4.01,-6.5 -11.9,24.19 -2.23,8.67 -5.75,19.61 -6.83,28.05zm424.28 -0.28c10.25,-2.58 5.18,-18.87 12.46,-24.84 16.44,-5.89 12.62,6.06 15.87,-9.23 -7.55,-2.71 -4.89,-0.53 -10.78,-1 -9.85,-0.78 2.19,-0.86 -11.11,-3.38l-9 28.74c-2.55,14.57 -2.6,5.47 2.57,9.71zm29.95 0.23c12.14,2.74 9.08,-2.85 12.21,-15.1 0.77,-3.03 3.11,-9.53 3.54,-11.96 2.77,-15.35 2.36,-6.08 -2.58,-10.3 -7.55,2.44 -12.01,28.74 -13.17,37.36zm155.18 -16.75c9.05,-0.74 12.21,-16.52 13.69,-28.25 1.35,-10.69 3.07,-4.1 -3.76,-7.66 -7.36,3.08 -13.35,30.02 -9.93,35.91zm-104.05 -24.62c4.37,-1.1 4.73,-0.98 8.91,-2.86 0.01,-0.01 4.67,-2.43 4.88,-2.6 4.07,-3.18 0.91,-0.33 3.38,-4.12 -6.95,-4.18 -4.78,-1.43 -15.62,1.08 -3.39,-9.81 0.61,-7.51 -9.41,-8.21l7.85 16.7zm98.04 41.17c17.46,5.21 8.53,-12.08 7.52,-10.11l-8.18 -0.14c-2.1,8.48 -2.91,3.25 0.66,10.25zm-137.49 -43.62c14.9,2.93 7.27,-0.31 9.96,-2.67 2.21,-9.54 -11.94,-12.65 -9.96,2.67zm123.31 -8.06c-0.4,0.61 -1.18,0.71 -1.24,1.79 -0.17,3.3 -2.8,-0.58 -0.13,8.26l7.61 0.23c2.75,-8.66 3.96,-11.78 -6.24,-10.28z"/>
 </g>
</svg>
