<?xml version="1.0" encoding="UTF-8"?>
<!DOCTYPE svg PUBLIC "-//W3C//DTD SVG 1.1//EN" "http://www.w3.org/Graphics/SVG/1.1/DTD/svg11.dtd">
<!-- Creator: CorelDRAW 2020 (64-Bit) -->
<svg xmlns="http://www.w3.org/2000/svg" xml:space="preserve" width="44.1784mm" height="25.287mm" version="1.1" style="shape-rendering:geometricPrecision; text-rendering:geometricPrecision; image-rendering:optimizeQuality; fill-rule:evenodd; clip-rule:evenodd"
viewBox="0 0 115.42 66.06"
 xmlns:xlink="http://www.w3.org/1999/xlink"
 xmlns:xodm="http://www.corel.com/coreldraw/odm/2003">
 <defs>
  <style type="text/css">
   <![CDATA[
    .fil0 {fill:#002F34}
    .fil1 {fill:#002F34;fill-rule:nonzero}
   ]]>
  </style>
 </defs>
 <g id="Layer_x0020_1">
  <metadata id="CorelCorpID_0Corel-Layer"/>
  <g id="_2634687703296">
   <path class="fil0" d="M27.22 26.99c3.34,0 6.04,2.71 6.04,6.04 0,3.34 -2.71,6.04 -6.04,6.04 -3.34,0 -6.04,-2.71 -6.04,-6.04 0,-3.34 2.71,-6.04 6.04,-6.04zm27.22 6.04c0,15.03 -12.19,27.22 -27.22,27.22 -15.03,0 -27.22,-12.19 -27.22,-27.22 0,-15.03 12.19,-27.22 27.22,-27.22 15.03,0 27.22,12.19 27.22,27.22z"/>
   <polygon class="fil1" points="115.42,16.49 105,16.49 98.89,22.6 92.78,16.49 82.36,16.49 82.36,27.07 88.38,33.1 82.36,39.12 82.36,49.56 92.92,49.56 98.88,43.6 104.85,49.56 115.42,49.56 115.42,39.13 109.39,33.11 115.42,27.07 "/>
   <polygon class="fil1" points="75.77,66.06 60.1,66.06 60.1,-0 75.77,-0 "/>
  </g>
 </g>
</svg>
