<?xml version="1.0" encoding="UTF-8"?>
<!DOCTYPE svg PUBLIC "-//W3C//DTD SVG 1.1//EN" "http://www.w3.org/Graphics/SVG/1.1/DTD/svg11.dtd">
<!-- Creator: CorelDRAW 2020 (64-Bit) -->
<svg xmlns="http://www.w3.org/2000/svg" xml:space="preserve" width="85.5936mm" height="15.3302mm" version="1.1" style="shape-rendering:geometricPrecision; text-rendering:geometricPrecision; image-rendering:optimizeQuality; fill-rule:evenodd; clip-rule:evenodd"
viewBox="0 0 1248.16 223.55"
 xmlns:xlink="http://www.w3.org/1999/xlink"
 xmlns:xodm="http://www.corel.com/coreldraw/odm/2003">
 <defs>
  <style type="text/css">
   <![CDATA[
    .fil1 {fill:#373435}
    .fil0 {fill:#E30613}
   ]]>
  </style>
 </defs>
 <g id="Layer_x0020_1">
  <metadata id="CorelCorpID_0Corel-Layer"/>
  <g id="_1867869286800">
   <path class="fil0" d="M129.11 39.58c5.78,0 15.54,0.27 19.84,3.01 5.3,3.38 3.13,11.48 1.64,17.67 -4.65,19.3 -4.45,31.89 -22.93,33.73 -1.49,0.15 -9.89,0.49 -10.78,0.07 -0.95,-0.44 1,-6.72 1.43,-8.55 2.26,-9.73 9.84,-39.62 10.8,-45.93zm-125.25 177.88l83.29 0.01 20.39 -86.39c11.68,-1.39 28.83,1.14 50.18,-1.64 21.6,-2.81 41.23,-8.87 50.55,-27.68 2.93,-5.92 4.93,-12.61 6.71,-19.63 3.56,-13.99 12.72,-43.05 6.14,-57.02 -9.6,-20.39 -46.53,-21.33 -65.86,-22.03 -16.49,-0.6 -33.4,-0.26 -49.96,-0.26 -16.91,0 -33.81,0 -50.72,0l-50.73 214.63z"/>
   <path class="fil0" d="M477.81 217.26l51.81 0c1.25,-0.38 1.3,-2.45 1.8,-4.57 0.41,-1.71 0.83,-3.48 1.25,-5.23l7.49 -30.99c1.3,-5.43 8.92,-38.59 10.12,-40.85l2.03 81.64 37.55 0 40.43 -83.08 -19.78 83.06 52.01 0.02c1.42,-1.14 1.91,-5.64 2.37,-7.55l24.59 -101.79c1.2,-5.14 3.03,-11.1 3.81,-16.16l-78.53 -0.02 -27.36 58c-0.65,-4.03 -0.27,-10.04 -0.42,-14.33 -0.16,-4.68 -0.27,-9.93 -0.27,-14.73 -0.01,-9.76 -0.65,-19.42 -0.81,-28.95l-77.65 0c-1.21,2.11 -23.59,96.7 -26.67,109.58 -1.23,5.15 -2.89,10.77 -3.77,15.94z"/>
   <path class="fil0" d="M971.24 140.95c1.01,-5.8 3.6,-14.82 5.07,-21.19 0.43,-1.84 0.61,-5.44 2.13,-6.48 4.24,0 11.59,0.02 14.21,2.51 3.41,3.23 -0.96,20.94 -6.52,23.53 -2.94,1.37 -11.22,1.97 -14.89,1.63zm-78.65 76.29l59.93 0.02c2,-3.41 10.47,-44.68 13.5,-55.11 0.62,-2.14 0.07,-0.94 1.08,-1.48 3.01,0 6.69,0.14 9.54,0.69 3.36,0.65 5.15,1.26 5.5,4.66 0.56,5.35 -5.5,27.55 -7.12,34.25 -1.32,5.46 -3.13,11.55 -4.01,16.99l55.2 0c1.24,-0.44 4.77,-17.59 5.37,-19.96 1.71,-6.68 3.47,-13.82 4.85,-20.63 2.07,-10.25 2.43,-12.78 -4.16,-18.28 -5.54,-4.62 -17.01,-4.68 -19.33,-6.86 6.45,0.03 17.86,-2.29 22.98,-4.96 5.65,-2.95 9.38,-9.01 11.67,-16.27 6.29,-19.95 0.96,-29.61 -15.85,-34.95 -15.46,-4.92 -72.2,-3.61 -94.61,-3.61 -3.67,0 -10.96,-0.4 -14.17,0.19l-30.37 125.31z"/>
   <path class="fil0" d="M284.3 113.31c4.13,-0.09 11.55,0.09 14.47,2.21 3.46,2.52 1.06,9.11 0.03,13.19 -2.97,11.7 -6.29,12.34 -21.11,12.32l6.61 -27.71zm34.28 38.7c1.66,-0.96 9.78,-1.37 12.55,-1.89 12.21,-2.27 18.46,-6.32 22.82,-19.32 6.49,-19.34 1.32,-30.44 -15.59,-35.43 -12.86,-3.8 -37.84,-3.65 -52.45,-3.63 -18.63,0.02 -37.26,0 -55.89,0 -1.17,0.35 -1.09,1.86 -1.56,3.88 -0.31,1.32 -0.61,2.55 -0.96,3.93 -0.66,2.62 -1.24,5.2 -1.87,7.82l-18.93 78.3c-1.74,7.26 -6.53,25.7 -7.53,31.6l60.13 -0.16 13.54 -56.43c5.91,0 15.24,-0.42 15.82,5.43 0.45,4.58 -2.03,12.98 -3.1,17.41 -1.63,6.73 -7.31,28.71 -8.05,33.75l55.83 0c1.67,-10.02 7.25,-29.2 9.75,-41.39 2.15,-10.53 1.55,-13.39 -5.18,-18.1 -2.31,-1.62 -5.65,-2.77 -8.93,-3.64 -3.19,-0.84 -7.7,-1.21 -10.41,-2.13z"/>
   <polygon class="fil0" points="771.25,217.25 875.58,217.26 881.53,192.16 837.58,192.07 844.13,164.64 881.7,164.61 887.37,140.67 849.96,140.64 855.61,117.07 895.64,116.92 901.78,91.76 801.44,91.74 "/>
   <path class="fil0" d="M356.39 217.16l103.67 0.1c1.3,-0.47 6.39,-23.95 6.44,-25.19l-43.8 0 6.58 -27.5 36.85 0.04c1.31,-0.41 3.13,-10.51 3.43,-11.74 0.94,-3.88 2.31,-8.43 2.87,-12.16l-37.31 -0.08c1,-5.53 2.95,-12.3 4.26,-17.95 0.26,-1.11 0.81,-5.44 2.05,-5.75l39.31 0 6.17 -25.17 -100.15 -0.02 -30.37 125.42z"/>
   <path class="fil0" d="M687.16 217.26l60.18 0 30.2 -125.5 -59.92 -0.02c-1.13,1.88 -13.7,55.61 -15.37,62.6 -2.5,10.46 -4.93,20.82 -7.57,31.32 -1.29,5.15 -2.57,10.47 -3.77,15.65 -1.2,5.14 -2.9,10.79 -3.76,15.96z"/>
   <path class="fil1" d="M922.96 91.93c3.22,-0.59 10.5,-0.19 14.17,-0.19 22.41,0 79.15,-1.31 94.61,3.61 16.8,5.35 22.13,15 15.85,34.95 -2.29,7.26 -6.02,13.32 -11.67,16.27 -5.12,2.67 -16.53,4.99 -22.98,4.96 2.32,2.18 13.79,2.24 19.33,6.86 6.6,5.5 6.23,8.02 4.16,18.28 -1.38,6.81 -3.14,13.95 -4.85,20.63 -0.61,2.37 -4.13,19.52 -5.37,19.96l-55.2 0c0.87,-5.44 2.69,-11.54 4.01,-16.99 1.62,-6.69 7.68,-28.9 7.12,-34.25 -0.35,-3.4 -2.14,-4.01 -5.5,-4.66 -2.85,-0.55 -6.53,-0.69 -9.54,-0.69 -1.01,0.54 -0.46,-0.66 -1.08,1.48 -3.02,10.43 -11.5,51.7 -13.5,55.11l-59.93 -0.02 30.37 -125.31zm88.29 -2.43l-21.98 -0.7c-3.92,-0.54 -62.16,-0.11 -69.14,-0.11l-15.71 65.69c-1.39,5.5 -2.57,10.71 -3.97,16.28 -1.44,5.74 -2.72,10.89 -3.98,16.68l-7.93 32.97c20.52,0 43.56,-0.32 64.01,0.02 3.8,0.06 2.68,0.49 3.94,-4.56l12.64 -52.16c2.17,0 3.41,0.24 5.61,0.47 4.1,0.42 4.11,0.89 4.11,3.18 0,6.14 -8.31,37.61 -10.45,46.25 -0.46,1.86 -1.29,4.84 -1.29,6.81l62.37 0c0.2,-2.44 7.49,-29.97 7.69,-32.4 1.79,1.2 4.46,4.26 6.18,5.97 6.18,6.18 13.14,11.31 20.63,15.82 6.23,3.75 26.9,13.67 34.75,13.85l-6 -9.39c-1.53,-2.55 -0.83,-2.59 -3.01,-3.47 -33.15,-13.38 -36.93,-23.18 -41,-25.42 -1.3,-0.71 -7.41,-1.81 -9.94,-3.02 0.18,-7.95 8.21,-18.75 -6.24,-27.38 -0.85,-0.51 -1.49,-0.82 -2.41,-1.23 -1.24,-0.55 -1.58,-0.39 -2.29,-1.36 7.4,-0.16 18.64,-8.06 20.25,-14.98 4.01,2.12 1.14,3.37 12.38,-0.98l26.9 -9.55c0,-9.09 2.39,-19.23 4.86,-25.92 2.84,-7.7 5.68,-14.59 9.32,-21.46 -2.09,-1.4 -12.98,-14.38 -15.04,-16.95 -1.88,-2.35 -7.11,-9.53 -7.64,-11.8 -10.27,0.85 -31.28,7.2 -39.59,11.85 -1.41,0.79 -0.83,0.08 -2.24,3.43 -1.2,2.85 -2.1,5.18 -3.24,8.1l-5.55 17.53c-0.74,-0.37 -0.51,-0.31 -1.62,-0.41 0.28,-3.31 6.1,-19.3 7.29,-22.27 1.3,-3.25 3.34,-6.81 2.78,-11.68 -0.49,-4.21 -0.65,-9.52 -1.56,-13.42 -2.84,1.9 -12.27,16.97 -14.18,20.65 -2.7,5.19 -9.59,19.62 -9.71,25.12z"/>
   <path class="fil1" d="M1052.55 140.93l-2.36 13.43c-1.18,8.35 -2.03,18.96 -0.5,27.5 0.73,4.1 12.16,11.97 15.66,14.31l12.58 7.27c1.66,0.79 13.04,5.93 13.91,5.93 6.82,0 25.71,-10.87 32.67,-14.31 5.21,-2.58 5.08,-1.75 5.5,-4.22 2.09,-12.31 1.93,-13.61 1.93,-25.61 0,-3.92 -0.81,-5.94 -0.81,-10.12l-17.01 -8.5c-5.59,-2.91 -16.11,-9.53 -20.75,-13.67 -6.7,-5.99 -3.46,-4.75 -13.72,-1.37 -2.96,0.97 -6.15,2.2 -8.91,3.24l-18.17 6.13z"/>
   <path class="fil1" d="M1132.74 153.89c2.11,9.06 1.82,18.57 0.78,27.91 -0.36,3.19 -1.59,7.42 -1.59,10.56 10.62,5.62 18.22,9.95 31,11.93 3,0.46 5.15,0.34 8.22,0.69 3.92,0.44 3.59,0.47 6.95,-0.87 2.24,-0.89 4.01,-1.81 6.07,-2.84 7.48,-3.71 13.97,-9.49 19.55,-15.28 1.91,-1.99 6.77,-7.97 7.29,-10.12 2.46,-10.2 1.23,-21.65 1.1,-31.29 -0.04,-2.94 -0.75,-5.54 -0.81,-8.1l-23.32 -5.84c-3.77,-1.07 -7.24,-2.35 -10.96,-3.62 -2.1,-0.72 -3.43,-1.99 -5.08,-0.78l-4.07 3.66c-5.71,5.09 -28.77,22.51 -35.14,23.99z"/>
   <path class="fil1" d="M1157.04 77.35c0.33,1.42 0.86,2.01 1.45,3.41 4.92,11.79 8.72,21.36 12.24,33.93 3.12,11.14 -0.57,7.94 17.35,13.83 6.52,2.14 13.22,3.75 20.16,5.35 3.11,0.72 3.49,1.14 7.03,-2.36 5.22,-5.17 7.48,-7.72 11.51,-14.41 1.15,-1.91 6.4,-12.18 6.4,-14.26 0,-4.7 -5.37,-19.27 -7.83,-24.57 -2.64,-5.71 -6.19,-10.95 -10.04,-15.88 -2.06,-2.64 -3.63,-3.17 -8.04,-4.92 -1.53,-0.61 -3.13,-1.15 -4.81,-1.67 -9.24,-2.86 -17.13,-3.19 -27.59,-3.19 -1.31,0 -3.11,4.04 -4.45,6.08l-8.51 12.55c-0.78,1.04 -1.42,1.87 -2.3,2.96 -0.87,1.07 -1.93,2.18 -2.56,3.11z"/>
   <path class="fil1" d="M1080.09 49.41c4.03,6.02 8.04,12.44 13.06,17.72 1.06,1.11 1.33,1.75 2.42,2.84l4.77 5.36c2.97,3.9 2.09,2.51 11.71,1.58 8.34,-0.8 20.15,-1.46 29.21,-1.19l14.16 1.23c0.3,-1.13 1.19,-2.04 1.93,-2.93 3.01,-3.61 12.58,-17.82 14.67,-21.78l-7.61 -11.83c-3.66,-5.47 -13.55,-18.54 -17.72,-21.16 -3.68,-2.31 -27.66,-2.08 -33.63,-1.26 -4.07,0.55 -4.22,0.41 -7.33,1.99 -9.33,4.72 -17.5,14.19 -22.53,23.23 -1.17,2.11 -2.03,4.16 -3.11,6.2z"/>
   <path class="fil1" d="M620.03 162.8l0.22 -0.87 -0.22 0.87zm-142.22 54.46c0.88,-5.18 2.54,-10.8 3.77,-15.94 3.09,-12.88 25.46,-107.47 26.67,-109.58l77.65 -0c0.16,9.53 0.8,19.19 0.81,28.95 0.01,4.8 0.11,10.05 0.27,14.73 0.15,4.28 -0.23,10.3 0.42,14.33l27.36 -58 78.53 0.02c-0.78,5.06 -2.61,11.02 -3.81,16.16l-24.59 101.79c-0.47,1.91 -0.96,6.4 -2.37,7.55l-52.01 -0.02 19.78 -83.06 -40.43 83.08 -37.55 0 -2.03 -81.64c-1.21,2.26 -8.82,35.42 -10.12,40.85l-7.49 30.99c-0.42,1.75 -0.84,3.51 -1.25,5.23 -0.5,2.11 -0.55,4.18 -1.8,4.57l-51.81 0zm142.22 -54.46c0,2.27 -0.92,4.89 -1.46,7.05 -1.36,5.45 -11.91,48.06 -11.91,50.46l59.13 0 3.89 -16.36c8.19,-32.74 15.58,-65.86 23.82,-98.49l3.88 -16.77 -84.64 0 -22.27 46.57c0,-2.95 -0.42,-4.48 -0.41,-7.69 0.02,-6.76 -0.16,-26.77 -0.75,-32.05 -0.15,-1.33 -0.04,-2.69 -0.02,-4.03 0.03,-2.05 0.36,-2.47 -1.24,-2.81l-82.62 0.01 -27.78 114.77c-0.72,2.86 -3.76,14.86 -3.8,16.85l59.13 0c2.32,-9.97 4.83,-19.56 7.13,-29.72l6.32 -26.08c0.13,-0.51 0.26,-1.17 0.47,-1.96 0.02,-0.06 0.27,-0.9 0.28,-0.93l0.38 -0.84c0,11.91 0.78,24.62 0.8,37.27 0,2.69 0.43,4.2 0.42,7.28 -0.01,2.57 0.01,5.13 -0,7.7 -0.02,3.08 0.41,4.39 0.41,7.29l42.52 0c6.34,-11.98 14.9,-30.61 21.19,-43.2l7.16 -14.31z"/>
   <path class="fil1" d="M738.29 63.18c-0.93,0 -0.47,-0.14 -1.62,-0.41 0,-4.1 6.75,-29.27 8.55,-34.38 0.95,-2.71 1.26,-3.29 4,-3.29 2.13,0 1.37,2.57 0.98,4.21l-6.81 25.6c-0.76,3.08 -1.73,8.26 -5.11,8.26zm14.98 -44.14c-1.53,-1.02 -2.14,-2.14 -4.17,-3.12 -6.45,-3.12 -14.75,-0.67 -19.43,4.63 -2.83,3.21 -7.98,23.94 -9.37,29.5 -1.11,4.43 -3.48,11.18 -3.48,15.96 0,4.96 5.1,7.29 10.53,7.29 5.72,0 8.48,-2.51 12.15,-4.45 -0.11,1.34 -0.53,2.43 -0.81,3.64l19.03 0c3.72,-15.98 9.85,-35.5 13.85,-51.76 0.64,-2.61 1.52,-6 2.3,-8.63 0.42,-1.42 0.68,-2.64 1.12,-4.14 0.5,-1.69 0.95,-2.68 0.95,-4.72l-17.82 0c-1.49,0 -1.32,1.65 -1.71,3.15 -0.76,2.98 -3.1,10.35 -3.15,12.64z"/>
   <path class="fil1" d="M54.58 2.83c16.91,0 33.81,0 50.72,0 16.55,0 33.47,-0.34 49.96,0.26 19.34,0.7 56.26,1.63 65.86,22.03 6.58,13.97 -2.59,43.03 -6.14,57.02 -1.78,7.02 -3.78,13.71 -6.71,19.63 -9.31,18.81 -28.95,24.87 -50.55,27.68 -21.35,2.78 -38.5,0.25 -50.18,1.64l-20.39 86.39 -83.29 -0.01 50.73 -214.63zm-2.74 -2.83l103.1 0c1.06,0.03 1.78,0.07 2.08,0.11 5.58,0.76 12.07,0.39 18.63,1.22 1.58,0.2 3.96,0.47 5.76,0.72 8.2,1.15 14.39,2.56 21.43,4.89 7.18,2.38 11.05,4.73 16.35,9.97 11.67,11.54 7.27,29.51 4.25,43.74 -2.43,11.45 -7.23,32.23 -11.92,41.54 -1.58,3.15 -2.89,5.83 -4.93,8.43 -19.73,25.13 -65.78,23.43 -96.45,23.43 -0.15,1.76 -0.88,3.79 -1.3,5.59l-3.79 16.05c-1.63,7.47 -3.39,14.29 -5.12,21.61l-8.91 37.66c-0.3,1.27 -1.02,3.98 -1.13,5.35l-89.91 0c0.04,-1.93 5.71,-24.99 6.32,-27.7l9.8 -41.22c1.16,-4.68 2.12,-9.35 3.24,-13.77 2.32,-9.22 4.34,-18.46 6.48,-27.54 2.17,-9.22 4.35,-18.34 6.57,-27.45l19.43 -82.62z"/>
   <path class="fil1" d="M304.14 63.18c-0.69,0 -1.52,-0.54 -2.03,-0.81 0.06,-2.72 7.32,-30.59 8.78,-34.15 1.08,-2.63 1.41,-3.11 4.18,-3.11 2.06,0 1,2.72 0.64,4.28l-6.86 25.54c-1.03,3.54 -1.41,8.24 -4.72,8.24zm8.91 -43.33c0.45,-0.95 1.11,-2.77 1.22,-4.05l-19.04 0c-0.86,1.79 -3.57,13.01 -4.5,16.15 -1.6,5.39 -2.82,11.09 -4.45,16.6 -1.56,5.27 -2.8,11.03 -4.36,16.3 -0.83,2.8 -1.5,5.33 -2.23,8.3 -0.42,1.69 -0.71,2.52 -1.15,4.13 -1.26,4.56 -2.19,3.32 17.1,3.32 1.32,0 1.43,-1.1 1.73,-2.32l2.73 -10.23c3.31,2.42 2.29,5.27 11.74,5.27 13.53,0 15.88,-17.13 18.54,-27.62 1.56,-6.12 3.57,-12.25 4.85,-18.24 0.81,-3.77 1.51,-6.45 -0.63,-9.3 -4.1,-5.45 -13.76,-3.78 -18.6,-0.22 -1.02,0.75 -1.69,1.59 -2.94,1.92z"/>
   <path class="fil1" d="M516.35 30.78c0.04,-0.04 0.12,0.06 0.12,0.12l0 0c-0.01,-0.01 -0.16,-0.08 -0.12,-0.12zm-29.97 41.71l19.03 0 5.42 -20.5c0.04,-0.13 0.17,-0.48 0.22,-0.59 0.47,-1.08 0.08,-0.28 0.43,-0.78l-0.41 21.87 18.22 0c0,-2.56 -1.03,-32.93 -0.64,-34.26 0.52,-1.77 12.69,-20.26 13.2,-22.44l-15.8 0c-1.41,2.1 -8.34,13.87 -9.31,14.58 0.13,-1.57 1.26,-5.01 1.76,-6.74 0.98,-3.37 5.12,-17.99 5.12,-20.39 -21.15,0 -18.29,-1.37 -19.61,3.47 -0.45,1.66 -0.77,2.71 -1.2,4.47l-9.39 34.75c-0.91,3.22 -1.46,5.77 -2.37,8.97l-4.69 17.58z"/>
   <path class="fil1" d="M626.51 30.37l0 0zm0 0c0.04,-1.83 2.77,-11.07 3.47,-13.54 0.68,-2.38 1.22,-4.52 1.79,-6.71 0.5,-1.9 1.57,-4.88 1.62,-6.89l-18.63 0 -14.03 51.58c-0.86,2.93 -1.59,5.63 -2.33,8.6 -0.68,2.72 -2.05,6.45 -2.27,9.07l19.03 0c0.09,-1.1 5.3,-21.46 6.08,-22.68l-0.81 22.68 16.66 0.05c2.97,-0.15 1.75,-0.76 1.57,-3.27 -0.23,-3.31 -0.01,-7.54 -0.01,-10.95 0,-4.23 -0.42,-6.88 -0.41,-10.93 0.03,-13.26 -0.81,-7.64 9.18,-24.43 1.03,-1.73 3.74,-5.51 4.18,-7.16l-16.2 0c-0.37,1.59 -6.2,10.45 -7.61,12.64l-1.3 1.94z"/>
   <path class="fil1" d="M871.52 20.25c0.38,-1.62 1.07,-2.74 1.22,-4.45l-19.03 0 -15.39 56.7 19.03 0c2.48,-10.63 7.11,-25.6 9.96,-37.02 1.06,-4.25 2.12,-10.37 5.43,-10.37 3.86,0 1.97,2.32 -0.64,12.72l-6.19 22.97c-0.72,2.43 -2.84,9.67 -2.88,11.7l17.82 0c1.61,0 1.98,-4.21 2.88,-7.24l6.43 -23.94c1.37,-5.21 3.17,-10.77 3.99,-16.27 1.93,-12.99 -13.61,-11.95 -20.03,-7.07 -1.13,0.86 -1.46,1.52 -2.59,2.27z"/>
   <path class="fil1" d="M318.58 152.01c2.71,0.92 7.22,1.29 10.41,2.13 3.28,0.87 6.62,2.02 8.93,3.64 6.72,4.71 7.33,7.57 5.18,18.1 -2.49,12.19 -8.08,31.37 -9.75,41.39l-55.83 0c0.75,-5.05 6.42,-27.03 8.05,-33.75 1.07,-4.43 3.55,-12.83 3.1,-17.41 -0.57,-5.85 -9.9,-5.43 -15.82,-5.43l-13.54 56.43 -60.13 0.16c1,-5.9 5.79,-24.34 7.53,-31.6l18.93 -78.3c0.64,-2.62 1.21,-5.2 1.87,-7.82 0.35,-1.38 0.65,-2.6 0.96,-3.93 0.48,-2.02 0.39,-3.54 1.56,-3.88 18.63,0 37.26,0.02 55.89,0 14.61,-0.02 39.58,-0.17 52.45,3.63 16.91,4.99 22.07,16.09 15.59,35.43 -4.36,13 -10.61,17.04 -22.82,19.32 -2.77,0.52 -10.89,0.93 -12.55,1.89zm-123.38 68.3l66.82 0c0.14,-1.69 1.14,-5.28 1.54,-6.97 0.59,-2.52 1.15,-4.61 1.79,-7.12l10.04 -42.61c3.42,0 6.94,0.57 9.72,1.22 0.65,7.85 -3.29,20.46 -5.18,28.02l-4.94 20.57c-0.48,1.89 -1.46,4.98 -1.62,6.88l62.37 0 9.21 -37.36c3.14,-14.86 5.4,-18.05 -3.23,-26.13 -3.4,-3.19 -6.03,-2.96 -7.2,-4.55 4.01,-0.09 10.52,-3.34 13.28,-5.76 7.87,-6.9 12.24,-19.92 12.24,-30.29 0,-12.83 -8.21,-18.85 -17.53,-22.57 -5.42,-2.16 -9.68,-2.59 -16.37,-3.47l-19.15 -1.1c-7,0.02 -12.54,-0.41 -19.44,-0.41l-60.75 0c-1.24,5.31 -2.67,11.07 -3.97,16.28l-25.76 106.67c-0.55,2.21 -1.82,6.55 -1.86,8.67z"/>
   <path class="fil1" d="M689.69 63.18c-4.74,0 0.13,-10.84 0.52,-11.62 1.21,-2.41 4.44,-4.56 6.76,-5.79 -0.36,1.56 -3.84,15.15 -5.02,16.44 -0.49,0.54 -1.47,0.97 -2.27,0.97zm-13.77 -25.11l16.6 0c1.4,0 1.36,-1.61 1.77,-3.09 0.38,-1.39 0.68,-2.69 1.02,-3.84 1.14,-3.88 0.92,-6.03 4.91,-6.03 3.46,0 -0.65,10.44 -1.13,11.02 -1.02,1.24 -5.72,2.86 -7.43,3.5 -5.15,1.93 -11.93,3.4 -15.81,6.47 -4.34,3.44 -9.18,19.97 -5.68,24.04 3.39,3.94 13.38,4.58 18.8,0.02 0.92,-0.78 1.39,-1.08 2.33,-1.71 -0.32,1.38 -0.77,2.42 -0.81,4.05l17.41 0c1.65,0 1.25,-1.78 2.2,-5.09 0.6,-2.13 1.08,-3.88 1.68,-6.01 2.21,-7.77 8.68,-31.07 8.68,-36.68 0,-11.16 -22.68,-14.17 -36.4,-4 -4.49,3.33 -8.15,12.7 -8.15,17.36z"/>
   <path class="fil1" d="M983.3 63.18c-1.09,0 -1.12,-0.19 -2.02,-0.41 0,-6.54 2.31,-15.07 8.91,-16.6l-2.43 9.31c-0.66,2.53 -1.53,7.7 -4.45,7.7zm-12.96 -25.11l15.39 0c3.25,0 2.34,-12.96 6.48,-12.96 0.92,0 2.83,-0 2.83,1.21 0,2.63 -0.73,5.32 -1.45,7.46 -1.09,3.22 -1.57,3.16 -4.56,4.35 -4.2,1.68 -9.15,3.19 -13.48,4.74 -1.55,0.55 -4.71,2.08 -5.92,2.99 -4.76,3.55 -7.39,15.66 -7.39,19.75 0,2.86 1.09,4.52 2.82,5.69 4.08,2.78 10.89,2.61 15.28,0.26 2.37,-1.27 2.81,-2.34 4.58,-3.52 -0.37,1.59 -0.87,2.96 -1.22,4.45l18.63 0c0.18,-2.12 9.75,-35.11 11.06,-43.21 0.59,-3.69 1.08,-5.58 -0.78,-8.77 -4.86,-8.34 -33.39,-10 -40.71,8.18 -0.6,1.49 -1.17,2.96 -1.64,4.84 -0.75,2.98 -1.87,4.54 0.09,4.54z"/>
   <path class="fil1" d="M554.02 63.18c-4.57,0 -0.18,-9.8 0.53,-11.22 1.75,-3.53 3.77,-4.19 6.76,-6.2 -0.77,3.3 -1.61,6.32 -2.51,9.64 -0.76,2.8 -1.34,7.78 -4.78,7.78zm-13.77 -25.11l16.6 0c3.27,0 1.73,-12.96 6.88,-12.96 3.13,0 2.49,2.27 1.47,6.33 -1.52,6.03 -2.34,5.94 -10.12,8.51 -7.54,2.5 -14.6,3.84 -17.81,10.13 -1.87,3.67 -3.9,11.3 -3.9,16.34 0,6.81 11.67,9.65 20.01,3.82 1.11,-0.77 1.3,-1.15 2.26,-1.79 -0.13,1.61 -0.68,2.44 -0.81,4.05l18.22 0 9.4 -34.75c2.79,-11.15 6.89,-23.17 -14.66,-23.17 -9.95,0 -20.78,3.85 -24.65,13.42 -0.92,2.27 -2.82,7.27 -2.89,10.07z"/>
   <path class="fil1" d="M352.34 63.18c-3.26,0 -0.55,-7.08 0.49,-10.85 0.84,-3.06 1.73,-6.15 2.59,-9.56 0.85,-3.37 1.8,-6.29 2.6,-9.55 1.34,-5.48 1.68,-8.1 5.27,-8.1 2.99,0 -0.06,7.49 -0.89,10.85l-6.64 24.14c-0.61,1.82 -1.19,3.07 -3.41,3.07zm-5.26 10.12c7.48,0 13.3,-0.1 19.44,-4.45 9.3,-6.59 9.65,-14.6 12.91,-25.57 3.21,-10.82 6.86,-19.7 -1.8,-25.64 -7.05,-4.83 -22.38,-3.91 -30.02,2.32 -0.71,0.58 -1.43,1.07 -2.03,1.61 -4.55,4.13 -6.96,12.65 -8.37,18.35 -1.29,5.22 -4.94,16.88 -5.09,21.65 -0.05,1.55 0.71,4.18 1.19,5.25 2.15,4.83 8.15,6.47 13.78,6.47z"/>
   <path class="fil1" d="M813.61 63.18c-0.93,0 -0.47,-0.14 -1.62,-0.41 -0.82,-3.51 5.77,-24.67 7.05,-29.8 1.18,-4.75 1.7,-7.86 5.1,-7.86 3.23,0 -0.52,9.95 -0.98,11.57l-5.1 18.8c-0.66,2.53 -1.53,7.7 -4.45,7.7zm-20.25 -2.83c0,4.56 0.08,7.52 4.21,10.37 4.06,2.79 10.6,2.59 15.63,2.59 11.09,0 20.12,-7.13 22.94,-15.54 1.71,-5.08 2.91,-9.67 4.43,-15.01 2.51,-8.82 6.93,-20.02 -2.27,-25.33 -7.77,-4.49 -20.46,-3.36 -27.92,1.22 -8.84,5.43 -10.82,15.75 -13.38,25.5 -1.01,3.85 -3.64,12.59 -3.64,16.2z"/>
   <path class="fil1" d="M801.44 91.74l100.34 0.02 -6.14 25.16 -40.03 0.14 -5.65 23.57 37.41 0.03 -5.68 23.94 -37.57 0.03 -6.55 27.42 43.95 0.09 -5.95 25.1 -104.33 -0.02 30.19 -125.51zm-33.99 128.57l109.75 0c1.5,0 2.05,-4.23 2.66,-7.05l5.84 -24.13 -44.14 0c1.66,-7.1 3.61,-14.38 5.26,-21.46l37.26 0c0.77,-1.6 1.47,-5.49 1.94,-7.37 0.67,-2.67 1.22,-4.72 1.8,-7.51l2.7 -11.07c0.3,-1.45 0.73,-2.62 0.84,-4.02l-37.26 0 2.03 -8.91c0.54,-2.16 1.98,-6.73 2.03,-8.91l39.28 0c1.5,0 2.05,-4.23 2.66,-7.06l5.84 -24.13 -106.92 0c-0.85,1.77 -15.44,63.39 -15.96,65.45 -0.64,2.56 -15.63,62.98 -15.63,66.17z"/>
   <path class="fil1" d="M386.76 91.74l100.15 0.02 -6.17 25.17 -39.31 0c-1.24,0.31 -1.79,4.64 -2.05,5.75 -1.32,5.66 -3.26,12.42 -4.26,17.95l37.31 0.08c-0.56,3.73 -1.92,8.28 -2.87,12.16 -0.3,1.23 -2.12,11.33 -3.43,11.74l-36.85 -0.04 -6.58 27.5 43.8 0c-0.05,1.24 -5.14,24.73 -6.44,25.19l-103.67 -0.1 30.37 -125.42zm-34.42 128.57l110.97 0c0.25,-3 7.22,-28.18 7.29,-31.18l-43.74 0c0.31,-3.77 4.8,-18.81 4.86,-21.46l37.66 0c2.32,-9.98 4.97,-20.03 7.29,-29.97l-37.66 0 4.45 -17.82 40.09 0c0.25,-3 7.22,-28.18 7.29,-31.18l-106.92 0 -3.88 16.37c-3.41,15.7 -8.05,33.29 -11.83,49.32l-15.88 65.93z"/>
   <path class="fil1" d="M244.21 35.64c0,6.55 1.87,7.58 7.61,11.42l8.01 4.95c2.38,1.53 3.33,2.09 0.95,8.29 -1.64,4.27 -6.04,2.83 -6.04,1.66 0,-3.66 1.31,-6.65 2.03,-9.72l-17.01 0c-0.35,4.16 -5.8,14.16 2.85,18.61 8.59,4.43 25.5,3.07 31.68,-3.93 3.52,-3.98 6.37,-11.77 6.37,-17.11 0,-6.63 -8.9,-9.92 -13.85,-12.88 -1.73,-1.03 -4.37,-2.39 -4.37,-4.94 0,-7.89 6.48,-7.99 6.48,-5.67 0,3.15 -1.41,5.11 -1.62,7.7l17.01 0c0.09,-4.03 6.89,-14.39 -6.42,-18.28 -10.02,-2.94 -25.95,-1.32 -31.24,10.59 -0.82,1.84 -2.43,6.77 -2.43,9.32z"/>
   <path class="fil1" d="M450.75 36.04c0,5.75 2.09,7.83 7.82,11.21 1.1,0.65 10,5.49 10,7.01 0,2.03 -0.64,4.33 -1.14,5.74 -1.49,4.15 -6.15,4.08 -6.15,1.14 0,-1.68 1.5,-7.81 2.03,-8.91l-17.01 0c-0.91,3.92 -2.02,6.59 -2.02,11.34 0,12.52 28.89,12.42 36.52,3.31 3.13,-3.73 6.41,-11.53 6.41,-16.68 0,-10.22 -18.22,-12.62 -18.22,-17.41 0,-10.29 6.48,-7.79 6.48,-6.89 0,3.09 -1.39,5.29 -1.62,8.1l17.01 0c0.12,-5.26 4.27,-9.58 -0.3,-14.69 -5.7,-6.38 -30.74,-8.65 -37.49,7.27 -1.01,2.39 -2.31,6.28 -2.31,9.44z"/>
   <path class="fil1" d="M917.29 61.15c0,15.05 20.87,13.46 29.28,9.84 8.09,-3.48 11.26,-9.79 13.7,-17.08 0.48,-1.44 0.92,-3.58 1.56,-4.91l-17.01 0c-1.73,3.6 -2.25,14.18 -6.88,14.18 -0.93,0 -0.47,-0.14 -1.62,-0.41 -1.08,-4.62 0.29,-6.13 1.71,-11.66l4.85 -18.23c1.29,-5.28 1.66,-7.78 5.18,-7.78 3.38,0 -1.21,12.15 -1.21,12.15l18.22 0c0.04,-1.84 0.64,-3.15 0.99,-5.09 0.36,-2 0.63,-3.72 0.63,-5.85 0,-11.28 -17.33,-15.46 -32.41,-7.7 -4.69,2.41 -7.29,5.83 -9.14,10.7l-4.47 15.38c-1.2,4.86 -3.4,10.91 -3.4,16.44z"/>
   <path class="fil1" d="M641.49 72.49l19.44 0 9.15 -34.59c0.9,-3.6 9.02,-32.18 9.07,-34.67l-19.44 0 -9.17 34.57c-0.76,2.62 -9,32.42 -9.05,34.68z"/>
   <path class="fil1" d="M428.88 17.01l-4.05 0c-0.34,1.48 -0.83,2.89 -1.21,4.46 -0.36,1.47 -1.1,3.43 -1.21,4.86l4.05 0 -2.67 9.48c-1.35,5.39 -7.46,25.94 -7.46,29.8 0,8.59 14.86,6.88 22.68,6.88 0.04,-1.61 0.99,-4.48 1.46,-6.24 1.17,-4.46 1.68,-3.04 -2.7,-3.45 -1.53,-0.14 -1.7,-0.23 -1.55,-1.9l9.27 -34.57 4.86 0c0.45,-0.94 2.32,-8 2.43,-9.32l-4.86 0c0.6,-2.6 2.02,-6.06 2.02,-8.91l-17.82 0c-1.37,0 -1.31,1.28 -2.03,4.05 -0.42,1.61 -0.83,3.24 -1.21,4.86z"/>
   <path class="fil1" d="M409.44 21.87c0.43,-1.87 1.87,-4.17 2.02,-6.08l-19.03 0 -14.98 56.7 19.03 0 6.12 -23.04c2.77,-9.34 2.41,-14.63 14.94,-14.63l4.05 -14.98c0.4,-1.61 1.18,-3.57 1.22,-5.26 -2.75,0.23 -5.75,1.28 -7.62,2.5 -3.95,2.57 -3.83,3.51 -5.74,4.79z"/>
   <path class="fil1" d="M687.16 217.26c0.86,-5.17 2.56,-10.82 3.76,-15.96 1.21,-5.18 2.48,-10.5 3.77,-15.65 2.63,-10.5 5.06,-20.85 7.57,-31.32 1.67,-6.98 14.25,-60.71 15.37,-62.6l59.92 0.02 -30.2 125.5 -60.18 0zm-3.96 3.05l66.82 0c0.21,-2.5 1.23,-5.75 1.86,-8.26 0.72,-2.9 1.2,-5.25 1.94,-8.18l15.88 -65.52c1.44,-5.74 2.72,-10.89 3.98,-16.68 1.19,-5.49 2.6,-10.83 3.96,-16.29l3.97 -16.69 -64.43 -0.03c-3.67,-0.04 -2.53,0.53 -3.36,3.93 -1,4.08 -1.79,7.6 -2.83,11.74l-16.77 69.5c-1.85,7.84 -3.78,15.17 -5.59,23.16 -0.91,4.02 -5.43,20.78 -5.43,23.33z"/>
   <path class="fil1" d="M888.13 72.49l19.44 0 14.98 -56.7 -19.44 0 -5.67 21.06c-1.13,4.3 -9.26,33.26 -9.32,35.64z"/>
   <path class="fil1" d="M764.21 72.49l19.44 0c1.1,-4.71 2.43,-9.34 3.73,-14.09 0.99,-3.65 11.21,-40.58 11.26,-42.61l-19.44 0c-1.12,4.8 -2.51,9.3 -3.73,14.09 -1.16,4.55 -2.45,9.28 -3.79,14.03l-7.46 28.58z"/>
   <path class="fil1" d="M1215.36 50.22l0 7.29c0,1.87 -1.32,0.76 1.34,3.92 8.75,10.42 14.66,24.45 17.52,37.97 0.96,4.55 0.61,2.19 4.81,7.75 1.9,2.51 2.95,4.81 4.41,7.74l4.32 8.23 0.41 -5.67c0,-13.63 -1.98,-25.57 -5.92,-37.41 -1.59,-4.78 -2.48,-6.33 -4.15,-10.43 -2.31,-5.68 -7.19,-13.44 -10.76,-18.4 -2.81,-3.9 -10.63,-13.37 -14,-15.15 1.47,6.3 2.03,6.55 2.03,14.17z"/>
   <path class="fil1" d="M1081.71 10.94c2.06,0.48 4.43,0.73 6.48,1.21l12.38 3.01c11.87,3.39 4.12,1.31 14.74,1.04 14.63,-0.36 12.97,-0.89 28.84,0.77 2.49,0.26 15.73,-4.86 21.07,-6.36l5.18 -1.7c-5.45,-1.27 -8.44,-2.95 -17.18,-4.69 -15.79,-3.16 -36.63,-3.11 -52.24,0.48 -3.75,0.86 -6.59,1.66 -9.97,2.59 -1.76,0.49 -7.83,2.35 -9.31,3.65z"/>
   <path class="fil1" d="M1167.16 221.12c3.48,-0.81 15.63,-6.16 19.17,-7.96 1.59,-0.81 2.54,-1.43 4.18,-2.3 9.78,-5.2 19.1,-13.45 26.77,-21.02l9.41 -11.24c0.96,-1.34 1.91,-2.68 2.83,-4.05l-4.9 1.58c-1.89,0.55 -3.53,0.89 -5.59,1.3 -7.27,1.44 -5.55,-0.41 -9.24,4.53 -7.52,10.09 -18.56,19.12 -30.56,23.71 -4.24,1.62 -4.14,6.03 -8.96,11.69 -1.03,1.21 -2.31,2.56 -3.12,3.77z"/>
   <path class="fil1" d="M120.28 91.12l2.91 -12.07c0.95,-3.83 1.99,-7.98 2.92,-12.07 0.65,-2.88 5.51,-22.21 5.51,-24.46 3.56,0 7.86,0.45 11.11,1.04 7.01,1.27 7.46,4.75 5.25,13.3 -0.65,2.52 -1.15,4.98 -1.7,7.21 -1.5,6.03 -2.96,15.31 -6.07,20.26 -4.35,6.91 -10.15,6.8 -19.93,6.8zm8.83 -51.54c-0.95,6.31 -8.53,36.21 -10.8,45.93 -0.43,1.83 -2.38,8.1 -1.43,8.55 0.89,0.42 9.28,0.07 10.78,-0.07 18.48,-1.84 18.28,-14.43 22.93,-33.73 1.49,-6.18 3.66,-14.29 -1.64,-17.67 -4.3,-2.74 -14.06,-3.01 -19.84,-3.01z"/>
   <path class="fil1" d="M281.87 138.1c0.14,-1.69 0.84,-3.65 1.18,-5.3l4.08 -16.57c4.59,0 10.12,0.13 10.12,3.65 0,2.69 -2.39,11.18 -3.29,13.32 -0.97,2.31 -1.87,3.4 -4.5,4.01 -1.63,0.38 -5.88,0.9 -7.61,0.9zm-4.19 2.93c14.82,0.02 18.14,-0.62 21.11,-12.32 1.03,-4.07 3.43,-10.67 -0.03,-13.19 -2.92,-2.12 -10.33,-2.3 -14.47,-2.21l-6.61 27.71z"/>
   <path class="fil1" d="M975.2 138.1l5.26 -21.87c6.51,0 6.52,0.78 10.12,1.62 0,4.69 -1.26,10.83 -2.94,14.88 -1.95,4.7 -5.87,5.37 -12.45,5.37zm-3.96 2.85c3.67,0.33 11.96,-0.27 14.89,-1.63 5.55,-2.58 9.93,-20.3 6.52,-23.53 -2.63,-2.49 -9.97,-2.51 -14.21,-2.51 -1.52,1.04 -1.7,4.64 -2.13,6.48 -1.47,6.36 -4.06,15.38 -5.07,21.19z"/>
   <path class="fil1" d="M1103.18 83.83l9.72 1.22c6.78,0 12.7,-0.41 19.03,-0.41l18.63 -0.81c0.07,2.91 10.89,33 13.41,38.42l0.26 0.55c0.29,0.53 0.22,0.41 0.5,0.72l-11.74 -42.52c-2.69,0 -3.89,0.36 -6.06,0.42l-15.4 0.8c-1.76,0.09 -1.48,0.32 -3.24,0.41 -8.52,0.44 -16.41,1.21 -25.11,1.21z"/>
   <path class="fil1" d="M903.92 12.55l19.85 0c0.07,-3.24 1.95,-5.96 2.02,-9.31l-19.44 0 -2.43 9.31z"/>
   <path class="fil1" d="M780.4 12.55l19.44 0c0.27,-3.28 2.02,-5.88 2.02,-9.31l-19.44 0c-0.04,1.72 -0.63,2.91 -1.06,4.61 -0.41,1.62 -0.93,3.03 -0.97,4.7z"/>
   <path class="fil1" d="M1091.03 18.23c-2.69,4.02 -10.46,13.13 -11.74,18.63 2.3,-0.62 6.42,-7.38 8.6,-10.03l8.41 -10.22c-4.07,-0.95 -12.57,-1.34 -18.23,-4.05 0.85,3.17 11.15,5.52 12.96,5.67z"/>
  </g>
 </g>
</svg>
