<?xml version="1.0" encoding="UTF-8"?>
<!DOCTYPE svg PUBLIC "-//W3C//DTD SVG 1.1//EN" "http://www.w3.org/Graphics/SVG/1.1/DTD/svg11.dtd">
<!-- Creator: CorelDRAW 2020 (64-Bit) -->
<svg xmlns="http://www.w3.org/2000/svg" xml:space="preserve" width="85.5936mm" height="15.3302mm" version="1.1" style="shape-rendering:geometricPrecision; text-rendering:geometricPrecision; image-rendering:optimizeQuality; fill-rule:evenodd; clip-rule:evenodd"
viewBox="0 0 628.45 112.56"
 xmlns:xlink="http://www.w3.org/1999/xlink"
 xmlns:xodm="http://www.corel.com/coreldraw/odm/2003">
 <defs>
  <style type="text/css">
   <![CDATA[
    .fil0 {fill:#E30613}
    .fil1 {fill:white}
   ]]>
  </style>
 </defs>
 <g id="Layer_x0020_1">
  <metadata id="CorelCorpID_0Corel-Layer"/>
  <g id="_1935007003152">
   <path class="fil0" d="M65 19.93c2.91,0 7.82,0.14 9.99,1.52 2.67,1.7 1.57,5.78 0.83,8.89 -2.34,9.72 -2.24,16.06 -11.54,16.98 -0.75,0.07 -4.98,0.25 -5.43,0.04 -0.48,-0.22 0.51,-3.38 0.72,-4.3 1.14,-4.9 4.96,-19.95 5.44,-23.13zm-63.07 89.56l41.94 0.01 10.27 -43.5c5.88,-0.7 14.52,0.58 25.27,-0.82 10.87,-1.42 20.76,-4.46 25.45,-13.94 1.48,-2.98 2.48,-6.35 3.38,-9.88 1.79,-7.05 6.4,-21.68 3.09,-28.71 -4.83,-10.27 -23.43,-10.74 -33.16,-11.09 -8.3,-0.3 -16.82,-0.13 -25.15,-0.13 -8.51,0 -17.02,0 -25.54,0l-25.54 108.06z"/>
   <path class="fil0" d="M240.58 109.39l26.09 0c0.63,-0.19 0.66,-1.24 0.91,-2.3 0.2,-0.86 0.42,-1.75 0.63,-2.63l3.77 -15.6c0.66,-2.73 4.49,-19.43 5.1,-20.57l1.02 41.1 18.91 0 20.36 -41.83 -9.96 41.82 26.19 0.01c0.71,-0.57 0.96,-2.84 1.19,-3.8l12.38 -51.25c0.61,-2.59 1.53,-5.59 1.92,-8.14l-39.54 -0.01 -13.78 29.2c-0.33,-2.03 -0.14,-5.06 -0.21,-7.21 -0.08,-2.36 -0.13,-5 -0.14,-7.42 -0.01,-4.91 -0.33,-9.78 -0.41,-14.58l-39.09 0c-0.61,1.06 -11.88,48.69 -13.43,55.17 -0.62,2.59 -1.46,5.42 -1.9,8.03z"/>
   <path class="fil0" d="M489.02 70.97c0.51,-2.92 1.81,-7.46 2.55,-10.67 0.21,-0.93 0.31,-2.74 1.07,-3.26 2.14,0 5.83,0.01 7.16,1.26 1.72,1.62 -0.48,10.54 -3.28,11.85 -1.48,0.69 -5.65,0.99 -7.5,0.82zm-39.6 38.41l30.17 0.01c1.01,-1.72 5.27,-22.5 6.8,-27.75 0.31,-1.08 0.04,-0.47 0.55,-0.75 1.51,0 3.37,0.07 4.8,0.35 1.69,0.33 2.59,0.64 2.77,2.35 0.28,2.69 -2.77,13.87 -3.59,17.24 -0.67,2.75 -1.58,5.82 -2.02,8.56l27.79 0c0.62,-0.22 2.4,-8.86 2.71,-10.05 0.86,-3.36 1.75,-6.96 2.44,-10.39 1.04,-5.16 1.23,-6.44 -2.1,-9.2 -2.79,-2.33 -8.56,-2.36 -9.73,-3.45 3.25,0.01 8.99,-1.15 11.57,-2.5 2.85,-1.48 4.72,-4.54 5.88,-8.19 3.17,-10.05 0.48,-14.91 -7.98,-17.6 -7.78,-2.48 -36.35,-1.82 -47.64,-1.82 -1.85,0 -5.52,-0.2 -7.14,0.1l-15.29 63.09z"/>
   <path class="fil0" d="M143.14 57.05c2.08,-0.04 5.82,0.04 7.28,1.11 1.74,1.27 0.53,4.59 0.01,6.64 -1.49,5.89 -3.17,6.21 -10.63,6.2l3.33 -13.95zm17.26 19.48c0.84,-0.48 4.92,-0.69 6.32,-0.95 6.15,-1.15 9.29,-3.18 11.49,-9.73 3.27,-9.74 0.66,-15.32 -7.85,-17.84 -6.48,-1.91 -19.05,-1.84 -26.41,-1.83 -9.38,0.01 -18.76,0 -28.14,0 -0.59,0.17 -0.55,0.94 -0.79,1.96 -0.16,0.67 -0.31,1.28 -0.48,1.98 -0.33,1.32 -0.62,2.62 -0.94,3.94l-9.53 39.42c-0.88,3.65 -3.29,12.94 -3.79,15.91l30.28 -0.08 6.82 -28.41c2.98,0 7.68,-0.21 7.96,2.73 0.23,2.3 -1.02,6.54 -1.56,8.77 -0.82,3.39 -3.68,14.45 -4.05,16.99l28.11 0c0.84,-5.05 3.65,-14.7 4.91,-20.84 1.08,-5.3 0.78,-6.74 -2.61,-9.11 -1.16,-0.81 -2.85,-1.39 -4.5,-1.83 -1.61,-0.43 -3.87,-0.61 -5.24,-1.07z"/>
   <polygon class="fil0" points="388.32,109.38 440.85,109.39 443.85,96.75 421.72,96.7 425.02,82.9 443.93,82.88 446.79,70.83 427.95,70.81 430.8,58.94 450.95,58.87 454.04,46.2 403.52,46.19 "/>
   <path class="fil0" d="M179.44 109.34l52.2 0.05c0.66,-0.23 3.22,-12.06 3.24,-12.69l-22.05 0 3.31 -13.84 18.56 0.02c0.66,-0.2 1.58,-5.29 1.73,-5.91 0.47,-1.95 1.16,-4.25 1.44,-6.12l-18.79 -0.04c0.5,-2.79 1.48,-6.19 2.15,-9.04 0.13,-0.56 0.41,-2.74 1.03,-2.9l19.79 0 3.11 -12.67 -50.42 -0.01 -15.29 63.15z"/>
   <path class="fil0" d="M345.99 109.39l30.3 0 15.21 -63.19 -30.17 -0.01c-0.57,0.95 -6.9,28 -7.74,31.52 -1.26,5.27 -2.48,10.48 -3.81,15.77 -0.65,2.59 -1.29,5.27 -1.9,7.88 -0.6,2.59 -1.46,5.43 -1.89,8.04z"/>
   <path class="fil1" d="M464.71 46.29c1.62,-0.3 5.29,-0.1 7.14,-0.1 11.28,0 39.85,-0.66 47.64,1.82 8.46,2.69 11.14,7.55 7.98,17.6 -1.15,3.65 -3.03,6.71 -5.88,8.19 -2.58,1.34 -8.32,2.51 -11.57,2.5 1.17,1.1 6.94,1.13 9.73,3.45 3.32,2.77 3.14,4.04 2.1,9.2 -0.69,3.43 -1.58,7.03 -2.44,10.39 -0.31,1.19 -2.08,9.83 -2.71,10.05l-27.79 0c0.44,-2.74 1.35,-5.81 2.02,-8.56 0.82,-3.37 3.87,-14.55 3.59,-17.24 -0.18,-1.71 -1.08,-2.02 -2.77,-2.35 -1.44,-0.28 -3.29,-0.35 -4.8,-0.35 -0.51,0.27 -0.23,-0.33 -0.55,0.75 -1.52,5.25 -5.79,26.03 -6.8,27.75l-30.17 -0.01 15.29 -63.09zm44.45 -1.22l-11.07 -0.35c-1.97,-0.27 -31.3,-0.06 -34.81,-0.06l-7.91 33.07c-0.7,2.77 -1.3,5.39 -2,8.2 -0.72,2.89 -1.37,5.48 -2,8.4l-3.99 16.6c10.33,0 21.93,-0.16 32.23,0.01 1.91,0.03 1.35,0.25 1.99,-2.3l6.36 -26.26c1.09,0 1.72,0.12 2.82,0.24 2.07,0.21 2.07,0.45 2.07,1.6 0,3.09 -4.18,18.94 -5.26,23.28 -0.23,0.94 -0.65,2.44 -0.65,3.43l31.4 0c0.1,-1.23 3.77,-15.09 3.87,-16.31 0.9,0.6 2.25,2.14 3.11,3.01 3.11,3.11 6.61,5.69 10.39,7.96 3.14,1.89 13.54,6.88 17.5,6.97l-3.02 -4.73c-0.77,-1.29 -0.42,-1.31 -1.51,-1.75 -16.69,-6.74 -18.59,-11.67 -20.64,-12.8 -0.65,-0.36 -3.73,-0.91 -5,-1.52 0.09,-4 4.13,-9.44 -3.14,-13.78 -0.43,-0.26 -0.75,-0.41 -1.21,-0.62 -0.62,-0.28 -0.79,-0.19 -1.15,-0.68 3.73,-0.08 9.38,-4.06 10.2,-7.54 2.02,1.07 0.57,1.7 6.23,-0.49l13.54 -4.81c0,-4.58 1.2,-9.68 2.45,-13.05 1.43,-3.87 2.86,-7.35 4.69,-10.81 -1.05,-0.7 -6.54,-7.24 -7.57,-8.54 -0.95,-1.19 -3.58,-4.8 -3.85,-5.94 -5.17,0.43 -15.75,3.62 -19.93,5.97 -0.71,0.4 -0.42,0.04 -1.13,1.72 -0.61,1.43 -1.06,2.61 -1.63,4.08l-2.8 8.83c-0.37,-0.18 -0.25,-0.16 -0.81,-0.2 0.14,-1.67 3.07,-9.72 3.67,-11.21 0.65,-1.64 1.68,-3.43 1.4,-5.88 -0.25,-2.12 -0.33,-4.79 -0.79,-6.76 -1.43,0.96 -6.18,8.55 -7.14,10.4 -1.36,2.61 -4.83,9.88 -4.89,12.65z"/>
   <path class="fil1" d="M529.96 70.96l-1.19 6.76c-0.59,4.2 -1.02,9.54 -0.25,13.85 0.37,2.07 6.12,6.03 7.88,7.2l6.33 3.66c0.84,0.4 6.57,2.99 7,2.99 3.43,0 12.94,-5.47 16.45,-7.21 2.62,-1.3 2.56,-0.88 2.77,-2.13 1.05,-6.2 0.97,-6.85 0.97,-12.89 0,-1.97 -0.41,-2.99 -0.41,-5.1l-8.57 -4.28c-2.81,-1.46 -8.11,-4.8 -10.45,-6.88 -3.38,-3.01 -1.74,-2.39 -6.91,-0.69 -1.49,0.49 -3.09,1.11 -4.49,1.63l-9.15 3.09z"/>
   <path class="fil1" d="M570.33 77.49c1.06,4.56 0.92,9.35 0.39,14.05 -0.18,1.61 -0.8,3.73 -0.8,5.32 5.35,2.83 9.17,5.01 15.61,6.01 1.51,0.23 2.59,0.17 4.14,0.35 1.98,0.22 1.81,0.24 3.5,-0.44 1.13,-0.45 2.02,-0.91 3.06,-1.43 3.77,-1.87 7.03,-4.78 9.84,-7.7 0.96,-1 3.41,-4.01 3.67,-5.1 1.24,-5.14 0.62,-10.9 0.55,-15.76 -0.02,-1.48 -0.38,-2.79 -0.41,-4.08l-11.74 -2.94c-1.9,-0.54 -3.64,-1.18 -5.52,-1.82 -1.06,-0.36 -1.73,-1 -2.56,-0.39l-2.05 1.85c-2.88,2.56 -14.49,11.33 -17.69,12.08z"/>
   <path class="fil1" d="M582.57 38.95c0.17,0.72 0.44,1.01 0.73,1.72 2.48,5.94 4.39,10.76 6.16,17.09 1.57,5.61 -0.29,4 8.74,6.96 3.28,1.08 6.65,1.89 10.15,2.7 1.57,0.36 1.76,0.58 3.54,-1.19 2.63,-2.6 3.76,-3.88 5.8,-7.25 0.58,-0.96 3.22,-6.13 3.22,-7.18 0,-2.37 -2.7,-9.7 -3.94,-12.37 -1.33,-2.87 -3.12,-5.52 -5.06,-7.99 -1.04,-1.33 -1.83,-1.6 -4.05,-2.48 -0.77,-0.3 -1.58,-0.58 -2.42,-0.84 -4.65,-1.44 -8.63,-1.6 -13.89,-1.6 -0.66,0 -1.57,2.03 -2.24,3.06l-4.28 6.32c-0.39,0.52 -0.72,0.94 -1.16,1.49 -0.44,0.54 -0.97,1.1 -1.29,1.57z"/>
   <path class="fil1" d="M543.82 24.88c2.03,3.03 4.05,6.27 6.58,8.92 0.53,0.56 0.67,0.88 1.22,1.43l2.4 2.7c1.5,1.96 1.05,1.27 5.89,0.8 4.2,-0.41 10.15,-0.74 14.71,-0.6l7.13 0.62c0.15,-0.57 0.6,-1.03 0.97,-1.47 1.52,-1.82 6.33,-8.97 7.39,-10.96l-3.83 -5.96c-1.84,-2.75 -6.82,-9.34 -8.92,-10.66 -1.85,-1.16 -13.93,-1.05 -16.93,-0.64 -2.05,0.28 -2.13,0.21 -3.69,1 -4.7,2.38 -8.81,7.14 -11.35,11.7 -0.59,1.06 -1.02,2.1 -1.57,3.12z"/>
   <path class="fil1" d="M312.18 81.97l0.11 -0.44 -0.11 0.44zm-71.61 27.42c0.44,-2.61 1.28,-5.44 1.9,-8.03 1.55,-6.49 12.82,-54.11 13.43,-55.17l39.09 -0c0.08,4.8 0.4,9.66 0.41,14.58 0,2.42 0.05,5.06 0.14,7.42 0.08,2.16 -0.12,5.18 0.21,7.21l13.78 -29.2 39.54 0.01c-0.39,2.55 -1.31,5.55 -1.92,8.14l-12.38 51.25c-0.23,0.96 -0.48,3.22 -1.19,3.8l-26.19 -0.01 9.96 -41.82 -20.36 41.83 -18.91 0 -1.02 -41.1c-0.61,1.14 -4.44,17.83 -5.1,20.57l-3.77 15.6c-0.21,0.88 -0.42,1.77 -0.63,2.63 -0.25,1.06 -0.28,2.11 -0.91,2.3l-26.09 0zm71.61 -27.42c0,1.14 -0.46,2.46 -0.73,3.55 -0.69,2.75 -5.99,24.2 -5.99,25.41l29.77 0 1.96 -8.24c4.12,-16.49 7.84,-33.16 11.99,-49.59l1.96 -8.44 -42.62 0 -11.22 23.45c0,-1.49 -0.21,-2.26 -0.2,-3.87 0.01,-3.4 -0.08,-13.48 -0.38,-16.14 -0.08,-0.67 -0.02,-1.36 -0.01,-2.03 0.01,-1.03 0.18,-1.24 -0.63,-1.41l-41.6 0 -13.99 57.79c-0.36,1.44 -1.89,7.48 -1.92,8.48l29.77 0c1.17,-5.02 2.43,-9.85 3.59,-14.97l3.18 -13.13c0.06,-0.25 0.13,-0.59 0.24,-0.99 0.01,-0.03 0.14,-0.45 0.14,-0.47l0.19 -0.42c0,6 0.39,12.4 0.4,18.77 0,1.35 0.22,2.11 0.21,3.66 -0.01,1.29 0,2.58 -0,3.88 -0.01,1.55 0.2,2.21 0.2,3.67l21.41 0c3.19,-6.03 7.5,-15.41 10.67,-21.75l3.6 -7.2z"/>
   <path class="fil1" d="M371.72 31.81c-0.47,0 -0.24,-0.07 -0.82,-0.2 0,-2.07 3.4,-14.74 4.31,-17.31 0.48,-1.36 0.63,-1.65 2.02,-1.65 1.07,0 0.69,1.29 0.49,2.12l-3.43 12.89c-0.38,1.55 -0.87,4.16 -2.57,4.16zm7.54 -22.23c-0.77,-0.52 -1.08,-1.08 -2.1,-1.57 -3.25,-1.57 -7.42,-0.34 -9.78,2.33 -1.43,1.62 -4.02,12.05 -4.72,14.86 -0.56,2.23 -1.75,5.63 -1.75,8.04 0,2.5 2.57,3.67 5.3,3.67 2.88,0 4.27,-1.27 6.12,-2.24 -0.06,0.67 -0.27,1.22 -0.41,1.83l9.58 0c1.87,-8.04 4.96,-17.87 6.97,-26.06 0.32,-1.31 0.77,-3.02 1.16,-4.35 0.21,-0.71 0.34,-1.33 0.56,-2.09 0.25,-0.85 0.48,-1.35 0.48,-2.38l-8.97 0c-0.75,0 -0.67,0.83 -0.86,1.59 -0.38,1.5 -1.56,5.21 -1.59,6.36z"/>
   <path class="fil1" d="M27.48 1.43c8.51,0 17.02,0 25.54,0 8.33,0 16.85,-0.17 25.15,0.13 9.74,0.35 28.33,0.82 33.16,11.09 3.31,7.03 -1.3,21.66 -3.09,28.71 -0.9,3.54 -1.91,6.9 -3.38,9.88 -4.69,9.47 -14.58,12.52 -25.45,13.94 -10.75,1.4 -19.39,0.13 -25.27,0.82l-10.27 43.5 -41.94 -0.01 25.54 -108.06zm-1.38 -1.43l51.91 0c0.53,0.02 0.9,0.03 1.05,0.06 2.81,0.38 6.08,0.2 9.38,0.61 0.8,0.1 1.99,0.23 2.9,0.36 4.13,0.58 7.24,1.29 10.79,2.46 3.62,1.2 5.56,2.38 8.23,5.02 5.88,5.81 3.66,14.86 2.14,22.02 -1.22,5.77 -3.64,16.23 -6,20.92 -0.8,1.58 -1.46,2.94 -2.48,4.24 -9.94,12.65 -33.12,11.8 -48.56,11.8 -0.07,0.88 -0.44,1.91 -0.65,2.81l-1.91 8.08c-0.82,3.76 -1.71,7.19 -2.58,10.88l-4.49 18.96c-0.15,0.64 -0.51,2 -0.57,2.69l-45.27 0c0.02,-0.97 2.87,-12.58 3.18,-13.95l4.94 -20.76c0.59,-2.35 1.07,-4.71 1.63,-6.93 1.17,-4.64 2.18,-9.3 3.26,-13.87 1.09,-4.64 2.19,-9.24 3.31,-13.82l9.78 -41.6z"/>
   <path class="fil1" d="M153.14 31.81c-0.35,0 -0.76,-0.27 -1.02,-0.41 0.03,-1.37 3.69,-15.4 4.42,-17.19 0.54,-1.33 0.71,-1.57 2.11,-1.57 1.04,0 0.51,1.37 0.32,2.16l-3.45 12.86c-0.52,1.78 -0.71,4.15 -2.37,4.15zm4.49 -21.82c0.23,-0.48 0.56,-1.39 0.61,-2.04l-9.58 0c-0.43,0.9 -1.8,6.55 -2.27,8.13 -0.81,2.72 -1.42,5.58 -2.24,8.36 -0.79,2.65 -1.41,5.55 -2.19,8.21 -0.42,1.41 -0.75,2.68 -1.12,4.18 -0.21,0.85 -0.36,1.27 -0.58,2.08 -0.63,2.29 -1.1,1.67 8.61,1.67 0.66,0 0.72,-0.55 0.87,-1.17l1.37 -5.15c1.66,1.22 1.15,2.65 5.91,2.65 6.81,0 7.99,-8.63 9.34,-13.91 0.78,-3.08 1.8,-6.17 2.44,-9.18 0.41,-1.9 0.76,-3.25 -0.32,-4.68 -2.06,-2.75 -6.93,-1.9 -9.37,-0.11 -0.51,0.38 -0.85,0.8 -1.48,0.97z"/>
   <path class="fil1" d="M259.98 15.5c0.02,-0.02 0.06,0.03 0.06,0.06l0 0c-0,-0 -0.08,-0.04 -0.06,-0.06zm-15.09 21l9.58 0 2.73 -10.32c0.02,-0.06 0.09,-0.24 0.11,-0.3 0.23,-0.54 0.04,-0.14 0.22,-0.39l-0.2 11.01 9.18 0c0,-1.29 -0.52,-16.58 -0.32,-17.25 0.26,-0.89 6.39,-10.2 6.64,-11.3l-7.95 0c-0.71,1.06 -4.2,6.98 -4.69,7.34 0.07,-0.79 0.63,-2.52 0.89,-3.39 0.5,-1.7 2.58,-9.06 2.58,-10.27 -10.65,0 -9.21,-0.69 -9.87,1.75 -0.23,0.84 -0.39,1.36 -0.6,2.25l-4.73 17.5c-0.46,1.62 -0.73,2.9 -1.19,4.52l-2.36 8.85z"/>
   <path class="fil1" d="M315.45 15.29l0 0zm0 0c0.02,-0.92 1.4,-5.57 1.75,-6.82 0.34,-1.2 0.61,-2.28 0.9,-3.38 0.25,-0.96 0.79,-2.46 0.81,-3.47l-9.38 0 -7.06 25.97c-0.43,1.48 -0.8,2.83 -1.17,4.33 -0.34,1.37 -1.03,3.25 -1.14,4.57l9.58 0c0.05,-0.55 2.67,-10.8 3.06,-11.42l-0.41 11.42 8.39 0.02c1.49,-0.07 0.88,-0.38 0.79,-1.65 -0.12,-1.67 -0.01,-3.8 -0.01,-5.51 0,-2.13 -0.21,-3.46 -0.2,-5.51 0.02,-6.67 -0.41,-3.85 4.62,-12.3 0.52,-0.87 1.88,-2.77 2.11,-3.61l-8.16 0c-0.19,0.8 -3.12,5.26 -3.83,6.36l-0.65 0.98z"/>
   <path class="fil1" d="M438.81 10.2c0.19,-0.81 0.54,-1.38 0.61,-2.24l-9.58 0 -7.75 28.55 9.58 0c1.25,-5.35 3.58,-12.89 5.02,-18.64 0.54,-2.14 1.07,-5.22 2.73,-5.22 1.94,0 0.99,1.17 -0.32,6.4l-3.12 11.56c-0.36,1.22 -1.43,4.87 -1.45,5.89l8.97 0c0.81,0 1,-2.12 1.45,-3.65l3.24 -12.05c0.69,-2.62 1.6,-5.42 2.01,-8.19 0.97,-6.54 -6.85,-6.02 -10.08,-3.56 -0.57,0.43 -0.74,0.76 -1.3,1.14z"/>
   <path class="fil1" d="M160.41 76.54c1.37,0.46 3.63,0.65 5.24,1.07 1.65,0.44 3.33,1.02 4.5,1.83 3.38,2.37 3.69,3.81 2.61,9.11 -1.26,6.14 -4.07,15.79 -4.91,20.84l-28.11 0c0.38,-2.54 3.23,-13.61 4.05,-16.99 0.54,-2.23 1.79,-6.46 1.56,-8.77 -0.29,-2.95 -4.99,-2.73 -7.96,-2.73l-6.82 28.41 -30.28 0.08c0.5,-2.97 2.91,-12.26 3.79,-15.91l9.53 -39.42c0.32,-1.32 0.61,-2.62 0.94,-3.94 0.18,-0.69 0.33,-1.31 0.48,-1.98 0.24,-1.02 0.2,-1.78 0.79,-1.96 9.38,0 18.76,0.01 28.14,0 7.36,-0.01 19.93,-0.08 26.41,1.83 8.51,2.51 11.11,8.1 7.85,17.84 -2.2,6.55 -5.34,8.58 -11.49,9.73 -1.4,0.26 -5.48,0.47 -6.32,0.95zm-62.12 34.39l33.64 0c0.07,-0.85 0.57,-2.66 0.77,-3.51 0.3,-1.27 0.58,-2.32 0.9,-3.59l5.06 -21.45c1.72,0 3.49,0.29 4.89,0.61 0.33,3.95 -1.66,10.3 -2.61,14.11l-2.49 10.36c-0.24,0.95 -0.74,2.51 -0.82,3.47l31.4 0 4.64 -18.81c1.58,-7.48 2.72,-9.09 -1.63,-13.16 -1.71,-1.61 -3.04,-1.49 -3.62,-2.29 2.02,-0.04 5.3,-1.68 6.69,-2.9 3.96,-3.47 6.16,-10.03 6.16,-15.25 0,-6.46 -4.13,-9.49 -8.82,-11.36 -2.73,-1.09 -4.87,-1.3 -8.24,-1.75l-9.64 -0.55c-3.52,0.01 -6.32,-0.2 -9.79,-0.2l-30.59 0c-0.62,2.67 -1.34,5.57 -2,8.2l-12.97 53.71c-0.28,1.11 -0.91,3.3 -0.94,4.36z"/>
   <path class="fil1" d="M347.26 31.81c-2.39,0 0.07,-5.46 0.26,-5.85 0.61,-1.22 2.24,-2.3 3.41,-2.92 -0.18,0.79 -1.93,7.63 -2.53,8.28 -0.25,0.27 -0.74,0.49 -1.14,0.49zm-6.93 -12.64l8.36 0c0.71,0 0.69,-0.81 0.89,-1.56 0.19,-0.7 0.34,-1.35 0.51,-1.93 0.57,-1.95 0.46,-3.03 2.47,-3.03 1.74,0 -0.33,5.26 -0.57,5.55 -0.51,0.62 -2.88,1.44 -3.74,1.76 -2.59,0.97 -6.01,1.71 -7.96,3.26 -2.19,1.73 -4.62,10.05 -2.86,12.11 1.71,1.99 6.74,2.31 9.47,0.01 0.47,-0.39 0.7,-0.55 1.18,-0.86 -0.16,0.7 -0.39,1.22 -0.41,2.04l8.77 0c0.83,0 0.63,-0.89 1.11,-2.56 0.3,-1.07 0.54,-1.96 0.85,-3.03 1.11,-3.91 4.37,-15.64 4.37,-18.47 0,-5.62 -11.42,-7.14 -18.33,-2.01 -2.26,1.68 -4.11,6.39 -4.11,8.74z"/>
   <path class="fil1" d="M495.09 31.81c-0.55,0 -0.56,-0.1 -1.02,-0.2 0,-3.29 1.16,-7.59 4.49,-8.36l-1.22 4.69c-0.33,1.27 -0.77,3.88 -2.24,3.88zm-6.53 -12.64l7.75 0c1.64,0 1.18,-6.53 3.26,-6.53 0.46,0 1.43,-0 1.43,0.61 0,1.32 -0.37,2.68 -0.73,3.75 -0.55,1.62 -0.79,1.59 -2.29,2.19 -2.11,0.84 -4.61,1.61 -6.79,2.39 -0.78,0.28 -2.37,1.05 -2.98,1.5 -2.4,1.79 -3.72,7.88 -3.72,9.94 0,1.44 0.55,2.27 1.42,2.86 2.05,1.4 5.48,1.31 7.69,0.13 1.2,-0.64 1.42,-1.18 2.31,-1.77 -0.19,0.8 -0.44,1.49 -0.61,2.24l9.38 0c0.09,-1.07 4.91,-17.68 5.57,-21.76 0.3,-1.86 0.54,-2.81 -0.4,-4.42 -2.45,-4.2 -16.81,-5.04 -20.5,4.12 -0.3,0.75 -0.59,1.49 -0.83,2.44 -0.38,1.5 -0.94,2.29 0.04,2.29z"/>
   <path class="fil1" d="M278.95 31.81c-2.3,0 -0.09,-4.93 0.27,-5.65 0.88,-1.78 1.9,-2.11 3.4,-3.12 -0.39,1.66 -0.81,3.18 -1.27,4.85 -0.38,1.41 -0.67,3.92 -2.41,3.92zm-6.93 -12.64l8.36 0c1.65,0 0.87,-6.53 3.47,-6.53 1.58,0 1.25,1.15 0.74,3.19 -0.77,3.04 -1.18,2.99 -5.1,4.28 -3.8,1.26 -7.35,1.93 -8.97,5.1 -0.94,1.85 -1.97,5.69 -1.97,8.23 0,3.43 5.88,4.86 10.08,1.92 0.56,-0.39 0.66,-0.58 1.14,-0.9 -0.07,0.81 -0.34,1.23 -0.41,2.04l9.18 0 4.73 -17.5c1.4,-5.61 3.47,-11.66 -7.38,-11.66 -5.01,0 -10.46,1.94 -12.41,6.75 -0.46,1.14 -1.42,3.66 -1.45,5.07z"/>
   <path class="fil1" d="M177.4 31.81c-1.64,0 -0.27,-3.56 0.25,-5.46 0.42,-1.54 0.87,-3.1 1.3,-4.82 0.43,-1.7 0.91,-3.17 1.31,-4.81 0.68,-2.76 0.85,-4.08 2.65,-4.08 1.51,0 -0.03,3.77 -0.45,5.46l-3.34 12.16c-0.31,0.91 -0.6,1.55 -1.72,1.55zm-2.65 5.1c3.77,0 6.7,-0.05 9.79,-2.24 4.68,-3.32 4.86,-7.35 6.5,-12.87 1.62,-5.45 3.45,-9.92 -0.91,-12.91 -3.55,-2.43 -11.27,-1.97 -15.12,1.17 -0.36,0.29 -0.72,0.54 -1.02,0.81 -2.29,2.08 -3.51,6.37 -4.22,9.24 -0.65,2.63 -2.49,8.5 -2.56,10.9 -0.02,0.78 0.36,2.1 0.6,2.64 1.08,2.43 4.1,3.26 6.94,3.26z"/>
   <path class="fil1" d="M409.65 31.81c-0.47,0 -0.24,-0.07 -0.81,-0.2 -0.41,-1.77 2.91,-12.42 3.55,-15.01 0.59,-2.39 0.86,-3.96 2.57,-3.96 1.62,0 -0.26,5.01 -0.49,5.83l-2.57 9.46c-0.33,1.27 -0.77,3.88 -2.24,3.88zm-10.2 -1.43c0,2.29 0.04,3.79 2.12,5.22 2.04,1.41 5.34,1.31 7.87,1.31 5.58,0 10.13,-3.59 11.55,-7.82 0.86,-2.56 1.47,-4.87 2.23,-7.56 1.26,-4.44 3.49,-10.08 -1.14,-12.75 -3.91,-2.26 -10.3,-1.69 -14.06,0.61 -4.45,2.73 -5.45,7.93 -6.74,12.84 -0.51,1.94 -1.83,6.34 -1.83,8.16z"/>
   <path class="fil1" d="M403.52 46.19l50.52 0.01 -3.09 12.67 -20.15 0.07 -2.85 11.87 18.84 0.02 -2.86 12.06 -18.91 0.01 -3.3 13.81 22.13 0.05 -3 12.64 -52.53 -0.01 15.2 -63.19zm-17.12 64.74l55.26 0c0.75,0 1.03,-2.13 1.34,-3.55l2.94 -12.15 -22.23 0c0.83,-3.58 1.82,-7.24 2.65,-10.81l18.76 0c0.39,-0.81 0.74,-2.77 0.98,-3.71 0.34,-1.35 0.61,-2.38 0.91,-3.78l1.36 -5.57c0.15,-0.73 0.37,-1.32 0.42,-2.02l-18.76 0 1.02 -4.49c0.27,-1.09 0.99,-3.39 1.02,-4.49l19.78 0c0.75,0 1.03,-2.13 1.34,-3.55l2.94 -12.15 -53.83 0c-0.43,0.89 -7.78,31.92 -8.03,32.95 -0.32,1.29 -7.87,31.71 -7.87,33.32z"/>
   <path class="fil1" d="M194.73 46.19l50.42 0.01 -3.11 12.67 -19.79 0c-0.62,0.16 -0.9,2.34 -1.03,2.9 -0.66,2.85 -1.64,6.25 -2.15,9.04l18.79 0.04c-0.28,1.88 -0.97,4.17 -1.44,6.12 -0.15,0.62 -1.07,5.71 -1.73,5.91l-18.56 -0.02 -3.31 13.84 22.05 0c-0.03,0.63 -2.59,12.45 -3.24,12.69l-52.2 -0.05 15.29 -63.15zm-17.33 64.73l55.87 0c0.13,-1.51 3.64,-14.19 3.67,-15.7l-22.02 0c0.16,-1.9 2.42,-9.47 2.45,-10.81l18.96 0c1.17,-5.03 2.5,-10.09 3.67,-15.09l-18.96 0 2.24 -8.97 20.19 0c0.13,-1.51 3.64,-14.19 3.67,-15.7l-53.83 0 -1.95 8.24c-1.72,7.9 -4.05,16.76 -5.96,24.83l-7.99 33.19z"/>
   <path class="fil1" d="M122.96 17.94c0,3.3 0.94,3.81 3.83,5.75l4.03 2.49c1.2,0.77 1.68,1.05 0.48,4.17 -0.82,2.15 -3.04,1.42 -3.04,0.83 0,-1.85 0.66,-3.35 1.02,-4.89l-8.56 0c-0.17,2.1 -2.92,7.13 1.44,9.37 4.33,2.23 12.84,1.54 15.95,-1.98 1.77,-2.01 3.21,-5.93 3.21,-8.62 0,-3.34 -4.48,-5 -6.97,-6.48 -0.87,-0.52 -2.2,-1.21 -2.2,-2.49 0,-3.97 3.26,-4.02 3.26,-2.85 0,1.59 -0.71,2.57 -0.82,3.87l8.56 0c0.04,-2.03 3.47,-7.24 -3.23,-9.21 -5.04,-1.48 -13.06,-0.66 -15.73,5.33 -0.41,0.93 -1.22,3.41 -1.22,4.69z"/>
   <path class="fil1" d="M226.95 18.15c0,2.89 1.05,3.94 3.94,5.65 0.55,0.33 5.03,2.77 5.03,3.53 0,1.02 -0.32,2.18 -0.58,2.89 -0.75,2.09 -3.09,2.06 -3.09,0.58 0,-0.85 0.75,-3.93 1.02,-4.49l-8.56 0c-0.46,1.97 -1.02,3.32 -1.02,5.71 0,6.3 14.55,6.25 18.39,1.67 1.57,-1.88 3.23,-5.8 3.23,-8.4 0,-5.14 -9.18,-6.36 -9.18,-8.77 0,-5.18 3.26,-3.92 3.26,-3.47 0,1.56 -0.7,2.66 -0.81,4.08l8.56 0c0.06,-2.65 2.15,-4.82 -0.15,-7.4 -2.87,-3.21 -15.48,-4.36 -18.88,3.66 -0.51,1.2 -1.16,3.16 -1.16,4.75z"/>
   <path class="fil1" d="M461.85 30.79c0,7.58 10.51,6.78 14.74,4.95 4.07,-1.75 5.67,-4.93 6.9,-8.6 0.24,-0.72 0.47,-1.8 0.79,-2.47l-8.56 0c-0.87,1.81 -1.13,7.14 -3.47,7.14 -0.47,0 -0.24,-0.07 -0.82,-0.2 -0.54,-2.32 0.14,-3.09 0.86,-5.87l2.44 -9.18c0.65,-2.66 0.83,-3.91 2.61,-3.91 1.7,0 -0.61,6.12 -0.61,6.12l9.18 0c0.02,-0.93 0.32,-1.59 0.5,-2.56 0.18,-1.01 0.32,-1.88 0.32,-2.94 0,-5.68 -8.73,-7.78 -16.32,-3.88 -2.36,1.22 -3.67,2.94 -4.6,5.39l-2.25 7.74c-0.61,2.45 -1.71,5.49 -1.71,8.28z"/>
   <path class="fil1" d="M322.99 36.5l9.79 0 4.61 -17.41c0.45,-1.81 4.54,-16.2 4.57,-17.45l-9.79 0 -4.62 17.4c-0.38,1.32 -4.53,16.32 -4.56,17.46z"/>
   <path class="fil1" d="M215.94 8.56l-2.04 0c-0.17,0.74 -0.42,1.45 -0.61,2.24 -0.18,0.74 -0.55,1.73 -0.61,2.45l2.04 0 -1.34 4.77c-0.68,2.71 -3.75,13.06 -3.75,15.01 0,4.32 7.48,3.47 11.42,3.47 0.02,-0.81 0.5,-2.25 0.73,-3.14 0.59,-2.25 0.85,-1.53 -1.36,-1.74 -0.77,-0.07 -0.86,-0.12 -0.78,-0.96l4.67 -17.41 2.45 0c0.23,-0.48 1.17,-4.03 1.22,-4.69l-2.45 0c0.3,-1.31 1.02,-3.05 1.02,-4.49l-8.97 0c-0.69,0 -0.66,0.65 -1.02,2.04 -0.21,0.81 -0.42,1.63 -0.61,2.45z"/>
   <path class="fil1" d="M206.15 11.01c0.22,-0.94 0.94,-2.1 1.02,-3.06l-9.58 0 -7.54 28.55 9.58 0 3.08 -11.6c1.39,-4.7 1.21,-7.36 7.52,-7.36l2.04 -7.54c0.2,-0.81 0.59,-1.8 0.61,-2.65 -1.38,0.12 -2.89,0.65 -3.84,1.26 -1.99,1.29 -1.93,1.77 -2.89,2.41z"/>
   <path class="fil1" d="M345.99 109.39c0.43,-2.6 1.29,-5.45 1.89,-8.04 0.61,-2.61 1.25,-5.29 1.9,-7.88 1.33,-5.29 2.55,-10.5 3.81,-15.77 0.84,-3.52 7.17,-30.57 7.74,-31.52l30.17 0.01 -15.21 63.19 -30.3 0zm-1.99 1.53l33.64 0c0.1,-1.26 0.62,-2.89 0.94,-4.16 0.36,-1.46 0.61,-2.64 0.98,-4.12l7.99 -32.99c0.72,-2.89 1.37,-5.48 2,-8.4 0.6,-2.76 1.31,-5.46 1.99,-8.2l2 -8.4 -32.44 -0.02c-1.85,-0.02 -1.28,0.27 -1.69,1.98 -0.5,2.06 -0.9,3.83 -1.43,5.91l-8.44 34.99c-0.93,3.95 -1.9,7.64 -2.82,11.66 -0.46,2.02 -2.73,10.46 -2.73,11.75z"/>
   <path class="fil1" d="M447.17 36.5l9.79 0 7.54 -28.55 -9.79 0 -2.85 10.6c-0.57,2.16 -4.66,16.75 -4.69,17.94z"/>
   <path class="fil1" d="M384.78 36.5l9.79 0c0.55,-2.37 1.23,-4.7 1.88,-7.09 0.5,-1.84 5.64,-20.43 5.67,-21.45l-9.79 0c-0.56,2.42 -1.26,4.68 -1.88,7.09 -0.58,2.29 -1.23,4.67 -1.91,7.06l-3.76 14.39z"/>
   <path class="fil1" d="M611.93 25.29l0 3.67c0,0.94 -0.66,0.38 0.67,1.98 4.41,5.24 7.38,12.31 8.82,19.12 0.49,2.29 0.31,1.1 2.42,3.9 0.96,1.27 1.49,2.42 2.22,3.9l2.17 4.15 0.2 -2.85c0,-6.86 -1,-12.87 -2.98,-18.84 -0.8,-2.41 -1.25,-3.19 -2.09,-5.25 -1.16,-2.86 -3.62,-6.77 -5.42,-9.27 -1.41,-1.97 -5.35,-6.73 -7.05,-7.63 0.74,3.17 1.02,3.3 1.02,7.14z"/>
   <path class="fil1" d="M544.64 5.51c1.04,0.24 2.23,0.37 3.26,0.61l6.23 1.51c5.97,1.71 2.08,0.66 7.42,0.53 7.37,-0.18 6.53,-0.45 14.52,0.39 1.25,0.13 7.92,-2.45 10.61,-3.2l2.61 -0.86c-2.74,-0.64 -4.25,-1.48 -8.65,-2.36 -7.95,-1.59 -18.44,-1.57 -26.3,0.24 -1.89,0.43 -3.32,0.83 -5.02,1.3 -0.89,0.25 -3.94,1.19 -4.69,1.84z"/>
   <path class="fil1" d="M587.66 111.33c1.75,-0.41 7.87,-3.1 9.65,-4.01 0.8,-0.41 1.28,-0.72 2.1,-1.16 4.92,-2.62 9.62,-6.77 13.48,-10.59l4.74 -5.66c0.48,-0.67 0.96,-1.35 1.43,-2.04l-2.47 0.79c-0.95,0.28 -1.78,0.45 -2.81,0.65 -3.66,0.72 -2.79,-0.21 -4.65,2.28 -3.79,5.08 -9.34,9.62 -15.39,11.94 -2.14,0.82 -2.09,3.03 -4.51,5.89 -0.52,0.61 -1.16,1.29 -1.57,1.9z"/>
   <path class="fil1" d="M60.56 45.88l1.47 -6.08c0.48,-1.93 1,-4.02 1.47,-6.07 0.33,-1.45 2.77,-11.18 2.77,-12.32 1.79,0 3.96,0.23 5.59,0.52 3.53,0.64 3.75,2.39 2.64,6.7 -0.33,1.27 -0.58,2.51 -0.86,3.63 -0.75,3.04 -1.49,7.71 -3.05,10.2 -2.19,3.48 -5.11,3.42 -10.03,3.42zm4.44 -25.95c-0.48,3.18 -4.3,18.23 -5.44,23.13 -0.21,0.92 -1.2,4.08 -0.72,4.3 0.45,0.21 4.67,0.04 5.43,-0.04 9.31,-0.93 9.2,-7.26 11.54,-16.98 0.75,-3.11 1.84,-7.19 -0.83,-8.89 -2.17,-1.38 -7.08,-1.52 -9.99,-1.52z"/>
   <path class="fil1" d="M141.92 69.53c0.07,-0.85 0.42,-1.84 0.59,-2.67l2.06 -8.34c2.31,0 5.1,0.06 5.1,1.84 0,1.36 -1.2,5.63 -1.65,6.71 -0.49,1.16 -0.94,1.71 -2.26,2.02 -0.82,0.19 -2.96,0.45 -3.83,0.45zm-2.11 1.47c7.46,0.01 9.14,-0.31 10.63,-6.2 0.52,-2.05 1.73,-5.37 -0.01,-6.64 -1.47,-1.07 -5.2,-1.16 -7.28,-1.11l-3.33 13.95z"/>
   <path class="fil1" d="M491.01 69.53l2.65 -11.01c3.28,0 3.28,0.39 5.1,0.82 0,2.36 -0.63,5.45 -1.48,7.49 -0.98,2.37 -2.95,2.7 -6.27,2.7zm-1.99 1.43c1.85,0.17 6.02,-0.13 7.5,-0.82 2.8,-1.3 5,-10.22 3.28,-11.85 -1.32,-1.25 -5.02,-1.26 -7.16,-1.26 -0.76,0.52 -0.86,2.33 -1.07,3.26 -0.74,3.2 -2.05,7.75 -2.55,10.67z"/>
   <path class="fil1" d="M555.45 42.21l4.89 0.61c3.41,0 6.39,-0.21 9.58,-0.2l9.38 -0.41c0.03,1.47 5.48,16.61 6.75,19.35l0.13 0.27c0.15,0.27 0.11,0.2 0.25,0.36l-5.91 -21.41c-1.35,0 -1.96,0.18 -3.05,0.21l-7.75 0.4c-0.89,0.05 -0.74,0.16 -1.63,0.2 -4.29,0.22 -8.26,0.61 -12.64,0.61z"/>
   <path class="fil1" d="M455.12 6.32l9.99 0c0.04,-1.63 0.98,-3 1.02,-4.69l-9.79 0 -1.22 4.69z"/>
   <path class="fil1" d="M392.93 6.32l9.79 0c0.14,-1.65 1.02,-2.96 1.02,-4.69l-9.79 0c-0.02,0.87 -0.32,1.46 -0.53,2.32 -0.2,0.82 -0.47,1.53 -0.49,2.37z"/>
   <path class="fil1" d="M549.33 9.18c-1.36,2.03 -5.27,6.61 -5.91,9.38 1.16,-0.31 3.23,-3.72 4.33,-5.05l4.24 -5.14c-2.05,-0.48 -6.33,-0.67 -9.18,-2.04 0.43,1.6 5.62,2.78 6.53,2.86z"/>
  </g>
 </g>
</svg>
