<?xml version="1.0" encoding="UTF-8"?>
<!DOCTYPE svg PUBLIC "-//W3C//DTD SVG 1.1//EN" "http://www.w3.org/Graphics/SVG/1.1/DTD/svg11.dtd">
<!-- Creator: CorelDRAW 2020 (64-Bit) -->
<svg xmlns="http://www.w3.org/2000/svg" xml:space="preserve" width="77.0654mm" height="12.2104mm" version="1.1" style="shape-rendering:geometricPrecision; text-rendering:geometricPrecision; image-rendering:optimizeQuality; fill-rule:evenodd; clip-rule:evenodd"
viewBox="0 0 946.82 150.02"
 xmlns:xlink="http://www.w3.org/1999/xlink"
 xmlns:xodm="http://www.corel.com/coreldraw/odm/2003">
 <defs>
  <style type="text/css">
   <![CDATA[
    .fil0 {fill:#E20000}
    .fil1 {fill:#EA232A}
    .fil2 {fill:white}
   ]]>
  </style>
 </defs>
 <g id="Layer_x0020_1">
  <metadata id="CorelCorpID_0Corel-Layer"/>
  <g id="_1935784331040">
   <rect class="fil0" width="651.45" height="150.02"/>
   <g>
    <path class="fil1" d="M697.99 107.8l0 -24.25c10.63,0 31.92,-2.35 32.37,11.72 0.51,15.79 -21.4,12.54 -32.37,12.54zm0 -44.02l0 -22.46c9.45,0 28.74,-2.02 28.74,10.78 -0.01,13.79 -18.66,11.67 -28.74,11.67zm-26.95 66.48l48.45 0c17.01,0 37.79,-10.17 37.79,-29.64 0,-23.73 -12.38,-23.32 -20.5,-28.58 13.05,-9.26 16,-9.42 16,-26.22 0,-17.19 -19.15,-26.05 -34.14,-26.05l-47.59 0 -0.01 110.49z"/>
    <path class="fil1" d="M774.34 130.25l77.25 0 0 -23.36 -51.2 0 0 -21.56c11.12,0 35.59,0.49 45.25,-0.33 1.2,-7.29 0.61,-14.75 0.56,-22.13l-45.81 0 0 -19.76 48.51 0 0 -23.36 -74.56 0 0 110.49z"/>
    <path class="fil2" d="M598.14 86.24c-6.89,24.94 -42.61,14.6 -35.44,-12.19 6.55,-24.49 42.7,-14.05 35.44,12.19zm-25.23 -47.18c-56.73,8.19 -43.82,92.1 15.33,82.73 54.6,-8.65 44.96,-91.44 -15.33,-82.73z"/>
    <path class="fil2" d="M163.24 60.61c25.4,-5.41 30.65,34.02 8.57,39.28 -25.77,6.14 -31.46,-34.4 -8.57,-39.28zm47.38 25.63c7.25,-58.38 -80.34,-64.04 -86.76,-12.6 -7.42,59.42 80.19,65.47 86.76,12.6z"/>
    <path class="fil2" d="M468.6 51.52l-0.19 -10.43 -25.09 0 0.03 78.79 26.24 0c-0.04,-12.12 -0.03,-24.23 -0.04,-36.35 -0.01,-9.27 0.03,-22.03 12.06,-23.1 13.92,-1.23 13.37,11.76 13.36,22.2 -0,5.75 -0.69,33.92 0.44,37.25l25.83 0c-0,-17.04 2.81,-55.85 -5.22,-69.08 -10.36,-17.06 -39.1,-14.47 -47.42,0.71z"/>
    <path class="fil1" d="M857.89 43.12l30.65 0c-0.03,21.12 -0.95,68.35 0.19,86.54 9.1,1.28 18.37,0.64 27.55,0.6l0 -87.14 30.54 0 0 -23.36 -88.93 0 0 23.36z"/>
    <path class="fil2" d="M400.11 85.86c0.38,6.05 -1,13.01 -6.33,15.96 -5.05,2.8 -13.72,3.88 -18.28,-0.34 -9.7,-8.99 7.07,-18.27 24.6,-15.62zm-47.1 -34.7c8.57,10.36 2.24,4.05 13.16,14.7 2.78,-5.59 31.88,-16.4 33.35,4.19 -20,2.79 -54.43,0.61 -50.3,31.49 3.25,24.33 42.05,25.36 50.96,10.37l-0.1 7.98 24.14 0c0,-19.87 4.26,-59.05 -10.26,-73.03 -8.52,-8.21 -21.15,-9.37 -32.93,-7.97 -12.51,1.48 -18.51,5.32 -28.03,12.27z"/>
    <path class="fil2" d="M58.45 119.78l26.89 0.11c2.42,-1.38 1.62,-0.51 2.91,-3.81 0.68,-1.73 1.31,-3.44 1.99,-5.18 6.13,-15.63 24.62,-60.57 27.18,-69.55l-27.86 -0.28 -16.18 50.39 -16.87 -49.93 -28.79 -0.46 30.72 78.7z"/>
    <path class="fil2" d="M343.55 112.29l-14.14 -17.57c-4.29,5.36 -14.28,6.93 -20.72,4.41 -7.79,-3.05 -11.62,-9.67 -11.75,-18.27 -0.28,-18.19 18.39,-27.32 31.84,-14.63 3.44,-3.52 13.85,-14.14 14.84,-18.24 -15.8,-8.94 -30.82,-13.83 -48.83,-5.62 -35.46,16.17 -29.66,63.94 -0.79,75.96 13.42,5.59 39.99,6.25 49.55,-6.03z"/>
    <polygon class="fil2" points="227.53,119.89 254.67,119.89 254.23,0.21 227.55,0.21 "/>
    <path class="fil1" d="M598.14 86.24c7.26,-26.25 -28.88,-36.68 -35.44,-12.19 -7.17,26.79 28.55,37.14 35.44,12.19z"/>
    <path class="fil1" d="M163.24 60.61c-22.89,4.88 -17.21,45.42 8.57,39.28 22.08,-5.26 16.84,-44.7 -8.57,-39.28z"/>
    <path class="fil1" d="M400.11 85.86c-17.53,-2.65 -34.3,6.63 -24.6,15.62 4.55,4.22 13.22,3.14 18.28,0.34 5.33,-2.95 6.7,-9.91 6.33,-15.96z"/>
   </g>
  </g>
 </g>
</svg>
