<?xml version="1.0" encoding="UTF-8"?>
<!DOCTYPE svg PUBLIC "-//W3C//DTD SVG 1.1//EN" "http://www.w3.org/Graphics/SVG/1.1/DTD/svg11.dtd">
<!-- Creator: CorelDRAW 2020 (64-Bit) -->
<svg xmlns="http://www.w3.org/2000/svg" xml:space="preserve" width="58.5059mm" height="30.5742mm" version="1.1" style="shape-rendering:geometricPrecision; text-rendering:geometricPrecision; image-rendering:optimizeQuality; fill-rule:evenodd; clip-rule:evenodd"
viewBox="0 0 227.75 119.02"
 xmlns:xlink="http://www.w3.org/1999/xlink"
 xmlns:xodm="http://www.corel.com/coreldraw/odm/2003">
 <defs>
  <style type="text/css">
   <![CDATA[
    .fil0 {fill:#E7253F}
    .fil1 {fill:#FAFAFB}
   ]]>
  </style>
 </defs>
 <g id="Layer_x0020_1">
  <metadata id="CorelCorpID_0Corel-Layer"/>
  <g id="_1867864292928">
   <rect class="fil0" y="0" width="227.75" height="119.02"/>
   <g>
    <path class="fil1" d="M98.5 48.06l-8.84 0.24c-1.24,1.88 -2.04,3.65 -2.88,5.63l-3.31 5.87 -1.07 -11.6 -8.14 0.07c-2.45,4.59 -4.08,7.64 -6.74,11.73l-0.25 -11.95 -8.74 0.15 1.77 23.15 9.18 -0.09 6.93 -11.96 0.92 11.46c2.45,0.91 6.31,0.69 9.56,0.53l11.62 -23.23z"/>
    <path class="fil1" d="M131.92 48.11l-8.43 0.03c-2.47,2.82 -4.6,8.47 -6.57,11.87l-1.25 -11.9 -8.06 -0.02c-0.93,2.74 -4.47,9.44 -6.75,11.77l-0.36 -7.03c-3.13,5.37 -7.81,11.58 -6.88,18.45l9.27 0.05 6.75 -11.87 1.19 11.85 9.38 0.1 11.7 -23.3z"/>
    <path class="fil1" d="M149.91 71.1c1.34,-5.07 1.59,-15.55 6.74,-15.92 6.84,-0.49 1.41,7 0.79,16.18l8.21 -0.13c4.03,-10.8 8.15,-28.53 -8.57,-22.36 -3.63,1.34 -0.31,-1.44 -10.76,-0.65l-4.94 23.07 8.53 -0.18z"/>
    <polygon class="fil1" points="142.3,48.12 133.69,48.32 128.87,71.35 137.26,71.29 "/>
   </g>
  </g>
 </g>
</svg>
