<?xml version="1.0" encoding="UTF-8"?>
<!DOCTYPE svg PUBLIC "-//W3C//DTD SVG 1.1//EN" "http://www.w3.org/Graphics/SVG/1.1/DTD/svg11.dtd">
<!-- Creator: CorelDRAW 2020 (64-Bit) -->
<svg xmlns="http://www.w3.org/2000/svg" xml:space="preserve" width="33.6024mm" height="28.6012mm" version="1.1" style="shape-rendering:geometricPrecision; text-rendering:geometricPrecision; image-rendering:optimizeQuality; fill-rule:evenodd; clip-rule:evenodd"
viewBox="0 0 285.03 242.61"
 xmlns:xlink="http://www.w3.org/1999/xlink"
 xmlns:xodm="http://www.corel.com/coreldraw/odm/2003">
 <defs>
  <style type="text/css">
   <![CDATA[
    .fil1 {fill:#EC098D}
    .fil0 {fill:white}
   ]]>
  </style>
 </defs>
 <g id="Layer_x0020_1">
  <metadata id="CorelCorpID_0Corel-Layer"/>
  <g id="_1899467108000">
   <path class="fil0" d="M80.87 25.12c1.16,0.61 2.49,1.04 3.75,1.67 5.89,2.97 11.17,6.73 16.32,10.81 1.98,1.57 4.04,3.26 5.8,5.05 0.98,0.99 1.83,1.63 2.81,2.61l10.65 11.05c0.92,0.9 1.64,1.94 2.51,2.91 0.84,0.95 1.65,1.98 2.42,3.01 3.14,4.24 2.41,3.88 -1.29,8.47 -0.48,0.59 -0.83,0.93 -1.29,1.52 -0.47,0.61 -0.7,0.83 -1.17,1.44l-2.58 2.85c-2.97,3.36 -6.17,6.57 -9.35,9.74 -6.5,6.5 -16.8,14.5 -24.87,18.53 -1.28,0.64 -2.54,1.09 -3.72,1.71l0 24.51c13.92,-3.24 25.26,-11.08 34.83,-18.83 0.63,-0.51 1.2,-0.9 1.79,-1.42 4.21,-3.68 8.3,-7.29 12.26,-11.25l11.18 -12.33c0.52,-0.66 0.95,-1.32 1.63,-1.78l4.45 5.4c2.25,2.79 4.8,5.24 7.16,7.91l7.73 7.34c0.64,0.65 1.08,0.88 1.71,1.5 1.71,1.7 3.69,3.17 5.59,4.66 7.63,6 15.61,11.84 24.75,15.44 2.4,0.95 4.85,1.92 7.41,2.64 0.81,0.23 1.94,0.65 2.7,0.72l0 -24.72c-3.6,-0.84 -10.76,-5.4 -13.83,-7.67 -1.08,-0.8 -2.08,-1.42 -3.16,-2.26 -1.07,-0.83 -2.02,-1.53 -3.04,-2.39 -0.52,-0.44 -0.92,-0.76 -1.42,-1.2l-19.6 -19.58c-1.15,-1.36 -5.16,-5.57 -5.16,-7.09 0,-2.27 0.69,-2.24 2.24,-4.19 1.97,-2.48 4.29,-4.75 6.2,-7.26l10.6 -10.9c2.04,-2.05 4.99,-4.38 7.24,-6.22 2.97,-2.43 6.06,-4.7 9.33,-6.75 1.15,-0.72 2.12,-1.4 3.31,-2.11 1.3,-0.77 5.86,-3.43 7.3,-3.55l0 -24.51c-2.34,0.05 -7.69,2.31 -9.88,3.18 -2.3,0.92 -4.46,2.09 -6.67,3.18l-4.24 2.39c-0.78,0.47 -1.43,0.83 -2.12,1.29 -9.66,6.39 -17.06,12.54 -25.37,20.85 -1.15,1.15 -2.16,2.17 -3.32,3.31l-4.72 5.13c-0.3,0.32 -0.5,0.48 -0.81,0.8l-3.02 3.61c-0.48,0.56 -0.54,0.34 -0.74,1.07 -1.05,-0.09 -2.79,-2.28 -3.57,-3.06l-18.48 -18.29c-3.52,-3.54 -9,-7.65 -12.94,-10.57 -3.2,-2.36 -6.76,-4.55 -10.35,-6.33 -5.47,-2.71 -10.81,-5.33 -16.95,-6.76l0 24.72z"/>
   <path class="fil0" d="M51.53 224.66l-21.3 0 0 -18.49c5.38,0 23.49,-0.43 27.61,0.52 3.6,0.83 7.55,3.17 7.55,7.52 0,2.71 0.23,4.1 -1.46,6.38 -2.51,3.38 -7.89,4.07 -12.41,4.07zm-2.41 -34.36l-18.89 0 0 -17.68 19.49 0c12.89,0 13.32,11.8 7.55,15.59 -1.83,1.2 -5.22,2.09 -8.15,2.09zm-37.37 -24.31l0 64.9c0,5.92 4.05,10.25 8.84,10.25l33.96 0c4.14,0 8.36,-0.74 11.66,-1.61 11.16,-2.92 18.08,-10.33 18.08,-22.11 0,-2.85 -0.46,-5.63 -1.26,-7.78 -0.79,-2.11 -1.7,-4.08 -3.31,-5.74 -1.55,-1.6 -2.97,-3.01 -4.89,-4.16 -1.31,-0.79 -4.7,-2.67 -6.22,-3.02 0.36,-0.49 1.38,-1.06 1.97,-1.45 0.8,-0.53 1.21,-0.86 1.97,-1.45 1.37,-1.07 2.33,-2.25 3.39,-3.65 4.56,-6.03 4.73,-16.66 0.68,-22.96 -5.29,-8.21 -14.83,-11.29 -25.68,-11.29l-29.14 0c-5.86,0 -10.05,4.19 -10.05,10.05z"/>
   <path class="fil0" d="M259.71 207.98l-28.88 -37.83c-2.55,-3.42 -7.91,-11.11 -11.26,-13.25 -3.74,-2.38 -16.92,-3.29 -16.92,9.09l0 65.91c0,1.49 0.31,2.92 0.72,4.1 2.76,7.97 15.39,8 17.68,-0.97 0.67,-2.64 0.29,-12.01 0.29,-15.59 0,-10.65 0,-21.3 0,-31.95 0.71,0.48 12.24,15.78 13.75,17.8l16.42 21.56c2.88,3.84 6.58,9.11 9.97,12.34 3.34,3.19 10.17,3.53 13.87,0.1 1.39,-1.29 3.06,-3.8 3.06,-6.38l0 -68.92c0,-4.31 -4.28,-8.64 -8.44,-8.64 -2.76,0 -4.83,0.25 -6.99,2.26 -1.4,1.3 -2.3,2.65 -2.89,4.74 -0.71,2.49 -0.37,11.31 -0.37,14.9 0,10.25 0,20.5 0,30.74z"/>
   <path class="fil0" d="M115.43 198.53c0,-5.27 1.53,-11 4.14,-14.95 4.28,-6.47 11.03,-11.57 20.38,-11.57 8.35,0 13.68,2.14 19.24,7.69 3.59,3.58 7.28,10.53 7.28,17.63l0 2.81c0,8.84 -4.9,16.34 -10.76,20.58 -8.23,5.96 -21.25,5.97 -29.37,-0.14 -0.62,-0.47 -1.27,-0.89 -1.82,-1.4 -5.16,-4.8 -9.09,-11.46 -9.09,-20.65zm-19.69 -1c0,7.15 0.54,10.12 2.59,16.3 2.57,7.77 7.79,14.45 14.01,19.35 18,14.19 47.35,12.3 62.83,-5.26 0.38,-0.43 0.5,-0.65 0.9,-1.11l3.48 -4.76c0.28,-0.47 0.56,-0.8 0.86,-1.35 5.8,-10.53 7.49,-22.14 4.36,-34.03 -0.49,-1.87 -1.43,-4.62 -2.21,-6.23 -0.86,-1.77 -1.75,-3.67 -2.85,-5.39 -2.8,-4.36 -5.77,-7.72 -9.78,-10.92 -8.14,-6.5 -18.38,-9.62 -29.37,-9.62 -11.27,0 -20.12,3.65 -28.39,9.79 -0.69,0.51 -0.93,0.82 -1.52,1.29 -0.66,0.53 -0.88,0.72 -1.49,1.33 -0.95,0.96 -1.8,1.69 -2.65,2.78 -3.24,4.16 -3.52,3.94 -6.55,9.93 -2.11,4.17 -4.22,11.61 -4.22,17.89z"/>
   <path class="fil1" d="M230.77 23.91c0,0.83 2.16,1.2 2.93,1.49 4.08,1.56 8.16,3.86 11.49,6.59 14.82,12.14 20.53,31.32 13.68,49.76 -3.54,9.53 -10.28,17.03 -18.82,22.17 -2.08,1.26 -5.56,2.88 -7.85,3.6 -0.55,0.17 -1.43,0.28 -1.43,0.98l0 22.3c0,0.91 0.95,0.42 2.45,0.04 1.08,-0.27 1.97,-0.46 3.04,-0.77 7.31,-2.12 11.7,-4.22 17.97,-8.15l4.49 -3.15c0.73,-0.55 1.44,-1.07 2.13,-1.69l3.92 -3.51c0.67,-0.67 1.28,-1.22 1.91,-1.91 5.41,-5.85 10.34,-13.17 13.31,-20.65 6.58,-16.56 6.75,-33.65 0.2,-50.24 -1.87,-4.75 -3.83,-8.15 -6.44,-12.25 -7.1,-11.16 -19.03,-20.28 -31.25,-25.21 -2.34,-0.94 -9.47,-3.28 -11.74,-3.33l0 23.91z"/>
   <path class="fil1" d="M54.14 107.91c-2.65,-0.22 -10.3,-4.46 -12.2,-5.88l-3.73 -2.9c-1.95,-1.9 -2.22,-1.83 -4.51,-4.53 -0.38,-0.45 -0.73,-0.92 -1.06,-1.35 -5.74,-7.34 -7.87,-13.6 -9.16,-22.59l-0.3 -4.34 0.83 -8.23c1.97,-9.72 6.01,-16.76 12.79,-23.58l2.38 -2.04c2.3,-1.79 4.1,-3.18 6.72,-4.53l3.08 -1.54c1.13,-0.54 4.09,-1.79 5.16,-1.88l0 -24.51c-4.6,0.1 -16.24,5 -20.79,7.75 -14.99,9.07 -25.89,22.29 -30.74,39.39 -8.1,28.54 3.08,58.08 27.33,74.32 0.87,0.58 1.59,1.02 2.45,1.57 0.92,0.58 1.77,0.97 2.69,1.53 5.02,3.05 12.32,5.28 18.11,6.66 1.19,0.28 0.95,0.18 0.94,-2.6l0 -20.7z"/>
  </g>
 </g>
</svg>
