<?xml version="1.0" encoding="UTF-8"?>
<!DOCTYPE svg PUBLIC "-//W3C//DTD SVG 1.1//EN" "http://www.w3.org/Graphics/SVG/1.1/DTD/svg11.dtd">
<!-- Creator: CorelDRAW 2020 (64-Bit) -->
<svg xmlns="http://www.w3.org/2000/svg" xml:space="preserve" width="33.6024mm" height="28.6013mm" version="1.1" style="shape-rendering:geometricPrecision; text-rendering:geometricPrecision; image-rendering:optimizeQuality; fill-rule:evenodd; clip-rule:evenodd"
viewBox="0 0 573.47 488.12"
 xmlns:xlink="http://www.w3.org/1999/xlink"
 xmlns:xodm="http://www.corel.com/coreldraw/odm/2003">
 <defs>
  <style type="text/css">
   <![CDATA[
    .fil0 {fill:#373435}
    .fil1 {fill:#EC098D}
   ]]>
  </style>
 </defs>
 <g id="Layer_x0020_1">
  <metadata id="CorelCorpID_0Corel-Layer"/>
  <g id="_1867866888464">
   <path class="fil0" d="M162.7 50.54c2.33,1.23 5.02,2.09 7.55,3.37 11.85,5.97 22.48,13.55 32.83,21.75 3.98,3.15 8.12,6.56 11.68,10.16 1.97,2 3.69,3.28 5.66,5.26l21.43 22.23c1.85,1.81 3.31,3.9 5.06,5.86 1.7,1.91 3.32,3.98 4.86,6.05 6.32,8.53 4.85,7.81 -2.6,17.04 -0.96,1.19 -1.68,1.87 -2.6,3.06 -0.95,1.22 -1.41,1.67 -2.36,2.89l-5.18 5.73c-5.97,6.76 -12.41,13.21 -18.8,19.61 -13.07,13.07 -33.79,29.17 -50.03,37.29 -2.57,1.29 -5.1,2.18 -7.48,3.44l0 49.32c28,-6.52 50.83,-22.3 70.07,-37.88 1.27,-1.03 2.4,-1.82 3.6,-2.87 8.48,-7.41 16.71,-14.67 24.67,-22.63l22.49 -24.82c1.05,-1.32 1.91,-2.66 3.29,-3.59l8.95 10.86c4.53,5.62 9.66,10.54 14.4,15.92l15.56 14.76c1.29,1.32 2.18,1.78 3.44,3.03 3.44,3.42 7.42,6.37 11.24,9.37 15.36,12.06 31.41,23.81 49.79,31.07 4.83,1.91 9.76,3.86 14.9,5.32 1.62,0.46 3.9,1.32 5.43,1.44l0 -49.73c-7.23,-1.69 -21.66,-10.86 -27.84,-15.42 -2.17,-1.61 -4.19,-2.86 -6.36,-4.56 -2.14,-1.68 -4.06,-3.07 -6.11,-4.81 -1.04,-0.88 -1.86,-1.52 -2.85,-2.4l-39.44 -39.4c-2.32,-2.75 -10.39,-11.21 -10.39,-14.27 0,-4.56 1.39,-4.51 4.5,-8.44 3.95,-5 8.62,-9.56 12.48,-14.61l21.32 -21.94c4.11,-4.13 10.03,-8.81 14.57,-12.52 5.98,-4.88 12.19,-9.46 18.77,-13.57 2.32,-1.45 4.26,-2.82 6.66,-4.25 2.61,-1.56 11.78,-6.91 14.69,-7.15l0 -49.32c-4.7,0.1 -15.48,4.65 -19.87,6.4 -4.63,1.85 -8.98,4.2 -13.42,6.4l-8.53 4.81c-1.58,0.95 -2.87,1.67 -4.27,2.6 -19.44,12.86 -34.32,25.22 -51.04,41.95 -2.32,2.32 -4.34,4.36 -6.67,6.67l-9.49 10.32c-0.59,0.64 -1.01,0.97 -1.63,1.6l-6.09 7.25c-0.97,1.12 -1.1,0.69 -1.49,2.15 -2.11,-0.17 -5.61,-4.59 -7.18,-6.16l-37.19 -36.8c-7.09,-7.12 -18.1,-15.39 -26.04,-21.26 -6.43,-4.76 -13.6,-9.15 -20.83,-12.73 -11.01,-5.45 -21.74,-10.73 -34.1,-13.61l0 49.73z"/>
   <path class="fil0" d="M103.68 452l-42.86 0 0 -37.2c10.82,0 47.27,-0.87 55.55,1.05 7.24,1.68 15.2,6.37 15.2,15.13 0,5.45 0.46,8.25 -2.94,12.83 -5.04,6.8 -15.87,8.19 -24.96,8.19zm-4.85 -69.14l-38 0 0 -35.58 39.22 0c25.93,0 26.81,23.75 15.19,31.36 -3.68,2.41 -10.49,4.21 -16.4,4.21zm-75.2 -48.92l0 130.59c0,11.91 8.14,20.62 17.79,20.62l68.33 0c8.32,0 16.81,-1.49 23.45,-3.23 22.45,-5.87 36.38,-20.79 36.38,-44.48 0,-5.73 -0.92,-11.33 -2.54,-15.65 -1.6,-4.25 -3.43,-8.21 -6.65,-11.54 -3.11,-3.22 -5.98,-6.05 -9.83,-8.36 -2.63,-1.58 -9.45,-5.37 -12.51,-6.08 0.72,-0.98 2.78,-2.12 3.96,-2.91 1.61,-1.07 2.43,-1.73 3.95,-2.92 2.76,-2.16 4.69,-4.53 6.81,-7.34 9.17,-12.12 9.52,-33.53 1.37,-46.19 -10.64,-16.53 -29.84,-22.72 -51.68,-22.72l-58.62 0c-11.8,0 -20.22,8.42 -20.22,20.22z"/>
   <path class="fil0" d="M522.52 418.44l-58.1 -76.12c-5.13,-6.88 -15.91,-22.36 -22.66,-26.66 -7.53,-4.79 -34.05,-6.63 -34.05,18.28l0 132.61c0,3 0.63,5.88 1.45,8.25 5.54,16.03 30.97,16.09 35.58,-1.96 1.36,-5.32 0.58,-24.16 0.58,-31.36 0,-21.43 0,-42.86 0,-64.28 1.44,0.96 24.62,31.74 27.66,35.81l33.04 43.37c5.8,7.73 13.24,18.32 20.05,24.82 6.73,6.42 20.47,7.11 27.91,0.21 2.8,-2.6 6.16,-7.64 6.16,-12.84l0 -138.67c0,-8.67 -8.62,-17.39 -16.98,-17.39 -5.56,0 -9.73,0.5 -14.06,4.54 -2.81,2.62 -4.62,5.33 -5.82,9.54 -1.43,5.01 -0.74,22.76 -0.74,29.99 0,20.62 0,41.24 0,61.86z"/>
   <path class="fil0" d="M232.24 399.44c0,-10.59 3.07,-22.13 8.32,-30.09 8.6,-13.03 22.19,-23.28 41,-23.28 16.8,0 27.53,4.31 38.71,15.46 7.23,7.2 14.66,21.19 14.66,35.48l0 5.66c0,17.78 -9.87,32.87 -21.66,41.41 -16.57,12 -42.75,12.01 -59.09,-0.29 -1.25,-0.94 -2.55,-1.79 -3.65,-2.82 -10.37,-9.65 -18.29,-23.06 -18.29,-41.55zm-39.62 -2.02c0,14.39 1.08,20.35 5.2,32.8 5.17,15.64 15.68,29.08 28.18,38.93 36.22,28.54 95.27,24.74 126.41,-10.59 0.76,-0.86 1.01,-1.31 1.82,-2.22l7 -9.58c0.57,-0.95 1.12,-1.61 1.73,-2.72 11.67,-21.18 15.06,-44.55 8.77,-68.46 -0.99,-3.75 -2.89,-9.3 -4.45,-12.53 -1.73,-3.56 -3.52,-7.38 -5.74,-10.84 -5.63,-8.77 -11.61,-15.53 -19.68,-21.97 -16.38,-13.08 -36.97,-19.35 -59.08,-19.35 -22.67,0 -40.49,7.35 -57.12,19.69 -1.38,1.02 -1.87,1.64 -3.06,2.6 -1.32,1.06 -1.77,1.45 -2.99,2.67 -1.92,1.93 -3.62,3.4 -5.33,5.59 -6.51,8.38 -7.09,7.93 -13.17,19.98 -4.24,8.39 -8.49,23.36 -8.49,35.98z"/>
   <path class="fil1" d="M464.31 48.11c0,1.67 4.34,2.41 5.9,3 8.2,3.14 16.41,7.77 23.12,13.27 29.81,24.43 41.3,63.01 27.53,100.11 -7.12,19.17 -20.69,34.26 -37.86,44.61 -4.19,2.53 -11.19,5.79 -15.8,7.24 -1.11,0.35 -2.88,0.56 -2.88,1.98l0 44.88c0,1.83 1.9,0.85 4.93,0.08 2.16,-0.55 3.97,-0.93 6.13,-1.55 14.7,-4.27 23.53,-8.5 36.17,-16.39l9.03 -6.33c1.47,-1.1 2.9,-2.16 4.29,-3.4l7.89 -7.07c1.34,-1.35 2.57,-2.46 3.85,-3.84 10.88,-11.77 20.8,-26.49 26.78,-41.55 13.23,-33.32 13.58,-67.7 0.41,-101.08 -3.77,-9.55 -7.71,-16.4 -12.96,-24.64 -14.29,-22.45 -38.28,-40.81 -62.88,-50.73 -4.7,-1.9 -19.05,-6.6 -23.62,-6.7l0 48.11z"/>
   <path class="fil1" d="M108.93 217.11c-5.33,-0.44 -20.72,-8.96 -24.55,-11.84l-7.5 -5.84c-3.93,-3.83 -4.47,-3.68 -9.07,-9.12 -0.77,-0.91 -1.46,-1.85 -2.14,-2.71 -11.56,-14.77 -15.84,-27.36 -18.43,-45.45l-0.6 -8.73 1.68 -16.55c3.96,-19.56 12.08,-33.71 25.74,-47.44l4.78 -4.11c4.63,-3.6 8.24,-6.39 13.52,-9.12l6.2 -3.1c2.27,-1.09 8.22,-3.6 10.38,-3.78l0 -49.32c-9.25,0.21 -32.68,10.06 -41.82,15.59 -30.16,18.25 -52.09,44.85 -61.86,79.24 -16.3,57.42 6.21,116.86 55,149.52 1.74,1.17 3.2,2.06 4.94,3.15 1.86,1.17 3.55,1.95 5.41,3.08 10.11,6.15 24.79,10.63 36.43,13.39 2.39,0.57 1.91,0.36 1.9,-5.23l0 -41.64z"/>
  </g>
 </g>
</svg>
