<?xml version="1.0" encoding="UTF-8"?>
<!DOCTYPE svg PUBLIC "-//W3C//DTD SVG 1.1//EN" "http://www.w3.org/Graphics/SVG/1.1/DTD/svg11.dtd">
<!-- Creator: CorelDRAW 2020 (64-Bit) -->
<svg xmlns="http://www.w3.org/2000/svg" xml:space="preserve" width="24.5566mm" height="31.0378mm" version="1.1" style="shape-rendering:geometricPrecision; text-rendering:geometricPrecision; image-rendering:optimizeQuality; fill-rule:evenodd; clip-rule:evenodd"
viewBox="0 0 114.26 144.42"
 xmlns:xlink="http://www.w3.org/1999/xlink"
 xmlns:xodm="http://www.corel.com/coreldraw/odm/2003">
 <defs>
  <style type="text/css">
   <![CDATA[
    .str0 {stroke:#ED3237;stroke-width:0.35;stroke-miterlimit:2.61313}
    .fil0 {fill:#373435}
    .fil3 {fill:#EA3639}
    .fil2 {fill:#FEFEFE;fill-rule:nonzero}
    .fil1 {fill:#ED3237;fill-rule:nonzero}
   ]]>
  </style>
 </defs>
 <g id="Layer_x0020_1">
  <metadata id="CorelCorpID_0Corel-Layer"/>
  <rect class="fil0" y="-0" width="114.26" height="144.42"/>
  <path class="fil1 str0" d="M22.45 125.19l4.5 0c1.18,0 2.04,-0.13 2.58,-0.39 0.54,-0.26 0.81,-0.62 0.81,-1.1l0 -0.02c0,-0.32 -0.1,-0.6 -0.29,-0.84 -0.19,-0.23 -0.5,-0.41 -0.92,-0.54 -0.42,-0.12 -0.95,-0.19 -1.61,-0.19l-5.07 0 0 -1.21 5.07 0c0.86,0 1.51,-0.12 1.94,-0.35 0.44,-0.23 0.66,-0.58 0.66,-1.04l0 0c0,-0.48 -0.25,-0.84 -0.73,-1.08 -0.49,-0.24 -1.22,-0.36 -2.19,-0.36l-4.75 0 0 -1.25 5.17 0c1.07,0 1.97,0.11 2.69,0.32 0.72,0.21 1.27,0.51 1.62,0.9 0.36,0.39 0.54,0.85 0.54,1.39l0 0c0,0.33 -0.11,0.64 -0.33,0.93 -0.22,0.29 -0.56,0.53 -1.01,0.74 -0.45,0.21 -1.01,0.34 -1.68,0.41 0.67,0.06 1.25,0.2 1.73,0.41 0.49,0.22 0.86,0.49 1.12,0.82 0.26,0.33 0.39,0.68 0.39,1.06l0 0.02c0,0.52 -0.2,0.98 -0.6,1.37 -0.39,0.4 -0.96,0.7 -1.7,0.92 -0.74,0.22 -1.6,0.32 -2.58,0.32l-5.37 0 0 -1.25zm-1.37 -8.35l2.32 0 0 9.6 -2.32 0 0 -9.6zm31.89 0l2.33 0 0 9.6 -2.33 0 0 -9.6zm1.13 8.32l9.53 0 0 1.28 -9.53 0 0 -1.28zm0 -4.13l8.28 0 0 1.28 -8.28 0 0 -1.28zm0 -4.19l9.53 0 0 1.28 -9.53 0 0 -1.28zm32.06 0.79l2.33 0 0 8.81 -2.33 0 0 -8.81zm-4.7 -0.79l11.71 0 0 1.28 -11.71 0 0 -1.28z"/>
  <path class="fil2" d="M22.41 90.38l1.94 0 1.19 0 0 1.2 0 14.68 12.77 0 1.19 0 0 1.2 0 1.83 0 1.19 -1.19 0 -15.9 0 -1.19 0 0 -1.19 0 -17.71 0 -1.2 1.19 0zm52.93 0l16.52 0 1.19 0 0 1.2 0 1.83 0 1.19 -1.19 0 -13.38 0 0 3.45 12.92 0 1.19 0 0 1.19 0 1.84 0 1.19 -1.19 0 -12.92 0 0 3.98 13.38 0 1.19 0 0 1.2 0 1.83 0 1.19 -1.19 0 -16.52 0 -1.19 0 0 -1.19 0 -17.71 0 -1.2 1.19 0zm-23.22 0.63l7.72 14.26 7.76 -14.26 0.34 -0.62 0.71 -0 2.21 -0 2 -0 -0.96 1.76 -9.63 17.71 -0.34 0.63 -0.7 0 -2.73 0 -0.71 0 -0.34 -0.63 -9.63 -17.71 -0.96 -1.76 2 0 2.21 0 0.71 0 0.34 0.62zm-11 18.27l0 -17.71 0 -1.19 1.2 0 1.94 0 1.19 0 0 1.19 0 17.71 0 1.19 -1.19 0 -1.94 0 -1.2 0 0 -1.19z"/>
  <path class="fil3" d="M22.15 17.44l24.3 0c3.44,5.26 7.03,10.52 10.68,15.78 3.66,-5.26 7.24,-10.52 10.68,-15.78l24.3 0c-7.2,11.01 -15.01,22.02 -22.83,33.03 7.81,11 15.62,22.01 22.83,33.01l-24.31 0c-3.44,-5.25 -7.02,-10.5 -10.68,-15.76 -3.65,5.25 -7.23,10.51 -10.68,15.76l-24.31 0c7.21,-11 15.01,-22 22.82,-33.01 -7.81,-11.01 -15.62,-22.02 -22.82,-33.03z"/>
 </g>
</svg>
