<?xml version="1.0" encoding="UTF-8"?>
<!DOCTYPE svg PUBLIC "-//W3C//DTD SVG 1.1//EN" "http://www.w3.org/Graphics/SVG/1.1/DTD/svg11.dtd">
<!-- Creator: CorelDRAW 2020 (64-Bit) -->
<svg xmlns="http://www.w3.org/2000/svg" xml:space="preserve" width="60mm" height="30mm" version="1.1" style="shape-rendering:geometricPrecision; text-rendering:geometricPrecision; image-rendering:optimizeQuality; fill-rule:evenodd; clip-rule:evenodd"
viewBox="0 0 160.98 80.49"
 xmlns:xlink="http://www.w3.org/1999/xlink"
 xmlns:xodm="http://www.corel.com/coreldraw/odm/2003">
 <defs>
  <style type="text/css">
   <![CDATA[
    .fil1 {fill:#040707}
    .fil2 {fill:white}
    .fil0 {fill:url(#id0)}
   ]]>
  </style>
  <linearGradient id="id0" gradientUnits="userSpaceOnUse" x1="-0" y1="40.24" x2="160.98" y2="40.24">
   <stop offset="0" style="stop-opacity:1; stop-color:#BDBFC1"/>
   <stop offset="0.760784" style="stop-opacity:1; stop-color:#D1D3D4"/>
   <stop offset="1" style="stop-opacity:1; stop-color:#E6E7E8"/>
  </linearGradient>
 </defs>
 <g id="Layer_x0020_1">
  <metadata id="CorelCorpID_0Corel-Layer"/>
  <g id="_2634642349600">
   <rect class="fil0" width="160.98" height="80.49" rx="12.68" ry="16.6"/>
   <g>
    <path class="fil1" d="M99.7 45.51c1.13,-0.69 2.36,-1.24 3.4,-2.23 0.45,-0.43 0.89,-1.03 1.27,-1.72 0.32,-0.57 0.77,-2.01 0.94,-2.06l21.42 0.02 0 6.18 -27.28 0 0.25 -0.19zm-62.02 -4.03c5.29,-6.83 10.51,-13.9 15.8,-20.75 1.93,-2.5 4.42,-6.57 7.97,-6.64 1.13,-0.02 2.13,0.39 2.87,0.86 0.53,0.34 1.46,1.23 1.89,1.76 0.16,0.19 0.28,0.29 0.45,0.48l0.86 1c0.52,0.56 1.52,1.87 2,2.51l6.3 8.3c2.14,2.79 4.2,5.52 6.33,8.34 0.53,0.69 6,7.77 6.24,8.35l-53.88 0 3.17 -4.2zm42.69 -7.67c4.56,0 9.22,-0.04 13.67,0.06 2.57,0.06 2.53,3.23 1.64,4.17 -0.59,0.63 -1.56,0.68 -2.77,0.68 -0.64,-0 -1.09,0.07 -1.66,0.07 -1.08,-0.01 -6.07,0.04 -6.82,-0.08 -0.39,-0.06 -0.63,-0.32 -0.85,-0.61 -0.24,-0.31 -0.43,-0.56 -0.67,-0.86l-2.54 -3.43zm-9.55 -12.61c6.08,0 12.16,0 18.25,0 0.8,-0 1.37,0.07 2.19,0.07 0.75,0 1.5,0 2.26,0 0.93,-0 1.27,0.01 1.87,0.38 1.08,0.67 1.44,3.82 -0.81,4.4 -0.6,0.16 -1.47,-0.02 -2.18,0.08 -0.94,0.13 -11.53,0.05 -13.75,0.05 -0.69,0 -1.15,-0.07 -1.79,-0.07 -0.58,0 -1.23,0.03 -1.79,0 -0.74,-0.03 -1.08,-0.63 -1.51,-1.21 -0.5,-0.67 -2.42,-3.11 -2.73,-3.71zm34.43 -0.58c-0.25,-1.51 -1.52,-3.25 -2.29,-3.95 -1.9,-1.73 -3.24,-1.91 -3.88,-2.36 1.12,-0.07 2.45,-0.01 3.59,-0.01l23.02 -0c0.64,-0 1.06,-0.04 1.06,0.68l0 7.99 -7.03 0c-0.99,0 -0.63,-0.91 -0.82,-2.33l-13.65 -0zm-71.79 25.8l91.36 0.07c0.28,0 0.37,-0.05 0.54,-0.05 0.39,-0.01 1.61,0.37 2.05,-0.74 0.22,-0.56 0.06,-1.22 0.06,-1.93l0 -2.12c0,-1.39 0.46,-2.58 -1.31,-2.87 -0.37,-0.06 -1.66,-0.09 -2.12,-0.02 -0.76,0.12 -16.73,0.04 -18.67,0.04 0,-2.29 0.34,-3.78 -0.47,-6.23 -0.39,-1.18 -0.82,-1.72 -1.58,-2.6 0.44,-0.65 1.45,-1.15 1.89,-3.49 0.22,-1.19 0.17,-2.58 0.17,-3.88 -0,-0.55 0.07,-0.83 0.07,-1.33l12.74 0c0,1.38 0.13,2.43 1.52,2.46 0.67,0.01 1.2,0.09 1.93,0.07l3.69 -0.04c0.91,0.14 2.15,0.03 2.15,-1.16l0 -7.83c0,-0.3 -0.06,-0.61 -0.19,-0.81 -0.39,-0.62 -1.65,-0.45 -2.53,-0.45l-58.12 0c-0.74,0 -1.33,-0.07 -1.99,-0.07 -3.24,0.02 -4.66,-0.1 -6.69,1.27 -1.09,0.74 -1.84,1.8 -2.52,2.46l-1.38 1.67c-0.59,0.79 -1.13,1.48 -1.72,2.27l-1.75 2.3c-0.84,1.02 -2.54,3.34 -3.46,4.57l-11.21 14.86c-0.15,0.2 -0.27,0.36 -0.43,0.57 -0.16,0.21 -0.29,0.35 -0.43,0.56 -0.29,0.44 -1.53,2.12 -1.6,2.44z"/>
    <path class="fil2" d="M61.04 22.85c0.16,-0.2 0.23,-0.34 0.41,-0.52l6.54 8.52c0.22,0.29 6.28,8.19 6.45,8.54l-26.01 -0 12.6 -16.53zm-26.53 22.84l53.88 0c-0.24,-0.59 -5.72,-7.66 -6.24,-8.35 -2.13,-2.82 -4.19,-5.55 -6.33,-8.34l-6.3 -8.3c-0.48,-0.65 -1.48,-1.96 -2,-2.51l-0.86 -1c-0.17,-0.19 -0.29,-0.28 -0.45,-0.48 -0.43,-0.53 -1.36,-1.42 -1.89,-1.76 -0.73,-0.48 -1.73,-0.88 -2.87,-0.86 -3.55,0.07 -6.04,4.14 -7.97,6.64 -5.3,6.85 -10.51,13.93 -15.8,20.75l-3.17 4.2z"/>
    <path class="fil1" d="M53.29 63.53l-14.93 0 0 -3.38 14.8 0c0.86,0 1.66,0.7 1.66,1.53 0,0.57 0.03,0.89 -0.51,1.41 -0.22,0.21 -0.61,0.44 -1.01,0.44zm-18.91 -13.67l0 3.18c0,0.26 0.21,0.21 0.46,0.2l18.64 0c0.61,0.07 1.33,0.76 1.33,1.45l0 0.4c0,0.85 -0.85,1.53 -1.72,1.53l-18.71 0 0 10.42 20.1 0c0.81,0 1.77,-0.42 2.38,-0.87l0.43 -0.37c1.71,-1.56 1.85,-3.93 1.05,-5.94 -0.21,-0.52 -0.79,-1.32 -1.34,-1.45l0 -0.13c1.2,-0.28 1.79,-2.32 1.79,-3.58 0,-2.99 -2.02,-5.04 -4.98,-5.04l-19.24 0c-0.15,0 -0.2,0.05 -0.2,0.2z"/>
    <path class="fil1" d="M101.86 54.64l0 12.01 3.98 0c0.32,0 0.2,-0.68 0.2,-1.33l0 -10.75c0.25,0.07 0.46,0.26 0.65,0.41l4.4 3.23c0.83,0.63 1.62,1.22 2.46,1.85 0.85,0.64 1.67,1.23 2.51,1.87l3.73 2.77c1.23,0.93 4.57,3.21 5.88,1.36 0.27,-0.38 0.53,-1 0.53,-1.66l0 -14.8 -4.11 0c-0.32,0 -0.2,0.63 -0.2,1.26l0 10.48 -12.73 -9.43c-2.24,-1.68 -2.85,-2.45 -5.58,-2.45 -0.29,0 -0.72,0.16 -0.94,0.32l-0.18 0.15c-0.98,0.93 -0.6,3.2 -0.6,4.71z"/>
    <path class="fil1" d="M80.36 63.27c-1.73,0 -4.66,-0.28 -6.19,-1.04 -2.86,-1.42 -2.81,-5.8 -0.86,-7.67 1.56,-1.5 5.76,-1.88 7.98,-1.7 1.26,0.1 3.09,0.49 4.09,0.89 1.2,0.48 1.94,1.32 2.34,2.57 0.39,1.19 0.36,2.96 -0.28,4.15 -1.07,1.99 -2.74,2.27 -4.8,2.56 -0.64,0.09 -1.55,0.24 -2.28,0.24zm-12.67 -5.44c0,1.88 0.12,3.2 0.91,4.73 0.56,1.11 1.38,1.87 2.4,2.51 1.53,0.96 5.56,1.71 8.11,1.71 2.48,0 3.64,0.01 6.14,-0.49 2.67,-0.53 4.91,-1.31 6.15,-3.8 0.62,-1.25 0.84,-2.8 0.84,-4.2 0,-1.41 -0.23,-3.21 -0.78,-4.46 -1.26,-2.91 -3.79,-3.36 -6.8,-3.68 -4.07,-0.45 -5.55,-0.47 -9.6,-0.01 -1.4,0.16 -2.82,0.3 -4.03,1.02 -1.33,0.79 -2.31,1.95 -2.81,3.43 -0.34,1.01 -0.54,2.09 -0.54,3.24z"/>
    <path class="fil2" d="M105.24 20.62l13.65 0c0.18,1.42 -0.17,2.33 0.82,2.33l7.03 0 0 -7.99c0,-0.72 -0.43,-0.68 -1.06,-0.68l-23.02 0c-1.15,0 -2.47,-0.06 -3.59,0.01 0.64,0.45 1.98,0.63 3.88,2.36 0.77,0.7 2.04,2.44 2.29,3.95z"/>
    <path class="fil2" d="M99.44 45.7l27.28 -0 0 -6.18 -21.42 -0.02c-0.17,0.05 -0.63,1.49 -0.94,2.06 -0.38,0.68 -0.82,1.29 -1.27,1.72 -1.05,1 -2.27,1.55 -3.4,2.23l-0.25 0.19z"/>
    <path class="fil1" d="M61.45 23.46c0.19,0.13 0.58,0.68 0.75,0.91 2.37,3.16 4.89,6.34 7.23,9.49l2.89 3.81c0.27,0.33 0.5,0.63 0.74,0.99l-23.22 0c0.68,-1.01 2.75,-3.61 3.61,-4.75 2.13,-2.84 4.41,-5.7 6.52,-8.54l1.48 -1.91zm-13.01 15.92l26.01 0c-0.18,-0.35 -6.23,-8.25 -6.45,-8.54l-6.54 -8.52c-0.18,0.18 -0.25,0.32 -0.41,0.52l-12.6 16.53z"/>
   </g>
  </g>
 </g>
</svg>
