<?xml version="1.0" encoding="UTF-8"?>
<!DOCTYPE svg PUBLIC "-//W3C//DTD SVG 1.1//EN" "http://www.w3.org/Graphics/SVG/1.1/DTD/svg11.dtd">
<!-- Creator: CorelDRAW 2020 (64-Bit) -->
<svg xmlns="http://www.w3.org/2000/svg" xml:space="preserve" width="60mm" height="30mm" version="1.1" style="shape-rendering:geometricPrecision; text-rendering:geometricPrecision; image-rendering:optimizeQuality; fill-rule:evenodd; clip-rule:evenodd"
viewBox="0 0 136.59 68.29"
 xmlns:xlink="http://www.w3.org/1999/xlink"
 xmlns:xodm="http://www.corel.com/coreldraw/odm/2003">
 <defs>
  <style type="text/css">
   <![CDATA[
    .fil2 {fill:#3DBBC7}
    .fil1 {fill:#F9FEFD}
    .fil0 {fill:url(#id0)}
   ]]>
  </style>
  <linearGradient id="id0" gradientUnits="userSpaceOnUse" x1="-0" y1="34.15" x2="136.59" y2="34.15">
   <stop offset="0" style="stop-opacity:1; stop-color:#3DBBC7"/>
   <stop offset="0.760784" style="stop-opacity:0.8; stop-color:#3DBBC7"/>
   <stop offset="1" style="stop-opacity:0.6; stop-color:#3DBBC7"/>
  </linearGradient>
 </defs>
 <g id="Layer_x0020_1">
  <metadata id="CorelCorpID_0Corel-Layer"/>
  <g id="_2634682395712">
   <rect class="fil0" width="136.59" height="68.29" rx="10.76" ry="14.09"/>
   <g>
    <g>
     <path class="fil1" d="M46.11 17.79l-0.09 -7.25 -3.88 -0.03c-0.38,1.85 -0.36,12.93 -0.11,15.02 1.26,10.58 17.87,6.93 14.44,-3.32 -1.49,-4.46 -4.98,-5.42 -10.34,-4.42z"/>
     <path class="fil1" d="M67.24 31.78l3.97 0.05c0.37,-3.79 -1.25,-10.2 3.04,-10.47 4.81,-0.31 3.2,6.8 3.45,10.38l3.89 0.13c0.57,-6.88 0.48,-14.54 -6.98,-14.65 -7.66,-0.11 -8.07,7.66 -7.38,14.56z"/>
     <path class="fil1" d="M59.44 31.83l4.32 -0.02c0.16,-2.61 -0.02,-5.53 -0.07,-8.12 -0.04,-2.37 0.56,-5.91 -2.05,-5.97 -2.78,-0.07 -2.12,3.44 -2.18,5.97 -0.06,2.51 -0.24,5.7 -0.02,8.14z"/>
     <path class="fil2" d="M47.58 21.84c-3.63,2.38 -0.12,7.9 3.67,5.55 3.46,-2.15 0.25,-8.12 -3.67,-5.55z"/>
     <path class="fil1" d="M62.68 15.79c0.77,-0.31 2.04,-1.57 1.44,-3.42 -0.37,-1.13 -1.58,-2.22 -3.34,-1.74 -2.71,0.73 -3.19,6.26 1.9,5.17z"/>
    </g>
    <g>
     <path class="fil1" d="M59.05 43.68l-0.09 -7.25 -3.88 -0.03c-0.38,1.85 -0.36,12.93 -0.11,15.02 1.26,10.58 17.87,6.93 14.44,-3.32 -1.49,-4.46 -4.98,-5.42 -10.34,-4.42z"/>
     <path class="fil1" d="M80.18 57.67l3.97 0.05c0.37,-3.79 -1.25,-10.2 3.04,-10.47 4.81,-0.31 3.2,6.8 3.45,10.38l3.89 0.13c0.57,-6.88 0.48,-14.54 -6.98,-14.65 -7.66,-0.11 -8.07,7.66 -7.38,14.56z"/>
     <path class="fil1" d="M72.38 57.72l4.32 -0.02c0.17,-2.61 -0.02,-5.53 -0.07,-8.12 -0.04,-2.37 0.56,-5.91 -2.05,-5.97 -2.78,-0.07 -2.12,3.44 -2.18,5.97 -0.06,2.51 -0.24,5.7 -0.02,8.14z"/>
     <path class="fil2" d="M60.52 47.73c-3.63,2.38 -0.12,7.9 3.67,5.55 3.46,-2.15 0.25,-8.12 -3.67,-5.55z"/>
     <path class="fil1" d="M75.62 41.67c0.77,-0.31 2.04,-1.57 1.44,-3.42 -0.37,-1.13 -1.58,-2.22 -3.34,-1.74 -2.71,0.73 -3.19,6.26 1.9,5.17z"/>
    </g>
   </g>
  </g>
 </g>
</svg>
