<?xml version="1.0" encoding="UTF-8"?>
<!DOCTYPE svg PUBLIC "-//W3C//DTD SVG 1.1//EN" "http://www.w3.org/Graphics/SVG/1.1/DTD/svg11.dtd">
<!-- Creator: CorelDRAW 2020 (64-Bit) -->
<svg xmlns="http://www.w3.org/2000/svg" xml:space="preserve" width="60mm" height="30mm" version="1.1" style="shape-rendering:geometricPrecision; text-rendering:geometricPrecision; image-rendering:optimizeQuality; fill-rule:evenodd; clip-rule:evenodd"
viewBox="0 0 172.23 86.11"
 xmlns:xlink="http://www.w3.org/1999/xlink"
 xmlns:xodm="http://www.corel.com/coreldraw/odm/2003">
 <defs>
  <style type="text/css">
   <![CDATA[
    .fil1 {fill:black}
    .fil0 {fill:url(#id0)}
   ]]>
  </style>
  <linearGradient id="id0" gradientUnits="userSpaceOnUse" x1="-0" y1="43.06" x2="172.23" y2="43.06">
   <stop offset="0" style="stop-opacity:1; stop-color:#BDBFC1"/>
   <stop offset="0.760784" style="stop-opacity:0.901961; stop-color:#D1D3D4"/>
   <stop offset="1" style="stop-opacity:0.8; stop-color:#E6E7E8"/>
  </linearGradient>
 </defs>
 <g id="Layer_x0020_1">
  <metadata id="CorelCorpID_0Corel-Layer"/>
  <g id="_2634642358528">
   <rect class="fil0" width="172.23" height="86.11" rx="13.56" ry="17.76"/>
   <g>
    <path class="fil1" d="M34.81 40.41l0 -8.88c0,-0.19 0.02,-0.52 -0.02,-0.66 -0.03,-0.09 -0.06,-0.16 -0.12,-0.23 -0.16,-0.19 -0.42,-0.34 -0.69,-0.34l-5.06 0c-0.2,0 -0.37,0.04 -0.51,0.16 -0.02,0.02 -0.03,0.02 -0.05,0.04 -0.13,0.17 -0.21,0.32 -0.21,0.56l0 24.03c0,0.48 0.28,0.74 0.75,0.74l5.1 0c0.13,0 0.25,-0.02 0.35,-0.05 0.1,-0.03 0.2,-0.08 0.26,-0.15 0.15,-0.15 0.2,-0.32 0.2,-0.61l0 -6.48c0,-0.09 -0.02,-0.15 0.03,-0.22l0.17 -0.19c0.03,-0.04 0.07,-0.07 0.1,-0.11l0.89 -1.03c0.14,-0.16 0.28,-0.33 0.43,-0.49 0.02,-0.02 0.02,-0.03 0.04,-0.05 0.07,-0.07 0.25,-0.29 0.33,-0.38l0.09 -0.11c0.03,-0.03 0.06,-0.08 0.1,-0.11 0.01,0.03 0.61,0.93 0.64,0.96 0.04,0.05 0.07,0.11 0.1,0.16l0.32 0.49c0.22,0.32 0.41,0.66 0.62,0.98 0.21,0.33 0.4,0.66 0.62,0.98 0.14,0.22 0.27,0.44 0.41,0.66l0.21 0.33c0.03,0.05 0.07,0.11 0.1,0.16l1.04 1.63c0.11,0.18 0.3,0.46 0.42,0.64 0.04,0.06 0.07,0.11 0.11,0.16l0.54 0.8c0.22,0.31 0.43,0.63 0.66,0.94l0.39 0.54c0.07,0.09 0.12,0.13 0.2,0.21 0.16,0.15 0.46,0.32 0.76,0.32l6.52 0c0.26,0 0.41,-0.09 0.36,-0.35 -0.04,-0.22 -0.41,-0.73 -0.55,-0.93 -1.78,-2.67 -3.55,-5.35 -5.33,-8.02l-0.89 -1.34c-0.4,-0.6 -0.79,-1.19 -1.18,-1.78 -0.1,-0.15 -0.19,-0.3 -0.29,-0.45 -0.1,-0.15 -0.2,-0.29 -0.3,-0.44l-0.59 -0.9c0.04,-0.03 0.48,-0.63 0.52,-0.68l0.78 -1.03c0.09,-0.12 0.17,-0.23 0.26,-0.34 0.52,-0.69 1.05,-1.37 1.57,-2.07l2.35 -3.1c0.02,-0.03 0.04,-0.05 0.06,-0.09 0.02,-0.03 0.04,-0.05 0.07,-0.09l2.35 -3.1c0.12,-0.16 0.32,-0.37 0.32,-0.59 0,-0.21 -0.2,-0.26 -0.41,-0.26l-6.56 0c-0.41,0 -0.79,0.28 -1.02,0.57 -0.02,0.03 -0.04,0.05 -0.06,0.08 -0.02,0.03 -0.04,0.05 -0.06,0.08l-0.44 0.57c-0.02,0.03 -0.04,0.05 -0.06,0.08l-0.44 0.58c-0.04,0.06 -0.08,0.1 -0.13,0.16 -0.04,0.06 -0.08,0.11 -0.13,0.17 -0.08,0.11 -0.17,0.21 -0.25,0.32 -0.29,0.39 -0.6,0.76 -0.89,1.15l-0.63 0.82c-0.26,0.32 -0.5,0.66 -0.76,0.98 -0.04,0.05 -0.08,0.11 -0.12,0.16 -0.15,0.18 -0.36,0.46 -0.5,0.65 -0.25,0.33 -0.5,0.66 -0.76,0.98l-0.63 0.82c-0.23,0.3 -0.47,0.6 -0.7,0.9l-0.51 0.65c-0.05,0.06 -0.29,0.38 -0.32,0.41z"/>
    <path class="fil1" d="M85.87 40.4l0 -8.89c0,-0.47 0.06,-0.77 -0.33,-1.04 -0.13,-0.09 -0.29,-0.18 -0.51,-0.18l-5.06 0c-0.24,0 -0.41,0.07 -0.53,0.19 -0.13,0.13 -0.23,0.31 -0.23,0.51l0 24.14c0,0.22 0.09,0.42 0.2,0.52 0.12,0.11 0.32,0.17 0.55,0.17l5.1 0c0.34,0 0.64,-0.11 0.76,-0.45 0.03,-0.1 0.05,-0.25 0.05,-0.36 -0.01,-1.62 0,-3.23 0,-4.85 0,-0.54 0,-1.08 0,-1.62 0,-0.22 -0.03,-0.14 0.1,-0.3l0.28 -0.33c0.03,-0.04 0.07,-0.07 0.1,-0.11 0.03,-0.04 0.06,-0.07 0.09,-0.11l0.19 -0.22c0.03,-0.04 0.07,-0.07 0.09,-0.1l0.85 -0.98c0.1,-0.13 0.28,-0.3 0.38,-0.43 0.02,-0.03 0.07,-0.1 0.1,-0.1 0.01,0.03 0.48,0.73 0.53,0.8l1.15 1.79c0.03,0.06 0.07,0.11 0.1,0.16 0.18,0.27 0.34,0.55 0.52,0.82l0.62 0.98c0.12,0.19 0.25,0.38 0.36,0.58l0.36 0.57c0.02,0.03 0.03,0.05 0.05,0.08l0.1 0.16c0.02,0.03 0.03,0.05 0.05,0.08l0.9 1.37c0.02,0.03 0.04,0.05 0.06,0.08l0.22 0.32c0.21,0.32 0.54,0.78 0.77,1.09 0.04,0.05 0.07,0.1 0.11,0.16 0.02,0.03 0.03,0.05 0.05,0.07 0.02,0.03 0.04,0.05 0.06,0.08 0.02,0.03 0.04,0.05 0.06,0.08l0.11 0.15c0.14,0.18 0.31,0.32 0.52,0.42 0.11,0.05 0.28,0.1 0.44,0.1l6.52 0c0.22,0 0.36,-0.07 0.36,-0.28 0,-0.23 -0.36,-0.71 -0.5,-0.93 -0.12,-0.18 -0.47,-0.69 -0.58,-0.87 -0.09,-0.15 -0.19,-0.29 -0.29,-0.43l-2.59 -3.9c-0.96,-1.44 -1.91,-2.89 -2.88,-4.33l-1.73 -2.6c-0.02,-0.04 -0.56,-0.82 -0.57,-0.87 0.02,-0.03 0.04,-0.05 0.06,-0.08 0.02,-0.03 0.04,-0.06 0.06,-0.09l1.37 -1.81c0.02,-0.03 0.04,-0.06 0.06,-0.09l0.65 -0.86c0.04,-0.06 0.08,-0.12 0.13,-0.17l0.26 -0.34c0.09,-0.12 0.17,-0.23 0.26,-0.34 0.02,-0.03 0.04,-0.06 0.07,-0.09 0.54,-0.72 1.09,-1.43 1.63,-2.15 0.02,-0.03 0.04,-0.05 0.06,-0.09l1.24 -1.64c0.6,-0.8 1.22,-1.6 1.82,-2.41l0.39 -0.52c0.25,-0.32 0.33,-0.69 -0.2,-0.69l-6.57 0c-0.36,0 -0.68,0.21 -0.88,0.42 -0.09,0.09 -0.28,0.36 -0.38,0.48 -0.02,0.03 -0.04,0.06 -0.07,0.09 -0.04,0.05 -0.08,0.11 -0.12,0.16 -0.04,0.05 -0.08,0.11 -0.13,0.16 -0.04,0.06 -0.08,0.1 -0.13,0.16l-2.02 2.61c-0.26,0.33 -0.51,0.65 -0.76,0.98l-0.19 0.24c-0.02,0.03 -0.04,0.05 -0.06,0.08l-0.5 0.65c-0.04,0.06 -0.08,0.11 -0.13,0.17l-0.76 0.98c-0.17,0.21 -0.34,0.43 -0.5,0.65 -0.08,0.11 -0.17,0.22 -0.25,0.33l-0.38 0.48c-0.02,0.03 -0.04,0.05 -0.06,0.08l-0.89 1.14c-0.04,0.05 -0.15,0.21 -0.2,0.24z"/>
    <path class="fil1" d="M122.5 55.83c0.25,0 0.42,-0.05 0.53,-0.28 0.06,-0.13 0.25,-1.07 0.28,-1.23l0.4 -1.89c0.05,-0.21 0.08,-0.42 0.13,-0.62 0.01,-0.05 0.02,-0.1 0.03,-0.16l0.23 -1.1c0.05,-0.21 0.09,-0.42 0.13,-0.63 0.02,-0.11 0.05,-0.21 0.07,-0.31 0.06,-0.31 0.14,-0.63 0.2,-0.95 0.04,-0.21 0.09,-0.42 0.13,-0.62l0.1 -0.47c0.07,-0.31 0.13,-0.62 0.2,-0.94 0.01,-0.05 0.02,-0.1 0.03,-0.16 0.02,-0.09 0.06,-0.22 0.07,-0.32l9.15 0c0.12,0 0.25,0 0.37,0 0.04,-0 0.04,-0.01 0.09,-0.01 0.46,-0 1.18,-0.12 1.59,-0.22 0.13,-0.03 0.47,-0.11 0.59,-0.17 0.05,0.21 0.09,0.43 0.13,0.64 0.04,0.22 0.09,0.43 0.13,0.65l1.62 8.12c0.05,0.27 0.05,0.52 0.34,0.63 0.2,0.08 0.45,0 0.56,-0.18 0.14,-0.24 0.08,-0.41 0.03,-0.66 -0.02,-0.1 -0.04,-0.21 -0.06,-0.31 -0.04,-0.21 -0.08,-0.4 -0.12,-0.61 -0.53,-2.65 -1.08,-5.31 -1.61,-7.97 -0.01,-0.06 -0.11,-0.57 -0.13,-0.61l0.49 -0.22c0.17,-0.07 0.38,-0.19 0.55,-0.28 0.35,-0.19 0.77,-0.46 1.09,-0.7 0.02,-0.02 0.05,-0.03 0.07,-0.05l0.2 -0.15c0.04,-0.04 0.08,-0.07 0.13,-0.1 0.05,-0.04 0.09,-0.07 0.13,-0.11l0.26 -0.22c0.04,-0.03 0.08,-0.08 0.13,-0.11 0.11,-0.09 0.59,-0.57 0.66,-0.65 0.02,-0.02 0.04,-0.04 0.06,-0.06 0.02,-0.02 0.03,-0.04 0.06,-0.06l0.17 -0.19c0.02,-0.03 0.03,-0.04 0.06,-0.06 0.02,-0.02 0.04,-0.04 0.05,-0.07 0.21,-0.23 0.38,-0.49 0.57,-0.74l0.24 -0.35c0.26,-0.39 0.48,-0.81 0.67,-1.23 0.05,-0.11 0.1,-0.22 0.14,-0.34 0.2,-0.5 0.33,-0.94 0.45,-1.46 0.19,-0.85 0.23,-1.63 0.15,-2.51 -0.06,-0.64 -0.26,-1.42 -0.55,-2.02l-0.13 -0.27c-0.2,-0.35 -0.27,-0.5 -0.53,-0.85 -0.08,-0.11 -0.22,-0.28 -0.31,-0.38 -0.02,-0.02 -0.03,-0.03 -0.05,-0.05 -0.07,-0.09 -0.3,-0.3 -0.4,-0.39 -0.02,-0.02 -0.03,-0.02 -0.05,-0.04 -0.1,-0.1 -0.27,-0.23 -0.38,-0.31 -0.23,-0.16 -0.47,-0.33 -0.73,-0.46 -0.09,-0.05 -0.17,-0.09 -0.26,-0.13l-0.14 -0.06c-0.42,-0.2 -0.89,-0.34 -1.35,-0.43 -0.43,-0.09 -0.92,-0.14 -1.44,-0.14l-9.79 0c-0.14,0 -0.3,0.05 -0.37,0.12 -0.1,0.09 -0.14,0.16 -0.19,0.31 -0.02,0.06 -0.03,0.14 -0.04,0.2 -0.01,0.07 -0.03,0.13 -0.04,0.2l-0.26 1.23c-0.03,0.13 -0.06,0.27 -0.09,0.41 -0.12,0.61 -0.27,1.23 -0.39,1.84l-0.39 1.85c-0.09,0.41 -0.17,0.82 -0.26,1.22 -0.09,0.41 -0.16,0.82 -0.26,1.23l-0.09 0.41c-0.11,0.54 -0.24,1.09 -0.35,1.64 -0.01,0.07 -0.03,0.13 -0.04,0.2l-0.09 0.41c-0.08,0.41 -0.18,0.82 -0.26,1.23l-0.3 1.43c-0.03,0.13 -0.06,0.27 -0.09,0.41l-0.43 2.04c-0.01,0.07 -0.03,0.13 -0.04,0.2 -0.07,0.34 -0.15,0.69 -0.22,1.03l-0.09 0.41c-0.08,0.34 -0.14,0.68 -0.22,1.02l-0.22 1.02c-0.07,0.34 -0.15,0.68 -0.22,1.03 -0.08,0.41 -0.18,0.81 -0.26,1.23l-0.22 1.03c-0.1,0.48 -0.21,0.95 -0.31,1.43 -0.03,0.14 -0.07,0.28 -0.08,0.43 -0,0.06 0.02,0.16 0.05,0.2 0.08,0.12 0.2,0.15 0.35,0.15zm11.38 -10.61l-8.65 -0.04 3 -14c2.93,-0 5.86,-0 8.78,-0.01 4.21,-0.14 6.7,3.17 5.9,6.73 -1.03,4.62 -4.9,7.23 -9.04,7.32z"/>
    <path class="fil1" d="M51.28 31.02l0 24.09c0,0.47 0.27,0.72 0.73,0.72l15.36 0c0.11,0 0.23,-0.03 0.31,-0.06 0.25,-0.11 0.46,-0.4 0.46,-0.68l0 -4.64c0,-0.42 -0.35,-0.72 -0.77,-0.72l-9.43 0 0 -18.67c0,-0.45 -0.37,-0.79 -0.79,-0.79l-5.11 0c-0.2,0 -0.41,0.07 -0.54,0.2 -0.05,0.05 -0.12,0.15 -0.15,0.22 -0.04,0.08 -0.07,0.2 -0.07,0.31z"/>
    <path class="fil1" d="M69.64 31.04l0 24.06c0,0.24 0.07,0.43 0.19,0.55 0.12,0.12 0.32,0.19 0.56,0.19l5.08 0c0.52,0 0.83,-0.24 0.83,-0.76l0 -24.03c0,-0.13 -0.04,-0.23 -0.08,-0.32 -0.12,-0.23 -0.5,-0.43 -0.78,-0.43l-5.03 0c-0.25,0 -0.45,0.06 -0.6,0.25 -0.01,0.02 -0.03,0.03 -0.04,0.05 -0.08,0.12 -0.13,0.28 -0.13,0.44z"/>
    <path class="fil1" d="M103.04 55.48c0,0.24 0.15,0.35 0.4,0.35l17.01 0c0.19,0 0.36,-0.06 0.46,-0.16 0.22,-0.23 0.33,-0.65 -0.06,-0.75 -0.15,-0.04 -0.35,-0.03 -0.51,-0.03l-16.21 0 0.55 -2.59c0.03,-0.13 0.05,-0.25 0.08,-0.37 0.1,-0.5 0.21,-0.98 0.31,-1.48 0.05,-0.25 0.11,-0.5 0.16,-0.74 0.1,-0.49 0.22,-0.98 0.31,-1.48 0.05,-0.24 0.11,-0.49 0.16,-0.74 0.1,-0.49 0.22,-0.99 0.32,-1.48l0.24 -1.1c0.03,-0.12 0.05,-0.25 0.08,-0.37l0.32 -1.48 12.7 0c0.44,0 1.05,0.1 1.21,-0.38 0.06,-0.18 0.04,-0.38 -0.13,-0.47 -0.1,-0.05 -0.23,-0.07 -0.37,-0.07l-13.21 0c0.01,-0.08 0.22,-1.03 0.25,-1.18 0.03,-0.13 0.06,-0.27 0.08,-0.39 0.09,-0.47 0.2,-0.91 0.29,-1.38 0.01,-0.07 0.03,-0.14 0.04,-0.2l0.38 -1.77c0.09,-0.46 0.2,-0.92 0.29,-1.38 0.05,-0.26 0.11,-0.52 0.17,-0.79l0.17 -0.79c0.01,-0.06 0.03,-0.13 0.04,-0.2 0.09,-0.47 0.2,-0.91 0.29,-1.38l0.29 -1.38c0.02,-0.12 0,-0.1 0.14,-0.1l15.3 0c0.28,0 0.69,0.02 0.94,-0.02 0.14,-0.02 0.25,-0.07 0.32,-0.15 0.09,-0.1 0.13,-0.27 0.13,-0.42 0,-0.22 -0.28,-0.33 -0.51,-0.33l-16.59 0c-0.32,0 -0.48,0.16 -0.56,0.4 -0.02,0.06 -0.03,0.13 -0.05,0.19l-0.09 0.4c-0.01,0.07 -0.03,0.13 -0.04,0.2 -0.06,0.27 -0.12,0.54 -0.17,0.8 -0.12,0.6 -0.26,1.19 -0.38,1.79l-0.55 2.6c-0.09,0.4 -0.18,0.8 -0.26,1.2 -0.05,0.27 -0.12,0.54 -0.17,0.8 -0.05,0.27 -0.12,0.53 -0.17,0.8 -0.05,0.26 -0.12,0.53 -0.17,0.8l-0.43 2c-0.01,0.07 -0.03,0.13 -0.04,0.2l-0.21 1c-0.06,0.27 -0.11,0.53 -0.17,0.8 -0.11,0.53 -0.23,1.07 -0.34,1.6 -0.03,0.13 -0.05,0.26 -0.08,0.39l-0.17 0.8c-0.07,0.37 -0.17,0.84 -0.26,1.2l-0.17 0.8c-0.16,0.8 -0.35,1.6 -0.51,2.4l-0.68 3.2c-0.03,0.15 -0.16,0.67 -0.16,0.81z"/>
   </g>
  </g>
 </g>
</svg>
