<?xml version="1.0" encoding="UTF-8"?>
<!DOCTYPE svg PUBLIC "-//W3C//DTD SVG 1.1//EN" "http://www.w3.org/Graphics/SVG/1.1/DTD/svg11.dtd">
<!-- Creator: CorelDRAW 2020 (64-Bit) -->
<svg xmlns="http://www.w3.org/2000/svg" xml:space="preserve" width="60mm" height="30mm" version="1.1" style="shape-rendering:geometricPrecision; text-rendering:geometricPrecision; image-rendering:optimizeQuality; fill-rule:evenodd; clip-rule:evenodd"
viewBox="0 0 129.15 64.57"
 xmlns:xlink="http://www.w3.org/1999/xlink"
 xmlns:xodm="http://www.corel.com/coreldraw/odm/2003">
 <defs>
  <style type="text/css">
   <![CDATA[
    .fil3 {fill:#FEFEFE}
    .fil2 {fill:#1C5DCC}
    .fil1 {fill:#FDFDFE}
    .fil0 {fill:url(#id0)}
   ]]>
  </style>
  <linearGradient id="id0" gradientUnits="userSpaceOnUse" x1="-0" y1="32.29" x2="129.15" y2="32.29">
   <stop offset="0" style="stop-opacity:1; stop-color:#1D5DCC"/>
   <stop offset="0.760784" style="stop-opacity:0.85098; stop-color:#1D5DCC"/>
   <stop offset="1" style="stop-opacity:0.698039; stop-color:#1D5DCC"/>
  </linearGradient>
 </defs>
 <g id="Layer_x0020_1">
  <metadata id="CorelCorpID_0Corel-Layer"/>
  <g id="_2634696878576">
   <rect class="fil0" width="129.15" height="64.57" rx="10.17" ry="13.32"/>
   <g>
    <path class="fil1" d="M26.3 37.49c-0.11,-0.41 -0.03,-6.73 -0.03,-8.06 0,-0.69 -0.23,-2.08 0.27,-2.44 0.54,-0.38 1.31,0.35 1.74,0.64l14.54 9.79c0.48,0.33 3.01,1.9 3.12,2.3 0.11,0.41 0.03,6.7 0.03,8.03 0,0.63 0.18,2.1 -0.26,2.44 -0.49,0.39 -1.17,-0.22 -1.76,-0.63 -3.58,-2.5 -7.69,-5.16 -11.3,-7.61 -1.08,-0.73 -2.16,-1.5 -3.24,-2.18 -0.47,-0.3 -3.03,-1.92 -3.12,-2.28zm6.96 -9.82c0.23,-0.28 1.17,-0.91 1.56,-1.2 3.1,-2.3 6.48,-4.87 9.56,-7.08 0.25,-0.18 1.31,-1.06 1.6,-1.09l0 4.75c0,0.67 -0.39,0.8 -0.88,1.16l-3.52 2.57c-0.52,0.37 -4.51,3.37 -4.68,3.37 -0.23,-0.1 -3.5,-2.31 -3.65,-2.48zm10.14 -13.51c0.73,-0.54 1.66,-1.44 2.24,-1.15 0.46,0.23 0.36,0.92 0.35,1.48 -0.01,0.36 -0.03,0.38 -0.3,0.57 -0.16,0.11 -0.34,0.25 -0.51,0.37l-10.23 7.58c-0.69,0.51 -1.39,1.01 -2.07,1.53l-2.07 1.49c-0.27,-0.1 -1.71,-1.02 -1.84,-1.28l14.42 -10.58zm-4.01 17.62c0.34,-0.4 7.56,-5.44 8.29,-6.15 1.11,-1.09 1.01,-2.05 1.01,-3.82 0,-1.61 0,-3.23 0,-4.84 0,-1.31 0.18,-3.55 -0.23,-4.6 -0.39,-0.99 -1.45,-2 -2.68,-2.12 -1.7,-0.17 -2.46,0.64 -3.46,1.36 -1.75,1.25 -3.66,2.65 -5.55,4.06 -3.74,2.8 -7.47,5.42 -11.17,8.18 -0.91,0.68 -1.87,1.33 -2.02,2.8 -0.11,1.06 -0.02,7.91 -0.02,9.6 -0,2.91 0.44,3.11 2.64,4.62 5.23,3.57 10.73,7.15 15.89,10.7 0.91,0.62 1.92,1.49 3.31,1.46 1.36,-0.03 2.43,-0.86 2.94,-1.89 0.55,-1.11 0.34,-3.08 0.34,-4.49 0,-1.61 0,-3.23 0,-4.84 0,-1.77 0.21,-2.84 -0.76,-4.06 -0.56,-0.71 -5.79,-4.04 -7.13,-4.97 -0.25,-0.17 -0.48,-0.32 -0.7,-0.47 -0.25,-0.18 -0.55,-0.33 -0.71,-0.55z"/>
    <path class="fil2" d="M41.15 40.17c1.22,-0.24 2.31,0.73 2.43,1.79 0.15,1.25 -0.67,2.32 -1.77,2.47 -2.8,0.38 -3.62,-3.68 -0.66,-4.26zm-14.85 -2.68c0.1,0.36 2.65,1.98 3.12,2.28 1.08,0.68 2.16,1.45 3.24,2.18 3.61,2.46 7.72,5.12 11.3,7.61 0.59,0.41 1.27,1.02 1.76,0.63 0.43,-0.34 0.26,-1.81 0.26,-2.44 0,-1.33 0.08,-7.62 -0.03,-8.03 -0.11,-0.4 -2.64,-1.98 -3.12,-2.3l-14.54 -9.79c-0.44,-0.3 -1.2,-1.03 -1.74,-0.64 -0.5,0.36 -0.27,1.75 -0.27,2.44 0,1.33 -0.08,7.65 0.03,8.06z"/>
    <path class="fil1" d="M97.98 35.07c0.34,-0.27 1.22,-0.21 1.65,-0.22 2.4,-0.01 2.16,-0.15 2.15,0.58l-0.01 2.42c-0.04,0.18 0.01,0.09 -0.09,0.19 -0.97,0.38 -3.42,0.48 -4.34,-0.03 -0.57,-0.32 -0.88,-0.98 -0.69,-1.81 0.14,-0.6 0.69,-1.12 1.32,-1.14zm0.52 -7.96c-1.33,0.22 -2.03,0.29 -3.08,0.89 -1.14,0.65 -0.86,2.18 0.26,2.37 1.07,0.19 1.45,-0.71 3.21,-0.81 1.29,-0.08 2.41,0.16 2.78,1.26 0.1,0.29 0.07,0.58 0.07,0.88 0.01,0.94 0.26,0.7 -2.26,0.71 -1.31,0 -2.46,0.17 -3.42,0.64 -2.28,1.11 -2.64,3.75 -1.76,5.53 0.98,1.98 3.3,2.32 5.77,2.24 1.02,-0.03 2.6,-0.28 3.42,-0.63 1.21,-0.51 0.97,-1.61 0.97,-3.06 0,-1.32 0,-2.64 0,-3.96 0,-1.38 0.13,-2.53 -0.38,-3.66 -0.8,-1.78 -3.25,-2.79 -5.6,-2.4z"/>
    <path class="fil1" d="M71.1 36.09c-0.12,-0.86 -0.02,-2.64 -0.02,-3.59 0,-2.77 2.25,-3.39 4.04,-2.76 2.07,0.74 1.6,3.56 1.58,5.69 -0.03,2.79 -2.3,3.36 -4.03,2.72 -0.86,-0.32 -1.43,-1.03 -1.58,-2.06zm1.84 -8.98c-1.65,0.3 -2.89,0.66 -3.85,2.32 -0.88,1.52 -0.74,3.44 -0.74,5.48 0,4.13 2.13,6.24 6.52,5.86 1.7,-0.15 3.1,-1.06 3.82,-2.33 0.91,-1.61 0.72,-3.4 0.72,-5.51 0,-1.94 -0.38,-3.55 -1.57,-4.59 -1.09,-0.96 -3,-1.59 -4.9,-1.24z"/>
    <path class="fil1" d="M56.05 23.49l-0 15.32c0,1.11 0.67,1.76 1.73,1.76l7.77 0c0.95,0 1.53,-0.59 1.39,-1.61 -0.15,-1.02 -1.04,-1.03 -2.05,-1.03 -1.01,0 -5.45,0.05 -6.05,-0.02 -0.21,-2.01 0.19,-14.16 -0.09,-15.01 -0.44,-1.34 -2.7,-1.27 -2.7,0.6z"/>
    <path class="fil1" d="M86.74 40.81c1.5,0 1.71,-1.01 2.09,-2.19 0.36,-1.12 0.76,-2.11 1.09,-3.24 0.63,-2.1 1.54,-4.27 2.16,-6.4 0.55,-1.92 -1.29,-2.24 -2,-1.72 -0.58,0.43 -0.98,2.25 -1.25,3.06 -0.16,0.48 -1.91,6.18 -2.09,6.47 -0.16,-0.26 -2.29,-6.99 -2.61,-8.04 -0.17,-0.58 -0.28,-1.17 -0.73,-1.48 -1.05,-0.72 -2.52,0.17 -2.03,1.67 1.03,3.14 2.24,6.52 3.24,9.66 0.39,1.21 0.58,2.22 2.13,2.22z"/>
    <path class="fil2" d="M33.25 27.67c0.15,0.17 3.42,2.38 3.65,2.48 0.17,0.01 4.16,-3 4.68,-3.37l3.52 -2.57c0.5,-0.36 0.88,-0.49 0.88,-1.16l-0 -4.75c-0.29,0.03 -1.35,0.91 -1.6,1.09 -3.08,2.21 -6.46,4.78 -9.56,7.08 -0.39,0.29 -1.33,0.92 -1.56,1.2z"/>
    <path class="fil2" d="M28.98 24.73c0.13,0.26 1.57,1.19 1.84,1.28l2.07 -1.49c0.67,-0.52 1.38,-1.02 2.07,-1.53l10.23 -7.58c0.17,-0.12 0.35,-0.26 0.51,-0.37 0.27,-0.19 0.29,-0.2 0.3,-0.57 0.01,-0.56 0.11,-1.25 -0.35,-1.48 -0.58,-0.29 -1.51,0.61 -2.24,1.15l-14.42 10.58z"/>
    <path class="fil1" d="M71.79 44.81c0.28,-0.18 0.4,-0.23 0.73,-0.09 0.12,0.53 0.06,1.17 0.06,1.74l0.46 0c0,-0.87 -0.28,-2.08 0.74,-1.75 0.11,0.51 0.07,1.16 0.07,1.74l0.46 0.02c0,-0.48 0.09,-1.56 -0.14,-1.91 -0.37,-0.56 -1,-0.21 -1.29,0.05 -0.35,-0.38 -0.68,-0.51 -1.1,-0.1 -0.16,-0.19 -0.11,-0.2 -0.47,-0.21l0 2.17 0.46 -0.01 0.01 -1.64z"/>
    <path class="fil1" d="M86.82 46.73c-0,-0.37 0.13,-0.43 0.5,-0.42 0.24,0.01 0.58,0.02 0.63,0.21 0.14,0.49 -0.86,0.38 -1.14,0.21zm0.28 -2.09c0.54,-0.29 0.92,0.42 0.48,0.65 -0.56,0.3 -0.91,-0.41 -0.48,-0.65zm1.33 -0.28c-0.53,0 -1.17,-0.22 -1.56,-0.01 -0.6,0.33 -0.4,0.85 -0.08,1.2 -0.26,0.26 -0.34,0.29 -0.09,0.67 -0.72,0.57 -0.05,0.98 0.55,1 1.16,0.05 1.68,-1.16 0.36,-1.26 -0.1,-0.01 -0.39,-0.01 -0.47,-0.04 -0.2,-0.07 -0.14,0.02 -0.18,-0.23 0.27,-0.11 1.31,0.14 1.17,-0.96l0.29 -0.37z"/>
    <path class="fil1" d="M77.76 46.02c-0.05,-0.27 -0.12,-0.96 0.04,-1.19 0.16,-0.23 0.63,-0.28 0.82,-0.03 0.32,0.4 0.25,1.63 -0.86,1.23zm0.06 0.24c0.22,0.36 0.75,0.26 1.02,0.05 0.52,-0.39 0.56,-1.68 -0.12,-1.98 -0.44,-0.19 -0.71,0.06 -0.99,0.21l0 -1.22 -0.46 0 0 3.14c0.23,-0 0.15,0.02 0.34,-0.05l0.21 -0.14z"/>
    <path class="fil1" d="M56.04 43.41c0.13,0.47 0.43,1.08 0.62,1.58 0.15,0.38 0.63,2.1 1.13,1.29l1.14 -2.89 -0.5 0.02 -0.95 2.35 -0.92 -2.35 -0.51 0z"/>
    <path class="fil1" d="M69.21 45.91c-0.51,0.29 -0.99,0.36 -0.99,-0.51 0,-0.73 0.37,-0.96 1.02,-0.65l-0.03 1.15zm0.04 -1.49c-2.31,-0.88 -1.69,3.21 -0.03,1.78 0.01,0.01 0.02,0.04 0.03,0.05l0.18 0.18c0.12,0.06 0.11,0.03 0.28,0.02l-0.02 -3.13 -0.43 0.01 -0.01 1.09z"/>
    <path class="fil1" d="M90.31 45.18c0,-0.7 0.94,-0.82 1.02,0.02 0.07,0.77 -0.35,1.14 -0.99,0.78l-0.02 -0.28 0 -0.51zm0 1.13c2.19,0.97 1.82,-3.23 -0,-1.75 -0.14,-0.29 -0.06,-0.32 -0.46,-0.24l-0 2.83 0.46 -0.01 0 -0.84z"/>
    <path class="fil1" d="M84.88 44.68c0.88,-0.34 1.01,1.2 0.42,1.42 -0.43,0.16 -0.73,-0.13 -0.8,-0.51 -0.03,-0.18 -0.01,-0.4 0.03,-0.56 0.1,-0.35 0.11,-0.26 0.35,-0.36zm-0.83 1.02c0.25,1.25 2.32,1.03 2.05,-0.59 -0.22,-1.31 -2.39,-1.12 -2.05,0.59z"/>
    <path class="fil1" d="M66.19 44.67c0.92,-0.33 0.97,1.2 0.42,1.42 -0.64,0.25 -0.94,-0.44 -0.77,-1.07 0.09,-0.35 0.11,-0.27 0.35,-0.35zm-0.84 0.95c0.19,1.34 2.34,1.13 2.06,-0.51 -0.21,-1.25 -2.3,-1.19 -2.06,0.51z"/>
    <path class="fil1" d="M75.61 44.65c0.88,-0.3 0.97,1.26 0.38,1.45 -0.47,0.15 -0.71,-0.1 -0.77,-0.48 -0.08,-0.48 0.03,-0.84 0.39,-0.97zm-0.88 0.82c0.07,1.37 2.12,1.42 2.1,-0.14 -0.02,-1.47 -2.19,-1.48 -2.1,0.14z"/>
    <path class="fil1" d="M62.48 45.13c0.07,-0.32 0.14,-0.51 0.51,-0.53 0.4,-0.02 0.49,0.17 0.55,0.53l-1.06 -0zm1.42 1.11c-0.18,-0.59 -0.33,-0.1 -0.84,-0.12 -0.41,-0.02 -0.58,-0.31 -0.59,-0.71l1.46 -0c0.14,-1.47 -1.6,-1.47 -1.88,-0.42 -0.21,0.76 0.17,1.98 1.85,1.26z"/>
    <path class="fil1" d="M103.31 45.77c0.23,-0.21 0.44,-0.23 0.86,-0.25 -0,0.4 -0,0.56 -0.37,0.63 -0.38,0.08 -0.49,-0.04 -0.49,-0.38zm-0.29 -1.04c0.4,0.27 0.36,-0.3 1.1,-0l0.02 0.5c-2.27,0.13 -1.14,1.9 0.03,1.01 0.13,0.15 0.16,0.21 0.44,0.23 0,-0.94 0.29,-2.44 -1.05,-2.18 -0.36,0.07 -0.55,0.17 -0.54,0.45z"/>
    <path class="fil1" d="M94.43 45.52c-0,0.35 0.07,0.45 -0.19,0.57 -0.19,0.09 -0.47,0.14 -0.62,-0.03 -0.38,-0.43 0.51,-0.53 0.81,-0.55zm-1.15 -0.79c0.39,0.28 0.36,-0.29 1.09,-0l0.03 0.5c-2.35,0.13 -1.01,1.95 0.01,0.99 0.15,0.15 0.17,0.23 0.46,0.24 0,-0.95 0.29,-2.45 -1.06,-2.18 -0.34,0.07 -0.55,0.16 -0.54,0.44z"/>
    <path class="fil1" d="M97.74 45.77c0.23,-0.21 0.44,-0.23 0.86,-0.25 -0,0.4 -0,0.56 -0.37,0.63 -0.38,0.08 -0.49,-0.04 -0.49,-0.38zm-0.29 -1.04c0.4,0.27 0.36,-0.3 1.1,-0l0.02 0.5c-2.27,0.13 -1.14,1.9 0.03,1.01 0.13,0.15 0.16,0.21 0.44,0.23 0,-0.58 0.13,-1.67 -0.23,-2.01 -0.28,-0.27 -0.91,-0.23 -1.2,-0.03 -0.17,0.11 -0.17,0.1 -0.17,0.31z"/>
    <path class="fil1" d="M82.21 46.46c0,-0.31 -0.04,-1.26 0,-1.49 0.08,-0.4 0.54,-0.37 0.86,-0.24 0.15,0.52 0.07,1.16 0.07,1.73l0.46 0c0,-0.41 0.06,-1.48 -0.08,-1.8 -0.23,-0.53 -0.9,-0.48 -1.24,-0.13 -0.24,-0.18 -0.12,-0.23 -0.53,-0.24l0 2.17 0.46 0z"/>
    <path class="fil1" d="M100.95 44.98c0.17,0.3 0.06,1.03 0.06,1.43l0.39 0 0 -1.54c-0.09,-0.67 -0.88,-0.8 -1.32,-0.35 -0.15,-0.17 -0.09,-0.26 -0.49,-0.2l0.03 2.14 0.42 -0.01 0.04 -1.63c0.35,-0.2 0.42,-0.23 0.83,-0.11l0.04 0.27z"/>
    <path class="fil1" d="M60.19 46.03c-0.19,0.86 2.1,0.46 1.41,-0.55 -0.23,-0.34 -1.01,-0.25 -0.96,-0.65 0.08,-0.56 0.72,0.14 1,-0.25 -0.19,-0.47 -1.37,-0.46 -1.46,0.25 -0.13,1 1.19,0.39 1.03,1.23 -0.64,0.31 -0.58,-0.13 -1.03,-0.03z"/>
    <path class="fil1" d="M96.92 45.94c-0.32,0.11 -0.65,0.38 -0.98,0.01 -0.22,-0.25 -0.25,-0.78 -0.06,-1.09 0.29,-0.48 0.75,-0.11 0.99,-0.14 0.51,-0.06 -0.09,-0.44 -0.46,-0.47 -0.85,-0.05 -1.34,0.73 -1.03,1.6 0.26,0.73 1.28,0.86 1.69,0.27l-0.15 -0.19z"/>
    <polygon class="fil1" points="92.23,46.43 92.75,46.43 92.75,43.28 92.23,43.28 "/>
    <polygon class="fil1" points="80.73,46.43 81.24,46.43 81.24,43.28 80.73,43.28 "/>
    <path class="fil1" d="M101.56 47.16c0.25,0.13 0.59,0.04 0.74,-0.12 0.19,-0.21 0.16,-0.53 0.15,-0.83 -0,-0.64 -0,-1.28 -0,-1.92l-0.46 0.01 -0.04 2.47c-0.35,0.22 -0.39,-0.06 -0.4,0.39z"/>
    <polygon class="fil1" points="79.69,46.46 80.15,46.46 80.15,44.29 79.69,44.29 "/>
    <polygon class="fil1" points="59.24,46.46 59.7,46.46 59.7,44.29 59.24,44.29 "/>
    <path class="fil1" d="M61.01 43.98c0.25,0 0.49,-0.34 0.59,-0.57 -0.55,-0.01 -0.33,0.1 -0.69,0.31 -0.16,-0.16 -0.22,-0.34 -0.61,-0.29 0.18,0.25 0.27,0.55 0.71,0.55z"/>
    <path class="fil1" d="M96.09 43.97c0.54,0.06 0.6,-0.29 0.87,-0.58 -0.49,-0.06 -0.58,-0.13 -0.87,0.58z"/>
    <path class="fil1" d="M102.45 43.89c0.16,-0.5 -0.2,-0.73 -0.46,-0.46 -0.25,0.26 0.01,0.56 0.46,0.46z"/>
    <polygon class="fil1" points="79.67,43.37 79.65,43.88 80.16,43.9 80.19,43.4 "/>
    <polygon class="fil1" points="59.22,43.36 59.2,43.89 59.71,43.9 59.74,43.4 "/>
   </g>
   <circle class="fil3" cx="41.37" cy="42.31" r="2.16"/>
  </g>
 </g>
</svg>
