<?xml version="1.0" encoding="UTF-8"?>
<!DOCTYPE svg PUBLIC "-//W3C//DTD SVG 1.1//EN" "http://www.w3.org/Graphics/SVG/1.1/DTD/svg11.dtd">
<!-- Creator: CorelDRAW 2020 (64-Bit) -->
<svg xmlns="http://www.w3.org/2000/svg" xml:space="preserve" width="60mm" height="30mm" version="1.1" style="shape-rendering:geometricPrecision; text-rendering:geometricPrecision; image-rendering:optimizeQuality; fill-rule:evenodd; clip-rule:evenodd"
viewBox="0 0 136.52 68.26"
 xmlns:xlink="http://www.w3.org/1999/xlink"
 xmlns:xodm="http://www.corel.com/coreldraw/odm/2003">
 <defs>
  <style type="text/css">
   <![CDATA[
    .fil2 {fill:#EC1C24}
    .fil3 {fill:#C7BD8A}
    .fil4 {fill:#272424;fill-rule:nonzero}
    .fil5 {fill:white;fill-rule:nonzero}
    .fil1 {fill:#C7BD8A;fill-rule:nonzero}
    .fil0 {fill:url(#id0)}
   ]]>
  </style>
  <radialGradient id="id0" gradientUnits="userSpaceOnUse" gradientTransform="matrix(-1.1073 0.23699 -0.310344 -0.845575 152 48)" cx="66.89" cy="34.81" r="66.22" fx="66.89" fy="34.81">
   <stop offset="0" style="stop-opacity:1; stop-color:#4CBA76"/>
   <stop offset="0.741176" style="stop-opacity:1; stop-color:#006139"/>
   <stop offset="1" style="stop-opacity:1; stop-color:#0A3B27"/>
  </radialGradient>
 </defs>
 <g id="Layer_x0020_1">
  <metadata id="CorelCorpID_0Corel-Layer"/>
  <g id="_2634684274112">
   <rect class="fil0" width="136.52" height="68.26" rx="10.75" ry="14.08"/>
   <g>
    <path class="fil1" d="M70.24 37.72l0.91 0 0 6.07 -0.02 -0.02 -0.31 -0.42 -1.66 -2.24 -0.45 -0.61 -0.29 -0.41 -0.14 -0.2 1.94 -3.32 -0.21 0.88 -0.06 0.27 0.27 0zm-13.75 -2.46l3.61 4.81 -1.68 2.82 -1.93 -7.63zm47.82 2.14l-2.26 0 0 9.32 -5.88 0 0 -9.37 -3.85 0 -0.27 1.02 0.82 0 -0.45 1.53 -0.06 0.18 -0.06 0.18 -0.06 0.17 -0.07 0.17 -0.07 0.17 -0.08 0.17 -0.09 0.16 -0.11 0.18 -0.11 0.15 -0.14 0.17 -0.12 0.13 0.13 0.01 0.17 0.01 0.17 0.02 0.17 0.02 0.17 0.03 0.17 0.03 0.17 0.04 0.17 0.05 0.17 0.06 0.16 0.06 0.16 0.07 0.16 0.08 0.16 0.09 0.15 0.1 0.15 0.11 0.15 0.12 0.15 0.14 0.13 0.14 0.12 0.15 0.11 0.16 0.1 0.16 0.1 0.17 0.08 0.16 0.08 0.18 0.07 0.19 0.06 0.19 0.05 0.2 0.04 0.2 0.03 0.21 0.02 0.21 0.01 0.22 0.02 1.4 -12.38 0 0 -2.1 -0.01 0.02 -0.08 0.11 -0.08 0.11 -0.09 0.11 -0.09 0.1 -0.09 0.1 -0.09 0.1 -0.1 0.1 -0.1 0.09 -0.11 0.09 -0.11 0.09 -0.11 0.09 -0.11 0.08 -0.12 0.08 -0.14 0.1 -0.11 0.07 -0.15 0.08 -0.15 0.08 -0.15 0.07 -0.12 0.05 -0.15 0.06 -0.12 0.04 -0.16 0.05 -0.16 0.04 -0.13 0.03 -0.12 0.02 -0.17 0.03 -0.13 0.02 -0.18 0.02 -0.18 0.01 -0.18 0.01 -0.09 0 -6.36 0 0.79 1.15 -2.65 -0.01 -0.42 -0.01 -0.4 -0.01 -0.37 -0.02 -0.35 -0.03 -0.34 -0.04 -0.32 -0.04 -0.31 -0.05 -0.29 -0.06 -0.28 -0.08 -0.28 -0.09 -0.26 -0.1 -0.25 -0.12 -0.26 -0.14 -0.22 -0.15 -0.21 -0.15 -0.2 -0.17 -0.19 -0.18 -0.18 -0.19 -0.17 -0.2 -0.17 -0.21 -0.16 -0.21 -0.16 -0.22 -0.16 -0.23 -0.16 -0.24 -0.36 -0.53 -1.25 2.04 -9.99 0 -0.24 -1.48 -1.94 0 -0.04 0.06 -0.11 0.16 -0.12 0.16 -0.11 0.13 -0.13 0.13 -0.15 0.14 -0.15 0.11 -0.14 0.09 -0.16 0.09 -0.16 0.08 -0.18 0.07 -0.15 0.05 -0.16 0.05 -0.17 0.04 -0.17 0.03 -0.17 0.03 -0.17 0.02 -0.17 0.01 -0.17 0.01 -0.17 0.01 -0.17 0.01 -0.18 0 -0.18 0 -0.38 0 -1.11 -0 -0.04 0 -5.22 0 0 -5.77 -1.37 1.7 -1.58 -1.73 0 5.8 -5.8 0 0 -9.25 -1.11 0 1.29 -5.83 5.19 0 1.88 2.27 0.06 -0.08 0.13 -0.16 0.13 -0.16 0.14 -0.15 0.14 -0.15 0.15 -0.15 0.16 -0.14 0.17 -0.14 0.18 -0.13 0.19 -0.13 0.2 -0.12 0.21 -0.11 0.22 -0.1 0.22 -0.09 0.24 -0.08 0.24 -0.07 0.25 -0.06 0.26 -0.05 0.27 -0.05 0.28 -0.04 0.3 -0.03 0.31 -0.03 0.33 -0.02 0.34 -0.01 0.36 -0.01 1.54 -0.01 0 10.95 1.21 -3.64 -0.91 0 2.01 -4.63 7.25 0 2.57 10.17 2.44 -4.09 -6.28 -8.38 2.79 0.02 0.44 0.01 0.41 0.02 0.39 0.02 0.37 0.03 0.35 0.04 0.34 0.05 0.32 0.06 0.31 0.07 0.3 0.08 0.29 0.1 0.29 0.11 0.27 0.13 0.25 0.14 0.24 0.16 0.24 0.18 0.2 0.17 0.2 0.19 0.19 0.2 0.18 0.21 0.18 0.22 0.17 0.23 0.17 0.23 0.17 0.24 0.17 0.25 0.17 0.26 0.24 0.38 0.1 -0.13 0.13 -0.16 0.14 -0.15 0.14 -0.14 0.16 -0.14 0.17 -0.13 0.19 -0.13 0.18 -0.11 0.19 -0.09 0.18 -0.07 0.21 -0.07 0.18 -0.05 0.2 -0.04 0.21 -0.03 0.21 -0.02 0.21 -0.02 0.22 -0.01 0.22 -0.01 0.23 -0 0.24 -0 1.1 0 2.34 0 -3.48 5.95 0.32 0.45 0.3 0.41 0.45 0.61 1.66 2.25 0.31 0.42 0.31 0.42 0.31 0.43 0.28 0.39 -0 -8.05 -1.06 0 1.33 -5.67 7.17 0 0.14 0 0.07 0 0.15 0.01 0.15 0.02 0.14 0.02 0.08 0.01 0.14 0.03 0.15 0.03 0.14 0.04 0.14 0.04 0.08 0.03 0.07 0.03 0.13 0.05 0.13 0.06 0.07 0.03 0.13 0.06 0.07 0.04 0.12 0.07 0.13 0.08 0.12 0.08 0.11 0.08 0.1 0.08 0.1 0.08 0.1 0.08 0.1 0.09 0.12 0.12 0.09 0.09 0.09 0.09 0.08 0.1 0.08 0.1 0.08 0.1 0.07 0.1 0.07 0.1 0.06 0.11 0.06 0.11 0.06 0.11 0.05 0.11 0.05 0.12 0.05 0.12 0.04 0.12 0.02 0.07 0.02 -0.06 5.03 0 0.15 -0.43 4.49 0 0.04 -0.07 0.12 -0.19 0.13 -0.19 0.13 -0.18 0.14 -0.17 0.15 -0.16 0.16 -0.15 0.18 -0.15 0.16 -0.12 0.18 -0.12 0.18 -0.11 0.19 -0.1 0.19 -0.09 0.2 -0.08 0.2 -0.07 0.2 -0.06 0.2 -0.05 0.21 -0.04 0.21 -0.03 0.21 -0.03 0.21 -0.02 0.21 -0.01 0.21 -0.01 0.22 -0 3.22 0 0.11 -0.57 5.58 0 -1.49 6.29zm1.82 -6.77l-6.13 0 -0.18 0 -0.04 0.17 -0.08 0.4 -2.84 0 -0.22 0 -0.23 0.01 -0.23 0.01 -0.22 0.02 -0.22 0.03 -0.22 0.04 -0.22 0.04 -0.22 0.05 -0.22 0.06 -0.22 0.07 -0.01 0 -0 0 -0.21 0.08 -0.01 0 -0.01 0 -0.21 0.09 -0 0 -0.01 0 -0.2 0.1 -0.01 0 -0.01 0 -0.19 0.11 -0.01 0 -0.01 0 -0.19 0.13 -0.01 0 -0.01 0 -0.17 0.13 -0.01 0 -0.01 0 -0.19 0.17 -0 0 -0 0 -0.17 0.16 -0 0 -0 0 -0.16 0.17 -0 0 -0 0 -0.15 0.18 -0 0 -0 0 -0.14 0.19 -0.14 0.21 -0.03 0.04 -4.4 0 -0.15 0 -0.05 0.15 -0.1 0.28 -4.39 0 -0.04 -0.08 -0.06 -0.13 -0.06 -0.12 -0.07 -0.12 -0.07 -0.12 -0.08 -0.12 -0.08 -0.11 -0.08 -0.11 -0.09 -0.11 -0.09 -0.11 -0.1 -0.1 -0.1 -0.1 -0.13 -0.13 -0.11 -0.1 -0.11 -0.09 -0.11 -0.09 -0.11 -0.09 -0.12 -0.09 -0.13 -0.09 -0.14 -0.09 -0.13 -0.08 -0.09 -0.05 -0.14 -0.07 -0.09 -0.04 -0.15 -0.07 -0.14 -0.06 -0.08 -0.03 -0.09 -0.03 -0.16 -0.05 -0.16 -0.04 -0.16 -0.04 -0.15 -0.03 -0.09 -0.02 -0.16 -0.02 -0.16 -0.02 -0.17 -0.01 -0.08 -0 -0.14 -0 -7.38 0 -0.17 0 -0.04 0.17 -0.52 2.24 -2.1 -0 -1.1 -0 -0.25 0 -0.24 0 -0.23 0.01 -0.23 0.01 -0.22 0.02 -0.22 0.03 -0.23 0.03 -0.23 0.05 -0.01 0 -0.01 0 -0.2 0.05 -0.01 0 -0.01 0 -0.23 0.07 -0.01 0 -0.01 0 -0.19 0.07 -0.01 0 -0.01 0 -0.21 0.1 -0.01 0 -0.01 0 -0.2 0.12 -0.01 0 -0.01 0 -0.21 0.14 -0.01 0 -0.01 0 -0.18 0.14 -0.01 0 -0.01 0 -0.17 0.15 -0 0 -0 0 -0.12 0.12 -0.07 -0.1 -0.17 -0.26 -0.17 -0.25 -0.17 -0.24 -0.18 -0.24 -0.19 -0.23 -0.2 -0.23 -0.21 -0.22 -0 -0 -0 -0 -0.22 -0.2 -0 -0 -0 -0 -0.21 -0.18 -0 -0 -0.01 -0 -0.25 -0.19 -0.01 -0 -0.01 -0 -0.26 -0.17 -0.01 -0 -0.01 -0 -0.27 -0.15 -0.01 -0 -0.01 -0 -0.28 -0.13 -0.01 -0 -0.01 -0 -0.3 -0.12 -0.01 -0 -0.01 -0 -0.3 -0.1 -0.01 -0 -0.01 -0 -0.31 -0.09 -0.33 -0.08 -0.34 -0.06 -0.35 -0.05 -0.37 -0.04 -0.38 -0.03 -0.4 -0.02 -0.42 -0.02 -0.44 -0.01 -3.32 -0.02 -0.44 -0 0.26 0.35 1.47 1.96 -6.92 0 -0.14 0 -0.06 0.13 -1.46 3.35 0 -5.93 0 -0.22 -0.22 0 -1.81 0.01 -0.37 0.01 -0.35 0.01 -0.34 0.02 -0.32 0.03 -0.31 0.03 -0.3 0.04 -0.29 0.05 -0.28 0.06 -0.27 0.07 -0.26 0.08 -0.26 0.09 -0.25 0.1 -0.01 0 -0.01 0 -0.23 0.11 -0.01 0 -0.01 0 -0.22 0.12 -0.01 0 -0.01 0 -0.21 0.13 -0.01 0 -0 0 -0.2 0.13 -0.2 0.15 -0 0 -0 0 -0.18 0.15 -0.18 0.16 -0.16 0.16 -0.15 0.16 -0.11 0.12 -1.59 -1.92 -0.06 -0.08 -0.1 0 -5.53 0 -0.17 0 -0.04 0.17 -1.4 6.36 -0.06 0.26 0.27 0 0.96 0 0 9.03 0 0.22 0.22 0 6.33 0 0.22 0 0 -0.22 0 -4.82 0.95 1.04 0.17 0.19 0.16 -0.2 0.7 -0.88 0 4.67 0 0.22 0.22 0 5.52 -0 1.11 0 0.38 -0 0.19 -0 0.18 -0 0.18 -0.01 0.18 -0.01 0.18 -0.01 0.18 -0.02 0.18 -0.02 0.18 -0.03 0.19 -0.03 0.19 -0.04 0.19 -0.05 0.17 -0.06 0.01 -0 0.01 -0 0.19 -0.08 0.01 -0 0.01 -0 0.18 -0.09 0.01 -0 0.01 -0 0.17 -0.1 0.01 -0 0.01 -0 0.15 -0.1 0.01 -0 0.01 -0.01 0.17 -0.13 0.01 -0.01 0.01 -0.01 0.17 -0.16 0.01 -0 0.01 -0.01 0.14 -0.15 0.01 -0.01 0 -0.01 0.12 -0.14 0 -0.01 0 -0.01 0.13 -0.17 0 -0.01 0 -0.01 0 -0.01 1.27 0 0.21 1.3 0.03 0.18 0.18 0 10.36 0 0.12 0 0.06 -0.1 0.94 -1.53 0.11 0.16 0.16 0.23 0.17 0.23 0.17 0.22 0.18 0.22 0.19 0.21 0.2 0.21 0 0 0 0 0.2 0.19 0 0 0 0 0.21 0.18 0.01 0 0.01 0 0.22 0.16 0 0 0.01 0 0.23 0.15 0.01 0 0.01 0 0.28 0.15 0.01 0 0.01 0 0.27 0.13 0.01 0 0.01 0 0.28 0.11 0.01 0 0.01 0 0.29 0.1 0.01 0 0.01 0 0.29 0.08 0.31 0.07 0.32 0.06 0.33 0.05 0.35 0.04 0.36 0.03 0.38 0.02 0.4 0.01 0.43 0.01 3.16 0.02 0.42 0 -0.24 -0.34 -0.56 -0.81 5.45 0 0.1 -0 0.19 -0.01 0.19 -0.01 0.19 -0.02 0.15 -0.02 0.18 -0.03 0.14 -0.03 0.14 -0.03 0.18 -0.05 0.17 -0.05 0.14 -0.05 0.17 -0.07 0.13 -0.06 0.17 -0.08 0.16 -0.09 0.16 -0.09 0.12 -0.08 0.16 -0.1 0.13 -0.09 0.12 -0.09 0.12 -0.09 0.12 -0.1 0.03 -0.03 0 1.1 0 0.22 0.22 0 12.91 0 0.22 0 -0 -0.22 -0.03 -1.68 -0.01 -0.24 -0.02 -0.23 -0.03 -0.23 -0.04 -0.23 -0.05 -0.23 -0 -0.01 -0 -0.01 -0.06 -0.21 -0 -0.01 -0 -0.01 -0.07 -0.21 -0 -0.01 -0 -0.01 -0.08 -0.19 -0 -0.01 -0 -0 -0.08 -0.17 -0 -0.01 -0 -0.01 -0.1 -0.18 -0 -0.01 -0 -0.01 -0.11 -0.18 -0 -0.01 -0 -0.01 -0.12 -0.17 -0 -0.01 -0 -0.01 -0.13 -0.16 -0 -0.01 -0 -0 -0.14 -0.15 -0 -0.01 -0 -0 -0.16 -0.15 -0.01 -0.01 -0.01 -0 -0.16 -0.13 -0 -0 -0.01 -0 -0.16 -0.12 -0 -0 -0.01 -0 -0.16 -0.11 -0.01 -0 -0.01 -0 -0.17 -0.1 -0 -0 -0 -0 -0.17 -0.09 -0.18 -0.08 -0.18 -0.07 -0.19 -0.06 -0.18 -0.05 -0.19 -0.05 -0.18 -0.04 0 -0 0 -0.01 0.1 -0.18 0.09 -0.19 0.08 -0.18 0.08 -0.19 0.07 -0.19 0.06 -0.19 0.06 -0.19 0.6 -2.01 0.06 -0.2 2.14 0 0.02 9.16 0 0.22 0.22 0 6.41 0 0.22 0 0 -0.22 0 -9.1 1.98 0 0.17 0 0.04 -0.17 1.61 -6.82 0.06 -0.27 -0.28 0z"/>
    <path class="fil2" d="M51.11 40.99l1.03 -2.92 0.79 2.92 -1.82 0zm3.85 -6.13l-5.97 0 -1.23 2.83 0.79 0 -2.58 7.78 0.57 0 0.2 0 0.19 0 0.19 -0 0.18 -0 0.17 -0 0.17 -0 0.16 -0.01 0.16 -0.01 0.15 -0.01 0.14 -0.01 0.14 -0.02 0.13 -0.02 0.13 -0.02 0.13 -0.03 0.12 -0.03 0.12 -0.04 0.11 -0.05 0.11 -0.05 0.11 -0.06 0.1 -0.07 0.1 -0.07 0.09 -0.08 0.09 -0.09 0.08 -0.1 0.08 -0.1 0.08 -0.11 0.07 -0.12 0.07 -0.13 0.06 -0.13 0.05 -0.12 3.26 0 0.24 1.48 3.9 0 -1.98 -7.84 -0.7 -2.77z"/>
    <path class="fil2" d="M77.58 37.76l-1.21 0 0 -0.15 0 -1.57 0.73 0 0.48 0c0.15,0 0.29,0.04 0.41,0.11l0.02 0.01 0.02 0.01 0.01 0c0.24,0.15 0.4,0.42 0.4,0.73 0,0.47 -0.38,0.86 -0.86,0.86zm0 4.39l-1.21 0 0 -0.07 0 -1.82 0 -0.1 1.21 0c0.48,0 0.86,0.45 0.86,1 0,0.55 -0.38,1 -0.86,1zm5.01 -0.04l-0 -0.07 -0 -0.07 -0 -0.07 -0 -0.06 -0 -0.06 -0.01 -0.06 -0.01 -0.06 -0.01 -0.06 -0.01 -0.06 -0.01 -0.06 -0.01 -0.06 -0.01 -0.06 -0.01 -0.06 -0.01 -0.06 -0.01 -0.06 -0.01 -0.06 -0.01 -0.05 -0.01 -0.05 -0.01 -0.05 -0.01 -0.05 -0.02 -0.05 -0.01 -0.05 -0.02 -0.05 -0.02 -0.05 -0.02 -0.05 -0.02 -0.05 -0.02 -0.05 -0.02 -0.05 -0.02 -0.05 -0.02 -0.05 -0.02 -0.04 -0.02 -0.04 -0.02 -0.04 -0.02 -0.04 -0.03 -0.05 -0.03 -0.04 -0.03 -0.04 -0.03 -0.05 -0.03 -0.04 -0.03 -0.05 -0.03 -0.04 -0.03 -0.04 -0.04 -0.04 -0.04 -0.05 -0.04 -0.05 -0.04 -0.05 -0.04 -0.04 -0.04 -0.05 -0.04 -0.05 -0.04 -0.04 -0.04 -0.05 -0.05 -0.05 -0.05 -0.05 -0.05 -0.05 -0.05 -0.05 -0.05 -0.05 -0.05 -0.05 -0.05 -0.05 -0.05 -0.05 -0.05 -0.05 -0.06 -0.05 -0.06 -0.05 -0.34 -0.26 0.11 -0.07 0.08 -0.06 0.08 -0.06 0.08 -0.06 0.07 -0.06 0.07 -0.06 0.07 -0.06 0.07 -0.06 0.06 -0.07 0.06 -0.07 0.06 -0.07 0.06 -0.07 0.06 -0.07 0.05 -0.07 0.05 -0.08 0.05 -0.08 0.05 -0.08 0.05 -0.08 0.04 -0.08 0.04 -0.08 0.04 -0.08 0.04 -0.09 0.03 -0.09 0.03 -0.09 0.03 -0.09 0.03 -0.09 0.03 -0.09 0.02 -0.09 0.02 -0.1 0.02 -0.1 0.02 -0.1 0.02 -0.1 0 -0.03 0 -0.03 0 -0.03 0 -0.03 0 -0.03 0 -0.03 0 -0.02 0 -0.02 0 -0.02 0 -0.02 0 -0.02 0 -0.02 0 -0.02 0 -0.02 0 -0.02 0 -0.01 0 -0.2 -0 -0.11 -0 -0.11 -0.01 -0.1 -0.01 -0.1 -0.01 -0.1 -0.02 -0.1 -0.02 -0.1 -0.02 -0.1 -0.02 -0.09 -0.03 -0.09 -0.03 -0.09 -0.03 -0.09 -0.03 -0.09 -0.04 -0.09 -0.04 -0.09 -0.04 -0.08 -0.05 -0.08 -0.05 -0.08 -0.05 -0.08 -0.05 -0.08 -0.06 -0.08 -0.06 -0.08 -0.06 -0.07 -0.07 -0.07 -0.07 -0.07 -0.01 -0.01 -0.01 -0.01 -0.07 -0.07 -0.07 -0.07 -0.08 -0.07 -0.08 -0.07 -0.08 -0.06 -0.09 -0.06 -0.09 -0.06 -0.05 -0.03 -0.05 -0.03 -0.05 -0.03 -0.05 -0.03 -0.05 -0.03 -0.05 -0.03 -0.05 -0.03 -0.05 -0.02 -0.05 -0.02 -0.05 -0.02 -0.05 -0.02 -0.05 -0.02 -0.05 -0.02 -0.05 -0.02 -0.05 -0.02 -0.05 -0.02 -0.06 -0.02 -0.06 -0.01 -0.06 -0.01 -0.06 -0.01 -0.06 -0.01 -0.06 -0.01 -0.06 -0.01 -0.06 -0.01 -0.06 -0.01 -0.06 -0.01 -0.06 -0.01 -0.06 -0 -0.06 -0 -0.06 -0 -0.06 -0 -0.06 -0 -6.45 0 -0.91 3.88 0.83 0 0 9.43 0.05 0 6.32 0 0.03 0 0.01 0 0.01 0 0.02 0 0.04 -0 0.04 -0 0.04 -0 0.04 -0 0.04 -0 0.04 -0 0.04 -0 0.04 -0 0.04 -0 0.04 -0 0.04 -0 0.04 -0 0.04 -0 0.04 -0 0.03 -0 0.03 -0.01 0.03 -0.01 0.03 -0.01 0.03 -0.01 0.03 -0.01 0.03 -0.01 0.03 -0.01 0.03 -0.01 0.03 -0.01 0.03 -0.01 0.03 -0.01 0.03 -0.01 0.03 -0.01 0.03 -0.01 0.03 -0.01 0.03 -0.01 0.03 -0.01 0.03 -0.01 0.03 -0.01 0.03 -0.01 0.03 -0.01 0.03 -0.01 0.03 -0.01 0.03 -0.01 0.03 -0.01 0.03 -0.01 0.03 -0.01 0.03 -0.01 0.03 -0.01 0.03 -0.01 0.03 -0.01 0.03 -0.01 0.03 -0.01 0.03 -0.02 0.03 -0.02 0.03 -0.02 0.03 -0.02 0.03 -0.02 0.03 -0.02 0.03 -0.02 0.03 -0.02 0.03 -0.02 0.03 -0.02 0.03 -0.02 0.03 -0.02 0.03 -0.02 0.03 -0.02 0.03 -0.02 0.1 -0.07 0.1 -0.07 0.09 -0.07 0.09 -0.07 0.09 -0.08 0.08 -0.08 0.08 -0.08 0.08 -0.08 0.07 -0.08 0.07 -0.08 0.07 -0.08 0.06 -0.08 0.06 -0.09 0.06 -0.09 0.05 -0.09 0.05 -0.09 0.05 -0.09 0.04 -0.09 0.04 -0.09 0.04 -0.1 0.04 -0.1 0.03 -0.1 0.03 -0.1 0.03 -0.1 0.02 -0.1 0.02 -0.1 0.02 -0.1 0.01 -0.11 0.01 -0.11 0.01 -0.11 0 -0.11 0 -0.11 -0 -0.07 -0 -0.07z"/>
    <polygon class="fil2" points="71.23,46.28 71.66,46.91 70.73,46.91 70.32,46.9 69.94,46.89 69.58,46.87 69.25,46.84 68.94,46.81 68.65,46.77 68.37,46.72 68.12,46.67 67.88,46.6 67.65,46.53 67.44,46.44 67.24,46.35 67.05,46.24 66.87,46.12 66.7,46 66.54,45.86 66.38,45.71 66.23,45.55 66.08,45.38 65.93,45.2 65.79,45.01 65.64,44.81 65.49,44.59 65.33,44.36 65.17,44.12 65,43.87 64.81,43.6 64.62,43.32 64.41,43.02 64.19,42.71 64.18,42.7 64.16,42.74 64.1,42.83 63.93,43.11 63.87,43.21 63.7,43.49 63.64,43.58 63.47,43.86 63.41,43.95 63.36,44.05 63.3,44.14 63.24,44.23 63.18,44.33 63.01,44.61 62.95,44.7 62.78,44.98 62.72,45.08 62.47,45.48 58.48,45.48 61.75,39.99 56.2,32.58 57.18,32.58 57.6,32.59 58,32.61 58.37,32.63 58.72,32.66 59.05,32.69 59.36,32.74 59.65,32.79 59.92,32.85 60.17,32.93 60.41,33.01 60.64,33.1 60.85,33.2 61.06,33.32 61.25,33.44 61.43,33.58 61.61,33.73 61.78,33.89 61.94,34.06 62.09,34.24 62.25,34.43 62.4,34.64 62.56,34.85 62.72,35.08 62.88,35.33 63.04,35.58 63.21,35.85 63.4,36.13 63.59,36.43 63.79,36.74 64.01,37.07 64.01,37.08 64.1,36.95 64.23,36.74 64.37,36.55 64.49,36.36 64.61,36.2 64.73,36.04 64.84,35.9 64.95,35.76 65.07,35.64 65.18,35.53 65.3,35.42 65.42,35.33 65.54,35.25 65.67,35.17 65.8,35.11 65.94,35.06 66.09,35.01 66.24,34.97 66.39,34.94 66.56,34.92 66.73,34.9 66.91,34.89 67.11,34.87 67.31,34.87 67.53,34.86 67.76,34.86 68.01,34.86 68.27,34.86 68.55,34.87 68.85,34.87 69.63,34.87 66.65,39.96 66.71,40.04 66.86,40.25 67,40.47 67.15,40.68 67.3,40.89 67.45,41.1 67.6,41.31 67.75,41.51 67.9,41.72 68.06,41.93 68.21,42.13 68.36,42.34 68.51,42.54 68.66,42.74 68.81,42.95 68.96,43.15 69.27,43.56 69.42,43.76 69.57,43.97 69.72,44.18 69.87,44.38 70.03,44.59 70.18,44.8 70.33,45 70.48,45.21 70.63,45.42 70.78,45.64 70.93,45.85 71.08,46.06 "/>
    <polygon class="fil2" points="94.25,45.37 94.26,45.82 83.69,45.82 83.69,38.4 82.86,38.4 83.69,35.21 88.66,35.21 88.81,34.78 92.04,34.78 91.13,38.37 87.33,38.37 87.33,39.13 91.71,39.13 91.56,39.64 91.51,39.81 91.45,39.97 91.4,40.12 91.34,40.27 91.27,40.41 91.21,40.54 91.14,40.66 91.06,40.78 90.98,40.9 90.89,41 90.79,41.1 90.69,41.2 90.58,41.28 90.46,41.36 90.34,41.43 90.21,41.49 90.07,41.55 89.92,41.6 89.77,41.64 89.6,41.68 89.43,41.71 89.24,41.74 89.05,41.77 88.85,41.79 88.63,41.8 88.4,41.82 88.16,41.83 87.91,41.84 87.64,41.84 87.36,41.84 87.33,41.84 87.33,42.63 91.38,42.63 91.52,42.63 91.67,42.64 91.81,42.66 91.95,42.68 92.09,42.7 92.23,42.73 92.36,42.76 92.49,42.8 92.62,42.85 92.75,42.9 92.87,42.95 92.99,43.01 93.1,43.08 93.21,43.15 93.32,43.23 93.42,43.32 93.52,43.41 93.61,43.51 93.7,43.61 93.78,43.73 93.85,43.84 93.92,43.97 93.98,44.1 94.04,44.24 94.09,44.38 94.13,44.53 94.17,44.69 94.2,44.85 94.23,45.02 94.24,45.19 "/>
    <polygon class="fil2" points="104.66,32.01 103.6,36.5 101.16,36.5 101.16,45.82 97.07,45.82 97.07,45.27 97.07,44.98 97.06,44.68 97.06,44.39 97.06,44.1 97.06,43.22 97.06,42.93 97.06,42.63 97.06,42.34 97.06,42.05 97.06,41.75 97.06,41.17 97.06,40.87 97.06,40.58 97.06,40.29 97.06,40 97.05,39.7 97.05,39.41 97.05,38.53 97.05,38.24 97.05,37.36 97.05,37.07 97.05,36.48 97.05,36.45 92.71,36.45 92.86,35.87 92.92,35.63 92.99,35.4 93.07,35.18 93.15,34.97 93.23,34.78 93.31,34.59 93.4,34.41 93.49,34.24 93.59,34.08 93.69,33.93 93.8,33.78 93.91,33.65 94.03,33.53 94.15,33.41 94.27,33.31 94.4,33.21 94.54,33.12 94.68,33.03 94.82,32.96 94.97,32.89 95.13,32.84 95.28,32.78 95.45,32.74 95.61,32.7 95.78,32.67 95.96,32.64 96.14,32.62 96.32,32.6 96.51,32.59 96.7,32.58 96.9,32.58 100.84,32.55 100.95,32.01 "/>
    <polygon class="fil2" points="44.58,32.21 45.2,32.2 45.2,45.48 41.47,45.48 41.47,38.05 39.16,40.93 36.72,38.26 36.72,45.48 32.72,45.48 32.72,36.24 31.83,36.24 32.72,32.2 36.77,32.2 36.92,32.39 37.4,32.96 37.54,33.14 38.02,33.71 38.16,33.88 38.62,34.44 38.7,34.53 38.77,34.62 39.1,35.02 39.2,34.9 39.33,34.71 39.46,34.54 39.59,34.37 39.72,34.21 39.84,34.05 39.96,33.9 40.08,33.76 40.2,33.62 40.33,33.49 40.46,33.37 40.59,33.25 40.73,33.13 40.87,33.03 41.02,32.93 41.18,32.83 41.35,32.75 41.52,32.67 41.71,32.6 41.9,32.53 42.1,32.47 42.32,32.42 42.55,32.37 42.79,32.33 43.05,32.3 43.32,32.27 43.61,32.25 43.91,32.23 44.24,32.21 "/>
    <path class="fil3" d="M74.58 8.9c-0.32,0.47 -0.67,1.1 -0.98,1.77 -0.45,0.97 -0.69,1.84 -0.76,2.3 -0.01,0.1 -0.06,0.19 -0.12,0.26 -0.1,0.12 -0.25,0.19 -0.41,0.19 -0.11,0 -0.21,-0.03 -0.3,-0.09 -1.25,-0.87 -2.4,-1.06 -3.75,-1.07l-0.11 -0c-1.41,0 -2.43,0.3 -3.65,1.09 -0.09,0.05 -0.18,0.08 -0.29,0.08 -0.14,0 -0.27,-0.05 -0.37,-0.15 -0.08,-0.08 -0.13,-0.18 -0.15,-0.29 -0.07,-0.45 -0.31,-1.32 -0.76,-2.28l-0.01 -0.03c-0.31,-0.67 -0.66,-1.29 -0.98,-1.76 -0.13,-0.19 -0.12,-0.45 0.03,-0.63 0.1,-0.12 0.25,-0.19 0.41,-0.19 0.07,0 0.14,0.01 0.21,0.04 0.36,0.15 0.77,0.32 1.19,0.46 0.07,-0.14 0.18,-0.27 0.32,-0.36 0.04,-0.03 0.08,-0.05 0.13,-0.07 0.01,-0.26 0.09,-0.5 0.24,-0.72 0.1,-0.15 0.26,-0.23 0.44,-0.23 0.07,0 0.13,0.01 0.2,0.04 0.24,0.1 0.45,0.25 0.61,0.45 0.02,-0 0.04,-0.01 0.07,-0.01 0.11,-0.57 0.5,-0.89 0.9,-1.01 0,-0.01 0.01,-0.03 0.01,-0.04 0.11,-0.33 0.39,-0.57 0.74,-0.66 0.06,-0.28 0.23,-0.53 0.5,-0.77 0.1,-0.08 0.22,-0.13 0.34,-0.13 0.13,0 0.25,0.05 0.34,0.13 0.27,0.23 0.43,0.49 0.5,0.77 0.34,0.08 0.62,0.33 0.74,0.66 0,0.01 0.01,0.03 0.01,0.04 0.4,0.12 0.79,0.43 0.9,1.01 0.02,0 0.04,0.01 0.06,0.01 0.16,-0.2 0.37,-0.36 0.61,-0.45 0.06,-0.03 0.13,-0.04 0.2,-0.04 0.18,0 0.34,0.09 0.44,0.23 0.15,0.22 0.23,0.46 0.23,0.72 0.05,0.02 0.09,0.04 0.13,0.07 0.14,0.09 0.25,0.21 0.32,0.36 0.42,-0.14 0.83,-0.31 1.19,-0.46 0.07,-0.03 0.14,-0.04 0.21,-0.04 0.16,0 0.31,0.07 0.41,0.19 0.15,0.18 0.16,0.44 0.03,0.63zm0.33 -0.92c-0.27,-0.33 -0.76,-0.45 -1.15,-0.28 -0.26,0.11 -0.54,0.23 -0.84,0.34 -0.06,-0.06 -0.12,-0.11 -0.19,-0.16 -0.05,-0.25 -0.14,-0.48 -0.28,-0.69 -0.25,-0.38 -0.75,-0.54 -1.19,-0.37 -0.1,0.04 -0.2,0.09 -0.3,0.15 -0.18,-0.28 -0.44,-0.51 -0.75,-0.65 -0.15,-0.31 -0.41,-0.56 -0.73,-0.7 -0.11,-0.27 -0.3,-0.53 -0.56,-0.75 -0.36,-0.31 -0.93,-0.31 -1.29,0 -0.26,0.23 -0.45,0.48 -0.56,0.75 -0.32,0.14 -0.58,0.39 -0.73,0.7 -0.31,0.14 -0.57,0.36 -0.75,0.65 -0.1,-0.06 -0.2,-0.11 -0.3,-0.15 -0.43,-0.17 -0.93,-0.01 -1.19,0.37 -0.14,0.21 -0.24,0.45 -0.28,0.69 -0.07,0.05 -0.13,0.1 -0.19,0.16 -0.3,-0.11 -0.59,-0.23 -0.84,-0.34 -0.4,-0.17 -0.88,-0.05 -1.15,0.28 -0.28,0.34 -0.3,0.82 -0.05,1.18 0.3,0.45 0.64,1.04 0.94,1.68l0.02 0.04c0.43,0.92 0.65,1.74 0.72,2.16 0.03,0.21 0.13,0.4 0.28,0.55 0.19,0.19 0.43,0.29 0.7,0.29 0.19,0 0.37,-0.05 0.53,-0.16 1.14,-0.73 2.09,-1.01 3.4,-1.01l0.11 0c1.26,0.01 2.34,0.19 3.49,0.99 0.17,0.12 0.36,0.18 0.56,0.18 0.29,0 0.57,-0.13 0.76,-0.35 0.12,-0.14 0.19,-0.31 0.22,-0.48 0.07,-0.42 0.3,-1.25 0.73,-2.17 0.3,-0.65 0.64,-1.26 0.95,-1.71 0.25,-0.36 0.22,-0.85 -0.05,-1.18z"/>
    <path class="fil3" d="M62.73 22.73l3.2 0c-0.12,-0.24 -0.21,-0.52 -0.26,-0.84 -0.05,-0.32 -0.08,-0.75 -0.08,-1.3l0 -2.39c0.14,-0.13 0.29,-0.23 0.43,-0.3 0.15,-0.07 0.28,-0.1 0.42,-0.1 0.22,0 0.38,0.08 0.5,0.23 0.12,0.15 0.18,0.36 0.18,0.64l0 2.62c0,0.5 -0.03,0.92 -0.08,1.26 -0.05,0.33 -0.14,0.63 -0.27,0.88l3.19 0c-0.12,-0.26 -0.21,-0.56 -0.27,-0.9 -0.05,-0.34 -0.08,-0.75 -0.08,-1.24l0 -3.09c0.14,-0.14 0.27,-0.24 0.4,-0.3 0.12,-0.06 0.26,-0.09 0.39,-0.09 0.27,0 0.46,0.07 0.57,0.21 0.12,0.13 0.18,0.35 0.18,0.65l0 1.92c0,0.52 -0.03,0.95 -0.08,1.28 -0.05,0.33 -0.14,0.62 -0.26,0.86l3.2 0c-0.13,-0.26 -0.22,-0.55 -0.27,-0.89 -0.05,-0.34 -0.08,-0.75 -0.08,-1.24l0 -2.96c0,-0.62 -0.19,-1.09 -0.57,-1.39 -0.38,-0.3 -0.95,-0.46 -1.72,-0.46 -0.45,0 -0.86,0.05 -1.21,0.16 -0.35,0.11 -0.67,0.26 -0.93,0.46 -0.24,-0.2 -0.51,-0.36 -0.8,-0.46 -0.3,-0.11 -0.62,-0.16 -0.96,-0.16 -0.21,0 -0.4,0.02 -0.58,0.05 -0.18,0.03 -0.35,0.08 -0.53,0.15 -0.35,0.13 -0.66,0.33 -0.95,0.58l-0.11 -0.95 -2.61 0.51c0.11,0.22 0.26,0.64 0.31,0.91 0.06,0.27 0.08,0.56 0.08,0.87l0 2.69c0,0.52 -0.03,0.95 -0.08,1.28 -0.06,0.33 -0.14,0.62 -0.26,0.86z"/>
    <path class="fil2" d="M67.98 6.55c-0.38,-0.19 -0.72,-0 -0.8,0.25 0.49,0.12 0.76,0.26 0.8,0.76l-0.01 0.01c-0.22,-0.34 -0.54,-0.44 -0.9,-0.43 -0.39,0.01 -0.77,0.25 -0.8,0.8 -0.02,0.42 0.25,0.8 0.71,0.78 0.58,-0.02 0.8,-0.66 0.49,-0.88 -0.25,-0.18 -0.45,0.06 -0.44,0.19 -0.09,0.06 -0.16,-0.03 -0.16,-0.13 -0,-0.18 0.23,-0.26 0.35,-0.26 0.18,0 0.41,0.1 0.55,0.29 -0,0.01 -0,0.03 -0,0.04 0,0.16 0.08,0.3 0.19,0.39 -0.09,0.25 -0.2,0.52 -0.31,0.75 -0.67,0.04 -1.27,0.14 -1.81,0.28 -0.09,-0.25 -0.06,-0.43 0.03,-0.55 0.12,-0.16 0.33,-0.2 0.46,-0.17 -0.04,-0.34 -0.23,-0.49 -0.44,-0.48 -0.14,0.01 -0.28,0.08 -0.41,0.2 -0.05,-0.25 -0.23,-0.54 -0.57,-0.68 -0.21,0.31 -0.16,0.64 -0.06,0.87 -0.18,-0.03 -0.34,-0.01 -0.45,0.07 -0.18,0.11 -0.25,0.35 -0.09,0.65 0.08,-0.1 0.28,-0.19 0.47,-0.13 0.14,0.05 0.27,0.17 0.34,0.43 -0.48,0.17 -0.89,0.37 -1.26,0.58 -0.09,-0.42 0.08,-0.74 0.31,-0.97 -0.58,-0.14 -1.18,-0.38 -1.76,-0.63 0.36,0.53 0.72,1.2 1.03,1.86l-0 0c0.47,1 0.72,1.92 0.8,2.43l0 0c1.37,-0.88 2.52,-1.19 4.05,-1.17 1.53,0.02 2.74,0.26 4.05,1.17l0 -0c0.08,-0.5 0.33,-1.42 0.8,-2.43l-0 -0c0.31,-0.66 0.67,-1.33 1.03,-1.86 -0.59,0.25 -1.18,0.49 -1.77,0.63 0.23,0.23 0.4,0.55 0.31,0.97 -0.37,-0.21 -0.79,-0.41 -1.26,-0.58 0.07,-0.26 0.2,-0.39 0.34,-0.43 0.19,-0.06 0.38,0.02 0.47,0.13 0.16,-0.3 0.09,-0.53 -0.09,-0.65 -0.11,-0.07 -0.28,-0.1 -0.45,-0.07 0.1,-0.24 0.14,-0.56 -0.06,-0.87 -0.35,0.14 -0.52,0.43 -0.57,0.68 -0.13,-0.13 -0.27,-0.2 -0.41,-0.2 -0.21,-0.01 -0.4,0.14 -0.44,0.48 0.13,-0.04 0.34,0.01 0.46,0.17 0.09,0.12 0.12,0.29 0.03,0.55 -0.54,-0.14 -1.15,-0.24 -1.82,-0.28 -0.11,-0.23 -0.22,-0.49 -0.31,-0.75 0.12,-0.09 0.2,-0.23 0.2,-0.39 0,-0.01 -0,-0.02 -0,-0.04 0.14,-0.18 0.37,-0.29 0.55,-0.29 0.12,-0 0.35,0.08 0.35,0.26 -0,0.11 -0.07,0.2 -0.16,0.13 0.01,-0.14 -0.19,-0.37 -0.44,-0.19 -0.31,0.22 -0.09,0.86 0.49,0.88 0.46,0.01 0.73,-0.36 0.71,-0.78 -0.03,-0.55 -0.41,-0.8 -0.8,-0.8 -0.36,-0.01 -0.69,0.11 -0.91,0.43 -0.01,-0.01 -0.02,-0.01 -0.02,-0.02 0.05,-0.47 0.34,-0.63 0.82,-0.75 -0.09,-0.26 -0.43,-0.44 -0.8,-0.25 0.16,-0.41 0.02,-0.69 -0.27,-0.94 -0.29,0.25 -0.43,0.53 -0.27,0.94zm0.07 3.95l-0.76 -0.2 0.76 -0.2 0.2 -0.76 0.2 0.76 0.76 0.2 -0.76 0.2 -0.2 0.76 -0.2 -0.76zm3.07 -0.77l-0.07 0.78 0.64 0.45 -0.78 -0.07 -0.45 0.64 0.07 -0.78 -0.64 -0.45 0.78 0.07 0.45 -0.64zm-5.67 0.78l-0.07 -0.78 0.45 0.64 0.78 -0.07 -0.64 0.45 0.07 0.78 -0.45 -0.64 -0.78 0.07 0.64 -0.45z"/>
    <path class="fil1" d="M59.41 17.52c0.02,0.02 0.05,0.03 0.08,0.02 0.01,0.01 0.02,0.02 0.04,0.02 0.01,0.01 0.03,0.01 0.04,0.01 0.03,0 0.06,-0.01 0.08,-0.04 0.13,-0.16 0.28,-0.2 0.45,-0.25 0.14,-0.04 0.3,-0.08 0.46,-0.2 0.33,-0.24 0.34,-0.63 0.33,-1 -0,-0.04 -0.03,-0.08 -0.07,-0.1 -0.04,-0.02 -0.09,-0 -0.12,0.03 -0.13,0.15 -0.27,0.2 -0.43,0.26 -0.12,0.05 -0.25,0.1 -0.39,0.19l-0 0c-0.05,0.04 -0.09,0.07 -0.13,0.12 0.04,-0.13 0.07,-0.28 0.07,-0.44 -0.01,-0.5 -0.3,-0.74 -0.62,-0.98 -0.04,-0.03 -0.08,-0.03 -0.12,-0 -0.04,0.02 -0.06,0.07 -0.05,0.11 0.05,0.27 -0,0.48 -0.05,0.72 -0.04,0.16 -0.07,0.32 -0.09,0.52 -0.04,0.5 0.24,0.78 0.54,1.02z"/>
    <path class="fil1" d="M57.96 18.47c-0.02,0.2 -0.03,0.4 -0.02,0.63l0 0c0.05,0.56 0.43,0.76 0.84,0.89 0.02,0.01 0.05,0.01 0.07,-0 0.01,0 0.02,0.01 0.02,0.01 0.01,0 0.01,0 0.01,0 0.05,0 0.08,-0.02 0.1,-0.06 0.13,-0.25 0.3,-0.35 0.49,-0.47 0.16,-0.1 0.33,-0.21 0.48,-0.4 0.32,-0.39 0.26,-0.81 0.16,-1.25 -0.01,-0.04 -0.05,-0.08 -0.09,-0.08 -0.05,-0.01 -0.09,0.02 -0.11,0.06 -0.13,0.24 -0.28,0.36 -0.46,0.5 -0.13,0.1 -0.26,0.2 -0.4,0.36 -0,0 -0,0 -0,0 -0.05,0.06 -0.09,0.12 -0.13,0.18 0.02,-0.17 0.03,-0.34 -0,-0.52 -0.1,-0.56 -0.5,-0.71 -0.91,-0.79 -0.04,-0.01 -0.08,0.01 -0.1,0.04 -0.03,0.03 -0.03,0.07 -0.02,0.11 0.1,0.27 0.07,0.52 0.05,0.82z"/>
    <path class="fil1" d="M58.14 22.07c0.19,0.27 0.46,0.35 0.75,0.35 0.19,0 0.4,-0.04 0.59,-0.08 0.03,-0.01 0.06,-0.03 0.07,-0.06 0.01,0 0.02,-0 0.03,-0 0.04,-0.01 0.08,-0.05 0.08,-0.09 0.03,-0.26 0.15,-0.43 0.28,-0.62 0.12,-0.17 0.24,-0.34 0.31,-0.59 0.14,-0.49 -0.09,-0.83 -0.36,-1.16 -0.03,-0.03 -0.07,-0.05 -0.12,-0.04 -0.04,0.01 -0.07,0.05 -0.08,0.09 -0.02,0.28 -0.13,0.47 -0.25,0.69 -0.08,0.15 -0.16,0.3 -0.23,0.49l0 0c-0.05,0.14 -0.07,0.27 -0.07,0.39 -0.06,-0.22 -0.12,-0.45 -0.29,-0.65 -0.15,-0.18 -0.34,-0.26 -0.56,-0.26 -0.26,0 -0.55,0.12 -0.81,0.25 -0.04,0.02 -0.06,0.05 -0.06,0.09 -0,0.04 0.02,0.08 0.05,0.1 0.22,0.13 0.3,0.34 0.39,0.58 0.06,0.16 0.14,0.35 0.26,0.52z"/>
    <path class="fil1" d="M60.51 24.36c0.02,-0.01 0.04,-0.03 0.05,-0.06 0.02,0.01 0.03,0.02 0.05,0.03 0.04,0.03 0.09,0.03 0.12,0 0.04,-0.02 0.06,-0.07 0.05,-0.11 -0.06,-0.27 0.02,-0.48 0.11,-0.73 0.08,-0.22 0.16,-0.44 0.16,-0.72 -0.01,-0.57 -0.39,-0.83 -0.79,-1.06 -0.04,-0.02 -0.08,-0.02 -0.12,0.01 -0.03,0.03 -0.05,0.07 -0.04,0.11 0.06,0.3 0.01,0.53 -0.06,0.8 -0.04,0.18 -0.09,0.36 -0.1,0.59l0 0c-0.02,0.37 0.12,0.63 0.33,0.84 -0.16,-0.1 -0.26,-0.25 -0.37,-0.41 -0.14,-0.2 -0.29,-0.41 -0.56,-0.55 -0.11,-0.05 -0.24,-0.08 -0.36,-0.08 -0.42,0 -0.83,0.32 -1.18,0.62 -0.03,0.03 -0.05,0.07 -0.03,0.12 0.01,0.04 0.05,0.07 0.1,0.08 0.31,0.02 0.46,0.17 0.66,0.36 0.12,0.12 0.26,0.25 0.45,0.36 0.16,0.1 0.33,0.14 0.51,0.14 0.35,0 0.71,-0.16 1.04,-0.32z"/>
    <path class="fil1" d="M76.24 16.27c-0.16,-0.06 -0.3,-0.11 -0.43,-0.26 -0.03,-0.03 -0.08,-0.04 -0.12,-0.03 -0.04,0.02 -0.07,0.05 -0.07,0.1 -0.02,0.39 -0,0.76 0.32,1 0.16,0.12 0.32,0.16 0.46,0.2 0.17,0.05 0.32,0.09 0.45,0.25 0.02,0.03 0.05,0.04 0.09,0.04 0.01,0 0.03,-0 0.04,-0.01 0.01,-0.01 0.03,-0.01 0.04,-0.02 0.03,0.01 0.06,-0 0.08,-0.02 0.3,-0.23 0.57,-0.52 0.54,-1.02 -0.01,-0.2 -0.05,-0.36 -0.09,-0.52 -0.05,-0.24 -0.1,-0.45 -0.05,-0.72 0.01,-0.04 -0.01,-0.09 -0.05,-0.11 -0.04,-0.02 -0.09,-0.02 -0.12,0 -0.32,0.23 -0.61,0.48 -0.62,0.98l0 0c-0,0.17 0.03,0.31 0.07,0.44 -0.04,-0.04 -0.08,-0.08 -0.13,-0.12 -0.14,-0.1 -0.28,-0.15 -0.39,-0.19z"/>
    <path class="fil1" d="M75.7 15.32c0.22,0.15 0.41,0.28 0.52,0.58 0.02,0.04 0.06,0.07 0.1,0.07l0 0c0.05,-0 0.09,-0.03 0.1,-0.08 0.16,-0.54 0.27,-1.1 -0.04,-1.57 -0.13,-0.2 -0.28,-0.33 -0.41,-0.45 -0.18,-0.16 -0.34,-0.3 -0.43,-0.59 -0.01,-0.04 -0.05,-0.07 -0.1,-0.08 -0.05,-0 -0.09,0.02 -0.11,0.06 -0.26,0.58 -0.44,1.09 -0.16,1.55 0.15,0.24 0.33,0.36 0.52,0.49z"/>
    <path class="fil1" d="M60.19 15.98l0 0c0.05,0 0.09,-0.03 0.1,-0.07 0.1,-0.31 0.3,-0.44 0.52,-0.58 0.18,-0.12 0.37,-0.25 0.52,-0.49 0.29,-0.45 0.1,-0.97 -0.16,-1.55 -0.02,-0.04 -0.06,-0.07 -0.11,-0.06 -0.05,0 -0.08,0.03 -0.1,0.08 -0.09,0.29 -0.25,0.43 -0.43,0.59 -0.13,0.12 -0.28,0.25 -0.41,0.45l-0 0c-0.32,0.47 -0.21,1.03 -0.04,1.57 0.01,0.05 0.06,0.08 0.1,0.08z"/>
    <path class="fil1" d="M77.57 18.83c-0.04,-0.06 -0.08,-0.12 -0.13,-0.18 -0.14,-0.16 -0.27,-0.26 -0.4,-0.36 -0.18,-0.14 -0.33,-0.26 -0.46,-0.5 -0.02,-0.04 -0.07,-0.06 -0.11,-0.06 -0.04,0.01 -0.08,0.04 -0.09,0.08 -0.09,0.44 -0.15,0.86 0.16,1.25 0.15,0.19 0.32,0.3 0.48,0.4 0.19,0.12 0.36,0.23 0.49,0.47 0.02,0.04 0.06,0.06 0.1,0.06 0.01,0 0.01,-0 0.02,-0 0.01,-0 0.02,-0 0.02,-0.01 0.02,0.01 0.05,0.01 0.07,0 0.41,-0.13 0.8,-0.33 0.84,-0.89 0.02,-0.23 0,-0.43 -0.02,-0.63 -0.02,-0.29 -0.04,-0.55 0.05,-0.82 0.01,-0.04 0,-0.08 -0.02,-0.11 -0.03,-0.03 -0.06,-0.04 -0.1,-0.04 -0.42,0.08 -0.81,0.23 -0.91,0.79 -0.03,0.19 -0.03,0.36 -0,0.53z"/>
    <path class="fil1" d="M73.65 26.81c-0.39,0 -0.69,0.14 -0.98,0.28 -0.23,0.11 -0.46,0.22 -0.72,0.24 0.39,-0.1 0.74,-0.29 0.94,-0.7 0.11,-0.22 0.17,-0.42 0.23,-0.61 0.09,-0.29 0.16,-0.54 0.4,-0.8 0.03,-0.03 0.04,-0.08 0.02,-0.12 -0.02,-0.04 -0.06,-0.06 -0.1,-0.06 -0.54,0.01 -1.09,0.07 -1.42,0.62l-0 0c-0.16,0.27 -0.2,0.53 -0.24,0.79 -0.04,0.29 -0.08,0.53 -0.29,0.78 -0.03,0.03 -0.03,0.08 -0.01,0.12 0.02,0.03 0.05,0.05 0.09,0.05 -0.01,0.03 0,0.07 0.02,0.09 0.38,0.45 0.84,0.92 1.47,0.92 0.05,0 0.09,-0 0.14,-0.01 0.27,-0.02 0.5,-0.08 0.72,-0.13 0.36,-0.09 0.67,-0.17 1.09,-0.04 0.04,0.01 0.09,0 0.12,-0.03 0.03,-0.03 0.03,-0.08 0.01,-0.12 -0.34,-0.63 -0.74,-1.24 -1.5,-1.28z"/>
    <path class="fil1" d="M75.97 25.23l-0 0c-0.07,0 -0.13,0.01 -0.2,0.02 0,0 -0,0 -0.01,0 -0.35,0.08 -0.59,0.27 -0.82,0.46 -0.18,0.15 -0.35,0.29 -0.57,0.36 0.33,-0.18 0.61,-0.44 0.7,-0.87 0.05,-0.24 0.05,-0.45 0.05,-0.66 0,-0.31 0.01,-0.57 0.16,-0.88 0.02,-0.04 0.02,-0.08 -0.01,-0.12 -0.03,-0.03 -0.07,-0.05 -0.11,-0.04 -0.51,0.14 -1.03,0.32 -1.2,0.94l0 0c-0.08,0.3 -0.05,0.57 -0.02,0.82 0.03,0.29 0.06,0.54 -0.08,0.83 -0.02,0.04 -0.01,0.09 0.02,0.12 0.03,0.03 0.08,0.04 0.12,0.03 0,-0 0,-0 0.01,-0 0,0.03 0.02,0.06 0.04,0.08 0.39,0.29 0.84,0.59 1.33,0.59 0.12,0 0.25,-0.02 0.37,-0.06 0.25,-0.07 0.44,-0.16 0.62,-0.26 0.3,-0.15 0.55,-0.28 0.96,-0.22 0.05,0.01 0.09,-0.02 0.11,-0.06 0.02,-0.04 0.02,-0.09 -0.01,-0.12 -0.42,-0.49 -0.88,-0.96 -1.47,-0.96z"/>
    <path class="fil1" d="M77.54 23.01c-0.12,0 -0.24,0.03 -0.36,0.08 -0,0 -0,0 -0,0 -0.27,0.14 -0.42,0.35 -0.56,0.55 -0.11,0.16 -0.22,0.31 -0.37,0.41 0.21,-0.21 0.35,-0.47 0.33,-0.84 -0.01,-0.22 -0.06,-0.41 -0.1,-0.59 -0.06,-0.27 -0.12,-0.5 -0.06,-0.8 0.01,-0.04 -0.01,-0.08 -0.04,-0.11 -0.03,-0.03 -0.08,-0.03 -0.12,-0.01 -0.39,0.23 -0.78,0.49 -0.79,1.06l0 0c-0,0.28 0.08,0.5 0.16,0.72 0.09,0.25 0.17,0.46 0.11,0.73 -0.01,0.04 0.01,0.09 0.05,0.11 0.04,0.02 0.09,0.02 0.12,-0 0.02,-0.01 0.03,-0.02 0.04,-0.03 0.01,0.02 0.03,0.05 0.05,0.06 0.33,0.16 0.69,0.32 1.04,0.32 0.17,0 0.34,-0.04 0.5,-0.14 0.19,-0.11 0.33,-0.24 0.45,-0.36 0.2,-0.19 0.35,-0.34 0.66,-0.36 0.04,-0 0.08,-0.03 0.09,-0.08 0.01,-0.04 0,-0.09 -0.03,-0.12 -0.35,-0.3 -0.77,-0.62 -1.18,-0.62z"/>
    <path class="fil1" d="M79.02 20.78c-0.27,-0.13 -0.55,-0.25 -0.81,-0.25 -0.22,0 -0.41,0.09 -0.56,0.26l0 0c-0.17,0.2 -0.23,0.43 -0.29,0.65 0,-0.12 -0.02,-0.25 -0.07,-0.39 -0.07,-0.19 -0.15,-0.35 -0.23,-0.49 -0.12,-0.22 -0.22,-0.41 -0.25,-0.69 -0,-0.04 -0.03,-0.08 -0.08,-0.09 -0.04,-0.01 -0.09,0 -0.12,0.04 -0.27,0.33 -0.5,0.67 -0.36,1.16l0 0c0.07,0.24 0.19,0.42 0.31,0.59 0.14,0.2 0.26,0.37 0.28,0.62 0.01,0.05 0.04,0.08 0.08,0.09 0.01,0 0.02,0 0.03,0 0.01,0.03 0.04,0.05 0.07,0.06 0.19,0.04 0.4,0.08 0.59,0.08 0.29,0 0.56,-0.08 0.75,-0.35 0.12,-0.17 0.2,-0.36 0.26,-0.52 0.09,-0.24 0.18,-0.45 0.39,-0.58 0.03,-0.02 0.05,-0.06 0.05,-0.1 -0,-0.04 -0.02,-0.08 -0.06,-0.09z"/>
    <path class="fil1" d="M66.94 27.35c-0.09,-0.24 -0.19,-0.48 -0.41,-0.72 -0.26,-0.27 -0.56,-0.4 -0.96,-0.4 -0.2,0 -0.4,0.03 -0.55,0.06 -0.04,0.01 -0.08,0.04 -0.09,0.08 -0.01,0.04 0.01,0.09 0.05,0.11 0.3,0.2 0.43,0.44 0.59,0.71 0.1,0.17 0.2,0.35 0.34,0.53 0.14,0.18 0.31,0.3 0.49,0.37 -0.02,-0.01 -0.05,-0.01 -0.07,-0.02l-0.05 -0.01c-0.22,-0.06 -0.45,-0.11 -0.7,-0.11 -0.11,0 -0.21,0.01 -0.32,0.03l-0 0c-0.73,0.19 -0.97,0.83 -1.17,1.54 -0.01,0.04 0,0.09 0.04,0.12 0.02,0.02 0.04,0.02 0.07,0.02 0.02,0 0.04,-0.01 0.06,-0.01 0.29,-0.17 0.53,-0.2 0.82,-0.19 0.08,0 0.16,0.01 0.24,0.01 0.21,0.01 0.43,0.03 0.68,-0.01 0.63,-0.06 1.02,-0.52 1.4,-1.18 0.01,-0.02 0.02,-0.05 0.01,-0.07 0.01,-0.01 0.02,-0.03 0.03,-0.04 0.02,-0.04 0,-0.09 -0.04,-0.12 -0.25,-0.2 -0.34,-0.43 -0.44,-0.69z"/>
    <path class="fil1" d="M64.91 27.5c0.02,-0.03 0.03,-0.06 0.02,-0.09 0.04,-0 0.07,-0.02 0.09,-0.06 0.02,-0.04 0.02,-0.09 -0.01,-0.12 -0.21,-0.24 -0.24,-0.49 -0.29,-0.78 -0.04,-0.25 -0.08,-0.51 -0.24,-0.79 -0.33,-0.55 -0.88,-0.61 -1.42,-0.62 -0.05,-0.01 -0.08,0.02 -0.1,0.06 -0.02,0.04 -0.01,0.09 0.02,0.12 0.24,0.26 0.32,0.51 0.4,0.8 0.06,0.19 0.12,0.39 0.23,0.61 0.19,0.4 0.52,0.58 0.94,0.7 -0.26,-0.02 -0.49,-0.13 -0.72,-0.24 -0.29,-0.14 -0.58,-0.28 -0.98,-0.28 -0.76,0.04 -1.16,0.65 -1.5,1.28 -0.02,0.04 -0.02,0.09 0.01,0.12 0.03,0.03 0.08,0.05 0.12,0.03 0.43,-0.14 0.73,-0.06 1.09,0.04 0.22,0.06 0.44,0.11 0.71,0.13 0.05,0.01 0.1,0.01 0.14,0.01 0.64,0 1.1,-0.47 1.48,-0.92z"/>
    <path class="fil1" d="M62.51 26.24c0,0 0,0 0.01,0 0.04,0.02 0.09,0.01 0.12,-0.03 0.03,-0.03 0.04,-0.08 0.02,-0.12 -0.14,-0.28 -0.11,-0.54 -0.08,-0.83 0.03,-0.25 0.06,-0.52 -0.02,-0.82 -0.17,-0.61 -0.69,-0.8 -1.2,-0.94 -0.04,-0.01 -0.09,0 -0.11,0.04 -0.03,0.03 -0.03,0.08 -0.01,0.12 0.16,0.31 0.16,0.57 0.16,0.88 0,0.2 0,0.42 0.05,0.66 0.09,0.43 0.36,0.69 0.7,0.87 -0.22,-0.07 -0.39,-0.21 -0.57,-0.36 -0.23,-0.19 -0.46,-0.38 -0.82,-0.46 -0.07,-0.01 -0.14,-0.02 -0.2,-0.02l-0 0c-0.59,0 -1.05,0.47 -1.47,0.96 -0.03,0.03 -0.03,0.08 -0.01,0.12 0.02,0.04 0.07,0.06 0.11,0.06 0.41,-0.06 0.67,0.07 0.96,0.22 0.18,0.09 0.38,0.19 0.62,0.26 0.13,0.04 0.25,0.06 0.38,0.06 0.5,0 0.94,-0.3 1.34,-0.59 0.03,-0.02 0.04,-0.05 0.04,-0.08z"/>
    <path class="fil1" d="M71.27 27.98c-0.11,-0.02 -0.21,-0.03 -0.32,-0.03 -0.25,0 -0.48,0.06 -0.7,0.11l-0.05 0.01c-0.02,0.01 -0.05,0.01 -0.07,0.02 0.18,-0.08 0.34,-0.19 0.48,-0.37 0.15,-0.18 0.25,-0.36 0.35,-0.53 0.15,-0.27 0.28,-0.5 0.59,-0.71 0.04,-0.02 0.05,-0.07 0.05,-0.11 -0.01,-0.04 -0.04,-0.08 -0.09,-0.08 -0.16,-0.03 -0.36,-0.06 -0.55,-0.06 -0.4,0 -0.7,0.13 -0.96,0.4l-0 0c-0.22,0.24 -0.32,0.49 -0.41,0.72 -0.1,0.27 -0.19,0.5 -0.44,0.69 -0.04,0.03 -0.05,0.08 -0.04,0.12 0.01,0.02 0.02,0.03 0.03,0.04 -0,0.02 0,0.05 0.01,0.07 0.38,0.66 0.77,1.12 1.39,1.18 0.26,0.03 0.48,0.02 0.69,0.01 0.08,-0.01 0.16,-0.01 0.24,-0.01 0.28,-0.01 0.53,0.02 0.82,0.19 0.02,0.01 0.04,0.01 0.06,0.01 0.02,0 0.05,-0.01 0.07,-0.02 0.03,-0.03 0.05,-0.07 0.04,-0.12 -0.2,-0.7 -0.44,-1.35 -1.17,-1.54z"/>
    <path class="fil4" d="M51.51 55.35c-0.03,-0.33 -0.3,-0.56 -0.65,-0.53 -0.46,0.04 -0.88,0.5 -0.84,0.98 0.03,0.34 0.29,0.56 0.64,0.53 0.47,-0.04 0.89,-0.5 0.85,-0.98zm-2.43 -3.67c0.42,-0.29 0.74,-0.55 0.89,-0.73 0.18,-0.1 1.1,-0.45 1.34,-0.43 0.18,0.04 -1.04,0.78 -2.38,1.55l-0.04 -0.02 -0.07 0.03c-0.62,-0.6 -1.14,-1.19 -0.9,-1.28 0.27,-0.06 0.89,0.16 0.99,0.24 -0.03,0.17 0.04,0.39 0.18,0.64zm-4.76 11.8c0,-0.01 0,-0.03 0,-0.05 0.34,-0.09 0.77,-0.21 1.27,-0.29 1.66,-0.29 3.94,-0.33 4.78,0.17 0.21,-0.05 1.07,-0.58 1.15,-0.94 0.02,-0.57 -3.96,0.03 -5.87,0.36 -0.1,0.02 -1.11,0.07 -1.14,0.14 -0.21,0.49 3.78,-8.44 6.6,-10.48 0.08,-0.06 0.07,-0.13 0.07,-0.18 0,-0.1 -0.06,-0.15 -0.13,-0.14 -0.27,0.02 -0.76,0.2 -1.46,0.26 -1.22,0.1 -2.89,-0.12 -3.51,-0.71 -0.15,0.02 -0.79,0.46 -0.85,0.82 -0.02,0.57 2.9,0.42 4.31,0.3 0.37,-0.03 0.51,-0.07 0.7,-0.09 0.11,-0.01 0.17,0.12 0.14,0.08 -0.53,-0.55 -6.14,8.33 -6.7,10.24 -0.07,0.14 -0.13,0.26 -0.17,0.36 -0.11,0.04 -0.08,0.14 -0.08,0.19 0,0.01 0,0.02 0,0.03 -0,0.01 -0.01,0.02 -0.01,0.03l0.02 -0c0.02,0.06 0.09,0.08 0.17,0.07 0.13,-0.02 0.29,-0.07 0.49,-0.12l0.23 -0.02zm48.78 -14.78c-0.01,-0.12 -0.41,-0.16 -0.61,-0.14 -0.12,0.01 -0.17,0.07 -0.23,0.21 0,0 -2.92,6.19 -3.15,6.81 -0.01,0.02 -0.02,0.04 -0.02,0.06 0.01,0.06 0.07,0.08 0.15,0.07 0.09,-0.01 0.19,-0.05 0.21,-0.08 0.3,-0.55 2.31,-4.29 3.63,-6.87 0.01,-0.02 0.02,-0.03 0.02,-0.05zm-3.6 8.04c-0.03,-0.33 -0.3,-0.56 -0.65,-0.53 -0.46,0.04 -0.88,0.5 -0.84,0.98 0.03,0.34 0.28,0.57 0.64,0.54 0.47,-0.04 0.89,-0.5 0.85,-0.98zm-1.7 -3.4c-0.01,-0.11 -0.11,-0.19 -0.43,-0.16 -2.2,0.19 -4.2,2.41 -4.76,3.87 -0.57,0.75 -0.97,1.14 -1.21,1.16 -0.14,0.01 -0.24,-0.11 -0.26,-0.38 -0.05,-0.64 0.97,-2.23 1.97,-3.33 0.02,-0.03 0.03,-0.06 0.02,-0.08 -0.01,-0.1 -0.18,-0.11 -0.18,-0.11 0,0 -0.53,0.14 -1.22,0.2 -0.3,0.03 -0.54,0.01 -0.73,-0.03 0.24,-0.5 0.38,-0.91 0.36,-1.16 -0.01,-0.17 -0.1,-0.27 -0.3,-0.25 -0.6,0.05 -1.11,0.52 -1.07,1 0.02,0.27 0.21,0.54 0.63,0.75 -0.29,0.6 -0.7,1.31 -1.14,1.92l-0.17 0.23c-0.05,0.07 -0.06,0.11 -0.06,0.14 0.01,0.07 0.11,0.08 0.11,0.08 0.52,-0.75 1.04,-1.58 1.43,-2.3 0.29,0.12 0.68,0.22 1.18,0.27 -0.62,0.67 -1.83,2.26 -1.77,3.03 0.02,0.29 0.24,0.47 0.73,0.42 0.39,-0.03 0.94,-0.39 1.55,-1.12 -0.02,0.12 -0.03,0.23 -0.02,0.33 0.03,0.32 0.22,0.5 0.61,0.47 0.81,-0.07 1.96,-1.39 2.19,-1.66 0.04,-0.04 0.06,-0.06 0.08,-0.06 0.03,-0 0.05,0.02 0.06,0.05 -0.16,0.38 -0.22,0.73 -0.19,1 0.03,0.41 0.25,0.62 0.58,0.59 0.52,-0.04 1.33,-0.67 2.21,-2.02 0.02,-0.03 0.02,-0.05 0.01,-0.07 -0.01,-0.07 -0.09,-0.1 -0.09,-0.1 -0.81,1.15 -1.36,1.75 -1.66,1.77 -0.14,0.01 -0.24,-0.11 -0.26,-0.38 -0.08,-0.93 0.85,-2.14 1.34,-2.75 0.19,-0.24 0.37,-0.46 0.44,-0.55 0.01,-0.02 0.02,-0.03 0.02,-0.05 -0.01,-0.08 -0.18,-0.1 -0.37,-0.08 -0.09,0.01 -0.17,0.03 -0.23,0.04 -0.24,0.04 -0.96,1.06 -1.28,1.47 -0.43,0.53 -1.47,1.8 -2.29,1.87 -0.11,0.01 -0.17,-0.06 -0.18,-0.17 -0.06,-0.72 1.76,-3.54 3.54,-3.69 0.48,-0.04 0.5,0.32 0.52,0.32 0.05,-0 0.33,-0.29 0.31,-0.48zm-6.8 0.25c0.02,0.17 -0.06,0.47 -0.21,0.82 -0.31,-0.13 -0.45,-0.33 -0.47,-0.53 -0.02,-0.25 0.15,-0.47 0.39,-0.49 0.14,-0.01 0.27,0.01 0.28,0.19zm-1.03 0.53c-0.01,-0.15 -0.15,-0.28 -0.51,-0.25 -2.48,0.21 -4.8,3.09 -5.06,4.51 -0.28,0.3 -0.49,0.45 -0.64,0.46 -0.14,0.01 -0.24,-0.11 -0.26,-0.38 -0.07,-0.81 1.26,-2.79 1.84,-3.66 0.01,-0.02 0.02,-0.03 0.02,-0.05 -0.01,-0.08 -0.12,-0.1 -0.31,-0.09 -0.29,0.02 -0.33,0.03 -0.55,0.28 -0.59,0.7 -1.96,2.92 -1.89,3.81 0.03,0.39 0.26,0.59 0.58,0.56 0.31,-0.03 0.72,-0.25 1.18,-0.69 0,0.02 0,0.05 0,0.07 0.03,0.31 0.21,0.48 0.59,0.45 0.81,-0.07 1.98,-1.31 2.21,-1.59 0.04,-0.04 0.06,-0.06 0.08,-0.06 0.03,-0 0.05,0.02 0.06,0.05 0.02,0.1 -2.07,3.38 -3.5,3.58 -0.14,0.02 -0.2,0.05 -0.2,0.08 0,0.05 0.23,0.1 0.45,0.09 2.56,-0.22 4.69,-4.88 5.29,-5.83 0.01,-0.02 0.02,-0.03 0.02,-0.05 -0.01,-0.08 -0.18,-0.1 -0.37,-0.08 -0.12,0.01 -0.36,0.06 -0.44,0.16 -0.12,0.15 -0.36,0.51 -0.52,0.7 -0.43,0.53 -1.72,1.95 -2.54,2.02 -0.1,0.01 -0.16,-0.05 -0.17,-0.15 -0.06,-0.72 1.91,-3.71 3.71,-3.87 0.48,-0.04 0.5,0.5 0.52,0.49 0.15,-0.01 0.42,-0.33 0.4,-0.57zm-3.44 -1.16c-0.03,-0.33 -0.3,-0.56 -0.65,-0.53 -0.46,0.04 -0.88,0.5 -0.84,0.98 0.03,0.34 0.29,0.56 0.64,0.53 0.47,-0.04 0.89,-0.5 0.85,-0.98zm-9.27 5.61c-0.14,0.77 0.24,1.18 1.13,1.1 0.71,-0.06 1.71,-0.74 2.5,-1.73 0.2,-0.25 0.31,-0.64 -0.03,-0.26 -0.53,0.61 -1.22,1.12 -1.84,1.22 -0.95,0.15 -1.34,-1.15 -0.06,-2.24 0.15,0.26 0.4,0.41 0.74,0.38 0.75,-0.06 2.08,-1.33 1.93,-1.66 -0.33,-0.7 -3.84,0.37 -4.36,3.18zm3.9 -2.85c-0.02,0.13 -0.96,0.94 -1.28,0.97 -0.27,0.02 -0.44,-0.08 -0.56,-0.25 0.35,-0.41 1.92,-1.27 1.83,-0.71zm-1.81 -2.15c-0.03,-0.33 -0.3,-0.56 -0.65,-0.53 -0.46,0.04 -0.88,0.5 -0.84,0.98 0.03,0.34 0.29,0.56 0.64,0.53 0.47,-0.04 0.89,-0.5 0.85,-0.98zm-1.11 1.89c-0.01,-0.08 -0.27,-0.11 -0.45,-0.1 -0.12,0.01 -0.38,0.06 -0.44,0.16 -2.15,4.07 -3.41,6.39 -4.91,6.56 -0.14,0.01 -0.2,0.05 -0.2,0.08 0,0.05 0.23,0.1 0.45,0.09 2.3,-0.19 3.9,-3.8 5.54,-6.74 0.01,-0.02 0.02,-0.03 0.02,-0.05zm-2.1 -1.77c-0.02,-0.27 -3.15,1.4 -3.42,1.45 1.02,-1.23 1.77,-2.34 1.73,-2.81 -0.01,-0.17 -0.14,-0.26 -0.38,-0.24 -0.45,0.04 -1.85,1.57 -3.12,3.33 -0.54,0.08 -1.06,0.13 -1.56,0.17 -0.08,0.01 -0.12,0.07 -0.11,0.14 0.02,0.25 0.33,0.23 0.48,0.22 0.31,-0.04 0.61,-0.08 0.9,-0.13 -0.69,1.01 -1.32,2.05 -1.67,2.92 -0.01,-0 -0.02,-0.01 -0.02,-0.01 -0.4,0.57 -0.83,0.92 -1.16,0.94 -0.14,0.01 -0.26,-0.03 -0.35,-0.13 0.86,-0.94 1.45,-2.06 1.4,-2.62 -0.02,-0.23 -0.14,-0.35 -0.4,-0.33 -1.09,0.09 -1.84,1.5 -1.76,2.45 0.02,0.26 0.09,0.47 0.21,0.61 -0.37,0.4 -0.78,0.71 -1.16,0.74 -0.38,0.03 -0.56,-0.14 -0.58,-0.43 -0.09,-1.03 1.77,-3.56 3.16,-3.67 0.48,-0.04 0.59,0.24 0.61,0.24 0.05,-0 0.27,-0.23 0.26,-0.39 -0.01,-0.11 -0.12,-0.2 -0.46,-0.17 -1.87,0.16 -3.44,1.77 -4.13,3.14 -0.02,-0.02 -0.05,-0.02 -0.05,-0.02 -0.41,0.6 -0.82,0.85 -1.14,0.88 -0.22,0.02 -0.35,-0.1 -0.43,-0.32 0.96,-1.13 1.8,-2.55 1.75,-3.17 -0.02,-0.22 -0.14,-0.33 -0.4,-0.31 -1.05,0.09 -2.03,2.23 -1.93,3.43 0.01,0.11 0.02,0.2 0.05,0.3 -0.32,0.37 -0.61,0.62 -0.77,0.63 -0.2,0.02 -0.29,-0.1 -0.3,-0.29 -0.06,-0.73 0.91,-2.61 1.51,-3.54 0,0 0.03,-0.04 0.03,-0.05 -0.01,-0.09 -0.18,-0.1 -0.35,-0.08 -0.24,0.02 -0.31,0.03 -0.45,0.21 -0.45,0.61 -1.78,3.05 -1.69,4.07 0.03,0.3 0.17,0.46 0.48,0.44 0.44,-0.04 1.05,-0.51 1.66,-1.14 0.12,0.2 0.32,0.29 0.62,0.27 0.38,-0.03 0.82,-0.3 1.2,-0.78 -0.12,0.33 -0.17,0.62 -0.15,0.86 0.03,0.37 0.25,0.6 0.68,0.56 0.78,-0.07 1.56,-0.56 2.22,-1.19 0.14,0.08 0.31,0.11 0.49,0.09 0.38,-0.03 0.81,-0.27 1.16,-0.7 -0.1,0.33 -0.15,0.61 -0.13,0.85 0.03,0.41 0.28,0.64 0.82,0.59 0.52,-0.04 1.33,-0.67 2.21,-2.02 0.02,-0.03 0.02,-0.05 0.01,-0.07 -0.01,-0.07 -0.09,-0.1 -0.09,-0.1 -0.81,1.15 -1.36,1.75 -1.66,1.77 -0.23,0.02 -0.34,-0.12 -0.36,-0.35 -0.04,-0.42 0.22,-1.2 0.63,-2.08 0.71,-0.72 1.46,-1.52 2.12,-2.29 0.38,-0.06 3.89,-0.72 3.79,-1.88zm-2.14 -0.91c0.02,0.25 -0.66,1.27 -1.56,2.41 -0.28,0.04 -0.54,0.1 -0.8,0.13 0.88,-1.4 1.83,-2.55 2.31,-2.59 0.04,-0 0.05,0.02 0.06,0.05zm-1.92 2.84c-0.52,0.62 -1.08,1.25 -1.63,1.77 0.27,-0.55 0.59,-1.11 0.92,-1.66 0.24,-0.04 0.48,-0.07 0.7,-0.11zm-3.86 1.53c0.03,0.37 -0.38,1.28 -0.93,2.05 -0.02,-0.06 -0.02,-0.12 -0.03,-0.19 -0.07,-0.79 0.36,-1.99 0.8,-2.03 0.1,-0.01 0.15,0.06 0.16,0.17zm-3.83 -0.5c0.03,0.41 -0.73,1.7 -1.48,2.7 -0.07,-0.99 0.55,-2.75 1.33,-2.82 0.09,-0.01 0.14,0.03 0.14,0.12zm-4.04 0.49c-0.01,-0.08 -0.12,-0.1 -0.31,-0.09 -0.29,0.02 -0.33,0.03 -0.55,0.28 -0.59,0.7 -1.96,2.92 -1.89,3.81 0.03,0.39 0.26,0.59 0.58,0.56 0.54,-0.05 1.41,-0.7 2.3,-2.08 0.02,-0.03 0.02,-0.05 0.01,-0.07 -0.01,-0.07 -0.09,-0.1 -0.09,-0.1 -0.81,1.15 -1.36,1.75 -1.66,1.77 -0.14,0.01 -0.24,-0.11 -0.26,-0.38 -0.07,-0.81 1.26,-2.79 1.84,-3.66 0.01,-0.02 0.02,-0.03 0.02,-0.05z"/>
    <path class="fil5" d="M51.3 55.19c-0.03,-0.33 -0.3,-0.56 -0.65,-0.53 -0.46,0.04 -0.88,0.5 -0.84,0.98 0.03,0.34 0.29,0.56 0.64,0.53 0.47,-0.04 0.89,-0.5 0.85,-0.98zm-2.43 -3.67c0.42,-0.29 0.74,-0.55 0.89,-0.73 0.18,-0.1 1.1,-0.45 1.34,-0.43 0.18,0.04 -1.04,0.78 -2.38,1.55l-0.04 -0.02 -0.07 0.03c-0.62,-0.6 -1.14,-1.19 -0.9,-1.28 0.27,-0.06 0.89,0.16 0.99,0.24 -0.03,0.17 0.04,0.39 0.18,0.64zm-4.76 11.8c0,-0.01 0,-0.03 0,-0.05 0.34,-0.09 0.77,-0.21 1.27,-0.29 1.66,-0.29 3.94,-0.33 4.78,0.17 0.21,-0.05 1.07,-0.58 1.15,-0.94 0.02,-0.57 -3.96,0.03 -5.87,0.36 -0.1,0.02 -1.11,0.07 -1.14,0.14 -0.21,0.49 3.78,-8.44 6.6,-10.48 0.07,-0.05 0.06,-0.13 0.07,-0.18 0,-0.1 -0.06,-0.15 -0.13,-0.14 -0.27,0.02 -0.76,0.2 -1.46,0.26 -1.22,0.1 -2.89,-0.12 -3.51,-0.71 -0.15,0.02 -0.79,0.46 -0.85,0.82 -0.02,0.57 2.9,0.42 4.31,0.3 0.37,-0.03 0.51,-0.07 0.7,-0.09 0.11,-0.01 0.17,0.12 0.14,0.08 -0.53,-0.55 -6.14,8.33 -6.7,10.24 -0.07,0.14 -0.13,0.26 -0.17,0.36 -0.11,0.04 -0.08,0.14 -0.08,0.19 0,0.01 0,0.02 0,0.03 -0,0.01 -0.01,0.02 -0.01,0.03l0.02 -0c0.02,0.06 0.09,0.08 0.17,0.07 0.12,-0.02 0.29,-0.07 0.49,-0.12l0.23 -0.02zm48.78 -14.78c-0.01,-0.12 -0.41,-0.16 -0.61,-0.14 -0.12,0.01 -0.17,0.07 -0.23,0.21 0,0 -2.92,6.18 -3.15,6.81 -0.01,0.02 -0.02,0.04 -0.02,0.06 0.01,0.06 0.07,0.08 0.15,0.07 0.09,-0.01 0.19,-0.05 0.21,-0.08 0.3,-0.55 2.31,-4.29 3.63,-6.87 0.01,-0.02 0.02,-0.03 0.02,-0.05zm-3.6 8.04c-0.03,-0.33 -0.29,-0.56 -0.65,-0.53 -0.46,0.04 -0.88,0.5 -0.84,0.98 0.03,0.34 0.28,0.57 0.64,0.54 0.47,-0.04 0.89,-0.5 0.85,-0.98zm-1.7 -3.4c-0.01,-0.11 -0.11,-0.19 -0.43,-0.16 -2.2,0.19 -4.2,2.41 -4.76,3.87 -0.57,0.75 -0.97,1.14 -1.21,1.16 -0.14,0.01 -0.24,-0.11 -0.26,-0.38 -0.05,-0.64 0.97,-2.23 1.97,-3.33 0.02,-0.03 0.03,-0.06 0.02,-0.08 -0.01,-0.1 -0.18,-0.11 -0.18,-0.11 0,0 -0.53,0.14 -1.22,0.2 -0.3,0.03 -0.54,0.01 -0.73,-0.03 0.24,-0.5 0.38,-0.91 0.36,-1.16 -0.01,-0.17 -0.1,-0.27 -0.3,-0.25 -0.6,0.05 -1.11,0.52 -1.07,1 0.02,0.27 0.21,0.54 0.63,0.75 -0.29,0.6 -0.7,1.31 -1.14,1.92l-0.17 0.23c-0.05,0.07 -0.06,0.11 -0.06,0.14 0.01,0.07 0.11,0.08 0.11,0.08 0.52,-0.75 1.04,-1.58 1.43,-2.3 0.29,0.12 0.68,0.22 1.18,0.27 -0.62,0.67 -1.83,2.26 -1.77,3.03 0.02,0.29 0.24,0.47 0.73,0.42 0.39,-0.03 0.94,-0.39 1.55,-1.12 -0.02,0.12 -0.03,0.23 -0.02,0.33 0.03,0.32 0.22,0.5 0.61,0.47 0.81,-0.07 1.96,-1.39 2.19,-1.66 0.04,-0.04 0.06,-0.06 0.08,-0.06 0.03,-0 0.05,0.02 0.06,0.05 -0.16,0.38 -0.22,0.73 -0.19,1 0.03,0.41 0.25,0.62 0.58,0.59 0.52,-0.04 1.33,-0.67 2.21,-2.02 0.02,-0.03 0.02,-0.05 0.01,-0.07 -0.01,-0.07 -0.09,-0.1 -0.09,-0.1 -0.81,1.15 -1.36,1.75 -1.66,1.77 -0.14,0.01 -0.24,-0.11 -0.26,-0.38 -0.08,-0.93 0.85,-2.14 1.34,-2.75 0.19,-0.24 0.38,-0.46 0.44,-0.55 0.01,-0.02 0.02,-0.03 0.02,-0.05 -0.01,-0.08 -0.18,-0.1 -0.37,-0.08 -0.09,0.01 -0.17,0.03 -0.23,0.04 -0.24,0.04 -0.96,1.06 -1.28,1.47 -0.43,0.53 -1.47,1.8 -2.29,1.87 -0.11,0.01 -0.17,-0.06 -0.18,-0.17 -0.06,-0.72 1.76,-3.54 3.54,-3.69 0.48,-0.04 0.5,0.32 0.52,0.32 0.05,-0 0.33,-0.29 0.31,-0.48zm-6.8 0.25c0.02,0.17 -0.06,0.47 -0.21,0.82 -0.31,-0.13 -0.45,-0.33 -0.47,-0.53 -0.02,-0.25 0.15,-0.47 0.39,-0.49 0.14,-0.01 0.27,0.01 0.28,0.19zm-1.03 0.53c-0.01,-0.15 -0.15,-0.28 -0.51,-0.25 -2.48,0.21 -4.8,3.09 -5.06,4.51 -0.28,0.3 -0.49,0.45 -0.64,0.46 -0.14,0.01 -0.24,-0.11 -0.26,-0.38 -0.07,-0.81 1.26,-2.79 1.84,-3.66 0.01,-0.02 0.02,-0.03 0.02,-0.05 -0.01,-0.08 -0.12,-0.1 -0.31,-0.09 -0.29,0.02 -0.33,0.03 -0.55,0.28 -0.59,0.7 -1.96,2.92 -1.89,3.81 0.03,0.39 0.26,0.59 0.58,0.56 0.31,-0.03 0.72,-0.25 1.18,-0.69 0,0.02 0,0.05 0,0.07 0.03,0.31 0.21,0.48 0.59,0.45 0.81,-0.07 1.98,-1.31 2.21,-1.59 0.04,-0.04 0.06,-0.06 0.08,-0.06 0.03,-0 0.05,0.02 0.06,0.05 0.02,0.1 -2.07,3.38 -3.5,3.58 -0.14,0.02 -0.2,0.05 -0.2,0.08 0,0.05 0.23,0.1 0.45,0.09 2.56,-0.22 4.69,-4.88 5.29,-5.83 0.01,-0.02 0.02,-0.03 0.02,-0.05 -0.01,-0.08 -0.18,-0.1 -0.37,-0.08 -0.12,0.01 -0.36,0.06 -0.44,0.16 -0.12,0.15 -0.36,0.51 -0.52,0.7 -0.43,0.53 -1.72,1.95 -2.54,2.02 -0.1,0.01 -0.16,-0.05 -0.17,-0.15 -0.06,-0.72 1.91,-3.71 3.71,-3.87 0.48,-0.04 0.5,0.49 0.52,0.49 0.15,-0.01 0.42,-0.33 0.4,-0.57zm-3.44 -1.16c-0.03,-0.33 -0.3,-0.56 -0.65,-0.53 -0.46,0.04 -0.88,0.5 -0.84,0.98 0.03,0.34 0.29,0.56 0.64,0.53 0.47,-0.04 0.89,-0.5 0.85,-0.98zm-9.27 5.61c-0.14,0.77 0.24,1.18 1.13,1.1 0.71,-0.06 1.71,-0.74 2.5,-1.73 0.2,-0.25 0.31,-0.64 -0.03,-0.26 -0.53,0.61 -1.22,1.12 -1.84,1.22 -0.95,0.15 -1.34,-1.15 -0.06,-2.24 0.15,0.26 0.4,0.41 0.74,0.38 0.75,-0.06 2.08,-1.33 1.93,-1.66 -0.33,-0.7 -3.84,0.37 -4.36,3.18zm3.9 -2.85c-0.02,0.13 -0.96,0.94 -1.28,0.97 -0.27,0.02 -0.44,-0.08 -0.56,-0.25 0.35,-0.41 1.93,-1.27 1.83,-0.71zm-1.81 -2.15c-0.03,-0.33 -0.3,-0.56 -0.65,-0.53 -0.46,0.04 -0.88,0.5 -0.84,0.98 0.03,0.34 0.29,0.56 0.64,0.53 0.47,-0.04 0.89,-0.5 0.85,-0.98zm-1.11 1.89c-0.01,-0.08 -0.27,-0.11 -0.45,-0.1 -0.12,0.01 -0.38,0.06 -0.44,0.16 -2.15,4.07 -3.41,6.39 -4.91,6.56 -0.14,0.01 -0.2,0.05 -0.2,0.08 0,0.05 0.23,0.1 0.45,0.09 2.3,-0.19 3.9,-3.8 5.54,-6.74 0.01,-0.02 0.02,-0.03 0.02,-0.05zm-2.1 -1.77c-0.02,-0.27 -3.15,1.4 -3.42,1.45 1.02,-1.23 1.77,-2.34 1.73,-2.81 -0.01,-0.17 -0.13,-0.26 -0.38,-0.24 -0.45,0.04 -1.85,1.57 -3.12,3.33 -0.54,0.08 -1.06,0.13 -1.56,0.17 -0.08,0.01 -0.12,0.07 -0.11,0.14 0.02,0.25 0.33,0.23 0.48,0.22 0.31,-0.04 0.61,-0.08 0.9,-0.13 -0.69,1.01 -1.32,2.05 -1.67,2.92 -0.01,-0 -0.02,-0.01 -0.02,-0.01 -0.4,0.57 -0.83,0.92 -1.16,0.94 -0.14,0.01 -0.26,-0.03 -0.35,-0.13 0.86,-0.94 1.45,-2.06 1.4,-2.62 -0.02,-0.23 -0.14,-0.35 -0.4,-0.33 -1.09,0.09 -1.84,1.5 -1.76,2.45 0.02,0.26 0.09,0.47 0.21,0.61 -0.37,0.4 -0.78,0.71 -1.16,0.74 -0.38,0.03 -0.56,-0.14 -0.58,-0.43 -0.09,-1.03 1.77,-3.56 3.16,-3.67 0.48,-0.04 0.59,0.24 0.61,0.24 0.05,-0 0.27,-0.23 0.26,-0.39 -0.01,-0.11 -0.12,-0.2 -0.46,-0.17 -1.87,0.16 -3.44,1.77 -4.13,3.14 -0.02,-0.02 -0.04,-0.02 -0.04,-0.02 -0.41,0.6 -0.82,0.85 -1.14,0.88 -0.22,0.02 -0.35,-0.1 -0.43,-0.32 0.96,-1.13 1.8,-2.55 1.75,-3.17 -0.02,-0.22 -0.14,-0.33 -0.4,-0.31 -1.05,0.09 -2.03,2.23 -1.93,3.43 0.01,0.11 0.02,0.2 0.05,0.3 -0.32,0.37 -0.61,0.62 -0.77,0.63 -0.19,0.02 -0.29,-0.1 -0.3,-0.29 -0.06,-0.73 0.91,-2.61 1.51,-3.54 0,0 0.03,-0.04 0.03,-0.05 -0.01,-0.09 -0.18,-0.1 -0.35,-0.08 -0.24,0.02 -0.31,0.03 -0.45,0.21 -0.45,0.61 -1.78,3.05 -1.69,4.07 0.03,0.3 0.17,0.46 0.48,0.44 0.44,-0.04 1.05,-0.51 1.66,-1.14 0.12,0.2 0.32,0.29 0.62,0.27 0.38,-0.03 0.82,-0.3 1.2,-0.78 -0.12,0.33 -0.17,0.62 -0.15,0.86 0.03,0.37 0.25,0.6 0.68,0.56 0.78,-0.07 1.56,-0.56 2.22,-1.19 0.14,0.08 0.31,0.11 0.49,0.09 0.38,-0.03 0.81,-0.27 1.16,-0.7 -0.1,0.33 -0.15,0.61 -0.13,0.85 0.03,0.41 0.28,0.64 0.82,0.59 0.52,-0.04 1.33,-0.67 2.21,-2.02 0.02,-0.03 0.02,-0.05 0.01,-0.07 -0.01,-0.07 -0.09,-0.1 -0.09,-0.1 -0.81,1.15 -1.36,1.75 -1.66,1.77 -0.23,0.02 -0.34,-0.12 -0.36,-0.35 -0.04,-0.42 0.22,-1.2 0.63,-2.08 0.71,-0.72 1.46,-1.52 2.12,-2.29 0.38,-0.06 3.89,-0.72 3.79,-1.88zm-2.14 -0.91c0.02,0.25 -0.66,1.27 -1.56,2.41 -0.28,0.04 -0.54,0.1 -0.8,0.13 0.88,-1.4 1.83,-2.55 2.31,-2.59 0.04,-0 0.05,0.02 0.06,0.05zm-1.92 2.84c-0.52,0.62 -1.08,1.25 -1.63,1.77 0.27,-0.55 0.59,-1.11 0.92,-1.66 0.24,-0.04 0.48,-0.07 0.7,-0.11zm-3.86 1.53c0.03,0.37 -0.38,1.28 -0.93,2.05 -0.02,-0.06 -0.02,-0.12 -0.03,-0.19 -0.07,-0.79 0.36,-1.99 0.8,-2.03 0.1,-0.01 0.15,0.06 0.16,0.17zm-3.83 -0.5c0.03,0.41 -0.73,1.7 -1.48,2.7 -0.07,-0.98 0.55,-2.75 1.33,-2.82 0.09,-0.01 0.14,0.03 0.14,0.12zm-4.04 0.49c-0.01,-0.08 -0.12,-0.1 -0.31,-0.09 -0.29,0.02 -0.33,0.03 -0.55,0.28 -0.59,0.7 -1.96,2.92 -1.89,3.81 0.03,0.39 0.26,0.59 0.58,0.56 0.54,-0.05 1.41,-0.7 2.3,-2.08 0.02,-0.03 0.02,-0.05 0.01,-0.07 -0.01,-0.07 -0.09,-0.1 -0.09,-0.1 -0.81,1.15 -1.36,1.75 -1.66,1.77 -0.14,0.01 -0.24,-0.11 -0.26,-0.38 -0.07,-0.81 1.26,-2.79 1.84,-3.66 0.01,-0.02 0.02,-0.03 0.02,-0.05z"/>
   </g>
  </g>
 </g>
</svg>
