<?xml version="1.0" encoding="UTF-8"?>
<!DOCTYPE svg PUBLIC "-//W3C//DTD SVG 1.1//EN" "http://www.w3.org/Graphics/SVG/1.1/DTD/svg11.dtd">
<!-- Creator: CorelDRAW 2020 (64-Bit) -->
<svg xmlns="http://www.w3.org/2000/svg" xml:space="preserve" width="60mm" height="30mm" version="1.1" style="shape-rendering:geometricPrecision; text-rendering:geometricPrecision; image-rendering:optimizeQuality; fill-rule:evenodd; clip-rule:evenodd"
viewBox="0 0 144.09 72.05"
 xmlns:xlink="http://www.w3.org/1999/xlink"
 xmlns:xodm="http://www.corel.com/coreldraw/odm/2003">
 <defs>
  <style type="text/css">
   <![CDATA[
    .fil2 {fill:#FEFEFE;fill-rule:nonzero}
    .fil1 {fill:#FFCE42;fill-rule:nonzero}
    .fil0 {fill:url(#id0)}
   ]]>
  </style>
  <linearGradient id="id0" gradientUnits="userSpaceOnUse" x1="-0" y1="36.02" x2="144.09" y2="36.02">
   <stop offset="0" style="stop-opacity:1; stop-color:#3D3882"/>
   <stop offset="0.768627" style="stop-opacity:0.964706; stop-color:#233E8B"/>
   <stop offset="1" style="stop-opacity:0.929412; stop-color:#084595"/>
  </linearGradient>
 </defs>
 <g id="Layer_x0020_1">
  <metadata id="CorelCorpID_0Corel-Layer"/>
  <g id="_2634642332176">
   <rect class="fil0" width="144.09" height="72.05" rx="11.35" ry="14.86"/>
   <g>
    <g>
     <path class="fil1" d="M73.62 11.43c-0.18,0.45 -1.94,4.88 -1.94,4.88 0,0 -1.76,-4.43 -1.94,-4.88 -0.24,-0.6 -0.83,-1.03 -1.52,-1.03 -0.81,0 -1.48,0.58 -1.62,1.35 -0.09,0.69 -1.24,8.98 -1.24,9.31 0,0.76 0.61,1.37 1.37,1.37 0.67,0 1.25,-0.52 1.35,-1.13 0.09,-0.62 0.68,-5.1 0.68,-5.1 0,0 1.4,3.57 1.64,4.18 0.02,0.04 0.03,0.08 0.03,0.08 0.18,0.46 0.69,0.83 1.26,0.83 0.57,0 1.08,-0.37 1.26,-0.83 0.11,-0.28 1.67,-4.25 1.67,-4.25 0,0 0.59,4.49 0.68,5.1 0.09,0.62 0.67,1.13 1.35,1.13 0.75,0 1.37,-0.61 1.37,-1.37 0,-0.33 -1.15,-8.61 -1.24,-9.31 -0.14,-0.77 -0.81,-1.35 -1.61,-1.35 -0.69,0 -1.28,0.43 -1.52,1.03z"/>
     <path class="fil1" d="M72.94 20.45l0.03 -0.09c-0.02,0.05 -0.03,0.09 -0.03,0.09z"/>
     <path class="fil1" d="M71.68 28.96c6.82,0 12.34,-5.53 12.34,-12.34 0,-1.21 -0.18,-2.38 -0.5,-3.48 -0.16,-0.58 -0.69,-1.01 -1.32,-1.01 -0.75,0 -1.37,0.61 -1.37,1.37 0,0.15 0.03,0.3 0.07,0.44 0.25,0.85 0.38,1.75 0.38,2.68 0,5.31 -4.3,9.61 -9.61,9.61 -5.31,0 -9.61,-4.3 -9.61,-9.61 0,-5.31 4.3,-9.61 9.61,-9.61 0.94,0 1.84,0.14 2.69,0.38l0 -0c0.12,0.04 0.25,0.06 0.38,0.06 0.76,0 1.37,-0.61 1.37,-1.37 0,-0.67 -0.48,-1.22 -1.11,-1.34 -1.06,-0.3 -2.18,-0.46 -3.34,-0.46 -6.82,0 -12.34,5.53 -12.34,12.34 0,6.82 5.53,12.34 12.34,12.34z"/>
     <path class="fil1" d="M78.81 7.11c0.12,0.12 0.12,0.32 0,0.44l-1.23 1.23c-0.53,0.54 -0.53,1.4 0,1.94 0.53,0.53 1.4,0.53 1.93,0l1.23 -1.23c0.12,-0.12 0.32,-0.12 0.44,0l1.23 1.23c0.53,0.53 1.4,0.53 1.93,0 0.53,-0.53 0.53,-1.4 0,-1.93l-1.23 -1.23c-0.12,-0.12 -0.12,-0.32 0,-0.44l1.23 -1.23c0.53,-0.53 0.53,-1.4 -0,-1.93 -0.53,-0.53 -1.4,-0.54 -1.93,-0l-1.23 1.23c-0.12,0.12 -0.32,0.12 -0.44,0l-1.23 -1.23c-0.53,-0.53 -1.4,-0.53 -1.93,0 -0.53,0.53 -0.53,1.4 0,1.93l1.23 1.23z"/>
     <path class="fil1" d="M46.26 38.67l0.3 -1.23 1.07 -2.68c0.13,-0.36 0.4,-0.65 1.13,-0.65l0.54 0c0.72,0 1.07,0.34 1.14,0.84l1 7.35c0.01,0.05 0.01,0.15 0.01,0.21 0,0.57 -0.43,0.85 -0.98,0.85l-0.48 0c-0.72,0 -0.98,-0.43 -1.02,-0.8l-0.57 -4.39 -0.19 1.32 -0.84 2.13c-0.17,0.41 -0.4,0.58 -0.92,0.58l-0.36 0c-0.53,0 -0.76,-0.17 -0.92,-0.58l-0.85 -2.13 -0.19 -1.32c-0.15,1.15 -0.4,3.22 -0.56,4.39 -0.05,0.37 -0.31,0.8 -1.02,0.8l-0.49 0c-0.56,0 -0.97,-0.28 -0.97,-0.85 0,-0.05 0,-0.16 0.01,-0.21l0.98 -7.35c0.06,-0.51 0.43,-0.84 1.14,-0.84l0.56 0c0.71,0 0.98,0.28 1.13,0.65l1.06 2.68 0.31 1.23z"/>
     <path class="fil1" d="M54.88 38.74c0,1.68 0.88,2.82 2.24,2.82 1.36,0 2.23,-1.14 2.23,-2.82 0,-1.67 -0.87,-2.81 -2.23,-2.81 -1.36,0 -2.24,1.14 -2.24,2.81zm7 0c0,2.54 -1.57,4.81 -4.76,4.81 -3.2,0 -4.77,-2.28 -4.77,-4.81 0,-2.56 1.58,-4.8 4.77,-4.8 3.2,0 4.76,2.24 4.76,4.8z"/>
     <path class="fil1" d="M62.75 34.98c0,-0.52 0.28,-0.87 1,-0.87l4.77 0c0.37,0 0.74,0.04 1,0.54l0.06 0.13c0.1,0.19 0.12,0.35 0.12,0.43 0,0.14 -0.05,0.34 -0.22,0.57l-3.89 5.59 3.13 0c0.71,0 1,0.34 1,0.84l0 0.28c0,0.52 -0.28,0.87 -1,0.87l-5.29 0c-0.3,0 -0.59,-0.03 -0.87,-0.43l-0.13 -0.19c-0.14,-0.21 -0.15,-0.39 -0.15,-0.45 0,-0.16 0.05,-0.35 0.21,-0.57l3.91 -5.62 -2.64 0c-0.71,0 -1,-0.34 -1,-0.84l0 -0.28z"/>
     <path class="fil1" d="M70.83 34.98c0,-0.52 0.28,-0.87 1,-0.87l4.77 0c0.37,0 0.74,0.04 1,0.54l0.06 0.13c0.1,0.19 0.12,0.35 0.12,0.43 0,0.14 -0.05,0.34 -0.22,0.57l-3.89 5.59 3.13 0c0.71,0 1,0.34 1,0.84l0 0.28c0,0.52 -0.28,0.87 -1,0.87l-5.29 0c-0.3,0 -0.6,-0.03 -0.87,-0.43l-0.13 -0.19c-0.14,-0.21 -0.16,-0.39 -0.16,-0.45 0,-0.16 0.05,-0.35 0.21,-0.57l3.91 -5.62 -2.64 0c-0.71,0 -1,-0.34 -1,-0.84l0 -0.28z"/>
     <path class="fil1" d="M82.05 39.69l1.41 0 -0.47 -1.28 -0.23 -1.09 -0.23 1.09 -0.48 1.28zm-0.65 -4.94c0.17,-0.43 0.53,-0.63 1.05,-0.63l0.62 0c0.52,0 0.88,0.21 1.05,0.63l2.89 7.45c0.05,0.12 0.08,0.29 0.08,0.39 0,0.53 -0.38,0.78 -0.94,0.78l-0.51 0c-0.63,0 -0.85,-0.27 -1,-0.63l-0.44 -1.13 -2.89 0 -0.43 1.13c-0.14,0.36 -0.36,0.63 -1,0.63l-0.5 0c-0.57,0 -0.94,-0.25 -0.94,-0.78 0,-0.1 0.03,-0.27 0.08,-0.39l2.88 -7.45z"/>
     <path class="fil1" d="M90.4 36.11l0 2.25 0.85 0c0.21,0 1.16,-0.04 1.16,-1.2 0,-0.67 -0.53,-1.05 -1.5,-1.05l-0.52 0zm-1.02 7.26l-0.45 0c-0.67,0 -1,-0.36 -1,-0.88l0 -7.4c0,-0.56 0.4,-0.97 1.1,-0.97l1.94 0c2.59,0 3.97,0.97 3.97,3.05 0,1.23 -0.69,2.16 -1.7,2.67 0.17,0.15 0.3,0.31 0.4,0.45l1.13 1.72c0.13,0.19 0.21,0.39 0.21,0.59 0,0.49 -0.4,0.76 -0.97,0.76l-0.48 0c-0.52,0 -0.85,-0.23 -1.01,-0.48l-1.36 -2.12c-0.14,-0.23 -0.28,-0.38 -0.43,-0.49l-0.34 0 0 2.21c0,0.52 -0.34,0.88 -1.02,0.88z"/>
     <path class="fil1" d="M95.23 34.96c0,-0.5 0.28,-0.84 1,-0.84l5.8 0c0.71,0 1,0.34 1,0.84l0 0.29c0,0.52 -0.28,0.87 -1,0.87l-1.67 0 0 6.38c0,0.52 -0.31,0.88 -1,0.88l-0.47 0c-0.67,0 -1,-0.36 -1,-0.88l0 -6.38 -1.67 0c-0.71,0 -1,-0.35 -1,-0.87l0 -0.29z"/>
     <polygon class="fil2" points="54.24,53.25 52.33,48.06 54.11,48.06 55.23,51.56 56.35,48.06 58.13,48.06 56.22,53.25 "/>
     <path class="fil2" d="M62 49.61l-0.51 1.67 1.03 0 -0.51 -1.67zm1.12 3.65l-0.19 -0.61 -1.87 0 -0.19 0.61 -1.78 0 1.91 -5.19 1.98 0 1.91 5.19 -1.78 0z"/>
     <path class="fil2" d="M66.42 51.12l0 -3.06 1.59 0 0 3c0,0.5 0.33,0.89 0.97,0.89 0.64,0 0.96,-0.4 0.96,-0.89l0 -3 1.59 0 0 3.05c0,1.29 -0.81,2.23 -2.56,2.23 -1.75,0 -2.57,-0.94 -2.57,-2.22z"/>
     <path class="fil2" d="M75.92 47.59l-0.71 -1.12 0.82 0 0.5 0.57 0.47 -0.57 0.82 0 -0.68 1.12 -1.21 0zm-2.25 3.07c0,-1.6 1.23,-2.68 2.85,-2.68 1.36,0 2.05,0.79 2.36,1.51l-1.35 0.63c-0.13,-0.4 -0.54,-0.75 -1,-0.75 -0.75,0 -1.26,0.58 -1.26,1.3 0,0.72 0.51,1.3 1.26,1.3 0.47,0 0.87,-0.35 1,-0.75l1.35 0.62c-0.3,0.69 -1,1.52 -2.36,1.52 -1.63,0 -2.85,-1.09 -2.85,-2.68z"/>
     <polygon class="fil2" points="80.93,53.25 80.93,48.06 84.86,48.06 84.86,49.43 82.5,49.43 82.5,49.95 84.81,49.95 84.81,51.32 82.5,51.32 82.5,51.88 84.86,51.88 84.86,53.25 "/>
     <path class="fil2" d="M90.16 49.84c0,-0.28 -0.25,-0.4 -0.51,-0.4l-0.96 0 0 0.82 0.96 0c0.26,0 0.51,-0.12 0.51,-0.41zm-0.19 3.41l-0.72 -1.63 -0.57 0 0 1.63 -1.57 0 0 -5.19 2.77 0c1.21,0 1.87,0.81 1.87,1.78 0,0.89 -0.52,1.37 -0.93,1.57l0.94 1.84 -1.79 0z"/>
     <g>
      <path class="fil1" d="M69.51 63.93l-1.13 -1.13 0 -0 -0.01 0.01 -0.01 0.01 -0.01 0.01 -0.01 0.02 -0.01 0.02 -0.01 0.01 -0.01 0.02 -0.01 0.02 -0.01 0.02 -0 0.01 -0.01 0.02 -0 0.02 -0 0.01 -0 0.02 -0 0.02 -0 0.01 0 0.02 0 0.02 0 0.01 0 0.02 0 0.02 0 0.02 0.01 0.02 0.01 0.02 0.01 0.02 0.01 0.02 0.01 0.01 0.01 0.02 0.01 0.02 0.01 0.01 0.01 0.01 0.01 0.01 1.13 -1.13 0.04 0.05 0.04 0.04 0.04 0.05 0.04 0.05 0.03 0.05 0.03 0.05 0.03 0.06 0.02 0.06 0.02 0.06 0.02 0.06 0.02 0.06 0.01 0.06 0.01 0.06 0.01 0.06 0 0.06 0 0.06 -0 0.06 -0 0.06 -0.01 0.06 -0.01 0.06 -0.01 0.06 -0.02 0.06 -0.02 0.06 -0.02 0.06 -0.03 0.06 -0.03 0.06 -0.03 0.05 -0.03 0.05 -0.04 0.05 -0.04 0.05 -0.04 0.05 -0.04 0.05 0 -0zm-1.13 -1.13l0 -0 0 -0 -0 0zm-1.77 1.77l1.77 -1.77 1.13 1.13 -1.77 1.77 -1.13 -1.13zm1.13 2.78l-1.13 1.13 -0 -0 -0.1 -0.1 -0.09 -0.11 -0.09 -0.11 -0.08 -0.11 -0.07 -0.12 -0.07 -0.12 -0.06 -0.12 -0.05 -0.12 -0.05 -0.13 -0.04 -0.13 -0.04 -0.13 -0.03 -0.13 -0.02 -0.13 -0.02 -0.13 -0.01 -0.13 -0 -0.13 0 -0.13 0.01 -0.13 0.02 -0.13 0.02 -0.13 0.03 -0.13 0.03 -0.13 0.04 -0.13 0.05 -0.13 0.05 -0.12 0.06 -0.12 0.07 -0.12 0.07 -0.12 0.08 -0.11 0.08 -0.11 0.09 -0.11 0.1 -0.1 1.13 1.13 -0.04 0.04 -0.04 0.05 -0.04 0.05 -0.03 0.05 -0.03 0.05 -0.03 0.05 -0.03 0.05 -0.02 0.05 -0.02 0.05 -0.02 0.05 -0.01 0.05 -0.01 0.05 -0.01 0.06 -0.01 0.06 -0 0.06 -0 0.06 0 0.06 0 0.06 0.01 0.06 0.01 0.06 0.01 0.05 0.01 0.05 0.02 0.05 0.02 0.05 0.02 0.05 0.03 0.05 0.03 0.05 0.03 0.05 0.03 0.05 0.04 0.05 0.04 0.05 0.04 0.04 -0 -0zm-1.13 1.13l-0 -0 0 0 0 0zm2.78 -1.13l1.13 1.13 -0 0 -0.1 0.1 -0.11 0.09 -0.11 0.09 -0.11 0.08 -0.12 0.07 -0.12 0.07 -0.12 0.06 -0.12 0.05 -0.13 0.05 -0.13 0.04 -0.13 0.04 -0.13 0.03 -0.13 0.02 -0.13 0.02 -0.13 0.01 -0.13 0 -0.13 -0 -0.13 -0.01 -0.13 -0.02 -0.13 -0.02 -0.13 -0.03 -0.13 -0.04 -0.13 -0.04 -0.13 -0.05 -0.12 -0.05 -0.12 -0.06 -0.12 -0.07 -0.12 -0.07 -0.11 -0.08 -0.11 -0.09 -0.11 -0.09 -0.1 -0.1 1.13 -1.13 0.04 0.04 0.04 0.04 0.05 0.04 0.05 0.03 0.05 0.03 0.05 0.03 0.05 0.02 0.05 0.02 0.05 0.02 0.05 0.02 0.05 0.01 0.05 0.01 0.06 0.01 0.06 0.01 0.06 0 0.06 0 0.06 -0 0.06 -0 0.06 -0.01 0.06 -0.01 0.05 -0.01 0.05 -0.01 0.05 -0.02 0.05 -0.02 0.05 -0.02 0.05 -0.02 0.05 -0.03 0.05 -0.03 0.05 -0.03 0.05 -0.04 0.05 -0.04 0.04 -0.04 -0 0zm2.9 -0.64l-1.77 1.77 -1.13 -1.13 1.77 -1.77 0 0 1.13 1.13zm0.63 -1.13l-1.13 1.13 -0 -0 0.01 0.01 0.01 0.01 0.01 0.01 0.02 0.01 0.02 0.01 0.02 0.01 0.01 0.01 0.01 0.01 0.02 0.01 0.02 0.01 0.02 0.01 0.01 0 0.02 0 0.02 0 0.02 0 0.01 0 0.01 -0 0.02 -0 0.02 -0 0.02 -0 0.01 -0 0.02 -0 0.02 -0.01 0.02 -0.01 0.01 -0.01 0.02 -0.01 0.02 -0.01 0.02 -0.01 0.02 -0.01 0.01 -0.01 0.01 -0.01 0.01 -0.01 -1.13 -1.13 0.05 -0.04 0.04 -0.04 0.05 -0.04 0.05 -0.04 0.05 -0.03 0.06 -0.03 0.05 -0.03 0.05 -0.02 0.06 -0.02 0.06 -0.02 0.06 -0.02 0.06 -0.01 0.06 -0.01 0.06 -0.01 0.06 -0 0.06 -0 0.06 0 0.06 0 0.06 0.01 0.06 0.01 0.06 0.01 0.06 0.02 0.06 0.02 0.06 0.02 0.05 0.02 0.05 0.03 0.05 0.03 0.05 0.03 0.05 0.04 0.05 0.04 0.04 0.04 0.05 0.04 -0 -0zm0.64 2.9l-1.77 -1.77 1.13 -1.13 1.77 1.77 -1.13 1.13zm2.78 -1.13l1.13 1.13 0 0 -0.1 0.1 -0.11 0.09 -0.11 0.09 -0.11 0.08 -0.12 0.07 -0.12 0.07 -0.12 0.06 -0.12 0.05 -0.13 0.05 -0.13 0.04 -0.13 0.03 -0.13 0.03 -0.13 0.02 -0.13 0.02 -0.13 0.01 -0.13 0 -0.13 -0 -0.13 -0.01 -0.13 -0.02 -0.13 -0.02 -0.13 -0.03 -0.13 -0.04 -0.13 -0.04 -0.13 -0.05 -0.12 -0.05 -0.12 -0.06 -0.12 -0.07 -0.12 -0.07 -0.11 -0.08 -0.11 -0.09 -0.11 -0.09 -0.1 -0.1 1.13 -1.13 0.04 0.04 0.04 0.04 0.05 0.04 0.05 0.03 0.05 0.03 0.05 0.03 0.05 0.02 0.05 0.02 0.05 0.02 0.05 0.02 0.05 0.01 0.05 0.01 0.06 0.01 0.06 0.01 0.06 0 0.06 0 0.06 -0 0.06 -0 0.06 -0.01 0.06 -0.01 0.05 -0.01 0.05 -0.01 0.05 -0.02 0.05 -0.02 0.05 -0.02 0.05 -0.02 0.05 -0.03 0.05 -0.03 0.05 -0.03 0.05 -0.04 0.04 -0.04 0.04 -0.04 0 0zm-0 -1.65l1.13 -1.13 -0 -0 0.1 0.1 0.09 0.11 0.09 0.11 0.08 0.11 0.07 0.12 0.07 0.12 0.06 0.12 0.05 0.12 0.05 0.13 0.04 0.13 0.04 0.13 0.03 0.13 0.02 0.13 0.02 0.13 0.01 0.13 0 0.13 -0 0.13 -0.01 0.13 -0.02 0.13 -0.02 0.13 -0.03 0.13 -0.04 0.13 -0.04 0.13 -0.05 0.13 -0.05 0.12 -0.06 0.12 -0.07 0.12 -0.07 0.12 -0.08 0.11 -0.09 0.11 -0.09 0.11 -0.1 0.1 -1.13 -1.13 0.04 -0.04 0.04 -0.05 0.04 -0.05 0.03 -0.05 0.03 -0.05 0.03 -0.05 0.03 -0.05 0.02 -0.05 0.02 -0.05 0.02 -0.05 0.01 -0.05 0.01 -0.05 0.01 -0.05 0.01 -0.06 0 -0.06 0 -0.06 -0 -0.06 -0 -0.06 -0.01 -0.06 -0.01 -0.05 -0.01 -0.05 -0.01 -0.05 -0.02 -0.05 -0.02 -0.05 -0.02 -0.05 -0.03 -0.05 -0.03 -0.05 -0.03 -0.05 -0.03 -0.05 -0.04 -0.05 -0.04 -0.05 -0.04 -0.04 -0 -0zm-0.64 -2.9l1.77 1.77 -1.13 1.13 -1.77 -1.77 1.13 -1.13 0 0zm-0 -0l0 0 0 0 -0 -0zm-1.13 -0.63l1.13 1.13 -0 0 0.01 -0.01 0.01 -0.01 0.01 -0.01 0.01 -0.02 0.01 -0.02 0.01 -0.02 0.01 -0.01 0.01 -0.01 0.01 -0.02 0.01 -0.02 0.01 -0.02 0 -0.01 0 -0.01 0 -0.02 0 -0.01 0 -0.02 -0 -0.02 -0 -0.01 -0 -0.02 -0 -0.01 -0 -0.01 -0.01 -0.02 -0.01 -0.02 -0.01 -0.02 -0.01 -0.01 -0.01 -0.01 -0.01 -0.02 -0.01 -0.02 -0.01 -0.02 -0.01 -0.01 -0.01 -0.01 -0.01 -0.01 -1.13 1.13 -0.04 -0.05 -0.04 -0.05 -0.04 -0.05 -0.04 -0.05 -0.03 -0.05 -0.03 -0.06 -0.03 -0.05 -0.02 -0.05 -0.02 -0.06 -0.02 -0.06 -0.02 -0.06 -0.01 -0.06 -0.01 -0.06 -0.01 -0.06 -0 -0.06 -0 -0.06 0 -0.06 0 -0.06 0.01 -0.06 0.01 -0.06 0.01 -0.06 0.02 -0.06 0.02 -0.06 0.02 -0.06 0.02 -0.05 0.03 -0.05 0.03 -0.06 0.03 -0.05 0.04 -0.05 0.04 -0.05 0.04 -0.05 0.04 -0.05 -0 0zm1.13 1.13l-0 0 0 0 0 -0zm1.77 -1.77l-1.77 1.77 -1.13 -1.13 1.77 -1.77 1.13 1.13 -0 0zm-1.13 -2.78l1.13 -1.13 -0 -0 0.1 0.1 0.09 0.11 0.09 0.11 0.08 0.11 0.07 0.12 0.07 0.12 0.06 0.12 0.05 0.12 0.05 0.13 0.04 0.13 0.03 0.13 0.03 0.13 0.02 0.13 0.02 0.13 0.01 0.13 0 0.13 -0 0.13 -0.01 0.13 -0.02 0.13 -0.02 0.13 -0.03 0.13 -0.03 0.13 -0.04 0.13 -0.05 0.13 -0.05 0.12 -0.06 0.12 -0.07 0.12 -0.07 0.12 -0.08 0.11 -0.09 0.11 -0.09 0.11 -0.1 0.1 -1.13 -1.13 0.04 -0.04 0.04 -0.05 0.04 -0.05 0.03 -0.05 0.03 -0.05 0.03 -0.05 0.03 -0.05 0.02 -0.05 0.02 -0.05 0.02 -0.05 0.01 -0.05 0.01 -0.05 0.01 -0.06 0.01 -0.05 0 -0.06 0 -0.06 -0 -0.06 -0 -0.06 -0.01 -0.06 -0.01 -0.05 -0.01 -0.06 -0.01 -0.05 -0.02 -0.05 -0.02 -0.05 -0.02 -0.05 -0.03 -0.05 -0.03 -0.05 -0.03 -0.05 -0.03 -0.05 -0.04 -0.05 -0.04 -0.04 -0.04 -0.04 -0 -0zm0 0l-0 -0 -0 -0 0 0zm-1.65 -0l-1.13 -1.13 -0 0 0.1 -0.1 0.11 -0.09 0.11 -0.09 0.11 -0.08 0.12 -0.07 0.12 -0.07 0.12 -0.06 0.12 -0.05 0.13 -0.05 0.13 -0.04 0.13 -0.03 0.13 -0.03 0.13 -0.02 0.13 -0.02 0.13 -0.01 0.13 -0 0.13 0 0.13 0.01 0.13 0.02 0.13 0.02 0.13 0.03 0.13 0.04 0.13 0.04 0.13 0.05 0.12 0.05 0.12 0.06 0.12 0.07 0.12 0.07 0.11 0.08 0.11 0.09 0.11 0.09 0.1 0.1 -1.13 1.13 -0.04 -0.04 -0.05 -0.04 -0.05 -0.04 -0.05 -0.03 -0.05 -0.03 -0.05 -0.03 -0.05 -0.03 -0.05 -0.02 -0.05 -0.02 -0.05 -0.02 -0.05 -0.01 -0.05 -0.01 -0.06 -0.01 -0.06 -0.01 -0.06 -0 -0.06 -0 -0.06 0 -0.06 0 -0.06 0.01 -0.05 0.01 -0.06 0.01 -0.05 0.01 -0.05 0.02 -0.05 0.02 -0.05 0.02 -0.05 0.03 -0.05 0.03 -0.05 0.03 -0.05 0.03 -0.05 0.04 -0.04 0.04 -0.04 0.04 -0 0zm-2.9 0.64l1.77 -1.77 1.13 1.13 -1.77 1.77 -0 0 -1.13 -1.13zm1.13 1.13l-0 0 0 0 0 -0zm-1.76 0l1.13 -1.13 -0 -0 -0.01 -0.01 -0.01 -0.01 -0.01 -0.01 -0.01 -0.01 -0.02 -0.01 -0.01 -0.01 -0.02 -0.01 -0.02 -0.01 -0.02 -0.01 -0.02 -0.01 -0.01 -0 -0.02 -0 -0.02 -0 -0.02 -0 -0.01 -0 -0.02 -0 -0.02 0 -0.01 0 -0.02 0 -0.02 0 -0.02 0 -0.01 0 -0.01 0 -0.02 0.01 -0.02 0.01 -0.01 0.01 -0.01 0.01 -0.02 0.01 -0.02 0.01 -0.01 0.01 -0.01 0.01 -0.01 0.01 1.13 1.13 -0.05 0.04 -0.05 0.04 -0.05 0.04 -0.05 0.04 -0.05 0.03 -0.05 0.03 -0.05 0.03 -0.06 0.03 -0.06 0.02 -0.06 0.02 -0.06 0.02 -0.06 0.01 -0.06 0.01 -0.06 0.01 -0.06 0 -0.06 0 -0.06 -0 -0.05 -0 -0.06 -0.01 -0.06 -0.01 -0.06 -0.01 -0.06 -0.01 -0.06 -0.02 -0.06 -0.02 -0.06 -0.02 -0.05 -0.03 -0.05 -0.03 -0.06 -0.04 -0.05 -0.03 -0.05 -0.04 -0.05 -0.04 -0.05 -0.04 -0 -0zm0 0l0 0 -0 -0 0 0zm-0.64 -2.9l1.77 1.77 -1.13 1.13 -1.77 -1.77 1.13 -1.13zm-2.78 1.13l-1.13 -1.13 0 -0 0.1 -0.1 0.11 -0.09 0.11 -0.09 0.11 -0.08 0.12 -0.07 0.12 -0.07 0.12 -0.06 0.12 -0.05 0.13 -0.05 0.13 -0.04 0.13 -0.03 0.13 -0.03 0.13 -0.02 0.13 -0.02 0.13 -0.01 0.13 -0 0.13 0 0.13 0.01 0.13 0.02 0.13 0.02 0.13 0.03 0.13 0.03 0.13 0.04 0.13 0.05 0.12 0.05 0.12 0.06 0.12 0.07 0.12 0.07 0.11 0.08 0.11 0.09 0.11 0.09 0.1 0.1 -1.13 1.13 -0.04 -0.04 -0.04 -0.04 -0.05 -0.04 -0.05 -0.03 -0.05 -0.03 -0.05 -0.03 -0.05 -0.02 -0.05 -0.02 -0.05 -0.02 -0.05 -0.02 -0.05 -0.01 -0.05 -0.01 -0.06 -0.01 -0.06 -0.01 -0.06 -0 -0.06 -0 -0.06 0 -0.06 0 -0.06 0.01 -0.06 0.01 -0.06 0.01 -0.05 0.01 -0.05 0.02 -0.05 0.02 -0.05 0.02 -0.05 0.03 -0.05 0.03 -0.05 0.03 -0.05 0.03 -0.05 0.04 -0.04 0.04 -0.04 0.04 0 -0zm-0 1.65l-1.13 1.13 0 0 -0.1 -0.1 -0.09 -0.11 -0.09 -0.11 -0.08 -0.11 -0.07 -0.12 -0.07 -0.12 -0.06 -0.12 -0.05 -0.12 -0.05 -0.13 -0.04 -0.13 -0.03 -0.13 -0.03 -0.13 -0.02 -0.13 -0.02 -0.13 -0.01 -0.13 -0 -0.13 0 -0.13 0.01 -0.13 0.02 -0.13 0.02 -0.13 0.03 -0.13 0.03 -0.13 0.04 -0.13 0.05 -0.13 0.05 -0.12 0.06 -0.12 0.07 -0.12 0.07 -0.12 0.08 -0.11 0.09 -0.11 0.09 -0.11 0.1 -0.1 1.13 1.13 -0.04 0.04 -0.04 0.04 -0.04 0.05 -0.03 0.05 -0.03 0.05 -0.03 0.05 -0.03 0.05 -0.02 0.05 -0.02 0.05 -0.02 0.05 -0.01 0.05 -0.01 0.06 -0.01 0.06 -0.01 0.06 -0 0.06 -0 0.06 0 0.06 0 0.06 0.01 0.06 0.01 0.06 0.01 0.06 0.01 0.05 0.02 0.05 0.02 0.05 0.02 0.05 0.02 0.05 0.03 0.05 0.03 0.05 0.03 0.05 0.04 0.05 0.04 0.04 0.04 0.04 0 0zm0.64 2.9l-1.77 -1.77 1.13 -1.13 1.77 1.77 -1.13 1.13 -0 -0zm0 0l-0 -0 -0 -0 0 0z"/>
     </g>
    </g>
   </g>
  </g>
 </g>
</svg>
