<?xml version="1.0" encoding="UTF-8"?>
<!DOCTYPE svg PUBLIC "-//W3C//DTD SVG 1.1//EN" "http://www.w3.org/Graphics/SVG/1.1/DTD/svg11.dtd">
<!-- Creator: CorelDRAW 2020 (64-Bit) -->
<svg xmlns="http://www.w3.org/2000/svg" xml:space="preserve" width="60.0001mm" height="30mm" version="1.1" style="shape-rendering:geometricPrecision; text-rendering:geometricPrecision; image-rendering:optimizeQuality; fill-rule:evenodd; clip-rule:evenodd"
	 viewBox="0 0 143.91 71.96"
	 xmlns:xlink="http://www.w3.org/1999/xlink"
	 xmlns:xodm="http://www.corel.com/coreldraw/odm/2003">
 <defs>
  <style type="text/css">
   <![CDATA[
    .fil1 {fill:#2B256D;fill-rule:nonzero}
    .fil0 {fill:#FFCB05;fill-rule:nonzero}
   ]]>
  </style>
 </defs>
	<g id="Layer_x0020_1">
  <metadata id="CorelCorpID_0Corel-Layer"/>
		<g id="_2620574647008">
   <path class="fil0" d="M133.64 71.96l-123.36 0c-5.68,0 -10.28,-4.79 -10.28,-10.7l0 -50.55c0,-5.91 4.6,-10.7 10.28,-10.7l123.35 0c5.68,0 10.28,4.79 10.28,10.7l0 50.55c0,5.91 -4.6,10.7 -10.27,10.7z"/>
			<g>
    <path class="fil1" d="M73.74 21.59c-0.2,0.51 -2.18,5.48 -2.18,5.48 0,0 -1.98,-4.98 -2.18,-5.48 -0.27,-0.68 -0.94,-1.16 -1.71,-1.16 -0.91,0 -1.66,0.66 -1.82,1.52 -0.11,0.78 -1.39,10.09 -1.39,10.46 0,0.85 0.69,1.54 1.54,1.54 0.76,0 1.41,-0.58 1.51,-1.27 0.11,-0.69 0.77,-5.73 0.77,-5.73 0,0 1.57,4 1.84,4.69 0.02,0.04 0.04,0.09 0.04,0.09 0.2,0.51 0.78,0.94 1.42,0.94 0.64,0 1.21,-0.41 1.42,-0.94 0.12,-0.31 1.87,-4.78 1.87,-4.78 0,0 0.66,5.03 0.77,5.73 0.11,0.69 0.75,1.27 1.51,1.27 0.85,0 1.54,-0.69 1.54,-1.54 0,-0.36 -1.29,-9.67 -1.39,-10.46 -0.16,-0.86 -0.91,-1.52 -1.82,-1.52 -0.78,0 -1.44,0.48 -1.71,1.16z"/>
				<path class="fil1" d="M71.56 41.28c7.66,0 13.87,-6.21 13.87,-13.87 0,-1.36 -0.2,-2.67 -0.56,-3.91 -0.18,-0.65 -0.77,-1.14 -1.48,-1.14 -0.85,0 -1.54,0.69 -1.54,1.54 0,0.17 0.03,0.34 0.09,0.5 0.28,0.96 0.43,1.97 0.43,3.02 0,5.96 -4.83,10.79 -10.8,10.79 -5.96,0 -10.79,-4.83 -10.79,-10.79 0,-5.96 4.83,-10.79 10.79,-10.79 1.05,0 2.07,0.15 3.03,0.44l0 0c0.14,0.04 0.28,0.06 0.43,0.06 0.85,0 1.54,-0.69 1.54,-1.54 0,-0.75 -0.54,-1.37 -1.24,-1.51 -1.19,-0.34 -2.45,-0.52 -3.75,-0.52 -7.66,0 -13.87,6.21 -13.87,13.87 -0,7.64 6.21,13.85 13.87,13.85z"/>
				<path class="fil1" d="M79.56 16.74c0.14,0.14 0.14,0.36 0,0.49l-1.38 1.38c-0.6,0.6 -0.6,1.57 0,2.17 0.6,0.6 1.57,0.6 2.17,0l1.38 -1.39c0.14,-0.14 0.36,-0.14 0.49,0l1.38 1.39c0.6,0.6 1.57,0.6 2.17,0 0.6,-0.6 0.6,-1.57 0,-2.17l-1.38 -1.38c-0.14,-0.14 -0.14,-0.36 0,-0.49l1.38 -1.38c0.6,-0.6 0.6,-1.57 0,-2.17 -0.6,-0.6 -1.57,-0.6 -2.17,0l-1.38 1.38c-0.14,0.14 -0.36,0.14 -0.49,0l-1.38 -1.38c-0.6,-0.6 -1.57,-0.6 -2.17,0 -0.6,0.6 -0.6,1.57 0,2.17l1.38 1.38z"/>
				<path class="fil1" d="M46.71 58.02c0,-0.05 0,-0.14 -0.02,-0.26l-1.29 -9.57c-0.09,-0.62 -0.54,-0.99 -1.2,-0.99l-0.73 0c-0.57,0 -0.96,0.25 -1.17,0.77l-2.05 5.16 -2.05 -5.15c-0.22,-0.52 -0.6,-0.77 -1.18,-0.77l-0.73 0c-0.66,0 -1.11,0.36 -1.2,0.98l-1.29 9.58c-0.02,0.12 -0.02,0.2 -0.02,0.26 0,0.58 0.45,1.01 1.07,1.01l0.48 0c0.6,0 1.04,-0.37 1.12,-0.95l0.74 -5.55 1.68 4.3c0.09,0.26 0.37,0.7 1.14,0.7l0.46 0c0.77,0 1.04,-0.44 1.14,-0.71l1.68 -4.29 0.74 5.54c0.09,0.59 0.53,0.96 1.12,0.96l0.48 0c0.63,-0.01 1.08,-0.43 1.08,-1.01z"/>
				<g>
     <path class="fil1" d="M58.04 48.83c-1.07,-1.2 -2.62,-1.84 -4.49,-1.84 -1.85,0 -3.4,0.64 -4.48,1.84 -0.97,1.09 -1.51,2.6 -1.51,4.28 0,1.65 0.54,3.16 1.51,4.26 1.08,1.22 2.63,1.86 4.48,1.86 1.86,0 3.41,-0.64 4.49,-1.86 0.97,-1.09 1.49,-2.6 1.49,-4.26 0,-1.67 -0.54,-3.19 -1.5,-4.28l0 0zm-4.49 8.03c-1.95,0 -3.25,-1.51 -3.25,-3.75 0,-2.22 1.31,-3.72 3.25,-3.72 1.98,0 3.25,1.46 3.25,3.72 0.01,2.28 -1.27,3.75 -3.25,3.75z"/>
    </g>
				<path class="fil1" d="M59.92 57.7c0,0.1 0.02,0.3 0.15,0.55l0.11 0.2 0.01 0.01 0.01 0.01c0.3,0.49 0.7,0.54 1.01,0.54l6.79 0c0.64,0 1.05,-0.4 1.05,-1.02l0 -0.36c0,-0.61 -0.42,-1.02 -1.05,-1.02l-4.41 0 5.17 -7.43c0.16,-0.24 0.24,-0.45 0.24,-0.67 0,-0.1 -0.02,-0.31 -0.16,-0.55l-0.11 -0.2 -0.01 -0.01 -0.01 -0.01c-0.3,-0.49 -0.7,-0.54 -1.01,-0.54l-6.21 0c-0.63,0 -1.05,0.41 -1.05,1.02l0 0.36c0,0.62 0.41,1.02 1.05,1.02l3.82 0 -5.16 7.43c-0.16,0.24 -0.23,0.45 -0.23,0.67z"/>
				<path class="fil1" d="M79 57.64c0,-0.61 -0.42,-1.02 -1.05,-1.02l-4.41 0 5.17 -7.43c0.16,-0.24 0.24,-0.45 0.24,-0.67 0,-0.1 -0.02,-0.31 -0.16,-0.55l-0.11 -0.2 -0.01 -0.01 -0.01 -0.01c-0.3,-0.49 -0.69,-0.54 -1.01,-0.54l-6.21 0c-0.63,0 -1.05,0.41 -1.05,1.02l0 0.36c0,0.62 0.41,1.02 1.05,1.02l3.82 0 -5.16 7.43c-0.16,0.24 -0.24,0.45 -0.24,0.68 0,0.1 0.02,0.3 0.15,0.55l0.11 0.2 0.01 0.01 0.01 0.01c0.3,0.49 0.7,0.54 1.01,0.54l6.79 0c0.64,0 1.05,-0.4 1.05,-1.02l0 -0.36z"/>
				<path class="fil1" d="M90.11 57.64l0 -0.01 -3.73 -9.68c-0.2,-0.49 -0.6,-0.74 -1.15,-0.74l-0.56 0c-0.7,0 -1.01,0.4 -1.14,0.74l-3.73 9.69 0 0.01 0 0.01 0 0.01c-0.04,0.11 -0.08,0.24 -0.08,0.41 0,0.56 0.4,0.94 1,0.94l0.57 0c0.54,0 0.89,-0.25 1.09,-0.77l0.7 -1.82 3.75 0 0.72 1.82c0.19,0.51 0.55,0.77 1.09,0.77l0.57 0c0.6,0 1,-0.38 1,-0.94 -0.01,-0.2 -0.06,-0.34 -0.09,-0.44l0 0zm-6.11 -3.61l0.95 -2.43 0.94 2.43 -1.9 0z"/>
				<g>
     <path class="fil1" d="M99.99 58.06c0,-0.19 -0.09,-0.43 -0.24,-0.64l-1.8 -2.75 0 -0.01 -0.01 -0.01c-0.03,-0.04 -0.06,-0.09 -0.09,-0.13 1.32,-0.69 2.08,-1.95 2.08,-3.45 0,-2.57 -1.64,-3.87 -4.86,-3.87l-2.52 0c-0.69,0 -1.17,0.48 -1.17,1.16l0 9.62c0,0.61 0.44,1.04 1.07,1.04l0.54 0c0.63,0 1.07,-0.43 1.07,-1.04l0 -2.92 1 0c0.14,0.13 0.29,0.31 0.49,0.61l1.81 2.77c0.24,0.38 0.6,0.57 1.07,0.57l0.54 0c0.59,0 1.02,-0.4 1.02,-0.96l0 0zm-4.53 -5.37l-1.39 0 0 -3.09 0.97 0c2.22,0 2.22,1.07 2.22,1.41 0,1.56 -1.37,1.68 -1.79,1.68z"/>
    </g>
				<path class="fil1" d="M109.02 47.2l-7.53 0c-0.62,0 -1.11,0.46 -1.11,1.04l0 0.33c0,0.57 0.5,1.04 1.11,1.04l2.42 0 0 8.38c0,0.61 0.44,1.04 1.07,1.04l0.54 0c0.63,0 1.07,-0.43 1.07,-1.04l0 -8.39 2.43 0c0.64,0 1.11,-0.44 1.11,-1.04l0 -0.33c0.01,-0.58 -0.47,-1.03 -1.1,-1.03z"/>
   </g>
  </g>
 </g>
</svg>
