<?xml version="1.0" encoding="UTF-8"?>
<!DOCTYPE svg PUBLIC "-//W3C//DTD SVG 1.1//EN" "http://www.w3.org/Graphics/SVG/1.1/DTD/svg11.dtd">
<!-- Creator: CorelDRAW 2020 (64-Bit) -->
<svg xmlns="http://www.w3.org/2000/svg" xml:space="preserve" width="59.9999mm" height="30mm" version="1.1" style="shape-rendering:geometricPrecision; text-rendering:geometricPrecision; image-rendering:optimizeQuality; fill-rule:evenodd; clip-rule:evenodd"
viewBox="0 0 215.04 107.52"
 xmlns:xlink="http://www.w3.org/1999/xlink"
 xmlns:xodm="http://www.corel.com/coreldraw/odm/2003">
 <defs>
  <style type="text/css">
   <![CDATA[
    .fil3 {fill:#FEFEFE}
    .fil1 {fill:#EE4037}
    .fil2 {fill:#FEFEFE;fill-rule:nonzero}
    .fil0 {fill:url(#id0)}
   ]]>
  </style>
  <linearGradient id="id0" gradientUnits="userSpaceOnUse" x1="-0" y1="53.76" x2="215.04" y2="53.76">
   <stop offset="0" style="stop-opacity:1; stop-color:#EE4037"/>
   <stop offset="0.760784" style="stop-opacity:0.92549; stop-color:#EE4037"/>
   <stop offset="1" style="stop-opacity:0.847059; stop-color:#EE4037"/>
  </linearGradient>
 </defs>
 <g id="Layer_x0020_1">
  <metadata id="CorelCorpID_0Corel-Layer"/>
  <g id="_2634635251248">
   <rect class="fil0" x="-0" width="215.04" height="107.52" rx="16.93" ry="22.18"/>
   <g id="mtel_x0020_logo.cdr">
    <path class="fil1" d="M77.77 18.43l59.49 0c10.26,0 18.66,7.96 18.66,17.7l0 35.26c0,9.74 -8.4,17.71 -18.66,17.71l-18.32 0 -41.17 0 -18.65 0 0 -17.71 0 -30.69 0 -4.57c0,-9.74 8.39,-17.7 18.65,-17.7z"/>
    <path class="fil2" d="M118.94 89.73l-41.17 0 -19.3 0 0 -18.35 0 -30.69 0 -4.57c0.01,-10.12 8.7,-18.32 19.3,-18.34l0 0.64 0 0.64c-9.93,0 -18,7.7 -18.01,17.06l0 4.57 0 30.69 0 17.07 18.01 0 41.17 0 18.32 0c9.93,0 18,-7.71 18.02,-17.07l0 -35.26c-0.02,-9.35 -8.09,-17.06 -18.02,-17.06l-59.49 0 0 -0.64 0 -0.64 59.49 0c10.59,0.02 19.29,8.22 19.3,18.34l0 35.26c-0.01,10.12 -8.71,18.33 -19.3,18.35l-18.32 0z"/>
    <g>
     <path class="fil3" d="M100.79 54.47c1.24,0 2.25,-1.01 2.25,-2.25 0,-1.23 -1.01,-2.24 -2.25,-2.24 -1.24,0 -2.25,1.01 -2.25,2.24 0,1.24 1.01,2.25 2.25,2.25z"/>
     <path class="fil3" d="M100.79 61.74c1.24,0 2.25,-1.01 2.25,-2.24 0,-1.24 -1.01,-2.25 -2.25,-2.25 -1.24,0 -2.25,1.01 -2.25,2.25 0,1.23 1.01,2.24 2.25,2.24z"/>
     <g>
      <path class="fil2" d="M73.84 47.27c0.1,0.35 0.15,0.79 0.19,1.31 0.32,-0.17 0.67,-0.35 1.07,-0.54 0.4,-0.19 0.82,-0.36 1.29,-0.51 0.45,-0.15 0.93,-0.27 1.43,-0.37 0.5,-0.1 1,-0.16 1.51,-0.16 0.87,0 1.63,0.14 2.3,0.42 0.66,0.28 1.24,0.74 1.72,1.38 2.12,-1.2 4.14,-1.8 6.05,-1.8 0.81,0 1.51,0.14 2.11,0.41 0.6,0.28 1.09,0.64 1.48,1.11 0.39,0.48 0.68,1.04 0.87,1.68 0.19,0.64 0.28,1.33 0.28,2.06l0 12.21 -2.52 0 0 -11.97c0,-0.58 -0.08,-1.09 -0.22,-1.52 -0.16,-0.42 -0.38,-0.79 -0.65,-1.08 -0.27,-0.28 -0.6,-0.49 -0.97,-0.63 -0.37,-0.14 -0.77,-0.21 -1.19,-0.21 -1.54,0 -3.05,0.38 -4.51,1.17 0.14,0.63 0.21,1.32 0.21,2.07l0 12.17 -2.51 0 0 -11.94c0,-1.19 -0.27,-2.06 -0.79,-2.63 -0.53,-0.56 -1.29,-0.84 -2.28,-0.84 -0.81,0 -1.61,0.12 -2.4,0.38 -0.78,0.24 -1.52,0.55 -2.19,0.89l0 14.14 -2.52 0 0 -15.19c-0.01,-0.73 -0.05,-1.4 -0.13,-2.01l2.36 0z"/>
     </g>
     <g>
      <path class="fil2" d="M107 47.27l2.48 0 0 -4.35 2.51 0 0 4.35 4.19 0 -0.27 2.18 -3.92 0 0 9.93c0,0.99 0.17,1.78 0.49,2.37 0.32,0.6 0.83,0.89 1.52,0.89 0.37,0 0.84,-0.05 1.4,-0.16 0.57,-0.12 0.94,-0.19 1.12,-0.25l0.19 2.18c-0.22,0.04 -0.66,0.11 -1.35,0.21 -0.68,0.09 -1.22,0.13 -1.61,0.13 -1.35,0 -2.39,-0.34 -3.14,-1.01 -0.75,-0.66 -1.12,-1.9 -1.12,-3.71l0 -10.58 -2.48 0 0 -2.18z"/>
      <path class="fil2" d="M133.9 61.4c-0.76,1 -1.67,1.81 -2.74,2.43 -1.08,0.62 -2.49,0.93 -4.22,0.93 -2.26,0 -4.06,-0.8 -5.43,-2.39 -1.37,-1.6 -2.06,-3.86 -2.06,-6.76 0,-2.54 0.62,-4.6 1.87,-6.2 1.24,-1.6 3.06,-2.4 5.46,-2.4 2.03,0 3.63,0.56 4.81,1.67 1.17,1.12 1.84,2.67 1.98,4.67 0.06,0.76 0.08,1.54 0.05,2.37l-11.53 0c0,1.9 0.44,3.53 1.31,4.9 0.87,1.37 2.05,2.04 3.56,2.04 1.09,0 2.05,-0.22 2.87,-0.67 0.82,-0.46 1.57,-1.14 2.26,-2.04l1.82 1.46zm-7.16 -12.42l0 0c-1.5,0 -2.63,0.51 -3.4,1.54 -0.76,1.02 -1.17,2.18 -1.22,3.48l8.93 0c-0.04,-1.37 -0.38,-2.55 -1.02,-3.54 -0.64,-0.98 -1.74,-1.48 -3.3,-1.48z"/>
      <path class="fil2" d="M138.07 39.53l2.52 0 0 21.43c0,0.65 0.13,1.09 0.38,1.32 0.25,0.23 0.7,0.35 1.33,0.35 0.09,0 0.21,-0 0.38,-0.01 0.16,-0.01 0.33,-0.03 0.49,-0.05l0.37 1.47c-0.19,0.08 -0.4,0.16 -0.64,0.25 -0.23,0.08 -0.48,0.17 -0.73,0.23 -0.26,0.07 -0.51,0.13 -0.77,0.16 -0.26,0.03 -0.49,0.06 -0.72,0.06 -0.83,0 -1.47,-0.27 -1.93,-0.8 -0.47,-0.53 -0.7,-1.32 -0.7,-2.37l0 -22.03z"/>
     </g>
    </g>
   </g>
  </g>
 </g>
</svg>
