<?xml version="1.0" encoding="UTF-8"?>
<!DOCTYPE svg PUBLIC "-//W3C//DTD SVG 1.1//EN" "http://www.w3.org/Graphics/SVG/1.1/DTD/svg11.dtd">
<!-- Creator: CorelDRAW 2020 (64-Bit) -->
<svg xmlns="http://www.w3.org/2000/svg" xml:space="preserve" width="60mm" height="30mm" version="1.1" style="shape-rendering:geometricPrecision; text-rendering:geometricPrecision; image-rendering:optimizeQuality; fill-rule:evenodd; clip-rule:evenodd"
viewBox="0 0 130.11 65.05"
 xmlns:xlink="http://www.w3.org/1999/xlink"
 xmlns:xodm="http://www.corel.com/coreldraw/odm/2003">
 <defs>
  <style type="text/css">
   <![CDATA[
    .fil0 {fill:url(#id0)}
    .fil1 {fill:url(#id1)}
   ]]>
  </style>
  <linearGradient id="id0" gradientUnits="userSpaceOnUse" x1="-0" y1="32.53" x2="130.11" y2="32.53">
   <stop offset="0" style="stop-opacity:1; stop-color:#ED3237"/>
   <stop offset="1" style="stop-opacity:0.768627; stop-color:#ED3237"/>
  </linearGradient>
  <linearGradient id="id1" gradientUnits="userSpaceOnUse" x1="91.65" y1="32.67" x2="113.91" y2="32.53">
   <stop offset="0" style="stop-opacity:1; stop-color:#FEFEFE"/>
   <stop offset="1" style="stop-opacity:0.768627; stop-color:white"/>
  </linearGradient>
 </defs>
 <g id="Layer_x0020_1">
  <metadata id="CorelCorpID_0Corel-Layer"/>
  <g id="_2634684295280">
   <rect class="fil0" width="130.11" height="65.05" rx="10.25" ry="13.42"/>
   <path class="fil1" d="M28.03 23.55c7.29,0.17 11.16,7.74 7.7,13.63l-0.44 0.54 -1.46 -1.45c0.31,-1.39 2.08,-3.47 0.07,-7.16 -0.98,-1.79 -3.01,-3.28 -5.88,-3.38 0,4.13 -0.27,2.21 1.78,3.26 0.62,0.32 0.99,0.56 1.41,1.14 0.88,1.2 0.84,2.43 0.52,3.97 -0.67,-0.47 -4.59,-4.53 -5.51,-5.44l-4.06 -4.06c-0.26,-0.26 -0.42,-0.41 -0.68,-0.68 -0.11,-0.11 -0.19,-0.22 -0.29,-0.3 -0.33,-0.29 -0.13,-0.15 -0.49,-0.32 -1.67,1 -3.17,3.49 -3.85,5.38 -2.51,6.92 2.32,15.48 11.17,15.66l0 -2.83c-7.78,-0.2 -11.33,-8.58 -7.31,-14.21l1.59 1.55c-1.27,2.36 -1.59,4.6 -0.12,7.17 0.84,1.47 3.19,3.61 5.84,3.26l-0.01 -2.74c-3.19,-0.46 -4.32,-2.28 -3.7,-5.56 1.09,0.56 9.69,9.88 11.01,10.81 1.84,-1.53 2.97,-2.88 3.85,-5.36 2.5,-7.02 -2.27,-15.51 -11.15,-15.7l0 2.83zm73.86 7.61c0.32,-2.15 3.42,-2.12 3.66,-0l-3.66 0zm6.21 3.03l-2.34 -0.62c-0.93,1.97 -3.67,1.49 -3.94,-0.58 1.26,0 5.54,0.15 6.44,-0.09 0.24,-2.96 -0.99,-5.01 -3.54,-5.45 -2.94,-0.5 -4.99,1.25 -5.54,3.58 -1.62,6.86 8.15,8.04 8.91,3.17zm-24.98 -4.11c2.94,-0.88 3.64,3.65 1.28,4.38 -2.9,0.9 -3.86,-3.61 -1.28,-4.38zm-0.61 -2.56c-6.16,1.47 -4.15,11.16 2.52,9.51 2.34,-0.58 4.17,-3.02 3.47,-5.99 -0.56,-2.37 -2.93,-4.25 -5.99,-3.52zm-21.88 2.52c3.05,-0.71 3.46,3.86 1.09,4.46 -2.97,0.75 -3.64,-3.86 -1.09,-4.46zm-0.68 -2.52c-2.42,0.57 -4.25,2.84 -3.59,5.89 0.52,2.39 2.87,4.39 5.99,3.64 6.06,-1.46 4.26,-11.11 -2.4,-9.53zm-11.73 1.06c-1.11,-0.96 0.53,-0.94 -2.77,-0.94l0 9.27 2.83 -0c-0,-1.41 0,-2.82 -0,-4.23 -0,-1.4 -0.01,-2.63 1.44,-2.7 1.54,-0.08 1.6,1.24 1.6,2.55 -0,1.46 0,2.92 -0,4.38l2.84 -0c-0.02,-3.95 0.99,-9.11 -2.93,-9.49 -1.57,-0.15 -2.17,0.41 -3.01,1.16zm23.15 8.33c2.88,0 2.55,0.25 2.98,-0.94 0.61,-1.69 2.99,-7.52 3.1,-8.31l-2.86 -0.02 -1.98 5.6 -2.2 -5.59 -3.01 -0c0.22,0.95 2.57,6.42 3.28,8.14 0.52,1.26 0.24,0.9 0.69,1.13zm18.72 -9.26l-0.06 2.44 1.65 0.03c-0,4.08 -0.69,7.75 4.52,6.75l0.05 -2.38c-2.2,0.2 -1.77,-0.17 -1.78,-4.37l1.8 -0.02 -0.01 -2.44 -1.8 -0.01 -0.01 -2.69 -2.44 -0.03c-0.38,1.68 0.44,2.6 -1.93,2.72zm21.01 9.21l2.8 0.05 -0 -13.49 -2.76 -0 -0.03 13.45zm-50.08 5.74c-1.99,0.26 -1.06,-2.31 0.24,-1.04 0.08,0.67 0.02,0.61 -0.24,1.04zm0.49 -1.44c-0.27,-0.45 -0.63,-0.55 -1.47,-0.49 -0.86,0.84 -1.01,1.38 -0.15,2.38 0.17,0.09 0.53,-0.1 1.23,0.18 0.13,0.05 0.07,0.07 0.37,0.14l0.75 -2.87c-0.01,-0.71 0.05,-0.17 -0.18,-0.44 -0.42,0.18 -0.1,-0.26 -0.36,0.39 -0.05,0.14 -0.12,0.5 -0.19,0.71zm-7.45 0.03c0.86,-0.37 1.29,1.05 0.57,1.38 -1.06,0.5 -1.37,-1.04 -0.57,-1.38zm-1.24 1.6c0.5,0.06 0.39,-0.17 0.72,0.06 0.72,0.51 1.4,0.47 1.79,-0.2 0.71,-1.22 -0.16,-2.16 -1.43,-1.86 0.35,-1.95 0.31,-0.81 0.04,-1.23 -0.4,0.14 -0.05,-0.19 -0.3,0.18 -0.09,0.12 -0.12,0.32 -0.15,0.45l-0.65 2.59zm19.75 -0.41c-0.73,0.47 -1.58,0.44 -1.35,-0.64 0.17,-0.77 1.53,-1.02 1.35,0.64zm-2.26 1.36l0.66 -1c0.57,0.35 0.48,0.52 1.46,0.44 0.83,-0.35 1.26,-2.35 -0.33,-2.44 -1.2,-0.07 -0.08,-0.01 -1.09,-0.26 -0.12,0.6 -0.86,2.9 -0.71,3.26zm-23.35 -1.32c-0.92,0.38 -0.66,-0.25 -1.31,-0.47 -0.17,0.28 -0.32,-0.38 -0.13,0.46 0.14,0.6 1.16,0.86 1.61,0.62 1.42,-1.53 -0.92,-1.63 -0.62,-2.54 0.02,-0.02 0.19,-0.48 0.76,0.03 0.5,0.45 -0.39,0.37 0.64,0.4 0.04,-1.32 -1.53,-1.45 -1.94,-0.68 -0.25,0.47 -0.01,0.9 0.28,1.17 0.61,0.57 0.77,0.13 0.71,1.02zm10.14 0.14c-0.39,-0.5 -0.35,-0.76 -0.03,-1.29 1.34,-0.29 1.42,0.52 0.92,1.37l-0.89 -0.07zm-0.01 -1.8c-1.71,0.73 -0.5,3.02 1.03,2.3 1.31,-0.62 0.56,-2.98 -1.03,-2.3zm-5.37 0.57c0.34,1.28 -0.58,1.77 -1.2,1.05 -0.5,-0.58 0.03,-1.45 1.2,-1.05zm-1.08 -0.56c-1.7,0.81 -0.46,2.95 1.02,2.3 1.39,-0.6 0.55,-3.05 -1.02,-2.3zm30.48 1.89c-0.57,0.06 -0.5,-0.18 -0.5,-0.18 -0.16,-0.56 0.59,-0.58 0.99,-0.18 -0.2,0.3 0.04,0.3 -0.48,0.36zm-0.69 -1.63c0.59,0.47 1.16,-0.3 1.36,0.59 -0.96,0.19 -1.97,-0.4 -1.7,1.13 0.44,0.29 0.57,0.46 1.24,0.22 0.24,0.43 -0.05,0.24 0.54,0.36 0.13,-0.48 0.58,-1.66 0.36,-2.14 -0.26,-0.58 -1.5,-0.76 -1.79,-0.16zm-12.85 0.24c0.47,0.78 0.12,1.76 -0.85,1.3 -0.49,-0.23 -0.75,-1.66 0.85,-1.3zm0.74 0.08c-1.33,-1.39 -2.86,-0.39 -2.41,0.97 0.4,1.23 2.7,1.34 2.41,-0.97zm-5.54 1.49c0.77,-0.1 0.14,-0.17 0.86,-1.62l0.8 -0c0.23,0.78 -0.06,1.06 -0.13,1.42 -0.18,1.07 -0.08,0.31 0.1,0.62 0.63,0.04 0.81,-1.82 0.53,-2.21 -0.29,-0.3 -0.21,-0.3 -0.78,-0.32 -0.24,-0.01 -0.1,0.06 -0.4,-0.02 -0.15,-0.04 -0.14,-0.12 -0.56,-0.22 -0.15,0.6 -0.72,1.85 -0.41,2.35zm16.24 0.2c-0.17,-0.97 -0.33,0.15 -1.21,-0.75l0.05 -0.98c1.02,-0.26 0.97,0.03 1.25,0.12l0.15 0.01c0.01,0 0.05,-0.01 0.07,-0.02 0.12,-0.23 0.31,0.31 0.09,-0.3 -0.21,-0.58 -1.7,-0.67 -2.1,0.23 -0.5,1.12 0.54,2.22 1.69,1.69zm3.14 0.75c0.42,0.22 0.26,0.15 0.81,0.13 0.41,-0.48 1.16,-2.6 0.86,-3.1 -0.49,0.08 -0.22,-0.47 -0.72,1.49 -0.39,1.52 -0.39,0.94 -0.65,1.12 -0.29,0.2 -0.14,-0.05 -0.3,0.36zm-34.05 -0.82c0.68,0.15 0.39,0.45 0.89,-1.39 0.13,-0.49 0.54,-1.36 0.25,-1.78 -0.42,0.06 -0.24,-0.39 -0.72,1.47 -0.13,0.52 -0.35,1.19 -0.41,1.7zm25.7 -0.02c0.62,-0.16 0.31,-1.14 0.75,-1.5 1,-0.36 0.76,0.37 0.96,-0.56 -0.46,-0.16 -0.3,-0.03 -0.65,-0.06 -0.6,-0.05 0.13,-0.05 -0.67,-0.2l-0.55 1.74c-0.15,0.88 -0.16,0.33 0.16,0.59zm1.81 0.01c0.74,0.17 0.55,-0.17 0.74,-0.91 0.05,-0.18 0.19,-0.58 0.21,-0.72 0.17,-0.93 0.14,-0.37 -0.16,-0.62 -0.46,0.15 -0.73,1.74 -0.8,2.26zm9.4 -1.01c0.55,-0.04 0.74,-1 0.83,-1.71 0.08,-0.65 0.19,-0.25 -0.23,-0.46 -0.45,0.19 -0.81,1.82 -0.6,2.17zm-6.3 -1.49c0.26,-0.07 0.29,-0.06 0.54,-0.17 0,-0 0.28,-0.15 0.3,-0.16 0.25,-0.19 0.06,-0.02 0.2,-0.25 -0.42,-0.25 -0.29,-0.09 -0.95,0.07 -0.21,-0.59 0.04,-0.45 -0.57,-0.5l0.48 1.01zm5.94 2.49c1.06,0.32 0.52,-0.73 0.46,-0.61l-0.5 -0.01c-0.13,0.51 -0.18,0.2 0.04,0.62zm-8.33 -2.64c0.9,0.18 0.44,-0.02 0.6,-0.16 0.13,-0.58 -0.72,-0.77 -0.6,0.16zm7.47 -0.49c-0.02,0.04 -0.07,0.04 -0.08,0.11 -0.01,0.2 -0.17,-0.04 -0.01,0.5l0.46 0.01c0.17,-0.52 0.24,-0.71 -0.38,-0.62z"/>
  </g>
 </g>
</svg>
