<?xml version="1.0" encoding="UTF-8"?>
<!DOCTYPE svg PUBLIC "-//W3C//DTD SVG 1.1//EN" "http://www.w3.org/Graphics/SVG/1.1/DTD/svg11.dtd">
<!-- Creator: CorelDRAW 2020 (64-Bit) -->
<svg xmlns="http://www.w3.org/2000/svg" xml:space="preserve" width="60mm" height="30mm" version="1.1" style="shape-rendering:geometricPrecision; text-rendering:geometricPrecision; image-rendering:optimizeQuality; fill-rule:evenodd; clip-rule:evenodd"
viewBox="0 0 184.75 92.37"
 xmlns:xlink="http://www.w3.org/1999/xlink"
 xmlns:xodm="http://www.corel.com/coreldraw/odm/2003">
 <defs>
  <style type="text/css">
   <![CDATA[
    .fil1 {fill:#002F34}
    .fil2 {fill:#002F34;fill-rule:nonzero}
    .fil0 {fill:url(#id0)}
   ]]>
  </style>
  <linearGradient id="id0" gradientUnits="userSpaceOnUse" x1="-0" y1="46.19" x2="184.75" y2="46.19">
   <stop offset="0" style="stop-opacity:1; stop-color:#BDBFC1"/>
   <stop offset="0.760784" style="stop-opacity:0.909804; stop-color:#D1D3D4"/>
   <stop offset="1" style="stop-opacity:0.819608; stop-color:#E6E7E8"/>
  </linearGradient>
 </defs>
 <g id="Layer_x0020_1">
  <metadata id="CorelCorpID_0Corel-Layer"/>
  <g id="_2634514090272">
   <rect class="fil0" width="184.75" height="92.37" rx="14.55" ry="19.05"/>
   <g>
    <path class="fil1" d="M67.41 41.24c2.73,0 4.95,2.21 4.95,4.95 0,2.73 -2.21,4.95 -4.95,4.95 -2.73,0 -4.95,-2.21 -4.95,-4.95 0,-2.73 2.21,-4.95 4.95,-4.95zm22.29 4.95c0,12.31 -9.98,22.29 -22.29,22.29 -12.31,0 -22.29,-9.98 -22.29,-22.29 0,-12.31 9.98,-22.29 22.29,-22.29 12.31,0 22.29,9.98 22.29,22.29z"/>
    <polygon class="fil2" points="139.63,32.64 131.09,32.64 126.09,37.64 121.09,32.64 112.56,32.64 112.56,41.31 117.49,46.24 112.56,51.18 112.56,59.72 121.2,59.72 126.09,54.84 130.97,59.72 139.63,59.72 139.63,51.18 134.69,46.25 139.63,41.31 "/>
    <polygon class="fil2" points="107.16,73.23 94.33,73.23 94.33,19.14 107.16,19.14 "/>
   </g>
  </g>
 </g>
</svg>
