<?xml version="1.0" encoding="UTF-8"?>
<!DOCTYPE svg PUBLIC "-//W3C//DTD SVG 1.1//EN" "http://www.w3.org/Graphics/SVG/1.1/DTD/svg11.dtd">
<!-- Creator: CorelDRAW 2020 (64-Bit) -->
<svg xmlns="http://www.w3.org/2000/svg" xml:space="preserve" width="60mm" height="30mm" version="1.1" style="shape-rendering:geometricPrecision; text-rendering:geometricPrecision; image-rendering:optimizeQuality; fill-rule:evenodd; clip-rule:evenodd"
viewBox="0 0 129.29 64.64"
 xmlns:xlink="http://www.w3.org/1999/xlink"
 xmlns:xodm="http://www.corel.com/coreldraw/odm/2003">
 <defs>
  <style type="text/css">
   <![CDATA[
    .fil1 {fill:white}
    .fil0 {fill:url(#id0)}
   ]]>
  </style>
  <linearGradient id="id0" gradientUnits="userSpaceOnUse" x1="-0" y1="32.32" x2="129.29" y2="32.32">
   <stop offset="0" style="stop-opacity:1; stop-color:#084595"/>
   <stop offset="0.819608" style="stop-opacity:0.92549; stop-color:#084595"/>
   <stop offset="1" style="stop-opacity:0.847059; stop-color:#084595"/>
  </linearGradient>
 </defs>
 <g id="Layer_x0020_1">
  <metadata id="CorelCorpID_0Corel-Layer"/>
  <g id="_2634699570032">
   <rect class="fil0" width="129.29" height="64.64" rx="10.18" ry="13.33"/>
   <g>
    <path class="fil1" d="M60.77 7.12l0 30.57c0,0.19 0.22,0.21 0.33,0.24 0.08,0.02 0.13,0.06 0.22,0.08l0.66 0.21c0.15,0.06 0.31,0.08 0.45,0.14 0.07,0.03 0.15,0.04 0.22,0.06 0.09,0.02 0.13,0.05 0.22,0.08 0.08,0.02 0.15,0.03 0.23,0.06 0.08,0.03 0.14,0.06 0.22,0.08l0.44 0.14c0.08,0.02 0.16,0.03 0.23,0.06l0.43 0.14c0.07,0.02 0.15,0.04 0.23,0.07 0.07,0.02 0.15,0.05 0.22,0.08 0.07,0.03 0.16,0.05 0.23,0.07 0.08,0.02 0.13,0.05 0.2,0.08 0.08,0.03 0.16,0.03 0.24,0.06 0.07,0.03 0.14,0.06 0.21,0.08 0.08,0.02 0.15,0.03 0.23,0.06 0.29,0.1 0.59,0.18 0.87,0.29 0.07,0.03 0.15,0.04 0.22,0.06 0.09,0.02 0.13,0.05 0.22,0.08l0.35 0.09c0.04,0.01 0.07,-0.01 0.13,-0.01 0.02,-0.07 0.04,-0.07 0.04,-0.17 0.01,-2.32 -0,-4.64 -0,-6.95l0 -17.95c0,-0.44 -0.02,-0.88 0.03,-1.31 0.01,-0.1 0.11,-0.43 0.15,-0.52 0.03,-0.06 0.12,-0.24 0.16,-0.29 0.05,-0.05 0.07,-0.11 0.13,-0.16 0.2,-0.18 0.33,-0.25 0.61,-0.25 0.21,0 0.29,0.04 0.47,0.11 0.17,0.07 0.14,0.05 0.29,0.14 0.04,0.02 0.06,0.03 0.09,0.06 0.06,0.05 0.09,0.08 0.15,0.13 0.11,0.11 0.19,0.17 0.26,0.31 0.03,0.07 0.07,0.12 0.1,0.19 0.03,0.07 0.05,0.13 0.08,0.2 0.06,0.14 0.15,0.55 0.16,0.71 0.04,0.4 0.04,0.71 0.04,1.11l-0 9.79c0,0.08 0.01,0.19 0.04,0.24 0.04,0.05 0.11,0.1 0.16,0.13 0.07,0.03 0.13,0.05 0.2,0.08 0.1,0.05 0.2,0.07 0.31,0.12 0.16,0.08 0.19,0.06 0.33,0.12l0.43 0.14c0.21,0.07 0.72,0.17 0.95,0.2 0.08,0.01 0.19,0.01 0.27,0.02 0.07,0 0.07,0.01 0.13,0.01 0.37,0.02 1.04,-0 1.37,-0.1 0.1,-0.03 0.17,-0.04 0.27,-0.07 0.11,-0.03 0.61,-0.24 0.71,-0.29l0.21 -0.12c0.13,-0.09 0.27,-0.17 0.39,-0.28 0.03,-0.03 0.05,-0.04 0.09,-0.07 0.04,-0.03 0.05,-0.05 0.09,-0.08l0.18 -0.16c0.07,-0.06 0.11,-0.11 0.16,-0.17l0.3 -0.37 0.26 -0.41c0.04,-0.08 0.09,-0.13 0.12,-0.22 0.02,-0.05 0.02,-0.07 0.05,-0.11l0.11 -0.22c0.04,-0.09 0.08,-0.14 0.1,-0.23l0.09 -0.24c0.04,-0.08 0.04,-0.17 0.07,-0.26 0.02,-0.05 0.03,-0.08 0.05,-0.12l0.14 -0.53 0.16 -1c0.02,-0.15 0.02,-0.45 0.04,-0.63 0.01,-0.06 -0,-0.12 0,-0.17l0.01 -0.88c0,-0.1 -0.01,-0.15 -0.01,-0.23 -0,-0.07 0,-0.15 0,-0.23 -0,-0.08 -0.01,-0.13 -0.01,-0.23 0,-0.09 -0.01,-0.12 -0.01,-0.21l-0.05 -0.66c-0.05,-0.35 -0.09,-0.67 -0.15,-1.02l-0.23 -0.97c-0.02,-0.07 -0.04,-0.11 -0.06,-0.17 -0.02,-0.07 -0.03,-0.12 -0.05,-0.19l-0.19 -0.5c-0.03,-0.06 -0.05,-0.09 -0.07,-0.17 -0.02,-0.07 -0.04,-0.1 -0.07,-0.16 -0.03,-0.06 -0.04,-0.12 -0.07,-0.17 -0.02,-0.05 -0.06,-0.09 -0.08,-0.14 -0.01,-0.03 -0.02,-0.06 -0.04,-0.08 -0.02,-0.04 -0.03,-0.04 -0.05,-0.07 -0.05,-0.07 -0.08,-0.16 -0.13,-0.22l-0.14 -0.22c-0.04,-0.05 -0.05,-0.1 -0.09,-0.15l-0.31 -0.39c-0.02,-0.02 -0.03,-0.05 -0.05,-0.07 -0.02,-0.03 -0.03,-0.03 -0.06,-0.06l-0.1 -0.13c-0.05,-0.05 -0.07,-0.08 -0.11,-0.13l-0.23 -0.24c-0.09,-0.1 -0.2,-0.19 -0.3,-0.28 -0.1,-0.09 -0.22,-0.18 -0.32,-0.27 -0.05,-0.06 -0.07,-0.06 -0.13,-0.11l-0.41 -0.3c-0.04,-0.04 -0.09,-0.07 -0.14,-0.1 -0.06,-0.05 -0.07,-0.05 -0.14,-0.09 -0.08,-0.04 -0.13,-0.09 -0.21,-0.13 -0.08,-0.05 -0.13,-0.09 -0.22,-0.14 -0.21,-0.11 -0.39,-0.25 -0.61,-0.34l-0.32 -0.15c-0.13,-0.06 -0.34,-0.19 -0.47,-0.24l-0.41 -0.18c-0.11,-0.06 -0.22,-0.08 -0.33,-0.14l-0.41 -0.18c-0.05,-0.02 -0.12,-0.03 -0.17,-0.05 -0.06,-0.02 -0.1,-0.05 -0.17,-0.07 -0.06,-0.02 -0.11,-0.03 -0.17,-0.05 -0.06,-0.02 -0.11,-0.05 -0.17,-0.07 -0.17,-0.06 -0.72,-0.26 -0.88,-0.3 -0.07,-0.02 -0.11,-0.04 -0.18,-0.06 -0.07,-0.03 -0.59,-0.17 -0.72,-0.22l-0.71 -0.23c-0.13,-0.03 -0.23,-0.09 -0.36,-0.11 -0.13,-0.03 -0.23,-0.08 -0.36,-0.11 -0.06,-0.02 -0.12,-0.03 -0.18,-0.05l-0.37 -0.11c-0.06,-0.02 -0.12,-0.04 -0.18,-0.06 -0.12,-0.04 -0.24,-0.06 -0.37,-0.1l-0.17 -0.06c-0.06,-0.02 -0.12,-0.03 -0.2,-0.04 -0.12,-0.03 -0.14,-0.06 -0.36,-0.11 -0.14,-0.03 -0.22,-0.08 -0.36,-0.11l-0.36 -0.1c-0.12,-0.04 -0.26,-0.05 -0.38,-0.09l-1.12 -0.3c-0.13,-0.04 -0.26,-0.05 -0.38,-0.09 -0.19,-0.06 -0.39,-0.08 -0.57,-0.14 -0.07,-0.02 -0.11,-0.03 -0.19,-0.05l-0.38 -0.09c-0.18,-0.05 -0.36,-0.06 -0.57,-0.12 -0.13,-0.04 -0.27,-0.05 -0.41,-0.08 -0.12,-0.02 -0.34,-0.09 -0.34,0.12z"/>
    <path class="fil1" d="M69.08 28.83l0 3.92c0,0.07 0.02,0.14 0.09,0.15 0.08,0 0.83,-0.27 0.95,-0.32 0.06,-0.02 0.12,-0.04 0.19,-0.06 0.07,-0.02 0.12,-0.05 0.18,-0.07 0.06,-0.02 0.13,-0.03 0.19,-0.05 0.07,-0.02 0.11,-0.05 0.18,-0.08 0.07,-0.03 0.13,-0.03 0.2,-0.06 0.08,-0.02 0.11,-0.05 0.18,-0.07 0.07,-0.02 0.13,-0.04 0.19,-0.06l0.38 -0.13c0.06,-0.02 0.11,-0.05 0.18,-0.07 0.07,-0.02 0.12,-0.03 0.19,-0.06 0.07,-0.02 0.12,-0.06 0.18,-0.08 0.15,-0.04 0.29,-0.11 0.38,-0.13 0.14,-0.03 0.24,-0.09 0.38,-0.13 0.12,-0.04 0.26,-0.11 0.37,-0.14 0.07,-0.02 0.14,-0.03 0.2,-0.06 0.06,-0.03 0.1,-0.05 0.18,-0.07l0.94 -0.33c0.06,-0.02 0.12,-0.05 0.19,-0.06 0.08,-0.02 0.11,-0.04 0.17,-0.07 0.05,-0.02 0.13,-0.04 0.2,-0.06l0.56 -0.2c0.07,-0.03 0.12,-0.04 0.19,-0.06 0.03,-0.01 0.06,-0.02 0.09,-0.03 0.04,-0.02 0.05,-0.03 0.09,-0.04 0.07,-0.03 0.13,-0.04 0.19,-0.06 0.07,-0.02 0.11,-0.05 0.18,-0.07 0.07,-0.02 0.13,-0.03 0.2,-0.05 0.17,-0.06 0.22,-0.07 0.4,-0.11l0.42 -0.09c0.44,-0.09 0.93,-0.1 1.38,-0.13 0.16,-0.01 0.09,-0.01 0.23,0l0.24 0.01c0.32,-0 0.8,0.08 1.1,0.17 0.21,0.06 0.17,0.05 0.36,0.14 0.2,0.1 0.36,0.19 0.36,0.45 0,0.25 -0.25,0.39 -0.42,0.52 -0.03,0.02 -0.04,0.04 -0.08,0.05 -0.06,0.03 -0.11,0.06 -0.17,0.09 -0.07,0.03 -0.13,0.04 -0.2,0.07 -0.14,0.06 -0.45,0.19 -0.59,0.23l-0.59 0.21c-0.06,0.03 -0.14,0.04 -0.2,0.06 -0.16,0.05 -0.44,0.18 -0.59,0.22 -0.11,0.03 -0.19,0.07 -0.29,0.11 -0.04,0.01 -0.07,0.02 -0.11,0.03l-0.79 0.28c-0.08,0.03 -0.12,0.05 -0.19,0.08 -0.07,0.02 -0.16,0.04 -0.22,0.07 -0.07,0.03 -0.11,0.06 -0.19,0.08l-0.61 0.21c-0.06,0.03 -0.13,0.04 -0.2,0.07 -0.12,0.04 -0.19,0.08 -0.39,0.14 -0.08,0.02 -0.13,0.05 -0.2,0.08l-0.3 0.11c-0.04,0.02 -0.06,0.02 -0.1,0.03l-0.59 0.21c-0.08,0.03 -0.11,0.04 -0.2,0.07 -0.08,0.02 -0.13,0.05 -0.19,0.08 -0.07,0.03 -0.14,0.04 -0.22,0.06l-0.3 0.11c-0.04,0.01 -0.06,0.02 -0.1,0.04 -0.07,0.03 -0.12,0.05 -0.19,0.08 -0.08,0.03 -0.13,0.04 -0.21,0.07 -0.07,0.03 -0.13,0.05 -0.19,0.07l-0.19 0.07c-0.1,0.04 -0.21,0.05 -0.3,0.1 -0.09,0.05 -0.22,0.07 -0.31,0.1 -0.07,0.03 -0.12,0.05 -0.19,0.08l-0.39 0.14c-0.09,0.03 -0.12,0.03 -0.2,0.07 -0.07,0.04 -0.11,0.04 -0.2,0.07l-0.8 0.28c-0.08,0.03 -0.1,0.05 -0.19,0.08 -0.21,0.06 -0.28,0.11 -0.41,0.14 -0.14,0.04 -0.26,0.08 -0.39,0.14 -0.07,0.03 -0.09,0.1 -0.09,0.19l0 3.71c0,0.09 0.04,0.17 0.14,0.15 0.04,-0.01 0.06,-0.01 0.09,-0.02 0.05,-0.02 0.09,-0.05 0.15,-0.06 0.06,-0.02 0.1,-0.02 0.16,-0.04 0.02,-0.01 0.05,-0.02 0.08,-0.03 0.04,-0.02 0.03,-0.02 0.07,-0.04 0.04,-0.02 0.1,-0.03 0.16,-0.04 0.06,-0.02 0.11,-0.03 0.16,-0.06l0.45 -0.17c0.06,-0.02 0.12,-0.03 0.17,-0.05 0.12,-0.04 0.12,-0.06 0.3,-0.11l0.92 -0.34c0.1,-0.04 0.21,-0.06 0.31,-0.11l0.62 -0.21c0.05,-0.02 0.09,-0.04 0.14,-0.06l0.77 -0.28c0.12,-0.03 0.2,-0.08 0.31,-0.11l0.31 -0.11c0.1,-0.04 0.21,-0.06 0.3,-0.11 0.11,-0.06 0.2,-0.06 0.31,-0.11l0.31 -0.11c0.05,-0.02 0.09,-0.04 0.14,-0.06 0.05,-0.02 0.1,-0.03 0.16,-0.05 0.21,-0.07 0.4,-0.16 0.61,-0.22 0.16,-0.05 0.3,-0.12 0.47,-0.16 0.11,-0.03 0.2,-0.08 0.3,-0.11 0.16,-0.04 0.3,-0.11 0.46,-0.17 0.06,-0.02 0.08,-0.04 0.14,-0.06 0.06,-0.02 0.1,-0.03 0.16,-0.05 0.06,-0.02 0.09,-0.03 0.14,-0.06l0.77 -0.28c0.1,-0.04 0.22,-0.06 0.31,-0.11 0.11,-0.05 0.21,-0.05 0.31,-0.1 0.2,-0.09 0.41,-0.15 0.61,-0.22 0.11,-0.04 0.12,-0.06 0.3,-0.11 0.2,-0.06 0.41,-0.16 0.61,-0.22l0.63 -0.22c0.12,-0.06 0.31,-0.11 0.45,-0.17 0.06,-0.02 0.11,-0.03 0.16,-0.05 0.05,-0.02 0.08,-0.05 0.14,-0.06 0.1,-0.03 0.22,-0.06 0.31,-0.11 0.09,-0.05 0.21,-0.06 0.31,-0.1 0.17,-0.07 0.71,-0.25 0.76,-0.28 0.1,-0.05 0.22,-0.06 0.32,-0.11 0.1,-0.05 0.52,-0.18 0.74,-0.29 0.05,-0.03 0.1,-0.04 0.16,-0.06 0.11,-0.04 0.14,-0.07 0.29,-0.13 0.05,-0.02 0.08,-0.04 0.13,-0.07 0.05,-0.03 0.1,-0.04 0.15,-0.06l1.16 -0.71c0.05,-0.04 0.08,-0.04 0.13,-0.09 0.15,-0.14 0.31,-0.23 0.44,-0.4 0.09,-0.12 0.19,-0.2 0.27,-0.34l0.14 -0.27c0.11,-0.21 0.11,-0.41 0.11,-0.65 0,-0.22 -0.02,-0.35 -0.11,-0.53 -0.05,-0.11 -0.08,-0.19 -0.15,-0.29l-0.19 -0.25c-0.03,-0.03 -0.04,-0.02 -0.06,-0.05l-0.16 -0.18c-0.04,-0.04 -0.19,-0.15 -0.24,-0.19l-0.26 -0.19c-0.06,-0.05 -0.48,-0.3 -0.56,-0.32 -0.04,-0.01 -0.44,-0.21 -0.6,-0.27 -0.11,-0.04 -0.2,-0.09 -0.32,-0.12 -0.06,-0.02 -0.1,-0.04 -0.16,-0.07 -0.11,-0.04 -0.21,-0.05 -0.32,-0.11 -0.1,-0.05 -0.22,-0.06 -0.33,-0.11 -0.21,-0.08 -0.43,-0.18 -0.66,-0.23 -0.12,-0.02 -0.2,-0.07 -0.32,-0.1l-0.34 -0.1c-0.13,-0.03 -0.24,-0.05 -0.36,-0.08 -0.06,-0.02 -0.1,-0.04 -0.16,-0.05 -0.07,-0.02 -0.12,-0.02 -0.19,-0.04 -0.12,-0.02 -0.22,-0.06 -0.34,-0.08 -0.13,-0.03 -0.25,-0.04 -0.37,-0.07 -0.13,-0.03 -0.23,-0.05 -0.37,-0.08 -0.12,-0.02 -0.26,-0.03 -0.39,-0.05 -0.13,-0.02 -0.22,-0.05 -0.36,-0.07 -0.12,-0.02 -0.27,-0.02 -0.4,-0.04l-1.49 -0.14c-0.06,-0 -0.05,-0.01 -0.11,-0.01 -0.15,-0.01 -0.28,-0.01 -0.43,-0.01 -0.08,-0 -0.11,-0.01 -0.2,-0.01l-1.17 0c-0.2,0 -0.35,0.01 -0.54,0.01 -0.24,-0 -1.06,0.07 -1.28,0.1 -0.08,0.01 -0.18,0.02 -0.25,0.04 -0.16,0.03 -0.31,0.04 -0.49,0.06 -0.17,0.02 -0.32,0.05 -0.48,0.08 -0.15,0.03 -0.32,0.04 -0.48,0.07 -0.08,0.01 -0.15,0.03 -0.23,0.05 -0.08,0.02 -0.15,0.03 -0.24,0.04 -0.17,0.02 -0.3,0.06 -0.45,0.09 -0.15,0.04 -0.31,0.06 -0.46,0.1 -0.15,0.04 -0.29,0.06 -0.45,0.1 -0.07,0.02 -0.14,0.04 -0.22,0.06 -0.16,0.04 -0.28,0.06 -0.43,0.12 -0.11,0.04 -0.21,0.04 -0.44,0.12 -0.11,0.04 -0.21,0.05 -0.42,0.13 -0.13,0.05 -0.55,0.1 -0.55,0.29z"/>
    <path class="fil1" d="M44.75 32.37c0,0.19 0.01,0.33 0.07,0.49 0.11,0.32 0.12,0.33 0.3,0.59l0.2 0.25c0.12,0.11 0.01,0.03 0.17,0.16l0.3 0.26c0.14,0.12 0.31,0.2 0.46,0.3l0.51 0.27c0.05,0.03 0.11,0.04 0.17,0.06 0.05,0.02 0.09,0.05 0.15,0.07 0.06,0.03 0.11,0.03 0.17,0.05 0.06,0.02 0.08,0.05 0.15,0.07l0.84 0.27c0.06,0.02 0.11,0.03 0.17,0.04 0.06,0.02 0.09,0.04 0.16,0.06 0.11,0.03 0.25,0.05 0.35,0.09 0.05,0.02 0.1,0.04 0.16,0.05l0.34 0.09c0.06,0.02 0.12,0.03 0.18,0.05 0.11,0.03 0.24,0.05 0.36,0.09l1.47 0.3c0.14,0.02 0.27,0.03 0.39,0.05 0.14,0.02 0.23,0.04 0.38,0.06 0.14,0.02 0.26,0.02 0.4,0.04 0.97,0.14 1.93,0.14 2.91,0.14 0.05,0 0.1,0 0.15,0 0.07,-0 0.08,-0.01 0.15,-0.01 0.1,-0 0.21,0 0.31,0 0.2,0 0.39,-0.03 0.59,-0.03 0.07,0 0.08,-0.01 0.13,-0.01 0.06,-0 0.1,-0 0.15,-0.01 0.38,-0.05 0.74,-0.07 1.12,-0.12l0.8 -0.12c0.11,-0.01 0.16,-0.03 0.26,-0.05 0.25,-0.05 0.29,-0.06 0.29,-0.34 0,-0.38 0.02,-3.08 -0.02,-3.24 -0.06,-0.2 -0.41,0.02 -0.53,0.05l-0.36 0.13c-0.06,0.02 -0.13,0.04 -0.19,0.07 -0.06,0.03 -0.12,0.05 -0.18,0.07 -0.06,0.02 -0.12,0.04 -0.18,0.06 -0.12,0.05 -0.26,0.08 -0.37,0.14 -0.03,0.02 -0.57,0.2 -0.73,0.27 -0.07,0.03 -0.12,0.04 -0.19,0.06 -0.07,0.02 -0.11,0.05 -0.17,0.07 -0.06,0.02 -0.12,0.04 -0.19,0.06 -0.07,0.02 -0.11,0.05 -0.18,0.07l-0.37 0.13c-0.15,0.05 -0.46,0.14 -0.6,0.16l-0.41 0.09c-0.14,0.03 -0.31,0.04 -0.46,0.05 -0.14,0.02 -0.29,0.01 -0.46,0.04 -0.08,0.01 -0.17,-0 -0.25,0.01 -0.3,0.02 -0.64,-0.01 -0.94,-0.03 -0.33,-0.03 -0.61,-0.07 -0.92,-0.18 -0.06,-0.02 -0.08,-0.04 -0.13,-0.06 -0.18,-0.08 -0.31,-0.15 -0.41,-0.33 -0.13,-0.22 0.07,-0.47 0.24,-0.59 0.12,-0.08 0.06,-0.06 0.23,-0.15 0.05,-0.02 0.07,-0.05 0.11,-0.08l0.4 -0.16c0.09,-0.02 0.18,-0.08 0.27,-0.1l0.56 -0.19c0.09,-0.04 0.17,-0.07 0.26,-0.1 0.1,-0.03 0.17,-0.07 0.27,-0.1l0.56 -0.19c0.1,-0.04 0.18,-0.06 0.28,-0.1 0.09,-0.03 0.17,-0.08 0.27,-0.11 0.15,-0.04 0.27,-0.1 0.42,-0.14 0.06,-0.02 0.09,-0.03 0.13,-0.05 0.08,-0.04 0.18,-0.06 0.27,-0.09 0.05,-0.02 0.08,-0.04 0.13,-0.05 0.04,-0.01 0.09,-0.03 0.14,-0.05l0.83 -0.29c0.05,-0.03 0.07,-0.04 0.13,-0.06 0.19,-0.05 0.31,-0.12 0.42,-0.15l0.83 -0.29c0.11,-0.04 0.13,-0.06 0.27,-0.1l0.55 -0.2c0.09,-0.04 0.18,-0.06 0.28,-0.1 0.04,-0.02 0.08,-0.04 0.13,-0.06 0.05,-0.02 0.1,-0.02 0.15,-0.04 0.09,-0.04 0.1,-0.17 0.1,-0.27l0 -3.51c0,-0.1 -0,-0.24 -0.06,-0.28 -0.07,-0.05 -0.18,-0.01 -0.25,0.02l-1.01 0.36c-0.1,0.03 -0.14,0.07 -0.24,0.1 -0.1,0.03 -0.17,0.04 -0.26,0.08 -0.06,0.03 -0.59,0.2 -0.74,0.27 -0.09,0.04 -0.18,0.05 -0.26,0.08l-0.5 0.18c-0.09,0.03 -0.17,0.05 -0.25,0.08 -0.09,0.04 -0.16,0.06 -0.26,0.09 -0.09,0.03 -0.15,0.07 -0.24,0.1l-1 0.35c-0.09,0.04 -0.17,0.05 -0.26,0.09l-0.5 0.19c-0.11,0.03 -0.16,0.03 -0.26,0.08 -0.09,0.04 -0.15,0.05 -0.25,0.08 -0.09,0.03 -0.16,0.07 -0.24,0.1 -0.09,0.03 -0.17,0.05 -0.26,0.09l-0.75 0.27c-0.12,0.05 -0.23,0.07 -0.38,0.13l-0.25 0.09c-0.13,0.06 -0.31,0.1 -0.38,0.13 -0.1,0.05 -0.14,0.06 -0.26,0.09 -0.09,0.03 -0.15,0.07 -0.24,0.09 -0.17,0.05 -0.68,0.25 -0.76,0.27 -0.11,0.03 -0.16,0.05 -0.25,0.09 -0.09,0.04 -0.17,0.05 -0.26,0.08 -0.04,0.01 -0.07,0.03 -0.11,0.05 -0.09,0.04 -0.17,0.05 -0.26,0.09 -0.22,0.1 -0.47,0.18 -0.72,0.3 -0.05,0.02 -0.08,0.03 -0.13,0.04 -0.09,0.03 -0.14,0.08 -0.24,0.11 -0.21,0.07 -0.45,0.23 -0.57,0.26 -0.05,0.02 -0.08,0.03 -0.12,0.05l-0.23 0.12c-0.14,0.09 -0.3,0.15 -0.44,0.24l-0.42 0.26c-0.07,0.05 -0.13,0.09 -0.2,0.14 -0.04,0.03 -0.05,0.05 -0.09,0.08l-0.28 0.23c-0.12,0.11 -0.23,0.23 -0.31,0.37 -0.04,0.07 -0.1,0.14 -0.13,0.22l-0.08 0.25c-0.03,0.08 -0.04,0.2 -0.04,0.3z"/>
    <path class="fil1" d="M32.51 44.64l0 9.23c0,0.14 0.03,0.23 0.19,0.23l1.37 0c0.21,0 0.2,-0.17 0.2,-0.35l0 -8.13c0.01,-0.06 0.07,-0.13 0.15,-0.13l1.69 0c0.41,0 0.6,0.16 0.81,0.46l0.17 0.38c0.01,0.06 0.02,0.1 0.03,0.16 0.01,0.05 0.03,0.09 0.04,0.15 0.07,0.3 0.09,1.03 0.04,1.36 -0.01,0.09 -0.11,0.6 -0.15,0.67 -0.17,0.35 -0.16,0.4 -0.47,0.63 -0.18,0.13 -0.44,0.11 -0.7,0.11 -0.1,0 -0.74,-0.01 -0.8,0.01 -0.06,0.03 -0.11,0.09 -0.11,0.17l0 0.71c0,0.06 0.05,0.11 0.08,0.13 0.05,0.03 0.11,0.04 0.19,0.04l1.45 0c0.44,0 0.74,-0.13 1.08,-0.34 0.09,-0.06 0.21,-0.12 0.28,-0.21l0.07 -0.07c0,-0 0,-0 0.01,-0.01 0.03,-0.03 0.05,-0.05 0.08,-0.08l0.15 -0.17c0.12,-0.16 0.15,-0.21 0.25,-0.38 0.04,-0.07 0.05,-0.15 0.09,-0.23l0.16 -0.47c0.15,-0.59 0.14,-1.54 0.01,-2.14l-0.15 -0.48c-0.07,-0.15 -0.04,-0.09 -0.09,-0.23 -0.03,-0.07 -0.25,-0.43 -0.3,-0.48 -0.03,-0.03 -0.05,-0.05 -0.08,-0.08 -0.07,-0.08 -0.23,-0.24 -0.32,-0.31l-0.19 -0.13c-0.22,-0.15 -0.35,-0.14 -0.57,-0.22 -0.12,-0.04 -0.29,-0.06 -0.43,-0.06l-3.96 0c-0.19,0 -0.25,0.05 -0.25,0.24z"/>
    <path class="fil1" d="M49.89 46.74c0,0.11 -0.01,0.12 0.02,0.2 0.02,0.06 0.03,0.11 0.05,0.18 0.06,0.19 0.19,0.5 0.24,0.68 0.06,0.22 0.06,0.18 0.12,0.35l0.23 0.69c0.02,0.05 0.04,0.12 0.05,0.18 0.03,0.12 0.08,0.2 0.12,0.34 0.02,0.08 0.03,0.11 0.07,0.18l0.23 0.7c0.02,0.06 0.04,0.1 0.06,0.16l0.17 0.52c0.02,0.08 0.04,0.1 0.06,0.16 0.02,0.05 0.04,0.12 0.05,0.18 0.02,0.06 0.04,0.1 0.06,0.17 0.05,0.12 0.07,0.24 0.12,0.35 0.03,0.07 0.04,0.11 0.06,0.18 0.03,0.14 0.09,0.22 0.12,0.34 0.02,0.06 0.03,0.12 0.05,0.18 0.02,0.06 0.04,0.1 0.06,0.16 0.02,0.06 0.03,0.12 0.05,0.18l0.3 0.86c0.03,0.06 0.1,0.28 0.09,0.35 -0.02,0.16 -0.12,0.35 -0.18,0.52l-0.2 0.5c-0.05,0.11 -0.07,0.22 -0.13,0.33 -0.03,0.06 -0.05,0.18 -0.13,0.34l-0.09 0.24c-0.01,0.04 -0.02,0.05 -0.04,0.08 -0.03,0.08 -0.05,0.19 -0.09,0.26l-0.36 0.92c-0.02,0.07 -0.05,0.11 -0.08,0.17 -0.04,0.1 -0.1,0.28 0.08,0.28l1.22 0c0.04,0 0.13,-0.04 0.16,-0.07l0.34 -0.85c0.03,-0.06 0.05,-0.1 0.08,-0.17l0.1 -0.25c0.01,-0.03 0.02,-0.05 0.03,-0.09 0.03,-0.09 0.03,-0.1 0.07,-0.17l0.14 -0.34c0.05,-0.11 0.08,-0.24 0.13,-0.35l0.14 -0.34c0.02,-0.06 0.04,-0.11 0.06,-0.17l0.27 -0.68c0.02,-0.06 0.06,-0.11 0.08,-0.17 0.02,-0.07 0.03,-0.13 0.06,-0.18 0.03,-0.06 0.05,-0.1 0.08,-0.16 0.1,-0.26 0.21,-0.51 0.3,-0.77l0.18 -0.42c0.06,-0.15 0.06,-0.18 0.13,-0.34l0.2 -0.52c0.02,-0.06 0.05,-0.09 0.07,-0.15 0.03,-0.07 0.02,-0.11 0.06,-0.18 0.06,-0.11 0.09,-0.23 0.14,-0.34 0.05,-0.1 0.08,-0.24 0.14,-0.33 0.06,-0.11 0.08,-0.23 0.14,-0.34 0.05,-0.08 0.06,-0.18 0.09,-0.27l0.45 -1.1c0.02,-0.06 0.03,-0.11 0.06,-0.17 0.03,-0.06 0.05,-0.1 0.07,-0.17l0.2 -0.51c0.03,-0.06 0.05,-0.09 0.07,-0.17 0.06,-0.2 0.4,-0.95 0.4,-1.05 0,-0.12 -0.07,-0.15 -0.21,-0.15l-1.19 0c-0.21,0 -0.24,0.15 -0.3,0.3l-0.29 0.75c-0.05,0.1 -0.06,0.19 -0.11,0.29 -0.07,0.14 -0.11,0.3 -0.17,0.44 -0.02,0.05 -0.04,0.11 -0.06,0.16 -0.04,0.12 -0.07,0.16 -0.11,0.3 -0.03,0.1 -0.08,0.18 -0.12,0.28 -0.02,0.05 -0.03,0.1 -0.05,0.15 -0.02,0.05 -0.04,0.09 -0.06,0.15 -0.02,0.05 -0.03,0.11 -0.05,0.15 -0.02,0.06 -0.05,0.09 -0.07,0.15 -0.02,0.05 -0.02,0.11 -0.04,0.16 -0.04,0.1 -0.07,0.15 -0.12,0.29l-0.18 0.45c-0.05,0.1 -0.06,0.21 -0.11,0.3 -0.04,0.07 -0.1,0.21 -0.12,0.29 -0.13,0 -0.17,-0.1 -0.2,-0.2 -0.03,-0.12 -0.07,-0.2 -0.11,-0.31 -0.02,-0.05 -0.03,-0.1 -0.04,-0.16 -0.02,-0.05 -0.04,-0.09 -0.06,-0.14 -0.04,-0.11 -0.06,-0.21 -0.1,-0.31 -0.05,-0.1 -0.06,-0.19 -0.1,-0.3l-0.11 -0.31c-0.04,-0.11 -0.08,-0.18 -0.11,-0.29 -0.04,-0.16 -0.06,-0.18 -0.11,-0.31 -0.04,-0.11 -0.05,-0.21 -0.09,-0.31 -0.07,-0.15 -0.1,-0.3 -0.16,-0.46l-0.2 -0.61c-0.06,-0.15 -0.1,-0.31 -0.16,-0.45 -0.09,-0.22 -0.06,-0.45 -0.37,-0.45 -0.23,0 -1.32,-0.02 -1.46,0.01 -0.06,0.02 -0.04,0.03 -0.09,0.04z"/>
    <path class="fil1" d="M68.58 50.02c0,0.5 -0.03,1.94 0.03,2.37 0.01,0.1 0.13,0.46 0.18,0.56 0.11,0.23 0.05,0.1 0.17,0.31l0.34 0.4c0.11,0.08 0.33,0.23 0.45,0.29 0.06,0.03 0.13,0.04 0.19,0.07 0.11,0.04 0.26,0.08 0.42,0.08l1.59 0c0.19,0 0.21,-0.07 0.21,-0.27l0 -0.56c0,-0.29 -0.18,-0.24 -0.48,-0.24 -0.21,0 -0.53,0.02 -0.74,-0 -0.31,-0.03 -0.52,-0.22 -0.57,-0.53 -0.02,-0.11 -0.03,-0.22 -0.03,-0.34l0 -2.29c0,-0.27 0.03,-0.81 0.11,-1.06 0.03,-0.1 0.06,-0.21 0.09,-0.31l0.13 -0.26c0.17,-0.26 0.42,-0.43 0.74,-0.43l1.29 0c0.15,0 0.19,0.08 0.19,0.21 -0.01,1.93 0.01,3.87 -0,5.8 -0,0.13 0.01,0.28 0.13,0.28l1.39 0c0.15,0 0.2,-0.05 0.2,-0.2l0 -6.99c0,-0.18 -0.09,-0.21 -0.27,-0.21 -0.57,0 -2.77,-0.03 -3.25,0.04 -0.14,0.02 -0.58,0.09 -0.69,0.14 -0.1,0.04 -0.21,0.07 -0.3,0.12 -0.23,0.12 -0.42,0.23 -0.61,0.42 -0.19,0.19 -0.23,0.21 -0.38,0.45l-0.22 0.41c-0.05,0.11 -0.06,0.2 -0.1,0.31 -0.02,0.05 -0.04,0.08 -0.05,0.15l-0.06 0.35c-0.08,0.35 -0.09,0.54 -0.09,0.95z"/>
    <path class="fil1" d="M42.93 49.99c0,0.44 -0.03,2.07 0.04,2.41 0.05,0.27 0.15,0.48 0.25,0.72 0.04,0.08 0.23,0.33 0.31,0.41 0,0 0,0 0.01,0.01 0.05,0.05 0.07,0.08 0.12,0.12l0.21 0.15c0.04,0.02 0.05,0.03 0.09,0.05 0.21,0.13 0.52,0.23 0.77,0.23l1.58 0c0.18,0 0.2,-0.13 0.2,-0.28 0,-0.14 0.01,-0.55 -0.01,-0.67 -0.06,-0.29 -1.15,0.06 -1.56,-0.25 -0.03,-0.02 -0.15,-0.18 -0.17,-0.23 -0.06,-0.17 -0.09,-0.51 -0.09,-0.71 0,-0.77 -0.01,-1.53 0.01,-2.3l0.06 -0.56c0.03,-0.23 0.08,-0.45 0.17,-0.66 0.06,-0.13 0.15,-0.27 0.25,-0.38 0.07,-0.07 0.15,-0.13 0.24,-0.18 0.06,-0.03 0.27,-0.08 0.35,-0.08l1.34 0c0.19,0 0.13,0.55 0.13,0.68l-0 5.37c-0,0.13 0.02,0.24 0.17,0.24l1.35 0c0.06,0 0.13,-0.01 0.16,-0.04 0.04,-0.03 0.04,-0.11 0.04,-0.17l0 -6.98c0,-0.19 -0.1,-0.21 -0.28,-0.21l-2.53 0c-0.15,0 -0.26,0.01 -0.39,0.01l-0.37 0.03c-0.16,0.02 -0.53,0.09 -0.66,0.15 -0.05,0.03 -0.09,0.04 -0.15,0.06 -0.17,0.05 -0.57,0.29 -0.69,0.42l-0.25 0.27 -0.2 0.31c-0.07,0.12 -0.02,0.01 -0.11,0.2 -0.08,0.17 -0.06,0.08 -0.11,0.29 -0.02,0.06 -0.03,0.11 -0.06,0.16 -0.05,0.1 -0.06,0.19 -0.08,0.32 -0.02,0.11 -0.06,0.22 -0.07,0.34 -0.03,0.24 -0.06,0.5 -0.06,0.76z"/>
    <path class="fil1" d="M90.76 46.94l0 6.87c0,0.05 0.01,0.15 0.02,0.2 0.01,0.05 0.07,0.09 0.13,0.09l1.46 0c0.14,0 0.17,-0.12 0.17,-0.23 0.01,-0.16 0,-1.04 0,-1.25l0 -4.55c-0,-0.08 -0.02,-0.27 0.15,-0.27l1.29 0c0.47,0 0.76,0.35 0.9,0.75 0.18,0.54 0.1,0.52 0.17,1.01 0.03,0.22 0.01,3.21 0.01,3.77 0,0.16 0,0.31 0,0.47 -0,0.17 0.01,0.29 0.19,0.29l1.41 0c0.11,0 0.15,-0.06 0.15,-0.16l0 -4.06c0,-0.22 -0.01,-0.56 -0.05,-0.74l-0.07 -0.33c-0.01,-0.05 -0.02,-0.11 -0.04,-0.17 -0.02,-0.05 -0.03,-0.1 -0.05,-0.15 -0.02,-0.05 -0.04,-0.09 -0.06,-0.15 -0.02,-0.07 -0.02,-0.08 -0.06,-0.14 -0.07,-0.11 -0.25,-0.51 -0.38,-0.62l-0.31 -0.29c-0.2,-0.2 -0.52,-0.31 -0.79,-0.42 -0.35,-0.14 -1.05,-0.18 -1.43,-0.18l-2.53 0c-0.21,0 -0.27,0.04 -0.27,0.25z"/>
    <path class="fil1" d="M85.16 49.75c0,-0.48 0.04,-0.66 0.15,-1.07l0.28 -0.52c0.03,-0.04 0.07,-0.06 0.11,-0.09 0.04,-0.03 0.07,-0.06 0.12,-0.08 0.31,-0.19 0.51,-0.18 0.87,-0.18 0.32,0 0.77,0.19 0.92,0.48 0.03,0.05 0.04,0.07 0.07,0.12 0.08,0.13 0.17,0.46 0.19,0.6 0.03,0.22 0.08,0.46 0.08,0.71 0,0.73 0.04,1.37 -0.08,2.08 -0.02,0.11 -0.04,0.24 -0.08,0.34 -0.09,0.19 -0.17,0.49 -0.4,0.64 -0.05,0.03 -0.08,0.05 -0.13,0.07 -0.29,0.2 -0.77,0.21 -1.13,0.12 -0.14,-0.04 -0.32,-0.12 -0.42,-0.2 -0.1,-0.08 -0.13,-0.14 -0.2,-0.23 -0.03,-0.04 -0.05,-0.09 -0.07,-0.13 -0.11,-0.29 -0.07,-0.09 -0.17,-0.48 -0.01,-0.05 -0.03,-0.1 -0.04,-0.16 -0.09,-0.38 -0.06,-1.56 -0.06,-2.01zm-1.77 0.24c0,0.8 -0.03,1.17 0.12,1.94l0.14 0.45c0.02,0.04 0.04,0.09 0.07,0.14 0.02,0.04 0.03,0.08 0.06,0.13l0.23 0.36c0.12,0.18 0.26,0.28 0.39,0.4 0.13,0.13 0.31,0.24 0.47,0.3 0.05,0.02 0.11,0.07 0.27,0.13 0.16,0.06 0.1,0.05 0.29,0.1 0.11,0.03 0.21,0.04 0.32,0.07 0.45,0.1 1.25,0.1 1.7,-0.01 0.1,-0.03 0.2,-0.04 0.31,-0.07 0.1,-0.03 0.18,-0.07 0.28,-0.11l0.38 -0.18c0.08,-0.05 0.15,-0.11 0.22,-0.17 0.09,-0.07 0.43,-0.39 0.48,-0.49 0.02,-0.04 0.04,-0.08 0.06,-0.12 0.07,-0.1 0.17,-0.26 0.21,-0.38 0.04,-0.1 0.08,-0.17 0.11,-0.28 0.07,-0.23 0.11,-0.38 0.15,-0.62 0.08,-0.56 0.06,-1.15 0.06,-1.72l-0.07 -0.72c-0.02,-0.13 -0.05,-0.22 -0.08,-0.32 -0.03,-0.12 -0.05,-0.2 -0.09,-0.31 -0.02,-0.06 -0.04,-0.09 -0.06,-0.14 -0.02,-0.05 -0.03,-0.09 -0.06,-0.15l-0.15 -0.25c-0.07,-0.08 -0.13,-0.22 -0.25,-0.36l-0.2 -0.19c-0.09,-0.08 -0.23,-0.22 -0.33,-0.27 -0.06,-0.03 -0.07,-0.05 -0.12,-0.08l-0.72 -0.28c-0.1,-0.02 -0.23,-0.04 -0.34,-0.07 -0.31,-0.06 -0.31,-0.04 -0.55,-0.05 -0.07,-0 -0.1,-0.02 -0.19,-0.01 -0.3,0.03 -0.32,0 -0.72,0.07 -0.12,0.02 -0.23,0.04 -0.33,0.07 -0.11,0.02 -0.2,0.06 -0.3,0.1 -0.26,0.09 -0.34,0.16 -0.54,0.27 -0.06,0.03 -0.06,0.05 -0.11,0.09l-0.42 0.39c-0.16,0.2 -0.35,0.52 -0.44,0.77 -0.02,0.05 -0.03,0.1 -0.05,0.16 -0.04,0.12 -0.07,0.17 -0.09,0.31 -0.07,0.43 -0.11,0.61 -0.11,1.09z"/>
    <path class="fil1" d="M57.37 46.79c0,0.29 -0.03,0.77 0.05,1.04 0.04,0.12 0.06,0.27 0.1,0.38 0.02,0.06 0.05,0.1 0.07,0.16 0.05,0.12 0.1,0.21 0.16,0.32 0.04,0.07 0.25,0.36 0.3,0.41 0.12,0.11 0.25,0.22 0.39,0.32 0.05,0.04 0.08,0.07 0.14,0.1 0.14,0.06 0.18,0.09 0.34,0.14 0.06,0.02 0.1,0.05 0.16,0.06 0.06,0.02 0.14,0.03 0.2,0.04l0.64 0.07c0.2,0.02 0.46,0.02 0.64,0.08 0.04,0.01 0.29,0.13 0.32,0.15l0.18 0.18 0.14 0.21c0.21,0.37 0.15,0.85 0.15,1.27 0,0.26 -0.06,0.48 -0.16,0.67l-0.13 0.21c-0.07,0.1 -0.08,0.09 -0.16,0.17 -0.04,0.04 -0.06,0.04 -0.11,0.07 -0.04,0.02 -0.06,0.04 -0.1,0.06 -0.21,0.12 -0.43,0.13 -0.71,0.13 -0.2,0 -2.03,-0.02 -2.16,0.01 -0.03,0.01 -0.04,0.01 -0.05,0.03 -0.09,0.06 -0.07,0.25 -0.07,0.36 0,0.17 -0.02,0.42 0.03,0.58 0.02,0.07 0.1,0.09 0.19,0.09l3 0c0.46,0 0.86,-0.17 1.23,-0.42 0.05,-0.04 0.03,-0.04 0.08,-0.08 0.03,-0.03 0.05,-0.03 0.08,-0.06l0.15 -0.16c0.07,-0.09 0.14,-0.16 0.2,-0.26 0.08,-0.13 0.14,-0.27 0.21,-0.4 0.07,-0.13 0.19,-0.57 0.2,-0.71 0.02,-0.44 0.07,-1.24 -0.02,-1.66 -0.02,-0.08 -0.04,-0.13 -0.06,-0.2 -0.06,-0.18 -0.11,-0.36 -0.21,-0.53 -0.12,-0.2 -0.23,-0.41 -0.41,-0.57 -0.04,-0.04 -0.08,-0.08 -0.13,-0.13 -0.1,-0.1 -0.31,-0.24 -0.44,-0.3 -0.06,-0.03 -0.13,-0.04 -0.19,-0.06 -0.07,-0.02 -0.1,-0.05 -0.18,-0.06 -0.21,-0.04 -0.45,-0.03 -0.67,-0.07 -0.29,-0.04 -0.62,-0.05 -0.9,-0.09 -0.16,-0.03 -0.37,-0.13 -0.48,-0.26 -0.13,-0.14 -0.23,-0.29 -0.28,-0.47 -0.04,-0.13 -0.1,-0.23 -0.1,-0.4 0,-0.56 -0.03,-0.45 0.1,-0.99 0.02,-0.09 0.05,-0.14 0.1,-0.21 0.05,-0.07 0.08,-0.12 0.14,-0.18 0.05,-0.05 0.1,-0.11 0.16,-0.15l0.21 -0.11c0.1,-0.03 0.43,-0.09 0.55,-0.09l1.89 0c0.49,0 0.4,-0.05 0.4,-0.82 0,-0.2 -0.06,-0.27 -0.25,-0.27l-2.48 0c-0.38,0 -0.41,0.05 -0.65,0.1 -0.12,0.02 -0.24,0.06 -0.35,0.11 -0.24,0.11 -0.11,0.02 -0.39,0.21 -0.04,0.03 -0.05,0.04 -0.08,0.06 -0.03,0.02 -0.06,0.03 -0.1,0.06 -0.13,0.12 -0.25,0.24 -0.37,0.38l-0.25 0.37 -0.14 0.33 -0.13 0.49c-0.01,0.08 -0.02,0.18 -0.02,0.28z"/>
    <path class="fil1" d="M75.97 45.61l0 6.52c0,0.33 0.05,0.38 0.12,0.6l0.19 0.42 0.26 0.35c0.12,0.14 0.39,0.32 0.56,0.41 0.22,0.11 0.54,0.18 0.8,0.18l1.04 0c0.05,0 0.1,-0.03 0.12,-0.06 0.06,-0.09 0.04,-0.63 0.04,-0.79 0,-0.1 -0.03,-0.16 -0.09,-0.19 -0.12,-0.06 -0.6,0.02 -0.84,-0.05 -0.32,-0.09 -0.45,-0.38 -0.45,-0.71l0 -4.34c0,-0.07 0.06,-0.13 0.13,-0.14 0.06,-0.01 1.18,-0 1.33,-0 0.19,0 0.36,-0 0.36,-0.19l0 -0.74c0,-0.15 -0.09,-0.19 -0.24,-0.19l-1.31 0c-0.33,0 -0.27,-0.07 -0.27,-0.6 0,-0.14 0.01,-0.31 -0.01,-0.43 -0.02,-0.14 -0.1,-0.18 -0.26,-0.18 -0.2,0 -1.3,-0.02 -1.41,0.02 -0.04,0.02 -0.08,0.07 -0.08,0.12z"/>
    <path class="fil1" d="M64.33 45.67l0 6.36c0,0.16 0.02,0.31 0.05,0.45 0.04,0.21 0.2,0.59 0.34,0.77 0.13,0.18 0.13,0.19 0.29,0.34l0.44 0.31c0.22,0.11 0.49,0.19 0.81,0.19l0.99 0c0.19,0 0.21,-0.1 0.21,-0.28 0,-0.14 0.03,-0.67 -0.05,-0.74 -0.11,-0.11 -0.61,0.01 -0.91,-0.09 -0.16,-0.05 -0.29,-0.16 -0.34,-0.33 -0.08,-0.25 -0.09,-0.31 -0.09,-0.58l0 -3.94c0,-0.42 0.08,-0.33 0.84,-0.33 0.12,0 0.79,0.02 0.87,-0.01 0.06,-0.02 0.13,-0.08 0.13,-0.16l0 -0.74c0,-0.14 -0.1,-0.2 -0.24,-0.2l-1.33 0c-0.32,0 -0.28,-0.08 -0.28,-0.6 0,-0.48 0.07,-0.62 -0.27,-0.62l-1.22 0c-0.15,0 -0.25,0.05 -0.25,0.2z"/>
    <path class="fil1" d="M39.97 44.64l0 9.17c0,0.16 0.02,0.28 0.19,0.28l1.39 0c0.13,0 0.15,-0.09 0.15,-0.21l0 -9.28c0,-0.14 -0.04,-0.2 -0.19,-0.2 -0.2,0 -1.27,-0.01 -1.38,0.01 -0.11,0.02 -0.16,0.09 -0.16,0.23z"/>
    <path class="fil1" d="M80.56 46.91l0 6.92c0,0.18 0.02,0.25 0.2,0.25l1.35 0c0.13,0 0.19,-0.08 0.19,-0.21l0 -6.99c0,-0.12 -0.08,-0.2 -0.2,-0.2l-1.27 0c-0.19,0 -0.27,0.03 -0.27,0.23z"/>
    <path class="fil1" d="M83.68 38.22c0,-0.1 0.03,-0.18 0.05,-0.26 0.03,-0.09 0.04,-0.14 0.09,-0.22l0.11 -0.2c0.1,-0.11 0.19,-0.22 0.32,-0.3 0.21,-0.13 0.38,-0.25 0.66,-0.25 0.43,0 0.56,0.05 0.9,0.27l0.18 0.15c0.04,0.03 0.04,0.06 0.07,0.1 0.26,0.35 0.33,0.69 0.25,1.14 -0.03,0.14 -0.12,0.33 -0.2,0.44 -0.1,0.14 -0.04,0.11 -0.14,0.18 -0.03,0.02 -0.22,0.21 -0.37,0.27 -0.16,0.07 -0.29,0.13 -0.51,0.13 -0.16,0 -0.26,0 -0.42,-0.04l-0.32 -0.14 -0.26 -0.19c-0.03,-0.03 -0.05,-0.05 -0.07,-0.09l-0.13 -0.19c-0.18,-0.29 -0.19,-0.45 -0.19,-0.79zm2.99 0.2c0,-0.25 0.01,-0.24 -0.06,-0.49 -0.03,-0.1 -0.05,-0.22 -0.09,-0.29 -0.19,-0.34 -0.18,-0.31 -0.42,-0.54 -0.1,-0.1 -0.21,-0.19 -0.34,-0.23 -0.16,-0.05 -0.3,-0.17 -0.61,-0.17 -0.27,0 -0.52,-0 -0.75,0.12 -0.07,0.03 -0.15,0.05 -0.21,0.09 -0.03,0.02 -0.04,0.04 -0.08,0.06 -0.19,0.12 -0.24,0.2 -0.4,0.37l-0.17 0.27 -0.12 0.33 -0.04 0.41c0,0.04 0.01,0.07 0.01,0.13 -0,0.1 0.01,0.19 0.03,0.28 0.02,0.08 0.05,0.14 0.08,0.21 0.04,0.1 0.09,0.21 0.15,0.3 0.03,0.05 0.04,0.05 0.07,0.09l0.48 0.43c0.04,0.02 0.07,0.03 0.1,0.04 0.15,0.05 0.09,0.08 0.34,0.12 0.07,0.01 0.31,0.05 0.39,0.04 0.17,-0.02 0.17,-0 0.42,-0.05 0.1,-0.02 0.35,-0.12 0.43,-0.18l0.4 -0.35c0.07,-0.07 0.14,-0.18 0.18,-0.27 0.14,-0.29 0.08,-0.13 0.17,-0.45 0.02,-0.08 0.04,-0.17 0.04,-0.27z"/>
    <path class="fil1" d="M80.56 44.64l0 1.04c0,0.17 0.11,0.2 0.25,0.2l1.3 0c0.08,0 0.19,-0.09 0.19,-0.17l0 -1.11c0,-0.12 -0.08,-0.2 -0.2,-0.2 -0.2,0 -1.29,-0.01 -1.4,0.01 -0.11,0.02 -0.14,0.06 -0.14,0.23z"/>
    <path class="fil1" d="M84.66 37.86c0,-0.12 0.06,-0.16 0.17,-0.16 0.21,0 0.37,-0.03 0.52,0.07 0.05,0.03 0.07,0.1 0.07,0.17 0,0.21 -0.2,0.23 -0.37,0.23 -0.4,0 -0.39,0.02 -0.39,-0.31zm1 0.47c0,-0.09 0.23,-0.35 0.09,-0.64 -0.02,-0.03 -0.06,-0.1 -0.08,-0.13 -0.06,-0.09 -0.26,-0.19 -0.42,-0.19l-0.78 0c-0.05,0 -0.13,0.03 -0.15,0.05 -0.03,0.03 -0.04,0.1 -0.04,0.15l0 1.47c0,0.2 0.36,0.3 0.36,-0.05 0,-0.22 -0.05,-0.47 0.09,-0.5 0.14,-0.02 0.45,-0.03 0.55,0.03 0.16,0.09 0.09,0.38 0.13,0.56 0.02,0.1 0.12,0.15 0.19,0.15 0.28,0 0.18,-0.16 0.16,-0.28 -0.01,-0.05 -0.01,-0.08 -0.02,-0.13 -0.01,-0.43 -0.11,-0.42 -0.11,-0.5z"/>
   </g>
  </g>
 </g>
</svg>
