<?xml version="1.0" encoding="UTF-8"?>
<!DOCTYPE svg PUBLIC "-//W3C//DTD SVG 1.1//EN" "http://www.w3.org/Graphics/SVG/1.1/DTD/svg11.dtd">
<!-- Creator: CorelDRAW 2020 (64-Bit) -->
<svg xmlns="http://www.w3.org/2000/svg" xml:space="preserve" width="60mm" height="30mm" version="1.1" style="shape-rendering:geometricPrecision; text-rendering:geometricPrecision; image-rendering:optimizeQuality; fill-rule:evenodd; clip-rule:evenodd"
viewBox="0 0 143.87 71.93"
 xmlns:xlink="http://www.w3.org/1999/xlink"
 xmlns:xodm="http://www.corel.com/coreldraw/odm/2003">
 <defs>
  <style type="text/css">
   <![CDATA[
    .fil2 {fill:#EC098D}
    .fil1 {fill:white}
    .fil0 {fill:url(#id0)}
   ]]>
  </style>
  <linearGradient id="id0" gradientUnits="userSpaceOnUse" x1="-0" y1="35.97" x2="143.87" y2="35.97">
   <stop offset="0" style="stop-opacity:1; stop-color:#373435"/>
   <stop offset="1" style="stop-opacity:0.847059; stop-color:#373435"/>
  </linearGradient>
 </defs>
 <g id="Layer_x0020_1">
  <metadata id="CorelCorpID_0Corel-Layer"/>
  <g id="_2634769879104">
   <rect class="fil0" width="143.87" height="71.93" rx="11.33" ry="14.84"/>
   <g>
    <path class="fil1" d="M59.54 16.64c0.23,0.12 0.5,0.21 0.75,0.34 1.18,0.6 2.25,1.35 3.28,2.17 0.4,0.31 0.81,0.66 1.17,1.01 0.2,0.2 0.37,0.33 0.57,0.53l2.14 2.22c0.19,0.18 0.33,0.39 0.5,0.59 0.17,0.19 0.33,0.4 0.49,0.6 0.63,0.85 0.48,0.78 -0.26,1.7 -0.1,0.12 -0.17,0.19 -0.26,0.31 -0.1,0.12 -0.14,0.17 -0.24,0.29l-0.52 0.57c-0.6,0.68 -1.24,1.32 -1.88,1.96 -1.31,1.31 -3.38,2.91 -5,3.72 -0.26,0.13 -0.51,0.22 -0.75,0.34l0 4.93c2.8,-0.65 5.08,-2.23 7,-3.78 0.13,-0.1 0.24,-0.18 0.36,-0.29 0.85,-0.74 1.67,-1.46 2.46,-2.26l2.25 -2.48c0.1,-0.13 0.19,-0.27 0.33,-0.36l0.89 1.08c0.45,0.56 0.97,1.05 1.44,1.59l1.55 1.47c0.13,0.13 0.22,0.18 0.34,0.3 0.34,0.34 0.74,0.64 1.12,0.94 1.53,1.21 3.14,2.38 4.97,3.1 0.48,0.19 0.98,0.39 1.49,0.53 0.16,0.05 0.39,0.13 0.54,0.14l0 -4.97c-0.72,-0.17 -2.16,-1.08 -2.78,-1.54 -0.22,-0.16 -0.42,-0.29 -0.64,-0.46 -0.21,-0.17 -0.41,-0.31 -0.61,-0.48 -0.1,-0.09 -0.19,-0.15 -0.28,-0.24l-3.94 -3.94c-0.23,-0.27 -1.04,-1.12 -1.04,-1.43 0,-0.46 0.14,-0.45 0.45,-0.84 0.4,-0.5 0.86,-0.95 1.25,-1.46l2.13 -2.19c0.41,-0.41 1,-0.88 1.46,-1.25 0.6,-0.49 1.22,-0.95 1.87,-1.36 0.23,-0.14 0.43,-0.28 0.67,-0.42 0.26,-0.16 1.18,-0.69 1.47,-0.71l0 -4.93c-0.47,0.01 -1.55,0.46 -1.98,0.64 -0.46,0.18 -0.9,0.42 -1.34,0.64l-0.85 0.48c-0.16,0.09 -0.29,0.17 -0.43,0.26 -1.94,1.28 -3.43,2.52 -5.1,4.19 -0.23,0.23 -0.43,0.44 -0.67,0.67l-0.95 1.03c-0.06,0.06 -0.1,0.1 -0.16,0.16l-0.61 0.72c-0.1,0.11 -0.11,0.07 -0.15,0.22 -0.21,-0.02 -0.56,-0.46 -0.72,-0.62l-3.71 -3.68c-0.71,-0.71 -1.81,-1.54 -2.6,-2.12 -0.64,-0.47 -1.36,-0.91 -2.08,-1.27 -1.1,-0.54 -2.17,-1.07 -3.41,-1.36l0 4.97z"/>
    <path class="fil1" d="M53.65 56.74l-4.28 0 0 -3.72c1.08,0 4.72,-0.09 5.55,0.1 0.72,0.17 1.52,0.64 1.52,1.51 0,0.54 0.05,0.82 -0.29,1.28 -0.5,0.68 -1.59,0.82 -2.49,0.82zm-0.48 -6.91l-3.8 0 0 -3.55 3.92 0c2.59,0 2.68,2.37 1.52,3.13 -0.37,0.24 -1.05,0.42 -1.64,0.42zm-7.51 -4.89l0 13.04c0,1.19 0.81,2.06 1.78,2.06l6.82 0c0.83,0 1.68,-0.15 2.34,-0.32 2.24,-0.59 3.63,-2.08 3.63,-4.44 0,-0.57 -0.09,-1.13 -0.25,-1.56 -0.16,-0.42 -0.34,-0.82 -0.66,-1.15 -0.31,-0.32 -0.6,-0.6 -0.98,-0.84 -0.26,-0.16 -0.94,-0.54 -1.25,-0.61 0.07,-0.1 0.28,-0.21 0.4,-0.29 0.16,-0.11 0.24,-0.17 0.39,-0.29 0.28,-0.22 0.47,-0.45 0.68,-0.73 0.92,-1.21 0.95,-3.35 0.14,-4.61 -1.06,-1.65 -2.98,-2.27 -5.16,-2.27l-5.86 0c-1.18,0 -2.02,0.84 -2.02,2.02z"/>
    <path class="fil1" d="M95.49 53.39l-5.8 -7.6c-0.51,-0.69 -1.59,-2.23 -2.26,-2.66 -0.75,-0.48 -3.4,-0.66 -3.4,1.83l0 13.25c0,0.3 0.06,0.59 0.14,0.82 0.55,1.6 3.09,1.61 3.55,-0.2 0.14,-0.53 0.06,-2.41 0.06,-3.13 0,-2.14 0,-4.28 0,-6.42 0.14,0.1 2.46,3.17 2.76,3.58l3.3 4.33c0.58,0.77 1.32,1.83 2,2.48 0.67,0.64 2.04,0.71 2.79,0.02 0.28,-0.26 0.62,-0.76 0.62,-1.28l0 -13.85c0,-0.87 -0.86,-1.74 -1.7,-1.74 -0.55,0 -0.97,0.05 -1.4,0.45 -0.28,0.26 -0.46,0.53 -0.58,0.95 -0.14,0.5 -0.07,2.27 -0.07,3 0,2.06 0,4.12 0,6.18z"/>
    <path class="fil1" d="M66.49 51.49c0,-1.06 0.31,-2.21 0.83,-3.01 0.86,-1.3 2.22,-2.33 4.1,-2.33 1.68,0 2.75,0.43 3.87,1.54 0.72,0.72 1.46,2.12 1.46,3.54l0 0.57c0,1.78 -0.99,3.28 -2.16,4.14 -1.66,1.2 -4.27,1.2 -5.9,-0.03 -0.12,-0.09 -0.25,-0.18 -0.36,-0.28 -1.04,-0.96 -1.83,-2.3 -1.83,-4.15zm-3.96 -0.2c0,1.44 0.11,2.03 0.52,3.28 0.52,1.56 1.57,2.9 2.81,3.89 3.62,2.85 9.52,2.47 12.63,-1.06 0.08,-0.09 0.1,-0.13 0.18,-0.22l0.7 -0.96c0.06,-0.09 0.11,-0.16 0.17,-0.27 1.17,-2.12 1.5,-4.45 0.88,-6.84 -0.1,-0.38 -0.29,-0.93 -0.44,-1.25 -0.17,-0.36 -0.35,-0.74 -0.57,-1.08 -0.56,-0.88 -1.16,-1.55 -1.97,-2.19 -1.64,-1.31 -3.69,-1.93 -5.9,-1.93 -2.26,0 -4.04,0.73 -5.71,1.97 -0.14,0.1 -0.19,0.16 -0.31,0.26 -0.13,0.11 -0.18,0.14 -0.3,0.27 -0.19,0.19 -0.36,0.34 -0.53,0.56 -0.65,0.84 -0.71,0.79 -1.32,2 -0.42,0.84 -0.85,2.33 -0.85,3.59z"/>
    <path class="fil2" d="M89.67 16.39c0,0.17 0.43,0.24 0.59,0.3 0.82,0.31 1.64,0.78 2.31,1.33 2.98,2.44 4.13,6.29 2.75,10 -0.71,1.91 -2.07,3.42 -3.78,4.46 -0.42,0.25 -1.12,0.58 -1.58,0.72 -0.11,0.03 -0.29,0.06 -0.29,0.2l0 4.48c0,0.18 0.19,0.08 0.49,0.01 0.22,-0.05 0.4,-0.09 0.61,-0.16 1.47,-0.43 2.35,-0.85 3.61,-1.64l0.9 -0.63c0.15,-0.11 0.29,-0.22 0.43,-0.34l0.79 -0.71c0.13,-0.14 0.26,-0.25 0.38,-0.38 1.09,-1.18 2.08,-2.65 2.68,-4.15 1.32,-3.33 1.36,-6.76 0.04,-10.1 -0.38,-0.95 -0.77,-1.64 -1.29,-2.46 -1.43,-2.24 -3.82,-4.08 -6.28,-5.07 -0.47,-0.19 -1.9,-0.66 -2.36,-0.67l0 4.81z"/>
    <path class="fil2" d="M54.17 33.27c-0.53,-0.04 -2.07,-0.9 -2.45,-1.18l-0.75 -0.58c-0.39,-0.38 -0.45,-0.37 -0.91,-0.91 -0.08,-0.09 -0.15,-0.18 -0.21,-0.27 -1.15,-1.48 -1.58,-2.73 -1.84,-4.54l-0.06 -0.87 0.17 -1.65c0.4,-1.95 1.21,-3.37 2.57,-4.74l0.48 -0.41c0.46,-0.36 0.82,-0.64 1.35,-0.91l0.62 -0.31c0.23,-0.11 0.82,-0.36 1.04,-0.38l0 -4.93c-0.92,0.02 -3.26,1.01 -4.18,1.56 -3.01,1.82 -5.2,4.48 -6.18,7.92 -1.63,5.74 0.62,11.67 5.49,14.94 0.17,0.12 0.32,0.21 0.49,0.31 0.19,0.12 0.35,0.19 0.54,0.31 1.01,0.61 2.48,1.06 3.64,1.34 0.24,0.06 0.19,0.04 0.19,-0.52l0 -4.16z"/>
   </g>
  </g>
 </g>
</svg>
