<?xml version="1.0" encoding="UTF-8"?>
<!DOCTYPE svg PUBLIC "-//W3C//DTD SVG 1.1//EN" "http://www.w3.org/Graphics/SVG/1.1/DTD/svg11.dtd">
<!-- Creator: CorelDRAW 2020 (64-Bit) -->
<svg xmlns="http://www.w3.org/2000/svg" xml:space="preserve" width="60mm" height="30mm" version="1.1" style="shape-rendering:geometricPrecision; text-rendering:geometricPrecision; image-rendering:optimizeQuality; fill-rule:evenodd; clip-rule:evenodd"
viewBox="0 0 184.05 92.02"
 xmlns:xlink="http://www.w3.org/1999/xlink"
 xmlns:xodm="http://www.corel.com/coreldraw/odm/2003">
 <defs>
  <style type="text/css">
   <![CDATA[
    .fil2 {fill:#EA3639}
    .fil1 {fill:#FEFEFE;fill-rule:nonzero}
    .fil3 {fill:#FFCC29;fill-rule:nonzero}
    .fil0 {fill:url(#id0)}
   ]]>
  </style>
  <linearGradient id="id0" gradientUnits="userSpaceOnUse" x1="-0" y1="46.01" x2="184.05" y2="46.01">
   <stop offset="0" style="stop-opacity:1; stop-color:#282828"/>
   <stop offset="1" style="stop-opacity:0.8; stop-color:#282828"/>
  </linearGradient>
 </defs>
 <g id="Layer_x0020_1">
  <metadata id="CorelCorpID_0Corel-Layer"/>
  <g id="_2634514065984">
   <rect class="fil0" width="184.05" height="92.02" rx="14.49" ry="18.98"/>
   <g>
    <path class="fil1" d="M69.19 58.19l1.27 0 0.79 0 0 0.79 0 9.65 8.4 0 0.79 0 0 0.79 0 1.21 0 0.79 -0.79 0 -10.46 0 -0.79 0 0 -0.79 0 -11.64 0 -0.79 0.79 0zm34.8 0l10.86 0 0.78 0 0 0.79 0 1.21 0 0.79 -0.78 0 -8.8 0 0 2.27 8.5 0 0.79 0 0 0.78 0 1.21 0 0.78 -0.79 0 -8.5 0 0 2.62 8.8 0 0.78 0 0 0.79 0 1.21 0 0.79 -0.78 0 -10.86 0 -0.79 0 0 -0.79 0 -11.64 0 -0.79 0.79 0zm-15.27 0.42l5.08 9.37 5.1 -9.38 0.22 -0.41 0.47 -0 1.45 -0 1.32 -0 -0.63 1.16 -6.33 11.65 -0.22 0.41 -0.46 0 -1.79 0 -0.46 0 -0.22 -0.41 -6.33 -11.65 -0.63 -1.16 1.32 0 1.45 0 0.47 0 0.22 0.41zm-7.23 12.01l0 -11.64 0 -0.79 0.79 0 1.27 0 0.79 0 0 0.79 0 11.64 0 0.79 -0.79 0 -1.27 0 -0.79 0 0 -0.79z"/>
    <path class="fil2" d="M68.45 9.85l16.35 0c2.32,3.54 4.73,7.08 7.19,10.62 2.46,-3.54 4.87,-7.08 7.19,-10.62l16.35 0c-4.85,7.41 -10.1,14.82 -15.36,22.22 5.25,7.4 10.51,14.81 15.36,22.21l-16.36 0c-2.32,-3.53 -4.73,-7.07 -7.18,-10.6 -2.46,3.53 -4.87,7.07 -7.18,10.6l-16.36 0c4.85,-7.4 10.1,-14.81 15.36,-22.21 -5.26,-7.41 -10.51,-14.82 -15.36,-22.22z"/>
    <path class="fil3" d="M70.9 80.78c0.71,0 1.27,-0.19 1.69,-0.58 0.42,-0.39 0.64,-0.91 0.64,-1.56 0,-0.65 -0.21,-1.17 -0.64,-1.56 -0.42,-0.39 -0.99,-0.58 -1.69,-0.58l-1.12 0 0 4.28 1.12 0zm0 -5.52c1.12,0 2.01,0.31 2.69,0.93 0.68,0.62 1.02,1.44 1.02,2.45 0,1.01 -0.34,1.82 -1.02,2.45 -0.68,0.62 -1.58,0.93 -2.69,0.93l-2.49 0 0 -6.76 2.49 0z"/>
    <path class="fil3" d="M81.33 80.25c0.42,-0.42 0.63,-0.95 0.63,-1.59 0,-0.64 -0.21,-1.17 -0.63,-1.6 -0.42,-0.43 -0.94,-0.65 -1.55,-0.65 -0.61,0 -1.13,0.22 -1.55,0.65 -0.42,0.43 -0.63,0.97 -0.63,1.6 0,0.64 0.21,1.17 0.63,1.59 0.42,0.42 0.94,0.64 1.55,0.64 0.61,0 1.13,-0.21 1.55,-0.64zm0.98 -4.11c0.69,0.69 1.03,1.52 1.03,2.51 0,0.98 -0.34,1.81 -1.03,2.5 -0.69,0.68 -1.53,1.02 -2.53,1.02 -1,0 -1.84,-0.34 -2.53,-1.02 -0.69,-0.68 -1.03,-1.52 -1.03,-2.5 0,-0.99 0.34,-1.83 1.03,-2.51 0.69,-0.69 1.53,-1.03 2.53,-1.03 1,0 1.84,0.34 2.53,1.03z"/>
    <path class="fil3" d="M88.4 78.57c0.36,0 0.64,-0.09 0.84,-0.28 0.2,-0.19 0.3,-0.44 0.3,-0.76 0,-0.31 -0.1,-0.56 -0.3,-0.75 -0.2,-0.19 -0.48,-0.28 -0.84,-0.28l-1.78 0 0 2.07 1.78 0zm0 -3.31c0.77,0 1.38,0.21 1.83,0.62 0.45,0.41 0.68,0.96 0.68,1.65 0,0.69 -0.22,1.25 -0.67,1.66 -0.45,0.41 -1.06,0.62 -1.83,0.62l-1.78 0 0 2.21 -1.37 0 0 -6.76 3.15 0z"/>
    <path class="fil3" d="M98.58 79c0,0.95 -0.27,1.72 -0.8,2.3 -0.53,0.59 -1.23,0.88 -2.11,0.88 -0.89,0 -1.61,-0.29 -2.16,-0.88 -0.55,-0.58 -0.82,-1.35 -0.82,-2.3l0 -3.73 1.37 0 0 3.73c0,0.56 0.15,1.02 0.44,1.36 0.29,0.34 0.68,0.51 1.17,0.51 0.46,0 0.83,-0.17 1.11,-0.51 0.28,-0.34 0.42,-0.79 0.42,-1.36l0 -3.73 1.37 0 0 3.73z"/>
    <polygon class="fil3" points="106.99,82.02 105.84,82.02 102.1,77.68 102.1,82.02 100.73,82.02 100.73,75.26 101.88,75.26 105.62,79.72 105.62,75.26 106.99,75.26 "/>
    <path class="fil3" d="M112.01 76.93l-0.99 2.41 1.97 0 -0.98 -2.41zm2.08 5.1l-0.59 -1.44 -2.99 0 -0.6 1.44 -1.48 0 2.93 -6.76 1.28 0 2.93 6.76 -1.48 0z"/>
   </g>
  </g>
 </g>
</svg>
